M48
METRIC,0000.00
T01C0.4
T02C0.9
T03C1.0
T04C1.2
T05C1.5
T06C4.5
%
T01
X+003430Y+006070
X+003550Y+006100
X+003820Y+006010
X+004090Y+005850
X+004250Y+006000
X+004350Y+005710
X+004740Y+005640
X+004740Y+005850
X+004740Y+006050
X+004430Y+006290
X+003940Y+005670
X+003780Y+005480
X+003720Y+005370
X+003890Y+005380
X+003780Y+005200
X+003470Y+005280
X+003180Y+005040
X+003230Y+004850
X+003350Y+004740
X+003580Y+004320
X+003360Y+004160
X+003020Y+003750
X+003270Y+003460
X+003640Y+003030
X+003720Y+003030
X+003800Y+003030
X+003940Y+003060
X+004020Y+003190
X+004130Y+003300
X+004380Y+003400
X+004560Y+003550
X+004470Y+003640
X+004670Y+003060
X+004960Y+002740
X+004960Y+002590
X+004950Y+002290
X+005090Y+002010
X+005400Y+002290
X+005680Y+001970
X+005200Y+001550
X+004900Y+001630
X+004510Y+001990
X+004390Y+001990
X+004390Y+002230
X+004510Y+002230
X+004120Y+002320
X+003910Y+002270
X+004100Y+002540
X+004120Y+001970
X+004240Y+001540
X+004460Y+001180
X+004040Y+001120
X+003710Y+001090
X+003590Y+001100
X+003280Y+001150
X+003280Y+001400
X+003170Y+001400
X+003280Y+001650
X+003170Y+001940
X+002850Y+002000
X+002770Y+002000
X+002690Y+002000
X+002380Y+001870
X+002380Y+001540
X+002960Y+002360
X+002960Y+002440
X+002960Y+002520
X+002970Y+002660
X+003070Y+002880
X+002290Y+003480
X+002210Y+003480
X+002000Y+003480
X+001740Y+003480
X+001800Y+004050
X+001680Y+004460
X+001920Y+004620
X+002030Y+004700
X+002250Y+004700
X+002470Y+004620
X+002460Y+004830
X+002800Y+005190
X+002880Y+005300
X+003060Y+005400
X+003060Y+005510
X+002950Y+005630
X+002810Y+005610
X+002720Y+005840
X+002720Y+006180
X+002250Y+005930
X+001920Y+005410
X+001560Y+005230
X+001300Y+004750
X+001180Y+004260
X+001190Y+003290
X+001860Y+002520
X+002700Y+004050
X+002830Y+004500
X+003860Y+004820
X+004100Y+004740
X+004230Y+005000
X+004470Y+005080
X+004470Y+004740
X+005130Y+004320
X+005130Y+004210
X+005200Y+003980
X+005170Y+003840
X+005150Y+003700
X+005140Y+003410
X+005150Y+003030
X+005440Y+002890
X+005750Y+002890
X+005950Y+002590
X+005500Y+003200
X+005740Y+003440
X+005580Y+003670
X+005760Y+003980
X+005970Y+004330
X+006340Y+004420
X+006370Y+004140
X+006240Y+003350
X+005570Y+004360
X+005110Y+005230
X+005300Y+005330
X+005570Y+005560
X+005240Y+005750
X+005910Y+005310
X+003470Y+005680
X+003190Y+005850
X+003600Y+001670
X+003600Y+001490
T02
X+003372Y+006330
X+003624Y+006330
X+003880Y+006330
X+004134Y+006330
T03
X+002770Y+001430
X+002770Y+002827
X+004625Y+002827
X+004625Y+001430
T04
X+001160Y+003890
X+001160Y+003610
X+002100Y+002766
X+002100Y+002512
X+002100Y+002258
X+002100Y+002004
X+002100Y+001750
T05
X+001740Y+002772
X+001740Y+002264
T06
X+003750Y+003750
T00
M30
