G04 DipTrace 3.3.1.1*
G04 Bottom.gbr*
%MOMM*%
G04 #@! TF.FileFunction,Copper,L4,Bot*
G04 #@! TF.Part,Single*
G04 #@! TA.AperFunction,Conductor*
%ADD13C,0.2*%
%ADD14C,0.3*%
%ADD15C,1.0*%
%ADD17C,0.5*%
%ADD18C,0.6*%
G04 #@! TA.AperFunction,ViaPad*
%ADD19C,0.8*%
G04 #@! TA.AperFunction,Conductor*
%ADD20C,0.4*%
G04 #@! TA.AperFunction,CopperBalancing*
%ADD21C,0.1*%
%ADD24R,1.7X3.0*%
%ADD25C,4.0*%
%ADD27R,1.1X1.0*%
%ADD28R,1.0X1.1*%
%ADD31R,0.8X0.6*%
%ADD37C,2.0*%
G04 #@! TA.AperFunction,ComponentPad*
%ADD38R,2.0X2.0*%
%ADD40R,1.05X0.75*%
%ADD44R,0.6X0.85*%
G04 #@! TA.AperFunction,ComponentPad*
%ADD50C,2.2*%
%ADD51C,2.4*%
G04 #@! TA.AperFunction,ViaPad*
%ADD54C,9.0*%
%ADD56C,1.3*%
%FSLAX35Y35*%
G04*
G71*
G90*
G75*
G01*
G04 Bottom*
%LPD*%
X4625000Y1684000D2*
D15*
Y1430000D1*
X2770000Y1684000D2*
Y1430000D1*
X2210000Y3480000D2*
D13*
Y3292000D1*
X2252000Y3250000D1*
X2290000Y3480000D2*
Y3288000D1*
X2252000Y3250000D1*
X3440000Y3280000D2*
D18*
X3270000D1*
Y3460000D2*
Y3280000D1*
X1740000Y3480000D2*
D13*
Y3254000D1*
X1744000Y3250000D1*
X5110000Y5950000D2*
D14*
Y5750000D1*
Y5540000D2*
Y5750000D1*
X1920000Y5410000D2*
D17*
X2050000D1*
X3020000Y5840000D2*
D13*
X3180000D1*
X3190000Y5850000D1*
Y6010000D2*
Y5850000D1*
X4510000Y1990000D2*
D19*
X4840000D1*
X5280000Y2430000D1*
Y2570000D1*
X4960000Y2590000D2*
X4980000Y2570000D1*
X5120000D1*
X5280000D2*
X5120000D1*
X5440000D2*
D13*
X5280000D1*
X5600000D2*
X5440000D1*
X5110000Y5750000D2*
D14*
X5240000D1*
X3470000Y5680000D2*
X3560000D1*
X3600000Y5720000D1*
Y5800000D1*
Y5960000D2*
Y5800000D1*
X3940000Y5670000D2*
Y5580000D1*
X3980000Y5540000D1*
X4070000D1*
X4240000D2*
X4070000D1*
X3340000Y5330000D2*
X3420000D1*
X3470000Y5280000D1*
X3180000Y5330000D2*
X3340000D1*
X3780000Y5200000D2*
X3970000D1*
X4000000Y5170000D1*
Y5090000D1*
Y4930000D2*
Y5090000D1*
X4520000Y5750000D2*
Y5540000D1*
Y5950000D2*
Y5750000D1*
Y5950000D2*
Y6050000D1*
X4600000Y6130000D1*
X4800000D1*
X4870000Y6060000D1*
X5080000D1*
X5110000Y6030000D1*
Y5950000D1*
X2770000Y2827000D2*
D15*
Y2573000D1*
X2506000Y3250000D2*
Y2954000D1*
X2620000Y2840000D1*
X2757000D1*
X2770000Y2827000D1*
X2760000Y3250000D2*
D20*
Y3050000D1*
X2820000Y2990000D1*
X3400000D1*
X3440000Y3030000D1*
Y3110000D1*
X1160000Y3610000D2*
D15*
Y3660000D1*
X2580000D1*
X2760000Y3480000D1*
Y3250000D1*
X3014000D2*
D20*
Y3186000D1*
X3070000Y3130000D1*
X3270000D1*
Y3110000D1*
X1160000Y3890000D2*
D15*
Y3850000D1*
X2640000D1*
X3010000Y3480000D1*
Y3254000D1*
X3014000Y3250000D1*
X4625000Y2573000D2*
Y2827000D1*
X4070000Y5710000D2*
D14*
X4240000D1*
X4350000D2*
X4240000D1*
X3430000Y6070000D2*
Y5960000D1*
Y5800000D2*
Y5960000D1*
X3830000Y5090000D2*
Y4930000D1*
Y4850000D1*
X3860000Y4820000D1*
X3180000Y5160000D2*
Y5040000D1*
X3340000Y5160000D2*
X3180000D1*
X4510000Y2230000D2*
D19*
X4670000D1*
X4830000Y2390000D1*
Y2800000D1*
X4910000Y2880000D1*
X5240000D1*
X5280000Y2840000D1*
Y2740000D1*
X5120000D1*
X4960000D2*
X5120000D1*
X2370000Y5570000D2*
D17*
X2530000D1*
X2540000Y5580000D1*
X2780000D1*
X2810000Y5610000D1*
X4740000Y5540000D2*
D13*
X4940000D1*
Y5350000D2*
Y5540000D1*
X4740000D2*
Y5640000D1*
X4574993Y4410000D2*
X4390000D1*
X4574993D2*
Y4474993D1*
X4595000Y4495000D1*
X5155000D1*
X5350000Y4300000D1*
Y3360000D1*
X5140000Y3150000D1*
X4600000D1*
X3280000Y1830000D1*
Y1650000D1*
X5020000Y4200000D2*
Y4070000D1*
Y3930000D1*
Y3770000D2*
Y3930000D1*
X2420000Y2090000D2*
X3340000D1*
X4520000Y3270000D1*
X4920000D1*
X5020000Y3370000D1*
Y3770000D1*
X4740000Y5750000D2*
X4940000D1*
X4740000D2*
Y5850000D1*
X4770000Y4580000D2*
X4680000D1*
X4660000Y4600000D1*
Y5790000D1*
X4720000Y5850000D1*
X4740000D1*
X3280000Y1400000D2*
Y1420000D1*
X3190000Y1510000D1*
Y1840000D1*
X4560000Y3210000D1*
X5090000D1*
X5280000Y3400000D1*
Y4300000D1*
X5170000Y4410000D1*
X4954993D1*
X4770000D1*
X4740000Y5950000D2*
X4940000D1*
X4740000D2*
Y6050000D1*
X4390000Y4580000D2*
X4580000D1*
X4600000Y4600000D1*
Y5930000D1*
X4720000Y6050000D1*
X4740000D1*
X5110000Y5230000D2*
Y5350000D1*
X4640000Y4200000D2*
Y4070000D1*
Y3930000D1*
Y3770000D2*
Y3930000D1*
X2420000Y2600000D2*
Y2480000D1*
X2740000Y2160000D1*
X3310000D1*
X4640000Y3490000D1*
Y3770000D1*
X2420000Y2770000D2*
X2104000D1*
X2100000Y2766000D1*
X5440000Y2890000D2*
Y2740000D1*
X5600000D2*
X5440000D1*
X2250000Y4700000D2*
D17*
Y5290000D1*
X2220000Y5320000D1*
Y5410000D1*
D13*
X2380000D1*
X2540000D2*
X2380000D1*
X2140000Y5665000D2*
D17*
Y5600000D1*
X2220000Y5520000D1*
Y5410000D1*
X2420000Y2260000D2*
D13*
X2102000D1*
X2100000Y2258000D1*
X2370000Y5760000D2*
X2530000D1*
X2540000Y5750000D1*
X3890000Y5380000D2*
Y5500000D1*
X3830000Y5560000D1*
X3230000D1*
X3090000Y5700000D1*
X2690000D1*
X2640000Y5750000D1*
X2540000D1*
X2850000Y6180000D2*
X3020000D1*
Y6010000D2*
Y6180000D1*
X2380000Y5240000D2*
Y5315000D1*
X2390000Y5325000D1*
X2645000D1*
X2950000Y5630000D1*
X1920000Y4620000D2*
X2290000D1*
X2380000Y4710000D1*
Y5240000D1*
X2540000D2*
X2670000D1*
X3010000Y5580000D1*
X3100000D1*
X3200000Y5480000D1*
X3780000D1*
X2540000Y5240000D2*
Y4690000D1*
X2470000Y4620000D1*
X2000000Y3480000D2*
Y3252000D1*
X1998000Y3250000D1*
X2850000Y6010000D2*
Y5840000D1*
X2720000D2*
X2850000D1*
X3190000Y6180000D2*
X3650000D1*
X3820000Y6010000D1*
X4470000Y3930000D2*
Y3770000D1*
X4420000Y4070000D2*
Y4030000D1*
X4450000Y4000000D1*
Y3950000D1*
X4470000Y3930000D1*
X4509987Y4200000D2*
Y4099987D1*
X4480000Y4070000D1*
X4420000D1*
X4889987Y4200000D2*
Y4099987D1*
X4860000Y4070000D1*
X4800000D1*
X4850000Y3930000D2*
Y3770000D1*
X4800000Y4070000D2*
Y4030000D1*
X4830000Y4000000D1*
Y3950000D1*
X4850000Y3930000D1*
X4509987Y4200000D2*
Y4279987D1*
X4530000Y4300000D1*
X4870000D1*
X4890000Y4280000D1*
Y4200013D1*
X4889987Y4200000D1*
X4470000Y3640000D2*
Y3770000D1*
D54*
X3750000Y3750000D3*
D19*
X3430000Y6070000D3*
X4350000Y5710000D3*
X3860000Y4820000D3*
X3180000Y5040000D3*
X3350000Y4740000D3*
X3780000Y5200000D3*
X3580000Y4320000D3*
X4100000Y4740000D3*
X4960000Y2740000D3*
Y2590000D3*
X5440000Y2890000D3*
X6370000Y4140000D3*
X2960000Y2520000D3*
Y2440000D3*
Y2360000D3*
X2770000Y2000000D3*
X2850000D3*
X2690000D3*
X2290000Y3480000D3*
X2210000D3*
X3640000Y3030000D3*
X3720000D3*
X3800000D3*
X3600000Y1670000D3*
Y1490000D3*
X3590000Y1100000D3*
X3280000Y1650000D3*
Y1400000D3*
Y1150000D3*
X3710000Y1090000D3*
X3270000Y3460000D3*
X2000000Y3480000D3*
X1740000D3*
X4390000Y2230000D3*
X4510000D3*
X4740000Y6050000D3*
Y5850000D3*
Y5640000D3*
X3820000Y6010000D3*
X4470000Y3640000D3*
X3060000Y5400000D3*
Y5510000D3*
X3780000Y5480000D3*
X2950000Y5630000D3*
X3890000Y5380000D3*
X3470000Y5680000D3*
Y5280000D3*
X3940000Y5670000D3*
X1920000Y4620000D3*
X2250000Y4700000D3*
X2470000Y4620000D3*
X2030000Y4700000D3*
X1920000Y5410000D3*
X3190000Y5850000D3*
X2720000Y5840000D3*
Y6180000D3*
X5130000Y4320000D3*
Y4210000D3*
X2880000Y5300000D3*
X5170000Y3840000D3*
X4390000Y1990000D3*
X4510000D3*
X5240000Y5750000D3*
X2810000Y5610000D3*
X5110000Y5230000D3*
X4020000Y3190000D3*
X5950000Y2590000D3*
X3230000Y4850000D3*
D56*
X3372000Y6330000D3*
X3624000D3*
X3880000D3*
X4134000D3*
D19*
X3550000Y6100000D3*
X1860000Y2520000D3*
X5200000Y1550000D3*
X1300000Y4750000D3*
X5500000Y3200000D3*
X4670000Y3060000D3*
X3170000Y1940000D3*
X2970000Y2660000D3*
X5400000Y2290000D3*
X3910000Y2270000D3*
X5150000Y3700000D3*
X4900000Y1630000D3*
X3720000Y5370000D3*
X5140000Y3410000D3*
X5570000Y4360000D3*
X5200000Y3980000D3*
X2700000Y4050000D3*
X4090000Y5850000D3*
X5680000Y1970000D3*
X1800000Y4050000D3*
X3360000Y4160000D3*
X5970000Y4330000D3*
X4120000Y2320000D3*
X4040000Y1120000D3*
X1680000Y4460000D3*
X2830000Y4500000D3*
X3940000Y3060000D3*
X5570000Y5560000D3*
X5750000Y2890000D3*
X5740000Y3440000D3*
X4470000Y5080000D3*
X5150000Y3030000D3*
X5760000Y3980000D3*
X4950000Y2290000D3*
X4250000Y6000000D3*
X4240000Y1540000D3*
X2380000D3*
X1560000Y5230000D3*
X5090000Y2010000D3*
X2460000Y4830000D3*
X3170000Y1400000D3*
X4460000Y1180000D3*
X4120000Y1970000D3*
X3070000Y2880000D3*
X2380000Y1870000D3*
X6240000Y3350000D3*
X5580000Y3670000D3*
X5300000Y5330000D3*
X4230000Y5000000D3*
X4470000Y4740000D3*
X4430000Y6290000D3*
X3020000Y3750000D3*
X4130000Y3300000D3*
X5910000Y5310000D3*
X6340000Y4420000D3*
X1180000Y4260000D3*
X2250000Y5930000D3*
X2800000Y5190000D3*
X1190000Y3290000D3*
X4380000Y3400000D3*
X4560000Y3550000D3*
X4100000Y2540000D3*
X3521788Y6462857D2*
D21*
X3978226D1*
X3408214Y6453190D2*
X4091780D1*
X3350167Y6443523D2*
X4149847D1*
X3293780Y6433857D2*
X4206214D1*
X3237394Y6424190D2*
X3588245D1*
X3659757D2*
X3844241D1*
X3915753D2*
X4098245D1*
X4169757D2*
X4262581D1*
X3181026Y6414523D2*
X3568812D1*
X3679190D2*
X3824808D1*
X3935187D2*
X4078812D1*
X4189190D2*
X4318968D1*
X3142491Y6404857D2*
X3556097D1*
X3691905D2*
X3812093D1*
X3947901D2*
X4066097D1*
X4201905D2*
X4357503D1*
X3105362Y6395190D2*
X3546644D1*
X3701358D2*
X3802640D1*
X3957355D2*
X4056644D1*
X4211358D2*
X4394632D1*
X3068233Y6385523D2*
X3539358D1*
X3708644D2*
X3795355D1*
X3964659D2*
X4049358D1*
X4218644D2*
X4431761D1*
X3031105Y6375857D2*
X3533675D1*
X3714308D2*
X3789690D1*
X3970323D2*
X4043675D1*
X4224308D2*
X4468870D1*
X2993995Y6366190D2*
X3529358D1*
X3718644D2*
X3785355D1*
X3974659D2*
X4039358D1*
X4228644D2*
X4505999D1*
X2956866Y6356523D2*
X3526175D1*
X3721827D2*
X3782171D1*
X3977843D2*
X4036175D1*
X4231827D2*
X4543128D1*
X2928507Y6346857D2*
X3524026D1*
X3723976D2*
X3780023D1*
X3979972D2*
X4034026D1*
X4233976D2*
X4571487D1*
X2901144Y6337190D2*
X3522855D1*
X3725148D2*
X3778851D1*
X3981144D2*
X4032855D1*
X4235148D2*
X4598851D1*
X2873780Y6327523D2*
X3522640D1*
X3725362D2*
X3778636D1*
X3981378D2*
X4032640D1*
X4235362D2*
X4626214D1*
X2846437Y6317857D2*
X3523343D1*
X3724659D2*
X3779339D1*
X3980655D2*
X4033343D1*
X4234659D2*
X4653577D1*
X2819073Y6308190D2*
X3525003D1*
X3722999D2*
X3780999D1*
X3978995D2*
X4035003D1*
X4232999D2*
X4680921D1*
X2791710Y6298523D2*
X3527659D1*
X3720343D2*
X3783655D1*
X3976339D2*
X4037659D1*
X4230343D2*
X4708284D1*
X2764347Y6288857D2*
X3531409D1*
X3716573D2*
X3787425D1*
X3972589D2*
X4041409D1*
X4226573D2*
X4735648D1*
X2737003Y6279190D2*
X3536409D1*
X3711593D2*
X3792405D1*
X3967589D2*
X4046409D1*
X4221593D2*
X4763011D1*
X2715167Y6269523D2*
X2763597D1*
X2936398D2*
X3542855D1*
X3705148D2*
X3798851D1*
X3961144D2*
X4052855D1*
X4215148D2*
X4784827D1*
X2693780Y6259857D2*
X2763597D1*
X3281398D2*
X3551175D1*
X3696827D2*
X3807171D1*
X3952843D2*
X4061175D1*
X4206827D2*
X4806214D1*
X2672394Y6250190D2*
X2763597D1*
X3281398D2*
X3562093D1*
X3685909D2*
X3818089D1*
X3941905D2*
X4072093D1*
X4195909D2*
X4827601D1*
X2651007Y6240523D2*
X2763597D1*
X3281398D2*
X3577464D1*
X3670538D2*
X3833460D1*
X3926534D2*
X4087464D1*
X4180538D2*
X4848987D1*
X2629620Y6230857D2*
X2763597D1*
X3281398D2*
X3607171D1*
X3640831D2*
X3863167D1*
X3896827D2*
X4117171D1*
X4150831D2*
X4870374D1*
X2608233Y6221190D2*
X2763597D1*
X3670089D2*
X4891761D1*
X2586847Y6211523D2*
X2763597D1*
X3683683D2*
X4913148D1*
X2565480Y6201857D2*
X2763597D1*
X3693351D2*
X4934534D1*
X2544093Y6192190D2*
X2763597D1*
X3703019D2*
X4955921D1*
X2522980Y6182523D2*
X2763597D1*
X3712687D2*
X4977015D1*
X2505675Y6172857D2*
X2763597D1*
X3722355D2*
X4994319D1*
X2488370Y6163190D2*
X2763597D1*
X3732023D2*
X5011624D1*
X2471085Y6153523D2*
X2763597D1*
X3741690D2*
X5028929D1*
X2453780Y6143857D2*
X2763597D1*
X3751358D2*
X5046233D1*
X2436476Y6134190D2*
X2763597D1*
X3281398D2*
X3389437D1*
X3618194D2*
X3630608D1*
X3761007D2*
X5063538D1*
X2419171Y6124523D2*
X2763597D1*
X3281398D2*
X3376917D1*
X3622296D2*
X3640276D1*
X3770675D2*
X4727542D1*
X4752472D2*
X5080843D1*
X2401866Y6114857D2*
X2763597D1*
X3281398D2*
X3368401D1*
X3624913D2*
X3649944D1*
X3780343D2*
X4700550D1*
X4779464D2*
X5098148D1*
X2384562Y6105190D2*
X2763597D1*
X3281398D2*
X3362308D1*
X3626222D2*
X3659612D1*
X3790011D2*
X4687620D1*
X4792374D2*
X5115452D1*
X2367257Y6095523D2*
X2763597D1*
X3281398D2*
X3358050D1*
X3626261D2*
X3669280D1*
X3799679D2*
X4678890D1*
X4801105D2*
X5132757D1*
X2349952Y6085857D2*
X2763597D1*
X3111398D2*
X3355276D1*
X3625069D2*
X3678929D1*
X3809347D2*
X4672679D1*
X4807335D2*
X5150042D1*
X2332648Y6076190D2*
X2763597D1*
X3111398D2*
X3353851D1*
X3622550D2*
X3688597D1*
X3857120D2*
X4668304D1*
X4811710D2*
X5167347D1*
X2316534Y6066523D2*
X2763597D1*
X3111398D2*
X3353675D1*
X3618565D2*
X3698265D1*
X3870909D2*
X4665433D1*
X4814562D2*
X5183460D1*
X2302237Y6056857D2*
X2763597D1*
X3111398D2*
X3354749D1*
X3612843D2*
X3707933D1*
X3880069D2*
X4661644D1*
X4816085D2*
X5197757D1*
X2287940Y6047190D2*
X2763597D1*
X3111398D2*
X3357132D1*
X3604815D2*
X3717601D1*
X3886593D2*
X4651976D1*
X4816339D2*
X5212054D1*
X2273644Y6037523D2*
X2763597D1*
X3111398D2*
X3338597D1*
X3593214D2*
X3727269D1*
X3891202D2*
X4642327D1*
X4815362D2*
X5226370D1*
X2259327Y6027857D2*
X2763597D1*
X3111398D2*
X3338597D1*
X3521398D2*
X3527082D1*
X3572921D2*
X3736937D1*
X3894249D2*
X4632659D1*
X4813077D2*
X4848597D1*
X5031398D2*
X5240667D1*
X2245030Y6018190D2*
X2763597D1*
X3111398D2*
X3338597D1*
X3521398D2*
X3744046D1*
X3895948D2*
X4622991D1*
X4809366D2*
X4848597D1*
X5031398D2*
X5254964D1*
X2230733Y6008523D2*
X2763597D1*
X3111398D2*
X3338597D1*
X3521398D2*
X3743616D1*
X3896378D2*
X4613323D1*
X4816398D2*
X4848597D1*
X5031398D2*
X5269280D1*
X2216417Y5998857D2*
X2763597D1*
X3111398D2*
X3338597D1*
X3521398D2*
X3744437D1*
X3895577D2*
X4603655D1*
X4816398D2*
X4848597D1*
X5031398D2*
X5283577D1*
X2202120Y5989190D2*
X2763597D1*
X3111398D2*
X3338597D1*
X3521398D2*
X3746526D1*
X3893468D2*
X4593987D1*
X5031398D2*
X5297874D1*
X2187823Y5979523D2*
X2763597D1*
X3111398D2*
X3338597D1*
X3521398D2*
X3750042D1*
X3889972D2*
X4584319D1*
X5031398D2*
X5312171D1*
X2173526Y5969857D2*
X2763597D1*
X3111398D2*
X3338597D1*
X3521398D2*
X3755179D1*
X3884835D2*
X4574651D1*
X5031398D2*
X5326487D1*
X2159210Y5960190D2*
X2763597D1*
X3111398D2*
X3338597D1*
X3521398D2*
X3762386D1*
X3877608D2*
X4565101D1*
X5031398D2*
X5340784D1*
X2144913Y5950523D2*
X2763597D1*
X3111398D2*
X3338597D1*
X3521398D2*
X3772659D1*
X3867335D2*
X4558499D1*
X5031398D2*
X5355081D1*
X2130616Y5940857D2*
X2763597D1*
X3111398D2*
X3338597D1*
X3521398D2*
X3788929D1*
X3851065D2*
X4554925D1*
X5031398D2*
X5369378D1*
X2118644Y5931190D2*
X2763597D1*
X3111398D2*
X3338597D1*
X3521398D2*
X4553616D1*
X5031398D2*
X5381351D1*
X2106671Y5921523D2*
X2758597D1*
X2941398D2*
X3338597D1*
X3521398D2*
X4553597D1*
X5031398D2*
X5393323D1*
X2094698Y5911857D2*
X2696155D1*
X2743839D2*
X2758597D1*
X2941398D2*
X3338597D1*
X3521398D2*
X4553597D1*
X5031398D2*
X5405296D1*
X2082726Y5902190D2*
X2676370D1*
X2941398D2*
X3338597D1*
X3521398D2*
X4553597D1*
X4816398D2*
X4848597D1*
X5031398D2*
X5417269D1*
X2070753Y5892523D2*
X2664905D1*
X2941398D2*
X3338597D1*
X3521398D2*
X4553597D1*
X4816398D2*
X4848597D1*
X5031398D2*
X5429241D1*
X2058780Y5882857D2*
X2656956D1*
X2941398D2*
X3338597D1*
X3521398D2*
X4553597D1*
X4808858D2*
X4848597D1*
X5031398D2*
X5441214D1*
X2046808Y5873190D2*
X2651292D1*
X2941398D2*
X3338597D1*
X3521398D2*
X4553597D1*
X4812745D2*
X4848597D1*
X5031398D2*
X5453187D1*
X2034835Y5863523D2*
X2647366D1*
X2941398D2*
X3338597D1*
X3521398D2*
X4553597D1*
X4815187D2*
X5465159D1*
X2022862Y5853857D2*
X2644886D1*
X2941398D2*
X3338597D1*
X3521398D2*
X4553597D1*
X4816300D2*
X5477132D1*
X2010890Y5844190D2*
X2643714D1*
X2941398D2*
X3338597D1*
X3521398D2*
X4553597D1*
X4816183D2*
X5489105D1*
X1998917Y5834523D2*
X2453597D1*
X2626398D2*
X2643792D1*
X2941398D2*
X3338597D1*
X3521398D2*
X4553597D1*
X4814796D2*
X4848597D1*
X5031398D2*
X5501077D1*
X1986944Y5824857D2*
X2281097D1*
X2626398D2*
X2645140D1*
X2941398D2*
X3338597D1*
X3521398D2*
X4553597D1*
X4812081D2*
X4848597D1*
X5031398D2*
X5513050D1*
X1974972Y5815190D2*
X2281097D1*
X2626398D2*
X2647796D1*
X2941398D2*
X3338597D1*
X3521398D2*
X4553597D1*
X4816398D2*
X4848597D1*
X5031398D2*
X5525023D1*
X1962999Y5805523D2*
X2281097D1*
X2626398D2*
X2651937D1*
X2941398D2*
X3338597D1*
X3521398D2*
X4553597D1*
X4816398D2*
X4848597D1*
X5031398D2*
X5536995D1*
X1951026Y5795857D2*
X2281097D1*
X2626398D2*
X2657874D1*
X2941398D2*
X3338597D1*
X3521398D2*
X3983597D1*
X4326398D2*
X4553597D1*
X4816398D2*
X4848597D1*
X5031398D2*
X5548968D1*
X1940890Y5786190D2*
X2281097D1*
X2941398D2*
X3338597D1*
X3521398D2*
X3983597D1*
X4326398D2*
X4553597D1*
X5031398D2*
X5559105D1*
X1930812Y5776523D2*
X2281097D1*
X2941398D2*
X3338597D1*
X3521398D2*
X3983597D1*
X4386495D2*
X4553597D1*
X5031398D2*
X5569202D1*
X1920714Y5766857D2*
X2281097D1*
X2688351D2*
X2700687D1*
X2739308D2*
X2758597D1*
X2941398D2*
X3338597D1*
X3521398D2*
X3983597D1*
X4400519D2*
X4553597D1*
X5031398D2*
X5579280D1*
X1910636Y5757190D2*
X2281097D1*
X2698019D2*
X2758597D1*
X2941398D2*
X3338597D1*
X3521398D2*
X3983597D1*
X4409815D2*
X4553597D1*
X5031398D2*
X5589358D1*
X1900558Y5747523D2*
X2281097D1*
X2707687D2*
X3338597D1*
X3521398D2*
X3983597D1*
X4416398D2*
X4553597D1*
X5031398D2*
X5599456D1*
X1890460Y5737857D2*
X2051097D1*
X2228898D2*
X2281097D1*
X3116065D2*
X3338597D1*
X3521398D2*
X3983597D1*
X4421065D2*
X4553597D1*
X5031398D2*
X5609534D1*
X1880382Y5728190D2*
X2051097D1*
X2228898D2*
X2281097D1*
X3127023D2*
X3338597D1*
X3521398D2*
X3983597D1*
X4424171D2*
X4553597D1*
X5031398D2*
X5619632D1*
X1870284Y5718523D2*
X2051097D1*
X2228898D2*
X2281097D1*
X3136690D2*
X3338597D1*
X3521398D2*
X3983597D1*
X4425909D2*
X4553597D1*
X5031398D2*
X5629710D1*
X1860206Y5708857D2*
X2051097D1*
X2228898D2*
X2281097D1*
X3146358D2*
X3983597D1*
X4426398D2*
X4553597D1*
X5031398D2*
X5639788D1*
X1850128Y5699190D2*
X2051097D1*
X2228898D2*
X2281097D1*
X3156007D2*
X3983597D1*
X4425616D2*
X4553597D1*
X4816398D2*
X4848597D1*
X5031398D2*
X5649886D1*
X1840030Y5689523D2*
X2051097D1*
X2228898D2*
X2281097D1*
X3165675D2*
X3983597D1*
X4423565D2*
X4553597D1*
X4816398D2*
X4848597D1*
X5031398D2*
X5659964D1*
X1829952Y5679857D2*
X2051097D1*
X2228898D2*
X2453597D1*
X3175343D2*
X3983597D1*
X4420108D2*
X4553597D1*
X4805011D2*
X4848597D1*
X5031398D2*
X5670062D1*
X1819855Y5670190D2*
X2051097D1*
X2228898D2*
X2453597D1*
X3185011D2*
X3983597D1*
X4415030D2*
X4553597D1*
X4810089D2*
X4848597D1*
X5031398D2*
X5680140D1*
X1809776Y5660523D2*
X2051097D1*
X2228898D2*
X2453597D1*
X3194679D2*
X3983597D1*
X4407901D2*
X4553597D1*
X4813546D2*
X5690218D1*
X1799679Y5650857D2*
X2051097D1*
X2228898D2*
X2453597D1*
X3204347D2*
X3983597D1*
X4397765D2*
X4553597D1*
X4815616D2*
X5700315D1*
X1789601Y5641190D2*
X2051097D1*
X2228898D2*
X2281097D1*
X3214015D2*
X3983597D1*
X4381827D2*
X4553597D1*
X4816398D2*
X5710394D1*
X1780167Y5631523D2*
X2051097D1*
X2228898D2*
X2281097D1*
X3223683D2*
X3983597D1*
X4326398D2*
X4553597D1*
X4815929D2*
X5719827D1*
X1771671Y5621857D2*
X2051097D1*
X2228898D2*
X2281097D1*
X3233351D2*
X3983597D1*
X4326398D2*
X4553597D1*
X4814190D2*
X4848597D1*
X5031398D2*
X5728343D1*
X1763155Y5612190D2*
X2051097D1*
X2228898D2*
X2281097D1*
X3243019D2*
X4553597D1*
X4811085D2*
X4848597D1*
X5031398D2*
X5736839D1*
X1754640Y5602523D2*
X2051097D1*
X2228898D2*
X2281097D1*
X3846905D2*
X4553597D1*
X4816398D2*
X4848597D1*
X5031398D2*
X5745355D1*
X1746144Y5592857D2*
X2051097D1*
X2233565D2*
X2281097D1*
X3862335D2*
X4553597D1*
X4816398D2*
X4848597D1*
X5031398D2*
X5753870D1*
X1737628Y5583190D2*
X2080980D1*
X2243233D2*
X2281097D1*
X3872023D2*
X4553597D1*
X5031398D2*
X5762366D1*
X1729132Y5573523D2*
X2084710D1*
X2252901D2*
X2281097D1*
X3881690D2*
X4553597D1*
X5031398D2*
X5770882D1*
X1720616Y5563857D2*
X2090608D1*
X2262569D2*
X2281097D1*
X3891358D2*
X4553597D1*
X5031398D2*
X5779378D1*
X1712101Y5554190D2*
X2099398D1*
X2270792D2*
X2281097D1*
X3901007D2*
X4553597D1*
X5031398D2*
X5787894D1*
X1703605Y5544523D2*
X2109065D1*
X3910675D2*
X4553597D1*
X5031398D2*
X5796409D1*
X1695089Y5534857D2*
X2118733D1*
X3920343D2*
X4553597D1*
X5031398D2*
X5804905D1*
X1686593Y5525190D2*
X2128382D1*
X3928780D2*
X4553597D1*
X5031398D2*
X5813421D1*
X1678077Y5515523D2*
X2138050D1*
X3933663D2*
X4553597D1*
X5031398D2*
X5821917D1*
X1669562Y5505857D2*
X2147718D1*
X3936026D2*
X4553597D1*
X5031398D2*
X5830433D1*
X1661065Y5496190D2*
X2157386D1*
X2281398D2*
X2293597D1*
X3936398D2*
X4553597D1*
X5031398D2*
X5838948D1*
X1652550Y5486523D2*
X2128597D1*
X2981730D2*
X2987366D1*
X3936398D2*
X4553597D1*
X5031398D2*
X5847444D1*
X1644054Y5476857D2*
X2128597D1*
X2972062D2*
X2991273D1*
X3128722D2*
X3137933D1*
X3936398D2*
X4553597D1*
X5031398D2*
X5855960D1*
X1635538Y5467190D2*
X2128597D1*
X2962394D2*
X2996937D1*
X3123077D2*
X3147601D1*
X3936398D2*
X4553597D1*
X5031398D2*
X5864456D1*
X1627648Y5457523D2*
X2128597D1*
X2952726D2*
X3004866D1*
X3115148D2*
X3157269D1*
X3936398D2*
X4553597D1*
X5031398D2*
X5872366D1*
X1620499Y5447857D2*
X2128597D1*
X2943058D2*
X3000726D1*
X3119269D2*
X3166937D1*
X3936398D2*
X4553597D1*
X4986398D2*
X5879515D1*
X1613351Y5438190D2*
X2128597D1*
X2933390D2*
X2993987D1*
X3126007D2*
X3181312D1*
X3938956D2*
X4553597D1*
X4986398D2*
X5886663D1*
X1606202Y5428523D2*
X2128597D1*
X2923722D2*
X2989202D1*
X3130792D2*
X3723909D1*
X3948702D2*
X4553597D1*
X5201398D2*
X5893812D1*
X1599054Y5418857D2*
X2128597D1*
X2914054D2*
X2985999D1*
X3133995D2*
X3734886D1*
X3955616D2*
X4553597D1*
X5201398D2*
X5900960D1*
X1591905Y5409190D2*
X2128597D1*
X2904386D2*
X2984163D1*
X3135831D2*
X3753089D1*
X3806905D2*
X3819476D1*
X3960519D2*
X4553597D1*
X5201398D2*
X5908108D1*
X1584737Y5399523D2*
X2128597D1*
X2894737D2*
X2983597D1*
X3136398D2*
X3816175D1*
X3963819D2*
X4553597D1*
X5201398D2*
X5915257D1*
X1577589Y5389857D2*
X2128597D1*
X2885069D2*
X2984280D1*
X3135714D2*
X3814241D1*
X3965753D2*
X4553597D1*
X5201398D2*
X5922405D1*
X1570440Y5380190D2*
X2128597D1*
X2875401D2*
X2986253D1*
X3133761D2*
X3813597D1*
X3966398D2*
X4553597D1*
X5201398D2*
X5929554D1*
X1563292Y5370523D2*
X2128597D1*
X2907667D2*
X2989593D1*
X3130401D2*
X3814202D1*
X3965812D2*
X4553597D1*
X5201398D2*
X5936702D1*
X1556144Y5360857D2*
X2128597D1*
X2925519D2*
X2994554D1*
X3125440D2*
X3816077D1*
X3963937D2*
X4553597D1*
X5201398D2*
X5943851D1*
X1548995Y5351190D2*
X2128597D1*
X2936358D2*
X3001526D1*
X3118468D2*
X3819319D1*
X3960675D2*
X4553597D1*
X5201398D2*
X5950999D1*
X1541847Y5341523D2*
X2128597D1*
X2943937D2*
X3011409D1*
X3108605D2*
X3824163D1*
X3955851D2*
X4553597D1*
X5201398D2*
X5958148D1*
X1534698Y5331857D2*
X2128597D1*
X2949347D2*
X3026722D1*
X3093273D2*
X3830980D1*
X3949034D2*
X4553597D1*
X5201398D2*
X5965296D1*
X1527550Y5322190D2*
X2158597D1*
X2953058D2*
X3840589D1*
X3939405D2*
X4553597D1*
X5201398D2*
X5972444D1*
X1520401Y5312523D2*
X2159065D1*
X2955362D2*
X3855355D1*
X3924640D2*
X4553597D1*
X5201398D2*
X5979593D1*
X1513253Y5302857D2*
X2161077D1*
X2798058D2*
X2803659D1*
X2956339D2*
X4553597D1*
X5201398D2*
X5986741D1*
X1506105Y5293190D2*
X2164866D1*
X2788390D2*
X2803909D1*
X2956085D2*
X4553597D1*
X5201398D2*
X5993890D1*
X1498956Y5283523D2*
X2170862D1*
X2778722D2*
X2805413D1*
X2954581D2*
X4553597D1*
X5201398D2*
X6001038D1*
X1492062Y5273857D2*
X2179730D1*
X2769054D2*
X2808284D1*
X2951730D2*
X4553597D1*
X5201398D2*
X6007933D1*
X1486105Y5264190D2*
X2188597D1*
X2759386D2*
X2812640D1*
X2947355D2*
X4553597D1*
X5178194D2*
X6013890D1*
X1480148Y5254523D2*
X2188597D1*
X2749737D2*
X2818851D1*
X2941144D2*
X4553597D1*
X5182296D2*
X6019847D1*
X1474210Y5244857D2*
X2188597D1*
X2740069D2*
X2827581D1*
X2932433D2*
X3093597D1*
X3426398D2*
X4553597D1*
X1468253Y5235190D2*
X2188597D1*
X2730401D2*
X2840472D1*
X2919542D2*
X3093597D1*
X3426398D2*
X4553597D1*
X1462296Y5225523D2*
X2188597D1*
X2720733D2*
X2867230D1*
X2892765D2*
X3093597D1*
X3426398D2*
X4553597D1*
X1456339Y5215857D2*
X2188597D1*
X2711065D2*
X3093597D1*
X3426398D2*
X4553597D1*
X1450401Y5206190D2*
X2188597D1*
X2701300D2*
X3093597D1*
X3426398D2*
X4553597D1*
X1444444Y5196523D2*
X2188597D1*
X2684073D2*
X3093597D1*
X3426398D2*
X4553597D1*
X1438487Y5186857D2*
X2188597D1*
X2626398D2*
X3093597D1*
X3426398D2*
X4553597D1*
X1432530Y5177190D2*
X2188597D1*
X2626398D2*
X3093597D1*
X3426398D2*
X4553597D1*
X1426593Y5167523D2*
X2188597D1*
X2626398D2*
X3093597D1*
X3426398D2*
X3738597D1*
X3921398D2*
X4553597D1*
X1420636Y5157857D2*
X2188597D1*
X2626398D2*
X3093597D1*
X3426398D2*
X3738597D1*
X3921398D2*
X4553597D1*
X1414679Y5148190D2*
X2188597D1*
X2426398D2*
X2493597D1*
X2586398D2*
X3093597D1*
X3426398D2*
X3738597D1*
X3921398D2*
X4553597D1*
X1408722Y5138523D2*
X2188597D1*
X2426398D2*
X2493597D1*
X2586398D2*
X3093597D1*
X3426398D2*
X3738597D1*
X3921398D2*
X4553597D1*
X1402784Y5128857D2*
X2188597D1*
X2426398D2*
X2493597D1*
X2586398D2*
X3093597D1*
X3426398D2*
X3738597D1*
X3921398D2*
X4553597D1*
X1396827Y5119190D2*
X2188597D1*
X2426398D2*
X2493597D1*
X2586398D2*
X3093597D1*
X3426398D2*
X3738597D1*
X3921398D2*
X4553597D1*
X1390870Y5109523D2*
X2188597D1*
X2426398D2*
X2493597D1*
X2586398D2*
X3093597D1*
X3426398D2*
X3738597D1*
X3921398D2*
X4553597D1*
X1384933Y5099857D2*
X2188597D1*
X2426398D2*
X2493597D1*
X2586398D2*
X3093597D1*
X3426398D2*
X3738597D1*
X3921398D2*
X4553597D1*
X1378976Y5090190D2*
X2188597D1*
X2426398D2*
X2493597D1*
X2586398D2*
X3093597D1*
X3426398D2*
X3738597D1*
X3921398D2*
X4553597D1*
X1373019Y5080523D2*
X2188597D1*
X2426398D2*
X2493597D1*
X2586398D2*
X3093597D1*
X3426398D2*
X3738597D1*
X3921398D2*
X4553597D1*
X1367980Y5070857D2*
X1531858D1*
X1572394D2*
X2188597D1*
X2426398D2*
X2493597D1*
X2586398D2*
X2931858D1*
X2972394D2*
X3093597D1*
X3426398D2*
X3738597D1*
X3921398D2*
X4553597D1*
X1363097Y5061190D2*
X1481741D1*
X1622511D2*
X2188597D1*
X2426398D2*
X2493597D1*
X2586398D2*
X2881741D1*
X3022511D2*
X3106644D1*
X3253370D2*
X3738597D1*
X3921398D2*
X4553597D1*
X1358214Y5051523D2*
X1455882D1*
X1648351D2*
X2188597D1*
X2426398D2*
X2493597D1*
X2586398D2*
X2855882D1*
X3048351D2*
X3104495D1*
X3255519D2*
X3738597D1*
X3921398D2*
X4553597D1*
X1353351Y5041857D2*
X1436507D1*
X1667745D2*
X2188597D1*
X2426398D2*
X2493597D1*
X2586398D2*
X2836507D1*
X3067745D2*
X3103616D1*
X3256378D2*
X3738597D1*
X3921398D2*
X4553597D1*
X1348468Y5032190D2*
X1420667D1*
X1683585D2*
X2188597D1*
X2426398D2*
X2493597D1*
X2586398D2*
X2820667D1*
X3083585D2*
X3104007D1*
X3255987D2*
X3738597D1*
X3921398D2*
X4553597D1*
X1343605Y5022523D2*
X1407190D1*
X1697042D2*
X2188597D1*
X2426398D2*
X2493597D1*
X2586398D2*
X2807190D1*
X3097042D2*
X3105648D1*
X3254347D2*
X3738597D1*
X3921398D2*
X4553597D1*
X1338722Y5012857D2*
X1395491D1*
X1708761D2*
X2188597D1*
X2426398D2*
X2493597D1*
X2586398D2*
X2795491D1*
X3251339D2*
X3738597D1*
X3921398D2*
X4553597D1*
X1333858Y5003190D2*
X1385159D1*
X1719093D2*
X2188597D1*
X2426398D2*
X2493597D1*
X2586398D2*
X2785159D1*
X3246808D2*
X3738597D1*
X3921398D2*
X4553597D1*
X1328976Y4993523D2*
X1375980D1*
X1728273D2*
X2188597D1*
X2426398D2*
X2493597D1*
X2586398D2*
X2775980D1*
X3240382D2*
X3738597D1*
X3921398D2*
X4553597D1*
X1324112Y4983857D2*
X1367757D1*
X1736495D2*
X2188597D1*
X2426398D2*
X2493597D1*
X2586398D2*
X2767757D1*
X3231339D2*
X3738597D1*
X3921398D2*
X4553597D1*
X1319230Y4974190D2*
X1360374D1*
X1743878D2*
X2188597D1*
X2426398D2*
X2493597D1*
X2586398D2*
X2760374D1*
X3217804D2*
X3738597D1*
X3921398D2*
X4553597D1*
X1314366Y4964523D2*
X1353753D1*
X1750499D2*
X2188597D1*
X2426398D2*
X2493597D1*
X2586398D2*
X2753753D1*
X3150499D2*
X3738597D1*
X3921398D2*
X4553597D1*
X1309483Y4954857D2*
X1347796D1*
X1756456D2*
X2188597D1*
X2426398D2*
X2493597D1*
X2586398D2*
X2747796D1*
X3156456D2*
X3738597D1*
X3921398D2*
X4553597D1*
X1304620Y4945190D2*
X1342444D1*
X1761788D2*
X2188597D1*
X2426398D2*
X2493597D1*
X2586398D2*
X2742444D1*
X3161788D2*
X3738597D1*
X3921398D2*
X4553597D1*
X1299737Y4935523D2*
X1337679D1*
X1766573D2*
X2188597D1*
X2426398D2*
X2493597D1*
X2586398D2*
X2737679D1*
X3166573D2*
X3738597D1*
X3921398D2*
X4553597D1*
X1294874Y4925857D2*
X1333440D1*
X1770792D2*
X2188597D1*
X2426398D2*
X2493597D1*
X2586398D2*
X2733440D1*
X3170792D2*
X3738597D1*
X3921398D2*
X4553597D1*
X1289991Y4916190D2*
X1329710D1*
X1774542D2*
X2188597D1*
X2426398D2*
X2493597D1*
X2586398D2*
X2729710D1*
X3174542D2*
X3192894D1*
X3267120D2*
X3738597D1*
X3921398D2*
X4553597D1*
X1285108Y4906523D2*
X1326468D1*
X1777784D2*
X2188597D1*
X2426398D2*
X2493597D1*
X2586398D2*
X2726468D1*
X3280909D2*
X3738597D1*
X3921398D2*
X4553597D1*
X1280245Y4896857D2*
X1323655D1*
X1780577D2*
X2188597D1*
X2426398D2*
X2493597D1*
X2586398D2*
X2723655D1*
X3290069D2*
X3738597D1*
X3921398D2*
X4553597D1*
X1275362Y4887190D2*
X1321292D1*
X1782940D2*
X2188597D1*
X2426398D2*
X2493597D1*
X2586398D2*
X2721292D1*
X3296593D2*
X3738597D1*
X3921398D2*
X4553597D1*
X1270499Y4877523D2*
X1319378D1*
X1784874D2*
X2188597D1*
X2426398D2*
X2493597D1*
X2586398D2*
X2719378D1*
X3301202D2*
X3738597D1*
X3921398D2*
X4553597D1*
X1266085Y4867857D2*
X1317855D1*
X1786398D2*
X2188597D1*
X2426398D2*
X2493597D1*
X2586398D2*
X2717855D1*
X3304249D2*
X3738597D1*
X3921398D2*
X4553597D1*
X1262198Y4858190D2*
X1316741D1*
X1787491D2*
X2188597D1*
X2426398D2*
X2493597D1*
X2586398D2*
X2716741D1*
X3305948D2*
X3738597D1*
X3926007D2*
X4553597D1*
X1258312Y4848523D2*
X1316038D1*
X1788194D2*
X2188597D1*
X2426398D2*
X2493597D1*
X2586398D2*
X2716038D1*
X3306378D2*
X3738597D1*
X3930792D2*
X4553597D1*
X1254444Y4838857D2*
X1315745D1*
X1788507D2*
X2188597D1*
X2426398D2*
X2493597D1*
X2586398D2*
X2715745D1*
X3305577D2*
X3779847D1*
X3933995D2*
X4553597D1*
X1250558Y4829190D2*
X1315823D1*
X1788409D2*
X2188597D1*
X2426398D2*
X2493597D1*
X2586398D2*
X2715823D1*
X3303468D2*
X3783089D1*
X3935831D2*
X4553597D1*
X1246671Y4819523D2*
X1316312D1*
X1787921D2*
X2188597D1*
X2426398D2*
X2493597D1*
X2586398D2*
X2716312D1*
X3299972D2*
X3783597D1*
X3936398D2*
X4553597D1*
X1242784Y4809857D2*
X1317210D1*
X1787042D2*
X2188597D1*
X2426398D2*
X2493597D1*
X2586398D2*
X2717210D1*
X3294835D2*
X3784280D1*
X3935714D2*
X4553597D1*
X1238898Y4800190D2*
X1318499D1*
X1785753D2*
X2188597D1*
X2426398D2*
X2493597D1*
X2586398D2*
X2718499D1*
X3287608D2*
X3786253D1*
X3933761D2*
X4553597D1*
X1235011Y4790523D2*
X1320198D1*
X1784034D2*
X2188597D1*
X2426398D2*
X2493597D1*
X2586398D2*
X2720198D1*
X3277335D2*
X3789593D1*
X3930401D2*
X4553597D1*
X1231124Y4780857D2*
X1322327D1*
X1781905D2*
X2188597D1*
X2426398D2*
X2493597D1*
X2586398D2*
X2722327D1*
X3181905D2*
X3198929D1*
X3261065D2*
X3794554D1*
X3925440D2*
X4553597D1*
X1227237Y4771190D2*
X1324886D1*
X1779347D2*
X2188597D1*
X2426398D2*
X2493597D1*
X2586398D2*
X2724886D1*
X3179347D2*
X3801526D1*
X3918468D2*
X4553597D1*
X1223370Y4761523D2*
X1327894D1*
X1776358D2*
X2188597D1*
X2426398D2*
X2493597D1*
X2586398D2*
X2727894D1*
X3176358D2*
X3811409D1*
X3908605D2*
X4553597D1*
X1219483Y4751857D2*
X1331370D1*
X1772882D2*
X2188597D1*
X2426398D2*
X2493597D1*
X2586398D2*
X2731370D1*
X3172882D2*
X3826722D1*
X3893273D2*
X4553597D1*
X1215597Y4742190D2*
X1335335D1*
X1768917D2*
X2186507D1*
X2426398D2*
X2493597D1*
X2586398D2*
X2735335D1*
X3168917D2*
X4553597D1*
X1211710Y4732523D2*
X1339808D1*
X1764444D2*
X2180980D1*
X2426398D2*
X2493597D1*
X2586398D2*
X2739808D1*
X3164444D2*
X4553597D1*
X1207823Y4722857D2*
X1344827D1*
X1759405D2*
X2177151D1*
X2426398D2*
X2493597D1*
X2586398D2*
X2744827D1*
X3159405D2*
X4553597D1*
X1203937Y4713190D2*
X1350452D1*
X1753800D2*
X2174769D1*
X2426398D2*
X2493597D1*
X2586398D2*
X2750452D1*
X3153800D2*
X4553597D1*
X1200050Y4703523D2*
X1356702D1*
X1747530D2*
X2173675D1*
X2425929D2*
X2488323D1*
X2586398D2*
X2756702D1*
X3147530D2*
X4553597D1*
X1196163Y4693857D2*
X1363675D1*
X1740577D2*
X1903831D1*
X1936183D2*
X2173851D1*
X2423429D2*
X2453831D1*
X2586398D2*
X2763675D1*
X3140577D2*
X4553597D1*
X1192296Y4684190D2*
X1371429D1*
X1732823D2*
X1879437D1*
X1960558D2*
X2175276D1*
X2418351D2*
X2429437D1*
X2586026D2*
X2771429D1*
X3132823D2*
X4553597D1*
X1188409Y4674523D2*
X1380081D1*
X1724171D2*
X1866917D1*
X1973077D2*
X2178030D1*
X2409737D2*
X2416917D1*
X2583683D2*
X2780081D1*
X3124171D2*
X4553597D1*
X1184523Y4664857D2*
X1389749D1*
X1714483D2*
X1858401D1*
X2400069D2*
X2408401D1*
X2578800D2*
X2789749D1*
X3114483D2*
X4303597D1*
X4476398D2*
X4553597D1*
X1180890Y4655190D2*
X1400687D1*
X1703565D2*
X1852308D1*
X2390401D2*
X2402308D1*
X2570401D2*
X2800687D1*
X3103565D2*
X4303597D1*
X4476398D2*
X4553597D1*
X1177921Y4645523D2*
X1413148D1*
X1691105D2*
X1848050D1*
X2380733D2*
X2398050D1*
X2560733D2*
X2813148D1*
X3091105D2*
X4303597D1*
X4476398D2*
X4553597D1*
X1174972Y4635857D2*
X1427601D1*
X1676651D2*
X1845276D1*
X2371065D2*
X2395276D1*
X2551065D2*
X2827601D1*
X3076651D2*
X4303597D1*
X4476398D2*
X4553597D1*
X1172003Y4626190D2*
X1444866D1*
X1659366D2*
X1843851D1*
X2361398D2*
X2393851D1*
X2546144D2*
X2844866D1*
X3059366D2*
X4303597D1*
X4476398D2*
X4553597D1*
X1169034Y4616523D2*
X1466663D1*
X1637589D2*
X1843675D1*
X2351730D2*
X2393675D1*
X2546319D2*
X2866663D1*
X3037589D2*
X4303597D1*
X1166085Y4606857D2*
X1498265D1*
X1605968D2*
X1844749D1*
X2342062D2*
X2394749D1*
X2545245D2*
X2898265D1*
X3005968D2*
X4303597D1*
X1163116Y4597190D2*
X1847132D1*
X2332394D2*
X2397132D1*
X2542862D2*
X4303597D1*
X1160167Y4587523D2*
X1850960D1*
X2322726D2*
X2400960D1*
X2539054D2*
X4303597D1*
X1157198Y4577857D2*
X1856468D1*
X2307882D2*
X2406468D1*
X2533526D2*
X4303597D1*
X1154230Y4568190D2*
X1864222D1*
X1975773D2*
X2414222D1*
X2525773D2*
X4303597D1*
X1151280Y4558523D2*
X1875335D1*
X1964659D2*
X2425335D1*
X2514659D2*
X4303597D1*
X1148312Y4548857D2*
X1894026D1*
X1945968D2*
X2444026D1*
X2495968D2*
X4303597D1*
X1145362Y4539190D2*
X4303597D1*
X1142394Y4529523D2*
X4303597D1*
X1139444Y4519857D2*
X4303597D1*
X1136476Y4510190D2*
X4303597D1*
X1133507Y4500523D2*
X4303597D1*
X1130558Y4490857D2*
X4303597D1*
X1127589Y4481190D2*
X4303597D1*
X1124640Y4471523D2*
X4303597D1*
X5243683D2*
X6375374D1*
X1121671Y4461857D2*
X4303597D1*
X5253351D2*
X6378323D1*
X1118722Y4452190D2*
X4303597D1*
X5263019D2*
X6381292D1*
X1115753Y4442523D2*
X4303597D1*
X5272687D2*
X6384241D1*
X1113136Y4432857D2*
X4303597D1*
X5282355D2*
X6386858D1*
X1111046Y4423190D2*
X4303597D1*
X5292023D2*
X6388948D1*
X1108976Y4413523D2*
X4303597D1*
X5301690D2*
X6391038D1*
X1106886Y4403857D2*
X4303597D1*
X5311358D2*
X6393108D1*
X1104796Y4394190D2*
X4303597D1*
X5321007D2*
X6395198D1*
X1102726Y4384523D2*
X4303597D1*
X5330675D2*
X6397288D1*
X1100636Y4374857D2*
X4303597D1*
X5340343D2*
X6399358D1*
X1098546Y4365190D2*
X4303597D1*
X5350011D2*
X6401448D1*
X1096476Y4355523D2*
X4303597D1*
X4476398D2*
X4508597D1*
X5359679D2*
X6403538D1*
X1094386Y4345857D2*
X4303597D1*
X4476398D2*
X4508597D1*
X5369347D2*
X6405608D1*
X1092296Y4336190D2*
X4303597D1*
X4476398D2*
X4501585D1*
X5379015D2*
X6407698D1*
X1090226Y4326523D2*
X4303597D1*
X4476398D2*
X4491312D1*
X5387843D2*
X6409788D1*
X1088136Y4316857D2*
X4481644D1*
X5393155D2*
X6411858D1*
X1086046Y4307190D2*
X4472640D1*
X5395831D2*
X6413948D1*
X1083976Y4297523D2*
X4467112D1*
X5396398D2*
X6416038D1*
X1081886Y4287857D2*
X4464280D1*
X5396398D2*
X6418108D1*
X1079796Y4278190D2*
X4463577D1*
X5396398D2*
X6420198D1*
X1077726Y4268523D2*
X4443577D1*
X5396398D2*
X6422288D1*
X1075636Y4258857D2*
X4443577D1*
X5396398D2*
X6424358D1*
X1073546Y4249190D2*
X4443577D1*
X5396398D2*
X6426448D1*
X1071476Y4239523D2*
X4443577D1*
X5396398D2*
X6428538D1*
X1069386Y4229857D2*
X3675843D1*
X3824151D2*
X4443577D1*
X5396398D2*
X6430608D1*
X1067296Y4220190D2*
X3628440D1*
X3871554D2*
X4443577D1*
X5396398D2*
X6432698D1*
X1065226Y4210523D2*
X3595608D1*
X3904405D2*
X4443577D1*
X5396398D2*
X6434788D1*
X1063976Y4200857D2*
X3569163D1*
X3930831D2*
X4443577D1*
X5396398D2*
X6436019D1*
X1062745Y4191190D2*
X3546605D1*
X3953390D2*
X4443577D1*
X5396398D2*
X6437249D1*
X1061515Y4181523D2*
X3526741D1*
X3973273D2*
X4443577D1*
X5396398D2*
X6438499D1*
X1060265Y4171857D2*
X3508890D1*
X3991105D2*
X4443577D1*
X5396398D2*
X6439730D1*
X1059034Y4162190D2*
X3492659D1*
X4007335D2*
X4443577D1*
X5396398D2*
X6440960D1*
X1057784Y4152523D2*
X3477737D1*
X4022276D2*
X4443577D1*
X5396398D2*
X6442210D1*
X1056554Y4142857D2*
X3463909D1*
X4036085D2*
X4443577D1*
X5396398D2*
X6443440D1*
X1055323Y4133190D2*
X3451038D1*
X4048956D2*
X4343597D1*
X5396398D2*
X6444690D1*
X1054073Y4123523D2*
X3439007D1*
X4060987D2*
X4343597D1*
X5396398D2*
X6445921D1*
X1052843Y4113857D2*
X3427718D1*
X4072276D2*
X4343597D1*
X5396398D2*
X6447151D1*
X1051612Y4104190D2*
X3417093D1*
X4082901D2*
X4343597D1*
X5396398D2*
X6448401D1*
X1050362Y4094523D2*
X3407073D1*
X4092940D2*
X4343597D1*
X5396398D2*
X6449632D1*
X1049132Y4084857D2*
X3397601D1*
X4102394D2*
X4343597D1*
X5396398D2*
X6450882D1*
X1047882Y4075190D2*
X3388636D1*
X4111358D2*
X4343597D1*
X5396398D2*
X6452112D1*
X1046651Y4065523D2*
X3380140D1*
X4119855D2*
X4343597D1*
X5396398D2*
X6453343D1*
X1045421Y4055857D2*
X3372093D1*
X4127921D2*
X4343597D1*
X5396398D2*
X6454593D1*
X1044171Y4046190D2*
X3364437D1*
X4135558D2*
X4343597D1*
X5396398D2*
X6455823D1*
X1042940Y4036523D2*
X3357190D1*
X4142804D2*
X4343597D1*
X5396398D2*
X6457054D1*
X1041690Y4026857D2*
X1109886D1*
X1210108D2*
X3350296D1*
X4149698D2*
X4343597D1*
X5396398D2*
X6458304D1*
X1040460Y4017190D2*
X1088538D1*
X1231456D2*
X3343753D1*
X4156241D2*
X4343597D1*
X5396398D2*
X6459534D1*
X1039230Y4007523D2*
X1073382D1*
X1246612D2*
X3337542D1*
X4162452D2*
X4343597D1*
X5396398D2*
X6460784D1*
X1037980Y3997857D2*
X1061487D1*
X1258507D2*
X3331644D1*
X4168351D2*
X4378597D1*
X5396398D2*
X6462015D1*
X1036749Y3988190D2*
X1051761D1*
X1268233D2*
X3326058D1*
X4173937D2*
X4378597D1*
X5396398D2*
X6463245D1*
X1035733Y3978523D2*
X1043655D1*
X1276339D2*
X3320765D1*
X4179249D2*
X4378597D1*
X5396398D2*
X6464261D1*
X1283155Y3968857D2*
X3315745D1*
X4184269D2*
X4378597D1*
X5396398D2*
X6464671D1*
X1288878Y3959190D2*
X3310999D1*
X4189015D2*
X4378597D1*
X5396398D2*
X6465081D1*
X1293663Y3949523D2*
X3306507D1*
X4193487D2*
X4378597D1*
X5396398D2*
X6465511D1*
X1297589Y3939857D2*
X3302269D1*
X4197726D2*
X4378597D1*
X5396398D2*
X6465921D1*
X2670382Y3930190D2*
X3298284D1*
X4201710D2*
X4378597D1*
X5396398D2*
X6466331D1*
X2689171Y3920523D2*
X3294534D1*
X4205460D2*
X4378597D1*
X5396398D2*
X6466741D1*
X2700909Y3910857D2*
X3291019D1*
X4208976D2*
X4378597D1*
X5396398D2*
X6467151D1*
X2710577Y3901190D2*
X3287737D1*
X4212257D2*
X4378597D1*
X5396398D2*
X6467562D1*
X2720245Y3891523D2*
X3284690D1*
X4215304D2*
X4378597D1*
X5396398D2*
X6467972D1*
X2729913Y3881857D2*
X3281858D1*
X4218155D2*
X4378597D1*
X5396398D2*
X6468382D1*
X2739581Y3872190D2*
X3279222D1*
X4220773D2*
X4378597D1*
X5396398D2*
X6468792D1*
X2749249Y3862523D2*
X3276819D1*
X4223175D2*
X4378597D1*
X5396398D2*
X6469202D1*
X2758917Y3852857D2*
X3274632D1*
X4225382D2*
X4378597D1*
X5396398D2*
X6469612D1*
X2768585Y3843190D2*
X3272620D1*
X4227374D2*
X4378597D1*
X5396398D2*
X6470023D1*
X2778253Y3833523D2*
X3270843D1*
X4229151D2*
X4378597D1*
X5396398D2*
X6470433D1*
X2787921Y3823857D2*
X3269261D1*
X4230753D2*
X4378597D1*
X5396398D2*
X6470843D1*
X2797589Y3814190D2*
X3267855D1*
X4232140D2*
X4378597D1*
X5396398D2*
X6471253D1*
X2807257Y3804523D2*
X3266663D1*
X4233331D2*
X4378597D1*
X5396398D2*
X6471663D1*
X2816925Y3794857D2*
X3265687D1*
X4234327D2*
X4378597D1*
X5396398D2*
X6472073D1*
X2826593Y3785190D2*
X3264886D1*
X4235128D2*
X4378597D1*
X5396398D2*
X6472483D1*
X2836241Y3775523D2*
X3264280D1*
X4235733D2*
X4378597D1*
X5396398D2*
X6472894D1*
X2845909Y3765857D2*
X3263851D1*
X4236144D2*
X4378597D1*
X5396398D2*
X6473304D1*
X2855577Y3756190D2*
X3263636D1*
X4236358D2*
X4378597D1*
X5396398D2*
X6473714D1*
X2865245Y3746523D2*
X3263616D1*
X4236378D2*
X4378597D1*
X5396398D2*
X6473831D1*
X2874913Y3736857D2*
X3263773D1*
X4236222D2*
X4378597D1*
X5396398D2*
X6473421D1*
X2884581Y3727190D2*
X3264144D1*
X4235870D2*
X4378597D1*
X5396398D2*
X6473011D1*
X2894249Y3717523D2*
X3264690D1*
X4235304D2*
X4378597D1*
X5396398D2*
X6472601D1*
X2903917Y3707857D2*
X3265433D1*
X4234562D2*
X4378597D1*
X5396398D2*
X6472190D1*
X2913585Y3698190D2*
X3266370D1*
X4233624D2*
X4378597D1*
X5396398D2*
X6471780D1*
X2923253Y3688523D2*
X3267503D1*
X4232491D2*
X4378597D1*
X5396398D2*
X6471370D1*
X2932921Y3678857D2*
X3268851D1*
X4231163D2*
X4404378D1*
X4535616D2*
X4593597D1*
X5396398D2*
X6470960D1*
X2942589Y3669190D2*
X3270374D1*
X4229620D2*
X4399476D1*
X4540519D2*
X4593597D1*
X5396398D2*
X6470550D1*
X2952257Y3659523D2*
X3272112D1*
X4227901D2*
X4396175D1*
X4543819D2*
X4593597D1*
X5396398D2*
X6470140D1*
X2961925Y3649857D2*
X3274046D1*
X4225948D2*
X4394241D1*
X4545753D2*
X4593597D1*
X5396398D2*
X6469730D1*
X2971593Y3640190D2*
X3276175D1*
X4223819D2*
X4393597D1*
X4546398D2*
X4593597D1*
X5396398D2*
X6469319D1*
X2981241Y3630523D2*
X3278538D1*
X4221476D2*
X4394202D1*
X4545812D2*
X4593597D1*
X5396398D2*
X6468909D1*
X2990909Y3620857D2*
X3281097D1*
X4218898D2*
X4396077D1*
X4543937D2*
X4593597D1*
X5396398D2*
X6468499D1*
X3000577Y3611190D2*
X3283870D1*
X4216124D2*
X4399319D1*
X4540675D2*
X4593597D1*
X5396398D2*
X6468089D1*
X3010245Y3601523D2*
X3286858D1*
X4213136D2*
X4404163D1*
X4535851D2*
X4593597D1*
X5396398D2*
X6467679D1*
X3019913Y3591857D2*
X3290081D1*
X4209913D2*
X4410980D1*
X4529034D2*
X4593597D1*
X5396398D2*
X6467269D1*
X3029581Y3582190D2*
X3293538D1*
X4206476D2*
X4420589D1*
X4519405D2*
X4593597D1*
X5396398D2*
X6466839D1*
X1301495Y3572523D2*
X2545706D1*
X3039249D2*
X3297210D1*
X4202784D2*
X4435355D1*
X4504640D2*
X4593597D1*
X5396398D2*
X6466429D1*
X1298546Y3562857D2*
X2555374D1*
X3048917D2*
X3301136D1*
X4198878D2*
X4593597D1*
X5396398D2*
X6466019D1*
X1294835Y3553190D2*
X1980882D1*
X2019112D2*
X2565042D1*
X3058585D2*
X3305296D1*
X4194718D2*
X4593597D1*
X5396398D2*
X6465608D1*
X1290323Y3543523D2*
X1958382D1*
X2041612D2*
X2574710D1*
X3068253D2*
X3309710D1*
X4190304D2*
X4593597D1*
X5396398D2*
X6465198D1*
X1284874Y3533857D2*
X1946233D1*
X2053761D2*
X2584378D1*
X3077276D2*
X3314378D1*
X4185616D2*
X4593597D1*
X5396398D2*
X6464788D1*
X1035616Y3524190D2*
X1041624D1*
X1278370D2*
X1937913D1*
X2062101D2*
X2594026D1*
X3084073D2*
X3319319D1*
X4180675D2*
X4593597D1*
X5396398D2*
X6464378D1*
X1036398Y3514523D2*
X1049339D1*
X1270655D2*
X1931976D1*
X2068038D2*
X2603694D1*
X3089112D2*
X3324534D1*
X4175460D2*
X4593597D1*
X5396398D2*
X6463597D1*
X1037648Y3504857D2*
X1058577D1*
X1261437D2*
X1927815D1*
X2072179D2*
X2613362D1*
X3092706D2*
X3330042D1*
X4169952D2*
X4589651D1*
X5396398D2*
X6462366D1*
X1038878Y3495190D2*
X1069788D1*
X1250226D2*
X1925140D1*
X2074855D2*
X2623030D1*
X3095030D2*
X3335862D1*
X4164132D2*
X4579983D1*
X5396398D2*
X6461116D1*
X1040108Y3485523D2*
X1083851D1*
X1236144D2*
X1923812D1*
X2076202D2*
X2632698D1*
X3096222D2*
X3341976D1*
X4158019D2*
X4570315D1*
X5396398D2*
X6459886D1*
X1041358Y3475857D2*
X1102913D1*
X1217101D2*
X1923714D1*
X2076280D2*
X2642366D1*
X3096398D2*
X3348421D1*
X4151573D2*
X4560648D1*
X5396398D2*
X6458655D1*
X1042589Y3466190D2*
X1137562D1*
X1182452D2*
X1924866D1*
X2075128D2*
X2652034D1*
X3096398D2*
X3355218D1*
X4144776D2*
X4550980D1*
X5396398D2*
X6457405D1*
X1043819Y3456523D2*
X1927347D1*
X2072648D2*
X2661702D1*
X3096398D2*
X3362366D1*
X4137628D2*
X4541312D1*
X5396398D2*
X6456175D1*
X1045069Y3446857D2*
X1931273D1*
X2068722D2*
X2671370D1*
X3096398D2*
X3369905D1*
X4130108D2*
X4531644D1*
X5396398D2*
X6454925D1*
X1046300Y3437190D2*
X1936937D1*
X2063077D2*
X2673597D1*
X3096398D2*
X3377835D1*
X4122159D2*
X4521976D1*
X5396398D2*
X6453694D1*
X1047550Y3427523D2*
X1368597D1*
X1611398D2*
X1876605D1*
X2119405D2*
X2384593D1*
X2627394D2*
X2638597D1*
X3135401D2*
X3386194D1*
X4113800D2*
X4512327D1*
X5396398D2*
X6452464D1*
X1048780Y3417857D2*
X1368597D1*
X1611398D2*
X1876605D1*
X2119405D2*
X2384593D1*
X2627394D2*
X2638597D1*
X3135401D2*
X3395023D1*
X4104972D2*
X4502659D1*
X5396398D2*
X6451214D1*
X1050011Y3408190D2*
X1368597D1*
X1611398D2*
X1876605D1*
X2119405D2*
X2384593D1*
X2627394D2*
X2638597D1*
X3135401D2*
X3404358D1*
X4095636D2*
X4492991D1*
X5396398D2*
X6449983D1*
X1051261Y3398523D2*
X1368597D1*
X1611398D2*
X1876605D1*
X2119405D2*
X2384593D1*
X2627394D2*
X2638597D1*
X3135401D2*
X3414222D1*
X4085773D2*
X4483323D1*
X5396398D2*
X6448753D1*
X1052491Y3388857D2*
X1368597D1*
X1611398D2*
X1876605D1*
X2119405D2*
X2384593D1*
X2627394D2*
X2638597D1*
X3135401D2*
X3424671D1*
X4075323D2*
X4473655D1*
X5396398D2*
X6447503D1*
X1053722Y3379190D2*
X1368597D1*
X1611398D2*
X1876605D1*
X2119405D2*
X2384593D1*
X2627394D2*
X2638597D1*
X3135401D2*
X3435765D1*
X4064230D2*
X4463987D1*
X5396398D2*
X6446273D1*
X1054972Y3369523D2*
X1368597D1*
X1611398D2*
X1876605D1*
X2119405D2*
X2384593D1*
X2627394D2*
X2638597D1*
X3135401D2*
X3447581D1*
X4052413D2*
X4454319D1*
X5396398D2*
X6445023D1*
X1056202Y3359857D2*
X1368597D1*
X1611398D2*
X1876605D1*
X2119405D2*
X2384593D1*
X2627394D2*
X2638597D1*
X3135401D2*
X3460198D1*
X4039796D2*
X4444651D1*
X5396398D2*
X6443792D1*
X1057452Y3350190D2*
X1368597D1*
X1611398D2*
X1876605D1*
X2119405D2*
X2384593D1*
X2627394D2*
X2638597D1*
X3135401D2*
X3473753D1*
X4026261D2*
X4434983D1*
X5395323D2*
X6442562D1*
X1058683Y3340523D2*
X1368597D1*
X1611398D2*
X1876605D1*
X2119405D2*
X2384593D1*
X2627394D2*
X2638597D1*
X3135401D2*
X3488343D1*
X4011651D2*
X4425315D1*
X5392003D2*
X6441312D1*
X1059913Y3330857D2*
X1368597D1*
X1611398D2*
X1876605D1*
X2119405D2*
X2384593D1*
X2627394D2*
X2638597D1*
X3135401D2*
X3504183D1*
X3995812D2*
X4415648D1*
X5385812D2*
X6440081D1*
X1061163Y3321190D2*
X1368597D1*
X1611398D2*
X1876605D1*
X2119405D2*
X2384593D1*
X2627394D2*
X2638597D1*
X3135401D2*
X3521546D1*
X3978448D2*
X4405980D1*
X5376398D2*
X6438851D1*
X1062394Y3311523D2*
X1368597D1*
X1611398D2*
X1876605D1*
X2119405D2*
X2384593D1*
X2627394D2*
X2638597D1*
X3135401D2*
X3540784D1*
X3959210D2*
X4396312D1*
X5366730D2*
X6437601D1*
X1063644Y3301857D2*
X1368597D1*
X1611398D2*
X1876605D1*
X2119405D2*
X2384593D1*
X2627394D2*
X2638597D1*
X3135401D2*
X3562503D1*
X3937491D2*
X4386644D1*
X5357062D2*
X6436370D1*
X1064874Y3292190D2*
X1368597D1*
X1611398D2*
X1876605D1*
X2119405D2*
X2384593D1*
X2627394D2*
X2638597D1*
X3135401D2*
X3587679D1*
X3912315D2*
X4376976D1*
X5347394D2*
X6435120D1*
X1066710Y3282523D2*
X1368597D1*
X1611398D2*
X1876605D1*
X2119405D2*
X2384593D1*
X2627394D2*
X2638597D1*
X3135401D2*
X3618323D1*
X3881690D2*
X4367327D1*
X5337726D2*
X6433284D1*
X1068800Y3272857D2*
X1368597D1*
X1611398D2*
X1876605D1*
X2119405D2*
X2384593D1*
X2627394D2*
X2638597D1*
X3135401D2*
X3659847D1*
X3840148D2*
X4357659D1*
X5328058D2*
X6431194D1*
X1070890Y3263190D2*
X1368597D1*
X1611398D2*
X1876605D1*
X2119405D2*
X2384593D1*
X2627394D2*
X2638597D1*
X3135401D2*
X4000882D1*
X4039112D2*
X4347991D1*
X5318390D2*
X6429124D1*
X1072960Y3253523D2*
X1368597D1*
X1611398D2*
X1876605D1*
X2119405D2*
X2384593D1*
X2627394D2*
X2638597D1*
X3135401D2*
X3978382D1*
X4061612D2*
X4338323D1*
X5308722D2*
X6427034D1*
X1075050Y3243857D2*
X1368597D1*
X1611398D2*
X1876605D1*
X2119405D2*
X2384593D1*
X2627394D2*
X2638597D1*
X3135401D2*
X3966233D1*
X4073761D2*
X4328655D1*
X5299054D2*
X6424944D1*
X1077140Y3234190D2*
X1368597D1*
X1611398D2*
X1876605D1*
X2119405D2*
X2384593D1*
X2627394D2*
X2638597D1*
X3135401D2*
X3957913D1*
X4082101D2*
X4318987D1*
X5289405D2*
X6422874D1*
X1079210Y3224523D2*
X1368597D1*
X1611398D2*
X1876605D1*
X2119405D2*
X2384593D1*
X2627394D2*
X2638597D1*
X3135401D2*
X3951976D1*
X4088038D2*
X4309319D1*
X5279737D2*
X6420784D1*
X1081300Y3214857D2*
X1368597D1*
X1611398D2*
X1876605D1*
X2119405D2*
X2384593D1*
X2627394D2*
X2638597D1*
X3135401D2*
X3947815D1*
X4092179D2*
X4299651D1*
X5270069D2*
X6418694D1*
X1083390Y3205190D2*
X1368597D1*
X1611398D2*
X1876605D1*
X2119405D2*
X2384593D1*
X2627394D2*
X2638597D1*
X3135401D2*
X3945140D1*
X4094855D2*
X4289983D1*
X5260401D2*
X6416624D1*
X1085460Y3195523D2*
X1368597D1*
X1611398D2*
X1876605D1*
X2119405D2*
X2384593D1*
X2627394D2*
X2638597D1*
X3135401D2*
X3183597D1*
X3526398D2*
X3943812D1*
X4096202D2*
X4280315D1*
X5250733D2*
X6414534D1*
X1087550Y3185857D2*
X1368597D1*
X1611398D2*
X1876605D1*
X2119405D2*
X2384593D1*
X2627394D2*
X2638597D1*
X3135401D2*
X3183597D1*
X3526398D2*
X3943714D1*
X4096280D2*
X4270648D1*
X5241065D2*
X6412444D1*
X1089640Y3176190D2*
X1368597D1*
X1611398D2*
X1876605D1*
X2119405D2*
X2384593D1*
X2627394D2*
X2638597D1*
X3526398D2*
X3944866D1*
X4095128D2*
X4260980D1*
X5231398D2*
X6410374D1*
X1091710Y3166523D2*
X1368597D1*
X1611398D2*
X1876605D1*
X2119405D2*
X2384593D1*
X2627394D2*
X2638597D1*
X3526398D2*
X3947347D1*
X4092648D2*
X4251312D1*
X5221730D2*
X6408284D1*
X1093800Y3156857D2*
X1368597D1*
X1611398D2*
X1876605D1*
X2119405D2*
X2384593D1*
X2627394D2*
X2638597D1*
X3526398D2*
X3951273D1*
X4088722D2*
X4241644D1*
X5212062D2*
X6406194D1*
X1095890Y3147190D2*
X1368597D1*
X1611398D2*
X1876605D1*
X2119405D2*
X2384593D1*
X2627394D2*
X2638597D1*
X3526398D2*
X3956937D1*
X4083077D2*
X4231976D1*
X5202394D2*
X6404124D1*
X1097960Y3137523D2*
X1368597D1*
X1611398D2*
X1876605D1*
X2119405D2*
X2384593D1*
X2627394D2*
X2638597D1*
X3526398D2*
X3964866D1*
X4075148D2*
X4222327D1*
X5192726D2*
X6402034D1*
X1100050Y3127857D2*
X1368597D1*
X1611398D2*
X1876605D1*
X2119405D2*
X2384593D1*
X2627394D2*
X2638597D1*
X3526398D2*
X3976292D1*
X4063702D2*
X4212659D1*
X5183058D2*
X6399944D1*
X1102140Y3118190D2*
X1368597D1*
X1611398D2*
X1876605D1*
X2119405D2*
X2384593D1*
X2627394D2*
X2638597D1*
X3526398D2*
X3996019D1*
X4043995D2*
X4202991D1*
X5173390D2*
X6397874D1*
X1104210Y3108523D2*
X1368597D1*
X1611398D2*
X1876605D1*
X2119405D2*
X2384593D1*
X2627394D2*
X2638597D1*
X3526398D2*
X4193323D1*
X5159464D2*
X6395784D1*
X1106300Y3098857D2*
X1368597D1*
X1611398D2*
X1876605D1*
X2119405D2*
X2384593D1*
X2627394D2*
X2638597D1*
X3526398D2*
X3608284D1*
X3671730D2*
X3688284D1*
X3751730D2*
X3768284D1*
X3831730D2*
X4183655D1*
X4614054D2*
X6393694D1*
X1108390Y3089190D2*
X1368597D1*
X1611398D2*
X1876605D1*
X2119405D2*
X2384593D1*
X2627394D2*
X2638597D1*
X3526398D2*
X3592288D1*
X3847706D2*
X4173987D1*
X4604405D2*
X6391624D1*
X1110460Y3079523D2*
X1368597D1*
X1611398D2*
X1876605D1*
X2119405D2*
X2384593D1*
X2627394D2*
X2638597D1*
X3526398D2*
X3582151D1*
X3857862D2*
X4164319D1*
X4594737D2*
X6389534D1*
X1112550Y3069857D2*
X1368597D1*
X1611398D2*
X1876605D1*
X2119405D2*
X2384593D1*
X2627394D2*
X2638597D1*
X3526398D2*
X3575003D1*
X3865011D2*
X4154651D1*
X4585069D2*
X6387444D1*
X1114933Y3060190D2*
X2419593D1*
X2592394D2*
X2703597D1*
X3526398D2*
X3569905D1*
X3870089D2*
X4144983D1*
X4575401D2*
X6385081D1*
X1117882Y3050523D2*
X2419593D1*
X2592394D2*
X2703597D1*
X3526398D2*
X3566448D1*
X3873546D2*
X4135315D1*
X4565733D2*
X6382112D1*
X1120851Y3040857D2*
X2419593D1*
X2592394D2*
X2704358D1*
X3526398D2*
X3564378D1*
X3875616D2*
X4125648D1*
X4556065D2*
X6379163D1*
X1123800Y3031190D2*
X2419593D1*
X2592394D2*
X2706898D1*
X3526398D2*
X3563616D1*
X3876398D2*
X4115980D1*
X4546398D2*
X6376194D1*
X1126769Y3021523D2*
X2419593D1*
X2592394D2*
X2711487D1*
X3526398D2*
X3564085D1*
X3875929D2*
X4106312D1*
X4536730D2*
X6373245D1*
X1129718Y3011857D2*
X2419593D1*
X2592394D2*
X2718831D1*
X3493351D2*
X3565823D1*
X3874190D2*
X4096644D1*
X4527062D2*
X6370276D1*
X1132687Y3002190D2*
X2419593D1*
X2592394D2*
X2728460D1*
X3488917D2*
X3568909D1*
X3871085D2*
X4086976D1*
X4517394D2*
X6367308D1*
X1135636Y2992523D2*
X2419593D1*
X2592394D2*
X2738128D1*
X3481808D2*
X3573577D1*
X3866417D2*
X4077327D1*
X4507726D2*
X6364358D1*
X1138605Y2982857D2*
X2419593D1*
X2598917D2*
X2747796D1*
X3472198D2*
X3580159D1*
X3859835D2*
X4067659D1*
X4498058D2*
X6361390D1*
X1141573Y2973190D2*
X2419593D1*
X2608585D2*
X2757464D1*
X3462530D2*
X3589417D1*
X3850577D2*
X4057991D1*
X4488390D2*
X6358440D1*
X1144523Y2963523D2*
X2419593D1*
X2618253D2*
X2767132D1*
X3452862D2*
X3603421D1*
X3676573D2*
X3683408D1*
X3756573D2*
X3763408D1*
X3836573D2*
X4048323D1*
X4478722D2*
X5422288D1*
X5457726D2*
X6355472D1*
X1147491Y2953857D2*
X2419593D1*
X2627921D2*
X2633590D1*
X3443214D2*
X4038655D1*
X4469054D2*
X4488597D1*
X4761398D2*
X4893812D1*
X5256183D2*
X5398909D1*
X5481085D2*
X6352523D1*
X1150440Y2944190D2*
X2420159D1*
X3432159D2*
X4028987D1*
X4459405D2*
X4488597D1*
X4761398D2*
X4869437D1*
X5280558D2*
X5386565D1*
X5493429D2*
X6349554D1*
X1153409Y2934523D2*
X2421858D1*
X2906398D2*
X4019319D1*
X4449737D2*
X4488597D1*
X4761398D2*
X4856917D1*
X5293077D2*
X5378148D1*
X5501847D2*
X6346585D1*
X1156358Y2924857D2*
X1710999D1*
X1768995D2*
X2424730D1*
X2906398D2*
X4009651D1*
X4440069D2*
X4488597D1*
X4761398D2*
X4847230D1*
X5302784D2*
X5372132D1*
X5507862D2*
X6343636D1*
X1159327Y2915190D2*
X1678616D1*
X1801378D2*
X2428929D1*
X2906398D2*
X3999983D1*
X4430401D2*
X4488597D1*
X4761398D2*
X4837562D1*
X5312433D2*
X5367933D1*
X5512062D2*
X6340667D1*
X1162296Y2905523D2*
X1659495D1*
X1820499D2*
X2058089D1*
X2141925D2*
X2434690D1*
X2906398D2*
X3990315D1*
X4420733D2*
X4488597D1*
X4761398D2*
X4827894D1*
X5322101D2*
X5365218D1*
X5514776D2*
X6337718D1*
X1165245Y2895857D2*
X1645140D1*
X1834855D2*
X2033597D1*
X2166417D2*
X2442444D1*
X2906398D2*
X3980648D1*
X4411065D2*
X4488597D1*
X4761398D2*
X4818226D1*
X5331769D2*
X5363831D1*
X5516163D2*
X6334749D1*
X1168214Y2886190D2*
X1633597D1*
X1846398D2*
X2017171D1*
X2182823D2*
X2452034D1*
X2906398D2*
X3970980D1*
X4401398D2*
X4488597D1*
X4761398D2*
X4808558D1*
X5340597D2*
X5363694D1*
X5516300D2*
X6331800D1*
X1171163Y2876523D2*
X1624007D1*
X1855987D2*
X2004515D1*
X2195480D2*
X2461702D1*
X2906398D2*
X3961312D1*
X4391730D2*
X4488597D1*
X4761398D2*
X4798890D1*
X5346964D2*
X5364808D1*
X5515187D2*
X6328831D1*
X1174132Y2866857D2*
X1615901D1*
X1864093D2*
X1994261D1*
X2205733D2*
X2471370D1*
X2906398D2*
X3951644D1*
X4382062D2*
X4488597D1*
X4761398D2*
X4789222D1*
X5351456D2*
X5367249D1*
X5512765D2*
X6325862D1*
X1177081Y2857190D2*
X1609026D1*
X1870968D2*
X1985745D1*
X2214249D2*
X2333597D1*
X2906398D2*
X3941976D1*
X4372394D2*
X4488597D1*
X4761398D2*
X4779554D1*
X5354405D2*
X5371116D1*
X5508878D2*
X6322913D1*
X1180050Y2847523D2*
X1603187D1*
X1876808D2*
X1978597D1*
X2221398D2*
X2333597D1*
X2906398D2*
X3932327D1*
X4362726D2*
X4488597D1*
X4761398D2*
X4770452D1*
X5356026D2*
X5376702D1*
X5503292D2*
X6319944D1*
X1183429Y2837857D2*
X1598245D1*
X1881749D2*
X1972601D1*
X2227394D2*
X2333597D1*
X2906398D2*
X3922659D1*
X4353058D2*
X4488597D1*
X5356398D2*
X5384534D1*
X5495460D2*
X6316585D1*
X1187315Y2828190D2*
X1594124D1*
X1885890D2*
X1967562D1*
X2232433D2*
X2333597D1*
X2906398D2*
X3912991D1*
X4343390D2*
X4488597D1*
X5686398D2*
X6312698D1*
X1191202Y2818523D2*
X1590726D1*
X1889269D2*
X1963421D1*
X2236573D2*
X2333597D1*
X2506398D2*
X2519710D1*
X2906398D2*
X3903323D1*
X4333722D2*
X4488597D1*
X5686398D2*
X6308812D1*
X1195069Y2808857D2*
X1588030D1*
X1891964D2*
X1960062D1*
X2506398D2*
X2529378D1*
X2906398D2*
X3893655D1*
X4324054D2*
X4488597D1*
X5686398D2*
X6304925D1*
X1198956Y2799190D2*
X1585999D1*
X1893995D2*
X1957444D1*
X2506398D2*
X2539026D1*
X2906398D2*
X3883987D1*
X4314405D2*
X4488597D1*
X5686398D2*
X6301038D1*
X1202843Y2789523D2*
X1584593D1*
X1895401D2*
X1955511D1*
X2506398D2*
X2548694D1*
X2906398D2*
X3874319D1*
X4304737D2*
X4488597D1*
X5686398D2*
X6297151D1*
X1206730Y2779857D2*
X1583792D1*
X1896202D2*
X1954261D1*
X2506398D2*
X2558362D1*
X2906398D2*
X3864651D1*
X4295069D2*
X4488597D1*
X5686398D2*
X6293265D1*
X1210616Y2770190D2*
X1583616D1*
X1896398D2*
X1953655D1*
X2506398D2*
X2569808D1*
X2906398D2*
X3854983D1*
X4285401D2*
X4488597D1*
X5686398D2*
X6289378D1*
X1214503Y2760523D2*
X1584026D1*
X1895968D2*
X1953694D1*
X2506398D2*
X2587757D1*
X2906398D2*
X3845315D1*
X4275733D2*
X4488597D1*
X5686398D2*
X6285491D1*
X1218390Y2750857D2*
X1585042D1*
X1894952D2*
X1954398D1*
X2506398D2*
X2633597D1*
X2906398D2*
X3835648D1*
X4266065D2*
X4488597D1*
X5686398D2*
X6281624D1*
X1222276Y2741190D2*
X1586683D1*
X1893312D2*
X1955726D1*
X2506398D2*
X2633597D1*
X2906398D2*
X3825980D1*
X4256398D2*
X4488597D1*
X5686398D2*
X6277737D1*
X1226163Y2731523D2*
X1588968D1*
X1891026D2*
X1957737D1*
X2506398D2*
X2633597D1*
X2906398D2*
X3816312D1*
X4246730D2*
X4488597D1*
X5686398D2*
X6273851D1*
X1230030Y2721857D2*
X1591917D1*
X1888097D2*
X1960472D1*
X2506398D2*
X2633597D1*
X2906398D2*
X3806644D1*
X4237062D2*
X4488597D1*
X5686398D2*
X6269964D1*
X1233917Y2712190D2*
X1595569D1*
X1884425D2*
X1963929D1*
X2506398D2*
X2633597D1*
X2906398D2*
X3796976D1*
X4227394D2*
X4488597D1*
X5686398D2*
X6266077D1*
X1237804Y2702523D2*
X1600003D1*
X1880011D2*
X1968187D1*
X2506398D2*
X2633597D1*
X2906398D2*
X3787327D1*
X4217726D2*
X4488597D1*
X5686398D2*
X6262190D1*
X1241690Y2692857D2*
X1605257D1*
X1874737D2*
X1973343D1*
X2506398D2*
X2633597D1*
X2906398D2*
X3777659D1*
X4208058D2*
X4488597D1*
X5686398D2*
X6258304D1*
X1245577Y2683190D2*
X1611487D1*
X1868526D2*
X1979495D1*
X2506398D2*
X2633597D1*
X2906398D2*
X3767991D1*
X4198390D2*
X4488597D1*
X5686398D2*
X6254417D1*
X1249464Y2673523D2*
X1618792D1*
X1861222D2*
X1986800D1*
X2506398D2*
X2633597D1*
X2906398D2*
X3758323D1*
X4188722D2*
X4488597D1*
X4906398D2*
X4923421D1*
X5686398D2*
X6250530D1*
X1253351Y2663857D2*
X1627405D1*
X1852589D2*
X1995530D1*
X2506398D2*
X2633597D1*
X2906398D2*
X3748655D1*
X4179054D2*
X4488597D1*
X4906398D2*
X5033597D1*
X5686398D2*
X6246663D1*
X1257237Y2654190D2*
X1637659D1*
X1842335D2*
X2006058D1*
X2506398D2*
X2633597D1*
X2906398D2*
X3738987D1*
X4169405D2*
X4488597D1*
X4906398D2*
X5033597D1*
X5686398D2*
X6242776D1*
X1261124Y2644523D2*
X1650120D1*
X1829874D2*
X2019105D1*
X2506398D2*
X2633597D1*
X2906398D2*
X3729319D1*
X4159737D2*
X4488597D1*
X4906398D2*
X6238890D1*
X1264991Y2634857D2*
X1665921D1*
X1814073D2*
X2021233D1*
X2506398D2*
X2633597D1*
X2906398D2*
X3719651D1*
X4150069D2*
X4488597D1*
X4906398D2*
X6235003D1*
X1269132Y2625190D2*
X1688050D1*
X1791944D2*
X2007737D1*
X2506398D2*
X2633597D1*
X2906398D2*
X3709983D1*
X4140401D2*
X4488597D1*
X4906398D2*
X6230882D1*
X1273995Y2615523D2*
X1996898D1*
X2506398D2*
X2633597D1*
X2906398D2*
X3700315D1*
X4130733D2*
X4488597D1*
X4906398D2*
X6225999D1*
X1278878Y2605857D2*
X1987952D1*
X2506398D2*
X2633597D1*
X2906398D2*
X3690648D1*
X4121065D2*
X4488597D1*
X4906398D2*
X6221116D1*
X1283741Y2596190D2*
X1980452D1*
X2506398D2*
X2633597D1*
X2906398D2*
X3680980D1*
X4111398D2*
X4488597D1*
X4906398D2*
X6216253D1*
X1288624Y2586523D2*
X1974144D1*
X2506398D2*
X2633597D1*
X2906398D2*
X2923499D1*
X2996495D2*
X3671312D1*
X4101730D2*
X4488597D1*
X4906398D2*
X6211370D1*
X1293487Y2576857D2*
X1968870D1*
X2506398D2*
X2633597D1*
X3010519D2*
X3661644D1*
X4092062D2*
X4488597D1*
X4906398D2*
X6206507D1*
X1298370Y2567190D2*
X1964476D1*
X2506398D2*
X2633597D1*
X3019815D2*
X3651976D1*
X4082394D2*
X4488597D1*
X4906398D2*
X6201624D1*
X1303253Y2557523D2*
X1960901D1*
X2506398D2*
X2633597D1*
X3026398D2*
X3642327D1*
X4072726D2*
X4488597D1*
X4906398D2*
X6196761D1*
X1308116Y2547857D2*
X1958089D1*
X2506398D2*
X2633597D1*
X3031065D2*
X3632659D1*
X4063058D2*
X4488597D1*
X4906398D2*
X6191878D1*
X1312999Y2538190D2*
X1955980D1*
X2506398D2*
X2633597D1*
X3034171D2*
X3622991D1*
X4053390D2*
X4488597D1*
X4906398D2*
X6187015D1*
X1317862Y2528523D2*
X1954534D1*
X2506398D2*
X2633597D1*
X3035909D2*
X3613323D1*
X4043722D2*
X4488597D1*
X4906398D2*
X6182132D1*
X1322745Y2518857D2*
X1953753D1*
X2506398D2*
X2633597D1*
X3036398D2*
X3603655D1*
X4034054D2*
X4488597D1*
X4906398D2*
X6177269D1*
X1327608Y2509190D2*
X1953636D1*
X2466398D2*
X2633597D1*
X3035616D2*
X3593987D1*
X4024405D2*
X4488597D1*
X4906398D2*
X6172386D1*
X1332491Y2499523D2*
X1954144D1*
X2466398D2*
X2633597D1*
X3033565D2*
X3584319D1*
X4014737D2*
X4488597D1*
X4906398D2*
X6167523D1*
X1337355Y2489857D2*
X1955296D1*
X2475343D2*
X2633597D1*
X3030108D2*
X3574651D1*
X4005069D2*
X4488597D1*
X4906398D2*
X6162640D1*
X1342237Y2480190D2*
X1957132D1*
X2485011D2*
X2633597D1*
X3025030D2*
X3564983D1*
X3995401D2*
X4488597D1*
X4906398D2*
X6157757D1*
X1347101Y2470523D2*
X1959632D1*
X2494679D2*
X2633597D1*
X3029952D2*
X3555315D1*
X3985733D2*
X4488597D1*
X4906398D2*
X6152894D1*
X1351983Y2460857D2*
X1962894D1*
X2504347D2*
X2633597D1*
X3033448D2*
X3545648D1*
X3976065D2*
X4488597D1*
X4906398D2*
X6148011D1*
X1356866Y2451190D2*
X1966937D1*
X2514015D2*
X2633597D1*
X3035558D2*
X3535980D1*
X3966398D2*
X4488597D1*
X4906398D2*
X6143148D1*
X1361730Y2441523D2*
X1971819D1*
X2523683D2*
X2633597D1*
X3036378D2*
X3526312D1*
X3956730D2*
X4488597D1*
X4906398D2*
X6138265D1*
X1366612Y2431857D2*
X1977679D1*
X2533351D2*
X2884046D1*
X3035968D2*
X3516644D1*
X3947062D2*
X4753597D1*
X4906398D2*
X6133401D1*
X1371476Y2422190D2*
X1984651D1*
X2543019D2*
X2885726D1*
X3034269D2*
X3506976D1*
X3937394D2*
X4753597D1*
X4906398D2*
X6128519D1*
X1377296Y2412523D2*
X1992952D1*
X2552687D2*
X2888792D1*
X3031222D2*
X3497327D1*
X3927726D2*
X4744886D1*
X4906398D2*
X6122698D1*
X1383253Y2402857D2*
X2002933D1*
X2562355D2*
X2893382D1*
X3026612D2*
X3487659D1*
X3918058D2*
X4735218D1*
X4906398D2*
X6116741D1*
X1389210Y2393190D2*
X2015179D1*
X2572023D2*
X2891292D1*
X3028702D2*
X3477991D1*
X3908390D2*
X4725550D1*
X4906398D2*
X6110804D1*
X1395167Y2383523D2*
X2025608D1*
X2581690D2*
X2887366D1*
X3032628D2*
X3468323D1*
X3898722D2*
X4715882D1*
X4906124D2*
X6104847D1*
X1401105Y2373857D2*
X2011155D1*
X2591358D2*
X2884886D1*
X3035108D2*
X3458655D1*
X3889054D2*
X4706233D1*
X4904659D2*
X6098890D1*
X1407062Y2364190D2*
X1999671D1*
X2601007D2*
X2883714D1*
X3036280D2*
X3448987D1*
X3879405D2*
X4696565D1*
X4901847D2*
X6092933D1*
X1413019Y2354523D2*
X1990257D1*
X2610675D2*
X2883792D1*
X3036202D2*
X3439319D1*
X3869737D2*
X4686898D1*
X4897530D2*
X6086995D1*
X1418976Y2344857D2*
X1982386D1*
X2620343D2*
X2885140D1*
X3034855D2*
X3429651D1*
X3860069D2*
X4677230D1*
X4891398D2*
X6081038D1*
X1424913Y2335190D2*
X1975784D1*
X2630011D2*
X2887796D1*
X3032198D2*
X3419983D1*
X3850401D2*
X4667562D1*
X4882823D2*
X6075081D1*
X1430870Y2325523D2*
X1970237D1*
X2639679D2*
X2891937D1*
X3028058D2*
X3410315D1*
X3840733D2*
X4657894D1*
X4873155D2*
X6069124D1*
X1436827Y2315857D2*
X1965608D1*
X2649347D2*
X2897874D1*
X3022120D2*
X3400648D1*
X3831065D2*
X4648226D1*
X4863487D2*
X6063187D1*
X1442765Y2306190D2*
X1961819D1*
X2659015D2*
X2906175D1*
X3013819D2*
X3390980D1*
X3821398D2*
X4638558D1*
X4853819D2*
X6057230D1*
X1448722Y2296523D2*
X1958792D1*
X2668683D2*
X2918304D1*
X3001690D2*
X3381312D1*
X3811730D2*
X4353499D1*
X4426495D2*
X4473499D1*
X4844151D2*
X6051273D1*
X1454679Y2286857D2*
X1956487D1*
X2678351D2*
X2940687D1*
X2979308D2*
X3371644D1*
X3802062D2*
X4339476D1*
X4440519D2*
X4459476D1*
X4834483D2*
X6045315D1*
X1460636Y2277190D2*
X1954866D1*
X2688019D2*
X3361976D1*
X3792394D2*
X4330198D1*
X4824815D2*
X6039378D1*
X1466573Y2267523D2*
X1953909D1*
X2697687D2*
X3352327D1*
X3782726D2*
X4323597D1*
X4815148D2*
X6033421D1*
X1472530Y2257857D2*
X1953597D1*
X2707355D2*
X3342659D1*
X3773058D2*
X4318929D1*
X4805480D2*
X6027464D1*
X1478487Y2248190D2*
X1953929D1*
X2717023D2*
X3332991D1*
X3763390D2*
X4315823D1*
X4795831D2*
X6021507D1*
X1484444Y2238523D2*
X1954905D1*
X2726690D2*
X3323323D1*
X3753722D2*
X4314085D1*
X4786163D2*
X6015569D1*
X1490382Y2228857D2*
X1956546D1*
X2736358D2*
X3313655D1*
X3744054D2*
X4313616D1*
X4776495D2*
X6009612D1*
X1496944Y2219190D2*
X1958870D1*
X2746007D2*
X3303987D1*
X3734405D2*
X4314378D1*
X4766827D2*
X6003050D1*
X1504093Y2209523D2*
X1961917D1*
X2238077D2*
X2333597D1*
X2755675D2*
X3294319D1*
X3724737D2*
X4316429D1*
X4757159D2*
X5995901D1*
X1511241Y2199857D2*
X1965726D1*
X2234269D2*
X2333597D1*
X3715069D2*
X4319886D1*
X4747491D2*
X5988753D1*
X1518390Y2190190D2*
X1970374D1*
X2229620D2*
X2333597D1*
X3705401D2*
X4324964D1*
X4737823D2*
X5981605D1*
X1525538Y2180523D2*
X1975960D1*
X2224034D2*
X2333597D1*
X3695733D2*
X4332112D1*
X4728155D2*
X5974456D1*
X1532687Y2170857D2*
X1982601D1*
X2217394D2*
X2333597D1*
X3686065D2*
X4342230D1*
X4437765D2*
X4462230D1*
X4717765D2*
X5967308D1*
X1539855Y2161190D2*
X1990511D1*
X2209483D2*
X2333597D1*
X3676398D2*
X4358167D1*
X4421827D2*
X4478167D1*
X4701827D2*
X5960159D1*
X1547003Y2151523D2*
X1999983D1*
X2200011D2*
X2333597D1*
X3666730D2*
X5953011D1*
X1554151Y2141857D2*
X2011526D1*
X2188468D2*
X2333597D1*
X3657062D2*
X5945862D1*
X1561300Y2132190D2*
X2026116D1*
X2173898D2*
X2333597D1*
X3647394D2*
X5938714D1*
X1568448Y2122523D2*
X2014769D1*
X2185226D2*
X2333597D1*
X3637726D2*
X5931565D1*
X1575597Y2112857D2*
X2002601D1*
X2197394D2*
X2333597D1*
X3628058D2*
X5924417D1*
X1582745Y2103190D2*
X1992679D1*
X2207315D2*
X2333597D1*
X3618390D2*
X5917269D1*
X1589894Y2093523D2*
X1984437D1*
X2215577D2*
X2333597D1*
X3608722D2*
X5910101D1*
X1597042Y2083857D2*
X1977483D1*
X2222511D2*
X2333597D1*
X3599054D2*
X5902952D1*
X1604190Y2074190D2*
X1971663D1*
X2228331D2*
X2333597D1*
X3589405D2*
X5895804D1*
X1611339Y2064523D2*
X1966800D1*
X2233214D2*
X2333597D1*
X3579737D2*
X5888655D1*
X1618487Y2054857D2*
X1962776D1*
X2237218D2*
X2333597D1*
X3570069D2*
X5881507D1*
X1625636Y2045190D2*
X1959554D1*
X2240440D2*
X2333597D1*
X3560401D2*
X5874358D1*
X1633155Y2035523D2*
X1957054D1*
X2242940D2*
X2333597D1*
X2506398D2*
X3320315D1*
X3550733D2*
X5866858D1*
X1641651Y2025857D2*
X1955257D1*
X2244757D2*
X2333597D1*
X2506398D2*
X3310648D1*
X3541065D2*
X5858343D1*
X1650167Y2016190D2*
X1954105D1*
X2245890D2*
X2333597D1*
X2506398D2*
X3300980D1*
X3531398D2*
X5849827D1*
X1658683Y2006523D2*
X1953616D1*
X2246378D2*
X2333597D1*
X2506398D2*
X3291312D1*
X3521730D2*
X5841331D1*
X1667179Y1996857D2*
X1953773D1*
X2246222D2*
X3281644D1*
X3512062D2*
X5832815D1*
X1675694Y1987190D2*
X1954573D1*
X2245421D2*
X3271976D1*
X3502394D2*
X5824319D1*
X1684190Y1977523D2*
X1956038D1*
X2243976D2*
X3262327D1*
X3492726D2*
X5815804D1*
X1692706Y1967857D2*
X1958167D1*
X2241827D2*
X3252659D1*
X3483058D2*
X5807288D1*
X1701222Y1958190D2*
X1960999D1*
X2238995D2*
X3242991D1*
X3473390D2*
X5798792D1*
X1709718Y1948523D2*
X1964593D1*
X2235401D2*
X3233323D1*
X3463722D2*
X5790276D1*
X1718233Y1938857D2*
X1969007D1*
X2230987D2*
X3223655D1*
X3454054D2*
X5781780D1*
X1726730Y1929190D2*
X1974319D1*
X2225675D2*
X3213987D1*
X3444405D2*
X5773265D1*
X1735245Y1919523D2*
X1980667D1*
X2219347D2*
X3204319D1*
X3434737D2*
X5764749D1*
X1743761Y1909857D2*
X1988187D1*
X2211808D2*
X3194651D1*
X3425069D2*
X5756253D1*
X1752257Y1900190D2*
X1997190D1*
X2202804D2*
X3184983D1*
X3415401D2*
X5747737D1*
X1760773Y1890523D2*
X2008089D1*
X2191905D2*
X3175315D1*
X3405733D2*
X5739241D1*
X1769269Y1880857D2*
X2021683D1*
X2178312D2*
X3165648D1*
X3396065D2*
X5730726D1*
X1777784Y1871190D2*
X2018655D1*
X2181339D2*
X3156019D1*
X3386398D2*
X5722210D1*
X1786769Y1861523D2*
X2005706D1*
X2194288D2*
X3149026D1*
X3376730D2*
X5713226D1*
X1796866Y1851857D2*
X1995237D1*
X2204757D2*
X3145179D1*
X3367062D2*
X5703148D1*
X1806944Y1842190D2*
X1986565D1*
X2213429D2*
X3143655D1*
X3357394D2*
X5693050D1*
X1817042Y1832523D2*
X1979280D1*
X2220714D2*
X3143597D1*
X3347726D2*
X5682972D1*
X1827120Y1822857D2*
X1973167D1*
X2226827D2*
X3143597D1*
X3338058D2*
X5672874D1*
X1837198Y1813190D2*
X1968050D1*
X2231944D2*
X3143597D1*
X3328390D2*
X5662796D1*
X1847296Y1803523D2*
X1963812D1*
X2236183D2*
X3143597D1*
X3326398D2*
X5652718D1*
X1857374Y1793857D2*
X1960374D1*
X2239620D2*
X3143597D1*
X3326398D2*
X5642620D1*
X1867472Y1784190D2*
X1957679D1*
X2242315D2*
X3143597D1*
X3326398D2*
X5632542D1*
X1877550Y1774523D2*
X1955687D1*
X2244308D2*
X3143597D1*
X3326398D2*
X5622444D1*
X1887628Y1764857D2*
X1954358D1*
X2245636D2*
X3143597D1*
X3326398D2*
X5612366D1*
X1897726Y1755190D2*
X1953694D1*
X2246300D2*
X3143597D1*
X3326398D2*
X5602288D1*
X1907804Y1745523D2*
X1953675D1*
X2246339D2*
X3143597D1*
X3326398D2*
X5592190D1*
X1917901Y1735857D2*
X1954280D1*
X2245714D2*
X3143597D1*
X3326398D2*
X3562288D1*
X3637726D2*
X5582112D1*
X1927980Y1726190D2*
X1955569D1*
X2244444D2*
X3143597D1*
X3326398D2*
X3548714D1*
X3651280D2*
X5572015D1*
X1938058Y1716523D2*
X1957503D1*
X2242491D2*
X3143597D1*
X3326398D2*
X3539671D1*
X3660343D2*
X5561937D1*
X1948155Y1706857D2*
X1960140D1*
X2239855D2*
X3143597D1*
X3330519D2*
X3533226D1*
X3666769D2*
X5551858D1*
X2236476Y1697190D2*
X3143597D1*
X3339815D2*
X3528675D1*
X3671319D2*
X5540355D1*
X2232296Y1687523D2*
X3143597D1*
X3346398D2*
X3525667D1*
X3674327D2*
X5528382D1*
X2227237Y1677857D2*
X3143597D1*
X3351065D2*
X3524007D1*
X3675987D2*
X5516409D1*
X2221202Y1668190D2*
X3143597D1*
X3354171D2*
X3523616D1*
X3676378D2*
X5504437D1*
X2214015Y1658523D2*
X3143597D1*
X3355909D2*
X3524476D1*
X3675519D2*
X5492464D1*
X2205460Y1648857D2*
X3143597D1*
X3356398D2*
X3526624D1*
X3673370D2*
X5480491D1*
X2195148Y1639190D2*
X3143597D1*
X3355616D2*
X3530179D1*
X3669815D2*
X5468519D1*
X2182413Y1629523D2*
X3143597D1*
X3353565D2*
X3535394D1*
X3664620D2*
X5456546D1*
X2165831Y1619857D2*
X3143597D1*
X3350108D2*
X3542698D1*
X3657315D2*
X5444573D1*
X2140929Y1610190D2*
X3143597D1*
X3345030D2*
X3553089D1*
X3646905D2*
X5432601D1*
X2079366Y1600523D2*
X3143597D1*
X3337901D2*
X3569710D1*
X3630304D2*
X5420628D1*
X2091339Y1590857D2*
X3143597D1*
X3327765D2*
X5408655D1*
X2103312Y1581190D2*
X3143597D1*
X3236398D2*
X3248167D1*
X3311827D2*
X5396683D1*
X2115284Y1571523D2*
X3143597D1*
X3236398D2*
X5384710D1*
X2127257Y1561857D2*
X3143597D1*
X3236398D2*
X3576155D1*
X3623839D2*
X5372737D1*
X2140890Y1552190D2*
X3143597D1*
X3236398D2*
X3556370D1*
X3643624D2*
X5359105D1*
X2155206Y1542523D2*
X3143597D1*
X3236398D2*
X3544905D1*
X3655089D2*
X5344788D1*
X2169503Y1532857D2*
X3143597D1*
X3236398D2*
X3536956D1*
X3663038D2*
X5330491D1*
X2183800Y1523190D2*
X3143597D1*
X3242023D2*
X3531292D1*
X3668702D2*
X5316194D1*
X2198116Y1513523D2*
X3143597D1*
X3251690D2*
X3527366D1*
X3672628D2*
X5301898D1*
X2212413Y1503857D2*
X3144026D1*
X3261358D2*
X3524886D1*
X3675108D2*
X5287581D1*
X2226710Y1494190D2*
X3146448D1*
X3271007D2*
X3523714D1*
X3676280D2*
X5273284D1*
X2241007Y1484523D2*
X3151429D1*
X3280675D2*
X3523792D1*
X3676202D2*
X5258987D1*
X2255323Y1474857D2*
X3159944D1*
X3290343D2*
X3525140D1*
X3674855D2*
X5244690D1*
X2269620Y1465190D2*
X3169612D1*
X3318878D2*
X3527796D1*
X3672198D2*
X5230374D1*
X2283917Y1455523D2*
X3179280D1*
X3332023D2*
X3531937D1*
X3668058D2*
X5216077D1*
X2298233Y1445857D2*
X3188929D1*
X3340851D2*
X3537874D1*
X3662120D2*
X5201780D1*
X2312530Y1436190D2*
X3198597D1*
X3347140D2*
X3546175D1*
X3653819D2*
X5187464D1*
X2327784Y1426523D2*
X3208265D1*
X3351573D2*
X3558304D1*
X3641690D2*
X5172210D1*
X2345089Y1416857D2*
X3205511D1*
X3354483D2*
X3580687D1*
X3619308D2*
X5154905D1*
X2362394Y1407190D2*
X3203948D1*
X3356065D2*
X5137601D1*
X2379698Y1397523D2*
X3203636D1*
X3356358D2*
X5120296D1*
X2397003Y1387857D2*
X3204593D1*
X3355421D2*
X5102991D1*
X2414308Y1378190D2*
X3206819D1*
X3353175D2*
X5085687D1*
X2431612Y1368523D2*
X3210491D1*
X3349523D2*
X5068382D1*
X2448917Y1358857D2*
X3215823D1*
X3344190D2*
X5051077D1*
X2466222Y1349190D2*
X3223284D1*
X3336710D2*
X5033792D1*
X2483526Y1339523D2*
X3233968D1*
X3326026D2*
X5016487D1*
X2500831Y1329857D2*
X3251331D1*
X3308663D2*
X4999183D1*
X2518136Y1320190D2*
X4981878D1*
X2538077Y1310523D2*
X4961917D1*
X2559464Y1300857D2*
X4940530D1*
X2580851Y1291190D2*
X4919144D1*
X2602237Y1281523D2*
X4897757D1*
X2623624Y1271857D2*
X4876370D1*
X2645011Y1262190D2*
X4854983D1*
X2666398Y1252523D2*
X4833597D1*
X2687784Y1242857D2*
X4812210D1*
X2709171Y1233190D2*
X4790843D1*
X2730558Y1223523D2*
X3262288D1*
X3297726D2*
X4769456D1*
X2756671Y1213857D2*
X3238909D1*
X3321085D2*
X4743323D1*
X2784034Y1204190D2*
X3226565D1*
X3333429D2*
X4715960D1*
X2811398Y1194523D2*
X3218148D1*
X3341847D2*
X4688597D1*
X2838761Y1184857D2*
X3212132D1*
X3347862D2*
X4661253D1*
X2866105Y1175190D2*
X3207933D1*
X3352062D2*
X3583382D1*
X3596632D2*
X4633890D1*
X2893468Y1165523D2*
X3205218D1*
X3354776D2*
X3551702D1*
X3628312D2*
X4606526D1*
X2920831Y1155857D2*
X3203831D1*
X3356163D2*
X3538343D1*
X3641651D2*
X3672288D1*
X3747726D2*
X4579163D1*
X2948194Y1146190D2*
X3203694D1*
X3356300D2*
X3529398D1*
X3650597D2*
X3658714D1*
X3761280D2*
X4551800D1*
X2983585Y1136523D2*
X3204808D1*
X3355187D2*
X3523030D1*
X3770343D2*
X4516429D1*
X3020694Y1126857D2*
X3207249D1*
X3352765D2*
X3518538D1*
X3776769D2*
X4479300D1*
X3057823Y1117190D2*
X3211116D1*
X3348878D2*
X3515589D1*
X3781319D2*
X4442171D1*
X3094952Y1107523D2*
X3216702D1*
X3343292D2*
X3513968D1*
X3784327D2*
X4405042D1*
X3132081Y1097857D2*
X3224534D1*
X3335460D2*
X3513636D1*
X3785987D2*
X4367913D1*
X3169210Y1088190D2*
X3235823D1*
X3324190D2*
X3514534D1*
X3786378D2*
X4330784D1*
X3221593Y1078523D2*
X3255003D1*
X3305011D2*
X3516722D1*
X3785519D2*
X4278401D1*
X3277960Y1068857D2*
X3520335D1*
X3783370D2*
X4222034D1*
X3334347Y1059190D2*
X3525608D1*
X3779815D2*
X4165667D1*
X3390714Y1049523D2*
X3532991D1*
X3774620D2*
X4109280D1*
X3489913Y1039857D2*
X3543519D1*
X3767315D2*
X4010101D1*
X3756905Y1030190D2*
X3896526D1*
X1374600Y3435400D2*
X1610400D1*
Y3064600D1*
X1369600D1*
Y3435400D1*
X1374600D1*
X1882600D2*
X1939221D1*
X1935933Y3440244D1*
X1933439Y3444577D1*
X1931238Y3449065D1*
X1929339Y3453689D1*
X1927751Y3458430D1*
X1926481Y3463264D1*
X1925533Y3468173D1*
X1924913Y3473133D1*
X1924623Y3478124D1*
X1924665Y3483123D1*
X1925037Y3488108D1*
X1925739Y3493058D1*
X1926768Y3497950D1*
X1928118Y3502763D1*
X1929785Y3507476D1*
X1931760Y3512069D1*
X1934035Y3516520D1*
X1936600Y3520811D1*
X1939443Y3524923D1*
X1942553Y3528837D1*
X1945915Y3532536D1*
X1949516Y3536004D1*
X1953338Y3539227D1*
X1957365Y3542188D1*
X1961579Y3544877D1*
X1965963Y3547280D1*
X1970496Y3549388D1*
X1975159Y3551190D1*
X1979931Y3552680D1*
X1984791Y3553850D1*
X1989718Y3554696D1*
X1994690Y3555213D1*
X1999686Y3555399D1*
X2004683Y3555254D1*
X2009659Y3554779D1*
X2014593Y3553974D1*
X2019463Y3552845D1*
X2024247Y3551395D1*
X2028925Y3549631D1*
X2033475Y3547562D1*
X2037879Y3545195D1*
X2042116Y3542542D1*
X2046167Y3539613D1*
X2050016Y3536423D1*
X2053645Y3532985D1*
X2057038Y3529314D1*
X2060180Y3525426D1*
X2063058Y3521338D1*
X2065659Y3517069D1*
X2067971Y3512636D1*
X2069984Y3508060D1*
X2071690Y3503361D1*
X2073080Y3498559D1*
X2074149Y3493676D1*
X2074893Y3488733D1*
X2075400Y3480000D1*
X2075234Y3475004D1*
X2074738Y3470029D1*
X2073913Y3465099D1*
X2072763Y3460234D1*
X2071293Y3455456D1*
X2069510Y3450785D1*
X2067421Y3446243D1*
X2065036Y3441850D1*
X2060743Y3435399D1*
X2118400Y3435400D1*
Y3064600D1*
X1877600D1*
Y3435400D1*
X1882600D1*
X2390600D2*
X2626400D1*
Y3064600D1*
X2591420D1*
X2591400Y2989355D1*
X2634598Y2946176D1*
X2634601Y2962399D1*
X2769269D1*
X2720826Y3010826D1*
X2717873Y3014021D1*
X2715180Y3017437D1*
X2712764Y3021054D1*
X2710638Y3024849D1*
X2708817Y3028799D1*
X2707311Y3032880D1*
X2706131Y3037067D1*
X2705282Y3041334D1*
X2704771Y3045653D1*
X2704600Y3055000D1*
Y3064590D1*
X2639600Y3064600D1*
Y3435400D1*
X2674581D1*
X2674600Y3444629D1*
X2544616Y3574610D1*
X1301035Y3574600D1*
X1298492Y3565715D1*
X1295121Y3556302D1*
X1291111Y3547143D1*
X1286482Y3538282D1*
X1281254Y3529759D1*
X1275453Y3521616D1*
X1269107Y3513891D1*
X1262244Y3506620D1*
X1254898Y3499838D1*
X1247103Y3493577D1*
X1238896Y3487867D1*
X1230317Y3482734D1*
X1221404Y3478202D1*
X1212202Y3474294D1*
X1202752Y3471027D1*
X1193101Y3468418D1*
X1183293Y3466478D1*
X1173375Y3465216D1*
X1163393Y3464640D1*
X1153396Y3464750D1*
X1143430Y3465547D1*
X1133542Y3467028D1*
X1123779Y3469184D1*
X1114188Y3472006D1*
X1104813Y3475480D1*
X1095699Y3479591D1*
X1086889Y3484318D1*
X1078425Y3489639D1*
X1070346Y3495530D1*
X1062692Y3501962D1*
X1055497Y3508904D1*
X1048797Y3516325D1*
X1042622Y3524188D1*
X1037003Y3532458D1*
X1034056Y3537363D1*
X1034840Y3518904D1*
X1064220Y3289476D1*
X1112951Y3063365D1*
X1180680Y2842201D1*
X1266925Y2627575D1*
X1371057Y2421041D1*
X1492331Y2224080D1*
X1629872Y2038115D1*
X1782688Y1864481D1*
X1949679Y1704434D1*
X1967532Y1690055D1*
X1963726Y1699300D1*
X1960564Y1708785D1*
X1958061Y1718465D1*
X1956229Y1728294D1*
X1955078Y1738225D1*
X1954611Y1748212D1*
X1954832Y1758208D1*
X1955739Y1768165D1*
X1957328Y1778036D1*
X1959592Y1787774D1*
X1962520Y1797334D1*
X1966098Y1806670D1*
X1970309Y1815738D1*
X1975133Y1824495D1*
X1980548Y1832900D1*
X1986527Y1840913D1*
X1993043Y1848496D1*
X2000065Y1855613D1*
X2007559Y1862231D1*
X2015490Y1868319D1*
X2023821Y1873846D1*
X2029204Y1876982D1*
X2022611Y1880906D1*
X2014335Y1886515D1*
X2006464Y1892680D1*
X1999035Y1899371D1*
X1992083Y1906557D1*
X1985642Y1914204D1*
X1979741Y1922275D1*
X1974409Y1930732D1*
X1969671Y1939536D1*
X1965549Y1948645D1*
X1962063Y1958016D1*
X1959229Y1967604D1*
X1957061Y1977364D1*
X1955568Y1987250D1*
X1954758Y1997215D1*
X1954635Y2007212D1*
X1955200Y2017194D1*
X1956449Y2027114D1*
X1958377Y2036924D1*
X1960974Y2046579D1*
X1964229Y2056033D1*
X1968126Y2065240D1*
X1972646Y2074158D1*
X1977768Y2082744D1*
X1983469Y2090958D1*
X1989720Y2098760D1*
X1996493Y2106115D1*
X2003755Y2112987D1*
X2011472Y2119343D1*
X2019608Y2125154D1*
X2028124Y2130392D1*
X2029204Y2130982D1*
X2022611Y2134906D1*
X2014335Y2140515D1*
X2006464Y2146680D1*
X1999035Y2153371D1*
X1992083Y2160557D1*
X1985642Y2168204D1*
X1979741Y2176275D1*
X1974409Y2184732D1*
X1969671Y2193536D1*
X1965549Y2202645D1*
X1962063Y2212016D1*
X1959229Y2221604D1*
X1957061Y2231364D1*
X1955568Y2241250D1*
X1954758Y2251215D1*
X1954635Y2261212D1*
X1955200Y2271194D1*
X1956449Y2281114D1*
X1958377Y2290924D1*
X1960974Y2300579D1*
X1964229Y2310033D1*
X1968126Y2319240D1*
X1972646Y2328158D1*
X1977768Y2336744D1*
X1983469Y2344958D1*
X1989720Y2352760D1*
X1996493Y2360115D1*
X2003755Y2366987D1*
X2011472Y2373343D1*
X2019608Y2379154D1*
X2028124Y2384392D1*
X2029204Y2384982D1*
X2022611Y2388906D1*
X2014335Y2394515D1*
X2006464Y2400680D1*
X1999035Y2407371D1*
X1992083Y2414557D1*
X1985642Y2422204D1*
X1979741Y2430275D1*
X1974409Y2438732D1*
X1969671Y2447536D1*
X1965549Y2456645D1*
X1962063Y2466016D1*
X1959229Y2475604D1*
X1957061Y2485364D1*
X1955568Y2495250D1*
X1954758Y2505215D1*
X1954635Y2515212D1*
X1955200Y2525194D1*
X1956449Y2535114D1*
X1958377Y2544924D1*
X1960974Y2554579D1*
X1964229Y2564033D1*
X1968126Y2573240D1*
X1972646Y2582158D1*
X1977768Y2590744D1*
X1983469Y2598958D1*
X1989720Y2606760D1*
X1996493Y2614115D1*
X2003755Y2620987D1*
X2011472Y2627343D1*
X2019608Y2633154D1*
X2028124Y2638392D1*
X2029204Y2638982D1*
X2022611Y2642906D1*
X2014335Y2648515D1*
X2006464Y2654680D1*
X1999035Y2661371D1*
X1992083Y2668557D1*
X1985642Y2676204D1*
X1979741Y2684275D1*
X1974409Y2692732D1*
X1969671Y2701536D1*
X1965549Y2710645D1*
X1962063Y2720016D1*
X1959229Y2729604D1*
X1957061Y2739364D1*
X1955568Y2749250D1*
X1954758Y2759215D1*
X1954635Y2769212D1*
X1955200Y2779194D1*
X1956449Y2789114D1*
X1958377Y2798924D1*
X1960974Y2808579D1*
X1964229Y2818033D1*
X1968126Y2827240D1*
X1972646Y2836158D1*
X1977768Y2844744D1*
X1983469Y2852958D1*
X1989720Y2860760D1*
X1996493Y2868115D1*
X2003755Y2874987D1*
X2011472Y2881343D1*
X2019608Y2887154D1*
X2028124Y2892392D1*
X2036980Y2897033D1*
X2046134Y2901054D1*
X2055542Y2904437D1*
X2065161Y2907164D1*
X2074944Y2909225D1*
X2084846Y2910608D1*
X2094820Y2911308D1*
X2104818Y2911320D1*
X2114793Y2910646D1*
X2124698Y2909287D1*
X2134487Y2907251D1*
X2144112Y2904547D1*
X2153529Y2901188D1*
X2162693Y2897190D1*
X2171560Y2892571D1*
X2180089Y2887354D1*
X2188240Y2881564D1*
X2195973Y2875226D1*
X2203252Y2868373D1*
X2210043Y2861035D1*
X2216314Y2853248D1*
X2222035Y2845049D1*
X2227179Y2836475D1*
X2231721Y2827569D1*
X2235641Y2818371D1*
X2236736Y2815382D1*
X2334605Y2815400D1*
X2334601Y2860399D1*
X2478839D1*
X2445613Y2893613D1*
X2442183Y2897250D1*
X2438971Y2901081D1*
X2435990Y2905094D1*
X2433248Y2909274D1*
X2430756Y2913608D1*
X2428521Y2918080D1*
X2426552Y2922675D1*
X2424855Y2927378D1*
X2423436Y2932172D1*
X2422301Y2937040D1*
X2421452Y2941967D1*
X2420892Y2946935D1*
X2420625Y2951946D1*
X2420600Y3064605D1*
X2385600Y3064600D1*
Y3435400D1*
X2390600D1*
X3095417D2*
X3134400D1*
Y3185419D1*
X3184590Y3185400D1*
X3184600Y3200400D1*
X3525400D1*
Y3019600D1*
X3494404D1*
X3492689Y3012880D1*
X3491183Y3008799D1*
X3489362Y3004849D1*
X3487236Y3001054D1*
X3484820Y2997437D1*
X3482127Y2994021D1*
X3475638Y2987291D1*
X3439174Y2950826D1*
X3435979Y2947873D1*
X3432563Y2945180D1*
X3428946Y2942764D1*
X3425151Y2940638D1*
X3421201Y2938817D1*
X3417120Y2937311D1*
X3412933Y2936131D1*
X3408666Y2935282D1*
X3404347Y2934771D1*
X3395000Y2934600D1*
X2905410D1*
X2905401Y2572013D1*
X2909516Y2576004D1*
X2913338Y2579227D1*
X2917365Y2582188D1*
X2921579Y2584877D1*
X2925963Y2587280D1*
X2930496Y2589388D1*
X2935159Y2591190D1*
X2939931Y2592680D1*
X2944791Y2593850D1*
X2949718Y2594696D1*
X2954690Y2595213D1*
X2959686Y2595399D1*
X2964683Y2595254D1*
X2969659Y2594779D1*
X2974593Y2593974D1*
X2979463Y2592845D1*
X2984247Y2591395D1*
X2988925Y2589631D1*
X2993475Y2587562D1*
X2997879Y2585195D1*
X3002116Y2582542D1*
X3006167Y2579613D1*
X3010016Y2576423D1*
X3013645Y2572985D1*
X3017038Y2569314D1*
X3020180Y2565426D1*
X3023058Y2561338D1*
X3025659Y2557069D1*
X3027971Y2552636D1*
X3029984Y2548060D1*
X3031690Y2543361D1*
X3033080Y2538559D1*
X3034149Y2533676D1*
X3034893Y2528733D1*
X3035400Y2520000D1*
X3035234Y2515004D1*
X3034738Y2510029D1*
X3033913Y2505099D1*
X3032763Y2500234D1*
X3031293Y2495456D1*
X3029510Y2490785D1*
X3027421Y2486243D1*
X3023899Y2480051D1*
X3027971Y2472636D1*
X3029984Y2468060D1*
X3031690Y2463361D1*
X3033080Y2458559D1*
X3034149Y2453676D1*
X3034893Y2448733D1*
X3035400Y2440000D1*
X3035234Y2435004D1*
X3034738Y2430029D1*
X3033913Y2425099D1*
X3032763Y2420234D1*
X3031293Y2415456D1*
X3029510Y2410785D1*
X3027421Y2406243D1*
X3023899Y2400051D1*
X3027971Y2392636D1*
X3029984Y2388060D1*
X3031690Y2383361D1*
X3033080Y2378559D1*
X3034149Y2373676D1*
X3034893Y2368733D1*
X3035400Y2360000D1*
X3035234Y2355004D1*
X3034738Y2350029D1*
X3033913Y2345099D1*
X3032763Y2340234D1*
X3031293Y2335456D1*
X3029510Y2330785D1*
X3027421Y2326243D1*
X3025036Y2321850D1*
X3022366Y2317624D1*
X3019420Y2313585D1*
X3016214Y2309749D1*
X3012761Y2306135D1*
X3009075Y2302757D1*
X3005174Y2299631D1*
X3001075Y2296770D1*
X2996795Y2294187D1*
X2992353Y2291894D1*
X2987769Y2289900D1*
X2983062Y2288214D1*
X2978255Y2286843D1*
X2973367Y2285794D1*
X2968420Y2285072D1*
X2963437Y2284678D1*
X2958438Y2284616D1*
X2953446Y2284885D1*
X2948483Y2285485D1*
X2943571Y2286412D1*
X2938731Y2287662D1*
X2933984Y2289230D1*
X2929352Y2291110D1*
X2924854Y2293292D1*
X2920511Y2295768D1*
X2916341Y2298526D1*
X2912364Y2301554D1*
X2908596Y2304839D1*
X2905053Y2308366D1*
X2901753Y2312121D1*
X2898708Y2316086D1*
X2895933Y2320244D1*
X2893439Y2324577D1*
X2891238Y2329065D1*
X2889339Y2333689D1*
X2887751Y2338430D1*
X2886481Y2343264D1*
X2885533Y2348173D1*
X2884913Y2353133D1*
X2884623Y2358124D1*
X2884665Y2363123D1*
X2885037Y2368108D1*
X2885739Y2373058D1*
X2886768Y2377950D1*
X2888118Y2382763D1*
X2889785Y2387476D1*
X2891760Y2392069D1*
X2894035Y2396520D1*
X2896109Y2399990D1*
X2893439Y2404577D1*
X2891238Y2409065D1*
X2889339Y2413689D1*
X2887751Y2418430D1*
X2886481Y2423264D1*
X2885533Y2428173D1*
X2884913Y2433133D1*
X2884654Y2437598D1*
X2634601Y2437599D1*
Y2754588D1*
X2616221Y2754683D1*
X2611235Y2755051D1*
X2606280Y2755709D1*
X2601371Y2756656D1*
X2596526Y2757889D1*
X2591762Y2759403D1*
X2587094Y2761194D1*
X2582539Y2763254D1*
X2578113Y2765578D1*
X2573830Y2768156D1*
X2569705Y2770981D1*
X2565752Y2774042D1*
X2559613Y2779613D1*
X2505406Y2833820D1*
X2505401Y2509599D1*
X2465381D1*
X2465400Y2498809D1*
X2758797Y2205409D1*
X3291191Y2205400D1*
X4594594Y3508799D1*
X4594600Y3684590D1*
X4530811Y3684599D1*
X4535659Y3677069D1*
X4537971Y3672636D1*
X4539984Y3668060D1*
X4541690Y3663361D1*
X4543080Y3658559D1*
X4544149Y3653676D1*
X4544893Y3648733D1*
X4545400Y3640000D1*
X4545234Y3635004D1*
X4544738Y3630029D1*
X4543913Y3625099D1*
X4542763Y3620234D1*
X4541293Y3615456D1*
X4539510Y3610785D1*
X4537421Y3606243D1*
X4535036Y3601850D1*
X4532366Y3597624D1*
X4529420Y3593585D1*
X4526214Y3589749D1*
X4522761Y3586135D1*
X4519075Y3582757D1*
X4515174Y3579631D1*
X4511075Y3576770D1*
X4506795Y3574187D1*
X4502353Y3571894D1*
X4497769Y3569900D1*
X4493062Y3568214D1*
X4488255Y3566843D1*
X4483367Y3565794D1*
X4478420Y3565072D1*
X4473437Y3564678D1*
X4468438Y3564616D1*
X4463446Y3564885D1*
X4458483Y3565485D1*
X4453571Y3566412D1*
X4448731Y3567662D1*
X4443984Y3569230D1*
X4439352Y3571110D1*
X4434854Y3573292D1*
X4430511Y3575768D1*
X4426341Y3578526D1*
X4422364Y3581554D1*
X4418596Y3584839D1*
X4415053Y3588366D1*
X4411753Y3592121D1*
X4408708Y3596086D1*
X4405933Y3600244D1*
X4403439Y3604577D1*
X4401238Y3609065D1*
X4399339Y3613689D1*
X4397751Y3618430D1*
X4396481Y3623264D1*
X4395533Y3628173D1*
X4394913Y3633133D1*
X4394623Y3638124D1*
X4394665Y3643123D1*
X4395037Y3648108D1*
X4395739Y3653058D1*
X4396768Y3657950D1*
X4398118Y3662763D1*
X4399785Y3667476D1*
X4401760Y3672069D1*
X4404035Y3676520D1*
X4406600Y3680811D1*
X4409210Y3684585D1*
X4379601Y3684599D1*
X4379600Y4004619D1*
X4344600Y4004600D1*
Y4135400D1*
X4444581D1*
X4444587Y4277900D1*
X4464567D1*
X4464726Y4283549D1*
X4465145Y4287089D1*
X4465841Y4290585D1*
X4466808Y4294016D1*
X4468042Y4297361D1*
X4469535Y4300598D1*
X4471277Y4303708D1*
X4473257Y4306672D1*
X4475464Y4309472D1*
X4481419Y4315625D1*
X4500515Y4334523D1*
X4503314Y4336730D1*
X4506278Y4338710D1*
X4509401Y4340458D1*
X4509593Y4342100D1*
Y4364619D1*
X4475403Y4364600D1*
X4475400Y4319600D1*
X4304600D1*
X4304601Y4670399D1*
X4475401D1*
Y4625419D1*
X4554590Y4625400D1*
X4554600Y5930000D1*
X4554740Y5933562D1*
X4555159Y5937102D1*
X4555854Y5940598D1*
X4556822Y5944029D1*
X4558056Y5947374D1*
X4559548Y5950611D1*
X4561290Y5953721D1*
X4563271Y5956685D1*
X4565478Y5959485D1*
X4571433Y5965638D1*
X4665194Y6059399D1*
X4665739Y6063058D1*
X4666768Y6067950D1*
X4668118Y6072763D1*
X4669785Y6077476D1*
X4671760Y6082069D1*
X4674035Y6086520D1*
X4676600Y6090811D1*
X4679443Y6094923D1*
X4682553Y6098837D1*
X4685915Y6102536D1*
X4689516Y6106004D1*
X4693338Y6109227D1*
X4697365Y6112188D1*
X4701579Y6114877D1*
X4705963Y6117280D1*
X4710496Y6119388D1*
X4715159Y6121190D1*
X4719931Y6122680D1*
X4724791Y6123850D1*
X4729718Y6124696D1*
X4734690Y6125213D1*
X4739686Y6125399D1*
X4744683Y6125254D1*
X4749659Y6124779D1*
X4754593Y6123974D1*
X4759463Y6122845D1*
X4764247Y6121395D1*
X4768925Y6119631D1*
X4773475Y6117562D1*
X4777879Y6115195D1*
X4782116Y6112542D1*
X4786167Y6109613D1*
X4790016Y6106423D1*
X4793645Y6102985D1*
X4797038Y6099314D1*
X4800180Y6095426D1*
X4803058Y6091338D1*
X4805659Y6087069D1*
X4807971Y6082636D1*
X4809984Y6078060D1*
X4811690Y6073361D1*
X4813080Y6068559D1*
X4814149Y6063676D1*
X4814893Y6058733D1*
X4815400Y6050000D1*
X4815234Y6045004D1*
X4814738Y6040029D1*
X4813913Y6035099D1*
X4812763Y6030234D1*
X4811293Y6025456D1*
X4809510Y6020785D1*
X4806965Y6015403D1*
X4815400Y6015400D1*
Y5995419D1*
X4849590Y5995400D1*
X4849601Y6035399D1*
X5030401D1*
Y5864599D1*
X4849601D1*
Y5904619D1*
X4815410Y5904600D1*
X4815400Y5884600D1*
X4806982D1*
X4809984Y5878060D1*
X4811690Y5873361D1*
X4813080Y5868559D1*
X4814149Y5863676D1*
X4814893Y5858733D1*
X4815400Y5850000D1*
X4815234Y5845004D1*
X4814738Y5840029D1*
X4813913Y5835099D1*
X4812763Y5830234D1*
X4811293Y5825456D1*
X4809510Y5820785D1*
X4806965Y5815403D1*
X4815401Y5815399D1*
Y5795419D1*
X4849590Y5795400D1*
X4849600Y5835400D1*
X5030400D1*
Y5664600D1*
X4849600D1*
Y5704619D1*
X4815410Y5704600D1*
X4815401Y5684599D1*
X4800811D1*
X4805659Y5677069D1*
X4807971Y5672636D1*
X4809984Y5668060D1*
X4811690Y5663361D1*
X4813080Y5658559D1*
X4814149Y5653676D1*
X4814893Y5648733D1*
X4815400Y5640000D1*
X4815234Y5635004D1*
X4814738Y5630029D1*
X4813913Y5625099D1*
X4812763Y5620234D1*
X4811293Y5615456D1*
X4809510Y5610785D1*
X4806965Y5605403D1*
X4815401Y5605399D1*
Y5585419D1*
X4849590Y5585400D1*
X4849600Y5625400D1*
X5030400D1*
Y5454600D1*
X4985381D1*
X4985400Y5435410D1*
X5200400Y5435400D1*
Y5264600D1*
X5176982D1*
X5179984Y5258060D1*
X5181690Y5253361D1*
X5183080Y5248559D1*
X5183844Y5245069D1*
X6026660Y5245050D1*
X6007676Y5275909D1*
X5870131Y5461885D1*
X5717315Y5635519D1*
X5550324Y5795565D1*
X5370362Y5940875D1*
X5178726Y6070397D1*
X4976794Y6183203D1*
X4766024Y6278477D1*
X4547935Y6355532D1*
X4324096Y6413815D1*
X4096121Y6452906D1*
X3865651Y6472523D1*
X3634349D1*
X3403879Y6452906D1*
X3175904Y6413817D1*
X2952063Y6355534D1*
X2733973Y6278475D1*
X2523203Y6183203D1*
X2321274Y6070397D1*
X2129637Y5940875D1*
X1949674Y5795565D1*
X1782694Y5635528D1*
X1629869Y5461884D1*
X1492328Y5275918D1*
X1371054Y5078956D1*
X1266922Y4872419D1*
X1180681Y4657796D1*
X1112949Y4436632D1*
X1064219Y4210521D1*
X1034840Y3981092D1*
X1034057Y3962672D1*
X1037768Y3968744D1*
X1043469Y3976958D1*
X1049720Y3984760D1*
X1056493Y3992115D1*
X1063755Y3998987D1*
X1071472Y4005343D1*
X1079608Y4011154D1*
X1088124Y4016392D1*
X1096980Y4021033D1*
X1106134Y4025054D1*
X1115542Y4028437D1*
X1125161Y4031164D1*
X1134944Y4033225D1*
X1144846Y4034608D1*
X1154820Y4035308D1*
X1164818Y4035320D1*
X1174793Y4034646D1*
X1184698Y4033287D1*
X1194487Y4031251D1*
X1204112Y4028547D1*
X1213529Y4025188D1*
X1222693Y4021190D1*
X1231560Y4016571D1*
X1240089Y4011354D1*
X1248240Y4005564D1*
X1255973Y3999226D1*
X1263252Y3992373D1*
X1270043Y3985035D1*
X1276314Y3977248D1*
X1282035Y3969049D1*
X1287179Y3960475D1*
X1291721Y3951569D1*
X1295641Y3942371D1*
X1298110Y3935394D1*
X2643779Y3935317D1*
X2648765Y3934949D1*
X2653720Y3934291D1*
X2658629Y3933344D1*
X2663474Y3932111D1*
X2668239Y3930597D1*
X2672906Y3928806D1*
X2677461Y3926746D1*
X2681888Y3924422D1*
X2686171Y3921844D1*
X2690295Y3919019D1*
X2694248Y3915958D1*
X2700387Y3910387D1*
X3073000Y3537656D1*
X3076266Y3533871D1*
X3079305Y3529901D1*
X3082106Y3525760D1*
X3084660Y3521462D1*
X3086958Y3517023D1*
X3088993Y3512456D1*
X3090756Y3507778D1*
X3092243Y3503005D1*
X3093449Y3498154D1*
X3094368Y3493240D1*
X3094998Y3488280D1*
X3095400Y3480000D1*
Y3435410D1*
X3183122Y4790965D2*
X3181127Y4781746D1*
X3178606Y4772070D1*
X3175676Y4762509D1*
X3172343Y4753082D1*
X3168613Y4743804D1*
X3164491Y4734694D1*
X3159987Y4725767D1*
X3155108Y4717039D1*
X3149862Y4708526D1*
X3144260Y4700244D1*
X3138310Y4692207D1*
X3132025Y4684430D1*
X3125416Y4676926D1*
X3118493Y4669711D1*
X3111271Y4662796D1*
X3103761Y4656193D1*
X3095978Y4649916D1*
X3087935Y4643975D1*
X3079647Y4638381D1*
X3071129Y4633144D1*
X3062396Y4628273D1*
X3053464Y4623777D1*
X3044350Y4619665D1*
X3035069Y4615944D1*
X3025638Y4612620D1*
X3016075Y4609700D1*
X3006396Y4607189D1*
X2996619Y4605090D1*
X2986763Y4603409D1*
X2976843Y4602148D1*
X2966879Y4601310D1*
X2956888Y4600895D1*
X2946889Y4600905D1*
X2936899Y4601339D1*
X2926937Y4602198D1*
X2917020Y4603479D1*
X2907167Y4605179D1*
X2897394Y4607297D1*
X2887721Y4609828D1*
X2878163Y4612767D1*
X2868739Y4616110D1*
X2859465Y4619850D1*
X2850359Y4623980D1*
X2841436Y4628493D1*
X2832713Y4633381D1*
X2824206Y4638635D1*
X2815929Y4644246D1*
X2807898Y4650203D1*
X2800127Y4656496D1*
X2792631Y4663113D1*
X2785422Y4670043D1*
X2778514Y4677272D1*
X2771919Y4684788D1*
X2765650Y4692578D1*
X2759716Y4700627D1*
X2754131Y4708920D1*
X2748902Y4717444D1*
X2744040Y4726181D1*
X2739553Y4735117D1*
X2735450Y4744236D1*
X2731738Y4753521D1*
X2728424Y4762955D1*
X2725513Y4772521D1*
X2723011Y4782202D1*
X2720923Y4791981D1*
X2719251Y4801839D1*
X2718000Y4811760D1*
X2717172Y4821725D1*
X2716767Y4831716D1*
X2716787Y4841715D1*
X2717231Y4851705D1*
X2718100Y4861666D1*
X2719390Y4871582D1*
X2721101Y4881434D1*
X2723228Y4891204D1*
X2725769Y4900875D1*
X2728718Y4910430D1*
X2732070Y4919850D1*
X2735819Y4929120D1*
X2739958Y4938222D1*
X2744480Y4947141D1*
X2749377Y4955859D1*
X2754640Y4964361D1*
X2760258Y4972632D1*
X2766224Y4980657D1*
X2772524Y4988422D1*
X2779149Y4995912D1*
X2786086Y5003114D1*
X2793322Y5010014D1*
X2800845Y5016602D1*
X2808641Y5022864D1*
X2816695Y5028789D1*
X2824994Y5034366D1*
X2833523Y5039586D1*
X2842265Y5044440D1*
X2851206Y5048917D1*
X2860329Y5053011D1*
X2869617Y5056714D1*
X2879054Y5060019D1*
X2888623Y5062920D1*
X2898307Y5065412D1*
X2908088Y5067491D1*
X2917948Y5069153D1*
X2927870Y5070394D1*
X2937836Y5071213D1*
X2947827Y5071607D1*
X2957826Y5071578D1*
X2967815Y5071123D1*
X2977776Y5070245D1*
X2987690Y5068944D1*
X2997540Y5067224D1*
X3007309Y5065087D1*
X3016977Y5062537D1*
X3026529Y5059578D1*
X3035946Y5056217D1*
X3045212Y5052459D1*
X3054310Y5048310D1*
X3063224Y5043779D1*
X3071937Y5038874D1*
X3080434Y5033603D1*
X3088700Y5027976D1*
X3096719Y5022002D1*
X3104477Y5015694D1*
X3110759Y5010150D1*
X3109339Y5013689D1*
X3107751Y5018430D1*
X3106481Y5023264D1*
X3105533Y5028173D1*
X3104913Y5033133D1*
X3104623Y5038124D1*
X3104665Y5043123D1*
X3105037Y5048108D1*
X3105739Y5053058D1*
X3106768Y5057950D1*
X3108118Y5062763D1*
X3110703Y5069611D1*
X3094600Y5069600D1*
Y5250400D1*
X3425401Y5250399D1*
Y5069599D1*
X3249365Y5069600D1*
X3251690Y5063361D1*
X3253080Y5058559D1*
X3254149Y5053676D1*
X3254893Y5048733D1*
X3255400Y5040000D1*
X3255234Y5035004D1*
X3254738Y5030029D1*
X3253913Y5025099D1*
X3252763Y5020234D1*
X3251293Y5015456D1*
X3249510Y5010785D1*
X3247421Y5006243D1*
X3245036Y5001850D1*
X3242366Y4997624D1*
X3239420Y4993585D1*
X3236214Y4989749D1*
X3232761Y4986135D1*
X3229075Y4982757D1*
X3225174Y4979631D1*
X3221075Y4976770D1*
X3216795Y4974187D1*
X3212353Y4971894D1*
X3207769Y4969900D1*
X3203062Y4968214D1*
X3198255Y4966843D1*
X3193367Y4965794D1*
X3188420Y4965072D1*
X3183437Y4964678D1*
X3178438Y4964616D1*
X3173446Y4964885D1*
X3168483Y4965485D1*
X3163571Y4966412D1*
X3158731Y4967662D1*
X3153984Y4969230D1*
X3149352Y4971110D1*
X3142598Y4974578D1*
X3147629Y4967360D1*
X3153021Y4958939D1*
X3158050Y4950297D1*
X3162708Y4941448D1*
X3166985Y4932410D1*
X3170875Y4923199D1*
X3174371Y4913830D1*
X3177514Y4904153D1*
X3183338Y4909227D1*
X3187365Y4912188D1*
X3191579Y4914877D1*
X3195963Y4917280D1*
X3200496Y4919388D1*
X3205159Y4921190D1*
X3209931Y4922680D1*
X3214791Y4923850D1*
X3219718Y4924696D1*
X3224690Y4925213D1*
X3229686Y4925399D1*
X3234683Y4925254D1*
X3239659Y4924779D1*
X3244593Y4923974D1*
X3249463Y4922845D1*
X3254247Y4921395D1*
X3258925Y4919631D1*
X3263475Y4917562D1*
X3267879Y4915195D1*
X3272116Y4912542D1*
X3276167Y4909613D1*
X3280016Y4906423D1*
X3283645Y4902985D1*
X3287038Y4899314D1*
X3290180Y4895426D1*
X3293058Y4891338D1*
X3295659Y4887069D1*
X3297971Y4882636D1*
X3299984Y4878060D1*
X3301690Y4873361D1*
X3303080Y4868559D1*
X3304149Y4863676D1*
X3304893Y4858733D1*
X3305400Y4850000D1*
X3305234Y4845004D1*
X3304738Y4840029D1*
X3303913Y4835099D1*
X3302763Y4830234D1*
X3301293Y4825456D1*
X3299510Y4820785D1*
X3297421Y4816243D1*
X3295036Y4811850D1*
X3292366Y4807624D1*
X3289420Y4803585D1*
X3286214Y4799749D1*
X3282761Y4796135D1*
X3279075Y4792757D1*
X3275174Y4789631D1*
X3271075Y4786770D1*
X3266795Y4784187D1*
X3262353Y4781894D1*
X3257769Y4779900D1*
X3253062Y4778214D1*
X3248255Y4776843D1*
X3243367Y4775794D1*
X3238420Y4775072D1*
X3233437Y4774678D1*
X3228438Y4774616D1*
X3223446Y4774885D1*
X3218483Y4775485D1*
X3213571Y4776412D1*
X3208731Y4777662D1*
X3203984Y4779230D1*
X3199352Y4781110D1*
X3194854Y4783292D1*
X3190511Y4785768D1*
X3186341Y4788526D1*
X3183125Y4790974D1*
X1787470Y4831247D2*
X1787046Y4821257D1*
X1786197Y4811294D1*
X1784926Y4801375D1*
X1783235Y4791520D1*
X1781127Y4781746D1*
X1778606Y4772070D1*
X1775676Y4762509D1*
X1772343Y4753082D1*
X1768613Y4743804D1*
X1764491Y4734694D1*
X1759987Y4725767D1*
X1755108Y4717039D1*
X1749862Y4708526D1*
X1744260Y4700244D1*
X1738310Y4692207D1*
X1732025Y4684430D1*
X1725416Y4676926D1*
X1718493Y4669711D1*
X1711271Y4662796D1*
X1703761Y4656193D1*
X1695978Y4649916D1*
X1687935Y4643975D1*
X1679647Y4638381D1*
X1671129Y4633144D1*
X1662396Y4628273D1*
X1653464Y4623777D1*
X1644350Y4619665D1*
X1635069Y4615944D1*
X1625638Y4612620D1*
X1616075Y4609700D1*
X1606396Y4607189D1*
X1596619Y4605090D1*
X1586763Y4603409D1*
X1576843Y4602148D1*
X1566879Y4601310D1*
X1556888Y4600895D1*
X1546889Y4600905D1*
X1536899Y4601339D1*
X1526937Y4602198D1*
X1517020Y4603479D1*
X1507167Y4605179D1*
X1497394Y4607297D1*
X1487721Y4609828D1*
X1478163Y4612767D1*
X1468739Y4616110D1*
X1459465Y4619850D1*
X1450359Y4623980D1*
X1441436Y4628493D1*
X1432713Y4633381D1*
X1424206Y4638635D1*
X1415929Y4644246D1*
X1407898Y4650203D1*
X1400127Y4656496D1*
X1392631Y4663113D1*
X1385422Y4670043D1*
X1378514Y4677272D1*
X1371919Y4684788D1*
X1365650Y4692578D1*
X1359716Y4700627D1*
X1354131Y4708920D1*
X1348902Y4717444D1*
X1344040Y4726181D1*
X1339553Y4735117D1*
X1335450Y4744236D1*
X1331738Y4753521D1*
X1328424Y4762955D1*
X1325513Y4772521D1*
X1323011Y4782202D1*
X1320923Y4791981D1*
X1319251Y4801839D1*
X1318000Y4811760D1*
X1317172Y4821725D1*
X1316767Y4831716D1*
X1316787Y4841715D1*
X1317231Y4851705D1*
X1318100Y4861666D1*
X1319390Y4871582D1*
X1321101Y4881434D1*
X1323228Y4891204D1*
X1325769Y4900875D1*
X1328718Y4910430D1*
X1332070Y4919850D1*
X1335819Y4929120D1*
X1339958Y4938222D1*
X1344480Y4947141D1*
X1349377Y4955859D1*
X1354640Y4964361D1*
X1360258Y4972632D1*
X1366224Y4980657D1*
X1372524Y4988422D1*
X1379149Y4995912D1*
X1386086Y5003114D1*
X1393322Y5010014D1*
X1400845Y5016602D1*
X1408641Y5022864D1*
X1416695Y5028789D1*
X1424994Y5034366D1*
X1433523Y5039586D1*
X1442265Y5044440D1*
X1451206Y5048917D1*
X1460329Y5053011D1*
X1469617Y5056714D1*
X1479054Y5060019D1*
X1488623Y5062920D1*
X1498307Y5065412D1*
X1508088Y5067491D1*
X1517948Y5069153D1*
X1527870Y5070394D1*
X1537836Y5071213D1*
X1547827Y5071607D1*
X1557826Y5071578D1*
X1567815Y5071123D1*
X1577776Y5070245D1*
X1587690Y5068944D1*
X1597540Y5067224D1*
X1607309Y5065087D1*
X1616977Y5062537D1*
X1626529Y5059578D1*
X1635946Y5056217D1*
X1645212Y5052459D1*
X1654310Y5048310D1*
X1663224Y5043779D1*
X1671937Y5038874D1*
X1680434Y5033603D1*
X1688700Y5027976D1*
X1696719Y5022002D1*
X1704477Y5015694D1*
X1711961Y5009062D1*
X1719156Y5002118D1*
X1726049Y4994875D1*
X1732629Y4987346D1*
X1738883Y4979543D1*
X1744800Y4971483D1*
X1750369Y4963178D1*
X1755581Y4954645D1*
X1760426Y4945897D1*
X1764894Y4936952D1*
X1768979Y4927825D1*
X1772673Y4918533D1*
X1775968Y4909093D1*
X1778860Y4899521D1*
X1781343Y4889835D1*
X1783412Y4880052D1*
X1785063Y4870190D1*
X1786295Y4860267D1*
X1787103Y4850300D1*
X1787488Y4840308D1*
X1787470Y4831247D1*
X2134600Y5495400D2*
X2159190D1*
X2097291Y5557291D1*
X2094071Y5560773D1*
X2091135Y5564498D1*
X2088500Y5568441D1*
X2086183Y5572579D1*
X2084198Y5576886D1*
X2082556Y5581335D1*
X2081269Y5585900D1*
X2080341Y5590570D1*
X2077900Y5592100D1*
X2052100D1*
Y5737900D1*
X2227900D1*
Y5597529D1*
X2262709Y5562709D1*
X2265929Y5559227D1*
X2268865Y5555502D1*
X2271500Y5551559D1*
X2273817Y5547421D1*
X2275802Y5543114D1*
X2277444Y5538665D1*
X2278731Y5534100D1*
X2279656Y5529449D1*
X2280214Y5524739D1*
X2280400Y5515000D1*
Y5495410D1*
X2294620Y5495400D1*
X2292901Y5497099D1*
X2282101D1*
Y5642899D1*
X2454581D1*
X2454600Y5687080D1*
X2282101Y5687099D1*
Y5832899D1*
X2454581D1*
X2454600Y5840400D1*
X2625400D1*
Y5795419D1*
X2640000Y5795400D1*
X2643562Y5795260D1*
X2647102Y5794841D1*
X2650598Y5794146D1*
X2654029Y5793178D1*
X2657374Y5791944D1*
X2660611Y5790452D1*
X2663733Y5788702D1*
X2665053Y5788366D1*
X2661753Y5792121D1*
X2658708Y5796086D1*
X2655933Y5800244D1*
X2653439Y5804577D1*
X2651238Y5809065D1*
X2649339Y5813689D1*
X2647751Y5818430D1*
X2646481Y5823264D1*
X2645533Y5828173D1*
X2644913Y5833133D1*
X2644623Y5838124D1*
X2644665Y5843123D1*
X2645037Y5848108D1*
X2645739Y5853058D1*
X2646768Y5857950D1*
X2648118Y5862763D1*
X2649785Y5867476D1*
X2651760Y5872069D1*
X2654035Y5876520D1*
X2656600Y5880811D1*
X2659443Y5884923D1*
X2662553Y5888837D1*
X2665915Y5892536D1*
X2669516Y5896004D1*
X2673338Y5899227D1*
X2677365Y5902188D1*
X2681579Y5904877D1*
X2685963Y5907280D1*
X2690496Y5909388D1*
X2695159Y5911190D1*
X2699931Y5912680D1*
X2704791Y5913850D1*
X2709718Y5914696D1*
X2714690Y5915213D1*
X2719686Y5915399D1*
X2724683Y5915254D1*
X2729659Y5914779D1*
X2734593Y5913974D1*
X2739463Y5912845D1*
X2744247Y5911395D1*
X2748925Y5909631D1*
X2753475Y5907562D1*
X2759616Y5904107D1*
X2759601Y5925399D1*
X2764620D1*
X2764601Y6270399D1*
X2935401D1*
Y6265419D1*
X3280400Y6265400D1*
Y6225419D1*
X3650000Y6225400D1*
X3653562Y6225260D1*
X3657102Y6224841D1*
X3660598Y6224146D1*
X3664029Y6223178D1*
X3667374Y6221944D1*
X3670611Y6220452D1*
X3673722Y6218710D1*
X3676686Y6216730D1*
X3679485Y6214523D1*
X3685638Y6208567D1*
X3809534Y6084672D1*
X3814690Y6085213D1*
X3819686Y6085399D1*
X3824683Y6085254D1*
X3829659Y6084779D1*
X3834593Y6083974D1*
X3839463Y6082845D1*
X3844247Y6081395D1*
X3848925Y6079631D1*
X3853475Y6077562D1*
X3857879Y6075195D1*
X3862116Y6072542D1*
X3866167Y6069613D1*
X3870016Y6066423D1*
X3873645Y6062985D1*
X3877038Y6059314D1*
X3880180Y6055426D1*
X3883058Y6051338D1*
X3885659Y6047069D1*
X3887971Y6042636D1*
X3889984Y6038060D1*
X3891690Y6033361D1*
X3893080Y6028559D1*
X3894149Y6023676D1*
X3894893Y6018733D1*
X3895400Y6010000D1*
X3895234Y6005004D1*
X3894738Y6000029D1*
X3893913Y5995099D1*
X3892763Y5990234D1*
X3891293Y5985456D1*
X3889510Y5980785D1*
X3887421Y5976243D1*
X3885036Y5971850D1*
X3882366Y5967624D1*
X3879420Y5963585D1*
X3876214Y5959749D1*
X3872761Y5956135D1*
X3869075Y5952757D1*
X3865174Y5949631D1*
X3861075Y5946770D1*
X3856795Y5944187D1*
X3852353Y5941894D1*
X3847769Y5939900D1*
X3843062Y5938214D1*
X3838255Y5936843D1*
X3833367Y5935794D1*
X3828420Y5935072D1*
X3823437Y5934678D1*
X3818438Y5934616D1*
X3813446Y5934885D1*
X3808483Y5935485D1*
X3803571Y5936412D1*
X3798731Y5937662D1*
X3793984Y5939230D1*
X3789352Y5941110D1*
X3784854Y5943292D1*
X3780511Y5945768D1*
X3776341Y5948526D1*
X3772364Y5951554D1*
X3768596Y5954839D1*
X3765053Y5958366D1*
X3761753Y5962121D1*
X3758708Y5966086D1*
X3755933Y5970244D1*
X3753439Y5974577D1*
X3751238Y5979065D1*
X3749339Y5983689D1*
X3747751Y5988430D1*
X3746481Y5993264D1*
X3745533Y5998173D1*
X3744913Y6003133D1*
X3744623Y6008124D1*
X3744665Y6013123D1*
X3745364Y6020409D1*
X3631187Y6134607D1*
X3617012Y6134600D1*
X3619984Y6128060D1*
X3621690Y6123361D1*
X3623080Y6118559D1*
X3624149Y6113676D1*
X3624893Y6108733D1*
X3625400Y6100000D1*
X3625234Y6095004D1*
X3624738Y6090029D1*
X3623913Y6085099D1*
X3622763Y6080234D1*
X3621293Y6075456D1*
X3619510Y6070785D1*
X3617421Y6066243D1*
X3615036Y6061850D1*
X3612366Y6057624D1*
X3609420Y6053585D1*
X3606214Y6049749D1*
X3602761Y6046135D1*
X3599075Y6042757D1*
X3595174Y6039631D1*
X3591075Y6036770D1*
X3586795Y6034187D1*
X3582353Y6031894D1*
X3577769Y6029900D1*
X3573062Y6028214D1*
X3568255Y6026843D1*
X3563367Y6025794D1*
X3558420Y6025072D1*
X3553437Y6024678D1*
X3548438Y6024616D1*
X3543446Y6024885D1*
X3538483Y6025485D1*
X3533571Y6026412D1*
X3528731Y6027662D1*
X3523984Y6029230D1*
X3520383Y6030691D1*
X3520401Y5714599D1*
X3339601D1*
X3339600Y6045400D1*
X3358721D1*
X3356481Y6053264D1*
X3355533Y6058173D1*
X3354913Y6063133D1*
X3354623Y6068124D1*
X3354665Y6073123D1*
X3355037Y6078108D1*
X3355739Y6083058D1*
X3356768Y6087950D1*
X3358118Y6092763D1*
X3359785Y6097476D1*
X3361760Y6102069D1*
X3364035Y6106520D1*
X3366600Y6110811D1*
X3369443Y6114923D1*
X3372553Y6118837D1*
X3375915Y6122536D1*
X3379516Y6126004D1*
X3383338Y6129227D1*
X3387365Y6132188D1*
X3391135Y6134593D1*
X3280410Y6134600D1*
X3280400Y6094600D1*
X3110420D1*
X3110401Y5924599D1*
X2940381D1*
X2940401Y5754599D1*
X2759601D1*
Y5775830D1*
X2752353Y5771894D1*
X2747769Y5769900D1*
X2743062Y5768214D1*
X2738255Y5766843D1*
X2733367Y5765794D1*
X2728420Y5765072D1*
X2723437Y5764678D1*
X2718438Y5764616D1*
X2713446Y5764885D1*
X2708483Y5765485D1*
X2703571Y5766412D1*
X2698731Y5767662D1*
X2693984Y5769230D1*
X2689352Y5771110D1*
X2684854Y5773292D1*
X2680511Y5775768D1*
X2676341Y5778526D1*
X2673560Y5780643D1*
X2708798Y5745408D1*
X3090000Y5745400D1*
X3093562Y5745260D1*
X3097102Y5744841D1*
X3100598Y5744146D1*
X3104029Y5743178D1*
X3107374Y5741944D1*
X3110611Y5740452D1*
X3113722Y5738710D1*
X3116686Y5736730D1*
X3119485Y5734523D1*
X3125638Y5728567D1*
X3248816Y5605390D1*
X3830000Y5605400D1*
X3833562Y5605260D1*
X3837102Y5604841D1*
X3840598Y5604146D1*
X3844029Y5603178D1*
X3847374Y5601944D1*
X3850611Y5600452D1*
X3853722Y5598710D1*
X3856686Y5596730D1*
X3859485Y5594523D1*
X3865638Y5588567D1*
X3922103Y5532103D1*
X3924523Y5529485D1*
X3926730Y5526686D1*
X3928710Y5523722D1*
X3930452Y5520611D1*
X3931944Y5517374D1*
X3933178Y5514029D1*
X3934146Y5510598D1*
X3934841Y5507102D1*
X3935260Y5503562D1*
X3935400Y5495000D1*
Y5440215D1*
X3940016Y5436423D1*
X3943645Y5432985D1*
X3947038Y5429314D1*
X3950180Y5425426D1*
X3953058Y5421338D1*
X3955659Y5417069D1*
X3957971Y5412636D1*
X3959984Y5408060D1*
X3961690Y5403361D1*
X3963080Y5398559D1*
X3964149Y5393676D1*
X3964893Y5388733D1*
X3965400Y5380000D1*
X3965234Y5375004D1*
X3964738Y5370029D1*
X3963913Y5365099D1*
X3962763Y5360234D1*
X3961293Y5355456D1*
X3959510Y5350785D1*
X3957421Y5346243D1*
X3955036Y5341850D1*
X3952366Y5337624D1*
X3949420Y5333585D1*
X3946214Y5329749D1*
X3942761Y5326135D1*
X3939075Y5322757D1*
X3935174Y5319631D1*
X3931075Y5316770D1*
X3926795Y5314187D1*
X3922353Y5311894D1*
X3917769Y5309900D1*
X3913062Y5308214D1*
X3908255Y5306843D1*
X3903367Y5305794D1*
X3898420Y5305072D1*
X3893437Y5304678D1*
X3888438Y5304616D1*
X3883446Y5304885D1*
X3878483Y5305485D1*
X3873571Y5306412D1*
X3868731Y5307662D1*
X3863984Y5309230D1*
X3859352Y5311110D1*
X3854854Y5313292D1*
X3850511Y5315768D1*
X3846341Y5318526D1*
X3842364Y5321554D1*
X3838596Y5324839D1*
X3835053Y5328366D1*
X3831753Y5332121D1*
X3828708Y5336086D1*
X3825933Y5340244D1*
X3823439Y5344577D1*
X3821238Y5349065D1*
X3819339Y5353689D1*
X3817751Y5358430D1*
X3816481Y5363264D1*
X3815533Y5368173D1*
X3814913Y5373133D1*
X3814623Y5378124D1*
X3814665Y5383123D1*
X3815037Y5388108D1*
X3815739Y5393058D1*
X3816768Y5397950D1*
X3818118Y5402763D1*
X3819785Y5407476D1*
X3821760Y5412069D1*
X3824035Y5416520D1*
X3826509Y5420660D1*
X3821075Y5416770D1*
X3816795Y5414187D1*
X3812353Y5411894D1*
X3807769Y5409900D1*
X3803062Y5408214D1*
X3798255Y5406843D1*
X3793367Y5405794D1*
X3788420Y5405072D1*
X3783437Y5404678D1*
X3778438Y5404616D1*
X3773446Y5404885D1*
X3768483Y5405485D1*
X3763571Y5406412D1*
X3758731Y5407662D1*
X3753984Y5409230D1*
X3749352Y5411110D1*
X3744854Y5413292D1*
X3740511Y5415768D1*
X3736341Y5418526D1*
X3732364Y5421554D1*
X3728596Y5424839D1*
X3725053Y5428366D1*
X3721753Y5432121D1*
X3719838Y5434614D1*
X3200000Y5434600D1*
X3196438Y5434740D1*
X3192898Y5435159D1*
X3189402Y5435854D1*
X3185971Y5436822D1*
X3182626Y5438056D1*
X3179389Y5439548D1*
X3176278Y5441290D1*
X3173314Y5443271D1*
X3170515Y5445477D1*
X3164362Y5451433D1*
X3131037Y5484758D1*
X3129510Y5480785D1*
X3127421Y5476243D1*
X3125036Y5471850D1*
X3122366Y5467624D1*
X3119420Y5463585D1*
X3116214Y5459749D1*
X3111537Y5455013D1*
X3117038Y5449314D1*
X3120180Y5445426D1*
X3123058Y5441338D1*
X3125659Y5437069D1*
X3127971Y5432636D1*
X3129984Y5428060D1*
X3131690Y5423361D1*
X3133080Y5418559D1*
X3134149Y5413676D1*
X3134893Y5408733D1*
X3135400Y5400000D1*
X3135234Y5395004D1*
X3134738Y5390029D1*
X3133913Y5385099D1*
X3132763Y5380234D1*
X3131293Y5375456D1*
X3129510Y5370785D1*
X3127421Y5366243D1*
X3125036Y5361850D1*
X3122366Y5357624D1*
X3119420Y5353585D1*
X3116214Y5349749D1*
X3112761Y5346135D1*
X3109075Y5342757D1*
X3105174Y5339631D1*
X3101075Y5336770D1*
X3096795Y5334187D1*
X3092353Y5331894D1*
X3087769Y5329900D1*
X3083062Y5328214D1*
X3078255Y5326843D1*
X3073367Y5325794D1*
X3068420Y5325072D1*
X3063437Y5324678D1*
X3058438Y5324616D1*
X3053446Y5324885D1*
X3048483Y5325485D1*
X3043571Y5326412D1*
X3038731Y5327662D1*
X3033984Y5329230D1*
X3029352Y5331110D1*
X3024854Y5333292D1*
X3020511Y5335768D1*
X3016341Y5338526D1*
X3012364Y5341554D1*
X3008596Y5344839D1*
X3005053Y5348366D1*
X3001753Y5352121D1*
X2998708Y5356086D1*
X2995933Y5360244D1*
X2993439Y5364577D1*
X2991238Y5369065D1*
X2989339Y5373689D1*
X2987751Y5378430D1*
X2986481Y5383264D1*
X2985533Y5388173D1*
X2984913Y5393133D1*
X2984623Y5398124D1*
X2984665Y5403123D1*
X2985037Y5408108D1*
X2985739Y5413058D1*
X2986768Y5417950D1*
X2988118Y5422763D1*
X2989785Y5427476D1*
X2991760Y5432069D1*
X2994035Y5436520D1*
X2996600Y5440811D1*
X2999443Y5444923D1*
X3002553Y5448837D1*
X3005915Y5452536D1*
X3008461Y5454988D1*
X3005053Y5458366D1*
X3001753Y5462121D1*
X2998708Y5466086D1*
X2995933Y5470244D1*
X2993439Y5474577D1*
X2991238Y5479065D1*
X2989339Y5483689D1*
X2987751Y5488430D1*
X2986684Y5492490D1*
X2868765Y5374559D1*
X2874690Y5375213D1*
X2879686Y5375399D1*
X2884683Y5375254D1*
X2889659Y5374779D1*
X2894593Y5373974D1*
X2899463Y5372845D1*
X2904247Y5371395D1*
X2908925Y5369631D1*
X2913475Y5367562D1*
X2917879Y5365195D1*
X2922116Y5362542D1*
X2926167Y5359613D1*
X2930016Y5356423D1*
X2933645Y5352985D1*
X2937038Y5349314D1*
X2940180Y5345426D1*
X2943058Y5341338D1*
X2945659Y5337069D1*
X2947971Y5332636D1*
X2949984Y5328060D1*
X2951690Y5323361D1*
X2953080Y5318559D1*
X2954149Y5313676D1*
X2954893Y5308733D1*
X2955400Y5300000D1*
X2955234Y5295004D1*
X2954738Y5290029D1*
X2953913Y5285099D1*
X2952763Y5280234D1*
X2951293Y5275456D1*
X2949510Y5270785D1*
X2947421Y5266243D1*
X2945036Y5261850D1*
X2942366Y5257624D1*
X2939420Y5253585D1*
X2936214Y5249749D1*
X2932761Y5246135D1*
X2929075Y5242757D1*
X2925174Y5239631D1*
X2921075Y5236770D1*
X2916795Y5234187D1*
X2912353Y5231894D1*
X2907769Y5229900D1*
X2903062Y5228214D1*
X2898255Y5226843D1*
X2893367Y5225794D1*
X2888420Y5225072D1*
X2883437Y5224678D1*
X2878438Y5224616D1*
X2873446Y5224885D1*
X2868483Y5225485D1*
X2863571Y5226412D1*
X2858731Y5227662D1*
X2853984Y5229230D1*
X2849352Y5231110D1*
X2844854Y5233292D1*
X2840511Y5235768D1*
X2836341Y5238526D1*
X2832364Y5241554D1*
X2828596Y5244839D1*
X2825053Y5248366D1*
X2821753Y5252121D1*
X2818708Y5256086D1*
X2815933Y5260244D1*
X2813439Y5264577D1*
X2811238Y5269065D1*
X2809339Y5273689D1*
X2807751Y5278430D1*
X2806481Y5283264D1*
X2805533Y5288173D1*
X2804913Y5293133D1*
X2804623Y5298124D1*
X2804665Y5303123D1*
X2805037Y5308108D1*
X2805490Y5311298D1*
X2702103Y5207897D1*
X2699485Y5205478D1*
X2696685Y5203271D1*
X2693721Y5201290D1*
X2690611Y5199548D1*
X2687374Y5198056D1*
X2684029Y5196822D1*
X2680598Y5195854D1*
X2677102Y5195159D1*
X2673562Y5194740D1*
X2665000Y5194600D1*
X2625410D1*
X2625400Y5149600D1*
X2585381D1*
X2585400Y4690000D1*
X2585260Y4686438D1*
X2584841Y4682898D1*
X2584146Y4679402D1*
X2583178Y4675971D1*
X2581944Y4672626D1*
X2580452Y4669389D1*
X2578710Y4666278D1*
X2576730Y4663314D1*
X2574523Y4660515D1*
X2568567Y4654362D1*
X2544661Y4630455D1*
X2545307Y4623751D1*
X2545234Y4615004D1*
X2544738Y4610029D1*
X2543913Y4605099D1*
X2542763Y4600234D1*
X2541293Y4595456D1*
X2539510Y4590785D1*
X2537421Y4586243D1*
X2535036Y4581850D1*
X2532366Y4577624D1*
X2529420Y4573585D1*
X2526214Y4569749D1*
X2522761Y4566135D1*
X2519075Y4562757D1*
X2515174Y4559631D1*
X2511075Y4556770D1*
X2506795Y4554187D1*
X2502353Y4551894D1*
X2497769Y4549900D1*
X2493062Y4548214D1*
X2488255Y4546843D1*
X2483367Y4545794D1*
X2478420Y4545072D1*
X2473437Y4544678D1*
X2468438Y4544616D1*
X2463446Y4544885D1*
X2458483Y4545485D1*
X2453571Y4546412D1*
X2448731Y4547662D1*
X2443984Y4549230D1*
X2439352Y4551110D1*
X2434854Y4553292D1*
X2430511Y4555768D1*
X2426341Y4558526D1*
X2422364Y4561554D1*
X2418596Y4564839D1*
X2415053Y4568366D1*
X2411753Y4572121D1*
X2408708Y4576086D1*
X2405933Y4580244D1*
X2403439Y4584577D1*
X2401238Y4589065D1*
X2399339Y4593689D1*
X2397751Y4598430D1*
X2396481Y4603264D1*
X2395533Y4608173D1*
X2394913Y4613133D1*
X2394623Y4618124D1*
X2394665Y4623123D1*
X2395037Y4628108D1*
X2395739Y4633058D1*
X2396768Y4637950D1*
X2398118Y4642763D1*
X2399785Y4647476D1*
X2401760Y4652069D1*
X2404035Y4656520D1*
X2406600Y4660811D1*
X2409443Y4664923D1*
X2412553Y4668837D1*
X2415915Y4672536D1*
X2419516Y4676004D1*
X2423338Y4679227D1*
X2427365Y4682188D1*
X2431579Y4684877D1*
X2435963Y4687280D1*
X2440496Y4689388D1*
X2445159Y4691190D1*
X2449931Y4692680D1*
X2454791Y4693850D1*
X2459718Y4694696D1*
X2464690Y4695213D1*
X2469686Y4695399D1*
X2474683Y4695254D1*
X2480449Y4694650D1*
X2494590Y4708796D1*
X2494600Y5149590D1*
X2425381Y5149600D1*
X2425400Y4710000D1*
X2425260Y4706438D1*
X2424841Y4702898D1*
X2424146Y4699402D1*
X2423178Y4695971D1*
X2421944Y4692626D1*
X2420452Y4689389D1*
X2418710Y4686279D1*
X2416729Y4683315D1*
X2414522Y4680515D1*
X2408567Y4674362D1*
X2322103Y4587897D1*
X2319485Y4585478D1*
X2316685Y4583271D1*
X2313721Y4581290D1*
X2310611Y4579548D1*
X2307374Y4578056D1*
X2304029Y4576822D1*
X2300598Y4575854D1*
X2297102Y4575159D1*
X2293562Y4574740D1*
X2285000Y4574600D1*
X1980215D1*
X1976214Y4569749D1*
X1972761Y4566135D1*
X1969075Y4562757D1*
X1965174Y4559631D1*
X1961075Y4556770D1*
X1956795Y4554187D1*
X1952353Y4551894D1*
X1947769Y4549900D1*
X1943062Y4548214D1*
X1938255Y4546843D1*
X1933367Y4545794D1*
X1928420Y4545072D1*
X1923437Y4544678D1*
X1918438Y4544616D1*
X1913446Y4544885D1*
X1908483Y4545485D1*
X1903571Y4546412D1*
X1898731Y4547662D1*
X1893984Y4549230D1*
X1889352Y4551110D1*
X1884854Y4553292D1*
X1880511Y4555768D1*
X1876341Y4558526D1*
X1872364Y4561554D1*
X1868596Y4564839D1*
X1865053Y4568366D1*
X1861753Y4572121D1*
X1858708Y4576086D1*
X1855933Y4580244D1*
X1853439Y4584577D1*
X1851238Y4589065D1*
X1849339Y4593689D1*
X1847751Y4598430D1*
X1846481Y4603264D1*
X1845533Y4608173D1*
X1844913Y4613133D1*
X1844623Y4618124D1*
X1844665Y4623123D1*
X1845037Y4628108D1*
X1845739Y4633058D1*
X1846768Y4637950D1*
X1848118Y4642763D1*
X1849785Y4647476D1*
X1851760Y4652069D1*
X1854035Y4656520D1*
X1856600Y4660811D1*
X1859443Y4664923D1*
X1862553Y4668837D1*
X1865915Y4672536D1*
X1869516Y4676004D1*
X1873338Y4679227D1*
X1877365Y4682188D1*
X1881579Y4684877D1*
X1885963Y4687280D1*
X1890496Y4689388D1*
X1895159Y4691190D1*
X1899931Y4692680D1*
X1904791Y4693850D1*
X1909718Y4694696D1*
X1914690Y4695213D1*
X1919686Y4695399D1*
X1924683Y4695254D1*
X1929659Y4694779D1*
X1934593Y4693974D1*
X1939463Y4692845D1*
X1944247Y4691395D1*
X1948925Y4689631D1*
X1953475Y4687562D1*
X1957879Y4685195D1*
X1962116Y4682542D1*
X1966167Y4679613D1*
X1970016Y4676423D1*
X1973645Y4672985D1*
X1977038Y4669314D1*
X1980192Y4665410D1*
X2182988Y4665400D1*
X2181238Y4669065D1*
X2179339Y4673689D1*
X2177751Y4678430D1*
X2176481Y4683264D1*
X2175533Y4688173D1*
X2174913Y4693133D1*
X2174623Y4698124D1*
X2174665Y4703123D1*
X2175037Y4708108D1*
X2175739Y4713058D1*
X2176768Y4717950D1*
X2178118Y4722763D1*
X2179785Y4727476D1*
X2181760Y4732069D1*
X2184035Y4736520D1*
X2186600Y4740811D1*
X2189601Y4745121D1*
X2189600Y5264980D1*
X2177290Y5277290D1*
X2174071Y5280773D1*
X2171135Y5284498D1*
X2168500Y5288441D1*
X2166183Y5292579D1*
X2164197Y5296886D1*
X2162556Y5301335D1*
X2161268Y5305900D1*
X2160343Y5310551D1*
X2159786Y5315261D1*
X2159600Y5324590D1*
X2129600Y5324600D1*
Y5495400D1*
X2134600D1*
X3989601Y5800399D2*
X4325400Y5800400D1*
Y5781279D1*
X4329931Y5782680D1*
X4334791Y5783850D1*
X4339718Y5784696D1*
X4344690Y5785213D1*
X4349686Y5785399D1*
X4354683Y5785254D1*
X4359659Y5784779D1*
X4364593Y5783974D1*
X4369463Y5782845D1*
X4374247Y5781395D1*
X4378925Y5779631D1*
X4383475Y5777562D1*
X4387879Y5775195D1*
X4392116Y5772542D1*
X4396167Y5769613D1*
X4400016Y5766423D1*
X4403645Y5762985D1*
X4407038Y5759314D1*
X4410180Y5755426D1*
X4413058Y5751338D1*
X4415659Y5747069D1*
X4417971Y5742636D1*
X4419984Y5738060D1*
X4421690Y5733361D1*
X4423080Y5728559D1*
X4424149Y5723676D1*
X4424893Y5718733D1*
X4425400Y5710000D1*
X4425234Y5705004D1*
X4424738Y5700029D1*
X4423913Y5695099D1*
X4422763Y5690234D1*
X4421293Y5685456D1*
X4419510Y5680785D1*
X4417421Y5676243D1*
X4415036Y5671850D1*
X4412366Y5667624D1*
X4409420Y5663585D1*
X4406214Y5659749D1*
X4402761Y5656135D1*
X4399075Y5652757D1*
X4395174Y5649631D1*
X4391075Y5646770D1*
X4386795Y5644187D1*
X4382353Y5641894D1*
X4377769Y5639900D1*
X4373062Y5638214D1*
X4368255Y5636843D1*
X4363367Y5635794D1*
X4358420Y5635072D1*
X4353437Y5634678D1*
X4348438Y5634616D1*
X4343446Y5634885D1*
X4338483Y5635485D1*
X4333571Y5636412D1*
X4328731Y5637662D1*
X4325412Y5638759D1*
X4325400Y5619600D1*
X3984601Y5619599D1*
Y5800399D1*
X3989601D1*
X3744601Y5175399D2*
X3920401D1*
X3920400Y4865146D1*
X3923058Y4861338D1*
X3925659Y4857069D1*
X3927971Y4852636D1*
X3929984Y4848060D1*
X3931690Y4843361D1*
X3933080Y4838559D1*
X3934149Y4833676D1*
X3934893Y4828733D1*
X3935400Y4820000D1*
X3935234Y4815004D1*
X3934738Y4810029D1*
X3933913Y4805099D1*
X3932763Y4800234D1*
X3931293Y4795456D1*
X3929510Y4790785D1*
X3927421Y4786243D1*
X3925036Y4781850D1*
X3922366Y4777624D1*
X3919420Y4773585D1*
X3916214Y4769749D1*
X3912761Y4766135D1*
X3909075Y4762757D1*
X3905174Y4759631D1*
X3901075Y4756770D1*
X3896795Y4754187D1*
X3892353Y4751894D1*
X3887769Y4749900D1*
X3883062Y4748214D1*
X3878255Y4746843D1*
X3873367Y4745794D1*
X3868420Y4745072D1*
X3863437Y4744678D1*
X3858438Y4744616D1*
X3853446Y4744885D1*
X3848483Y4745485D1*
X3843571Y4746412D1*
X3838731Y4747662D1*
X3833984Y4749230D1*
X3829352Y4751110D1*
X3824854Y4753292D1*
X3820511Y4755768D1*
X3816341Y4758526D1*
X3812364Y4761554D1*
X3808596Y4764839D1*
X3805053Y4768366D1*
X3801753Y4772121D1*
X3798708Y4776086D1*
X3795933Y4780244D1*
X3793439Y4784577D1*
X3791238Y4789065D1*
X3789339Y4793689D1*
X3787751Y4798430D1*
X3786481Y4803264D1*
X3785533Y4808173D1*
X3784913Y4813133D1*
X3784623Y4818124D1*
X3784665Y4823123D1*
X3784980Y4827349D1*
X3783436Y4830713D1*
X3782067Y4834426D1*
X3780992Y4838234D1*
X3780219Y4842131D1*
X3775400Y4844600D1*
X3739600D1*
X3739601Y5175399D1*
X3744601D1*
X2505400Y2044599D2*
Y1999600D1*
X2334600D1*
Y2214619D1*
X2238770Y2214600D1*
X2235121Y2204302D1*
X2231111Y2195143D1*
X2226482Y2186282D1*
X2221254Y2177759D1*
X2215453Y2169616D1*
X2209107Y2161891D1*
X2202244Y2154620D1*
X2194898Y2147838D1*
X2187103Y2141577D1*
X2178896Y2135867D1*
X2170774Y2130996D1*
X2175870Y2128036D1*
X2184214Y2122529D1*
X2192161Y2116461D1*
X2199671Y2109862D1*
X2206711Y2102762D1*
X2213245Y2095195D1*
X2219245Y2087197D1*
X2224680Y2078806D1*
X2229526Y2070061D1*
X2233760Y2061004D1*
X2237361Y2051677D1*
X2240313Y2042124D1*
X2242601Y2032392D1*
X2244215Y2022525D1*
X2245147Y2012570D1*
X2245400Y2004000D1*
X2245056Y1994008D1*
X2244027Y1984063D1*
X2242316Y1974212D1*
X2239933Y1964503D1*
X2236887Y1954980D1*
X2233195Y1945688D1*
X2228873Y1936673D1*
X2223941Y1927976D1*
X2218424Y1919638D1*
X2212346Y1911699D1*
X2205738Y1904197D1*
X2198629Y1897166D1*
X2191054Y1890641D1*
X2183049Y1884651D1*
X2174651Y1879226D1*
X2170774Y1876996D1*
X2175870Y1874036D1*
X2184214Y1868529D1*
X2192161Y1862461D1*
X2199671Y1855862D1*
X2206711Y1848762D1*
X2213245Y1841195D1*
X2219245Y1833197D1*
X2224680Y1824806D1*
X2229526Y1816061D1*
X2233760Y1807004D1*
X2237361Y1797677D1*
X2240313Y1788124D1*
X2242601Y1778392D1*
X2244215Y1768525D1*
X2245147Y1758570D1*
X2245400Y1750000D1*
X2245056Y1740008D1*
X2244027Y1730063D1*
X2242316Y1720212D1*
X2239933Y1710503D1*
X2236887Y1700980D1*
X2233195Y1691688D1*
X2228873Y1682673D1*
X2223941Y1673976D1*
X2218424Y1665638D1*
X2212346Y1657699D1*
X2205738Y1650197D1*
X2198629Y1643166D1*
X2191054Y1636641D1*
X2183049Y1630651D1*
X2174651Y1625226D1*
X2165899Y1620391D1*
X2156837Y1616169D1*
X2147505Y1612579D1*
X2137949Y1609640D1*
X2128214Y1607364D1*
X2118345Y1605762D1*
X2108389Y1604842D1*
X2098394Y1604609D1*
X2088406Y1605063D1*
X2078473Y1606202D1*
X2069235Y1607901D1*
X2129639Y1559125D1*
X2321265Y1429607D1*
X2523206Y1316797D1*
X2733976Y1221523D1*
X2952065Y1144468D1*
X3175907Y1086185D1*
X3403882Y1047094D1*
X3552796Y1034419D1*
X3546341Y1038526D1*
X3542364Y1041554D1*
X3538596Y1044839D1*
X3535053Y1048366D1*
X3531753Y1052121D1*
X3528708Y1056086D1*
X3525933Y1060244D1*
X3523439Y1064577D1*
X3521238Y1069065D1*
X3519339Y1073689D1*
X3517751Y1078430D1*
X3516481Y1083264D1*
X3515533Y1088173D1*
X3514913Y1093133D1*
X3514623Y1098124D1*
X3514665Y1103123D1*
X3515037Y1108108D1*
X3515739Y1113058D1*
X3516768Y1117950D1*
X3518118Y1122763D1*
X3519785Y1127476D1*
X3521760Y1132069D1*
X3524035Y1136520D1*
X3526600Y1140811D1*
X3529443Y1144923D1*
X3532553Y1148837D1*
X3535915Y1152536D1*
X3539516Y1156004D1*
X3543338Y1159227D1*
X3547365Y1162188D1*
X3551579Y1164877D1*
X3555963Y1167280D1*
X3560496Y1169388D1*
X3565159Y1171190D1*
X3569931Y1172680D1*
X3574791Y1173850D1*
X3579718Y1174696D1*
X3584690Y1175213D1*
X3589686Y1175399D1*
X3594683Y1175254D1*
X3599659Y1174779D1*
X3604593Y1173974D1*
X3609463Y1172845D1*
X3614247Y1171395D1*
X3618925Y1169631D1*
X3623475Y1167562D1*
X3627879Y1165195D1*
X3632116Y1162542D1*
X3636167Y1159613D1*
X3640016Y1156423D1*
X3643645Y1152985D1*
X3647038Y1149314D1*
X3650180Y1145426D1*
X3653739Y1140221D1*
X3659516Y1146004D1*
X3663338Y1149227D1*
X3667365Y1152188D1*
X3671579Y1154877D1*
X3675963Y1157280D1*
X3680496Y1159388D1*
X3685159Y1161190D1*
X3689931Y1162680D1*
X3694791Y1163850D1*
X3699718Y1164696D1*
X3704690Y1165213D1*
X3709686Y1165399D1*
X3714683Y1165254D1*
X3719659Y1164779D1*
X3724593Y1163974D1*
X3729463Y1162845D1*
X3734247Y1161395D1*
X3738925Y1159631D1*
X3743475Y1157562D1*
X3747879Y1155195D1*
X3752116Y1152542D1*
X3756167Y1149613D1*
X3760016Y1146423D1*
X3763645Y1142985D1*
X3767038Y1139314D1*
X3770180Y1135426D1*
X3773058Y1131338D1*
X3775659Y1127069D1*
X3777971Y1122636D1*
X3779984Y1118060D1*
X3781690Y1113361D1*
X3783080Y1108559D1*
X3784149Y1103676D1*
X3784893Y1098733D1*
X3785400Y1090000D1*
X3785234Y1085004D1*
X3784738Y1080029D1*
X3783913Y1075099D1*
X3782763Y1070234D1*
X3781293Y1065456D1*
X3779510Y1060785D1*
X3777421Y1056243D1*
X3775036Y1051850D1*
X3772366Y1047624D1*
X3769420Y1043585D1*
X3766214Y1039749D1*
X3762761Y1036135D1*
X3759075Y1032757D1*
X3755174Y1029631D1*
X3752084Y1027474D1*
X3865654Y1027477D1*
X4096124Y1047094D1*
X4324099Y1086186D1*
X4547938Y1144470D1*
X4766027Y1221525D1*
X4976797Y1316797D1*
X5178729Y1429603D1*
X5370363Y1559129D1*
X5550326Y1704436D1*
X5717316Y1864485D1*
X5870132Y2038116D1*
X6007672Y2224085D1*
X6128946Y2421044D1*
X6233078Y2627581D1*
X6319318Y2842191D1*
X6387051Y3063368D1*
X6435781Y3289479D1*
X6465160Y3518908D1*
X6474979Y3750003D1*
X6465160Y3981096D1*
X6435780Y4210524D1*
X6387050Y4436635D1*
X6375314Y4474956D1*
X5239238Y4474950D1*
X5382103Y4332103D1*
X5384523Y4329485D1*
X5386730Y4326686D1*
X5388710Y4323722D1*
X5390452Y4320611D1*
X5391944Y4317374D1*
X5393178Y4314029D1*
X5394146Y4310598D1*
X5394841Y4307102D1*
X5395260Y4303562D1*
X5395400Y4295000D1*
Y3360000D1*
X5395260Y3356438D1*
X5394841Y3352898D1*
X5394146Y3349402D1*
X5393178Y3345971D1*
X5391944Y3342626D1*
X5390452Y3339389D1*
X5388710Y3336278D1*
X5386730Y3333314D1*
X5384523Y3330515D1*
X5378567Y3324362D1*
X5172103Y3117897D1*
X5169485Y3115477D1*
X5166686Y3113270D1*
X5163722Y3111290D1*
X5160611Y3109548D1*
X5157374Y3108056D1*
X5154029Y3106822D1*
X5150598Y3105854D1*
X5147102Y3105159D1*
X5143562Y3104740D1*
X5135000Y3104600D1*
X4618809D1*
X3325405Y1811200D1*
X3325400Y1710215D1*
X3330016Y1706423D1*
X3333645Y1702985D1*
X3337038Y1699314D1*
X3340180Y1695426D1*
X3343058Y1691338D1*
X3345659Y1687069D1*
X3347971Y1682636D1*
X3349984Y1678060D1*
X3351690Y1673361D1*
X3353080Y1668559D1*
X3354149Y1663676D1*
X3354893Y1658733D1*
X3355400Y1650000D1*
X3355234Y1645004D1*
X3354738Y1640029D1*
X3353913Y1635099D1*
X3352763Y1630234D1*
X3351293Y1625456D1*
X3349510Y1620785D1*
X3347421Y1616243D1*
X3345036Y1611850D1*
X3342366Y1607624D1*
X3339420Y1603585D1*
X3336214Y1599749D1*
X3332761Y1596135D1*
X3329075Y1592757D1*
X3325174Y1589631D1*
X3321075Y1586770D1*
X3316795Y1584187D1*
X3312353Y1581894D1*
X3307769Y1579900D1*
X3303062Y1578214D1*
X3298255Y1576843D1*
X3293367Y1575794D1*
X3288420Y1575072D1*
X3283437Y1574678D1*
X3278438Y1574616D1*
X3273446Y1574885D1*
X3268483Y1575485D1*
X3263571Y1576412D1*
X3258731Y1577662D1*
X3253984Y1579230D1*
X3249352Y1581110D1*
X3244854Y1583292D1*
X3240511Y1585768D1*
X3235394Y1589247D1*
X3235400Y1528809D1*
X3289402Y1474803D1*
X3294593Y1473974D1*
X3299463Y1472845D1*
X3304247Y1471395D1*
X3308925Y1469631D1*
X3313475Y1467562D1*
X3317879Y1465195D1*
X3322116Y1462542D1*
X3326167Y1459613D1*
X3330016Y1456423D1*
X3333645Y1452985D1*
X3337038Y1449314D1*
X3340180Y1445426D1*
X3343058Y1441338D1*
X3345659Y1437069D1*
X3347971Y1432636D1*
X3349984Y1428060D1*
X3351690Y1423361D1*
X3353080Y1418559D1*
X3354149Y1413676D1*
X3354893Y1408733D1*
X3355400Y1400000D1*
X3355234Y1395004D1*
X3354738Y1390029D1*
X3353913Y1385099D1*
X3352763Y1380234D1*
X3351293Y1375456D1*
X3349510Y1370785D1*
X3347421Y1366243D1*
X3345036Y1361850D1*
X3342366Y1357624D1*
X3339420Y1353585D1*
X3336214Y1349749D1*
X3332761Y1346135D1*
X3329075Y1342757D1*
X3325174Y1339631D1*
X3321075Y1336770D1*
X3316795Y1334187D1*
X3312353Y1331894D1*
X3307769Y1329900D1*
X3303062Y1328214D1*
X3298255Y1326843D1*
X3293367Y1325794D1*
X3288420Y1325072D1*
X3283437Y1324678D1*
X3278438Y1324616D1*
X3273446Y1324885D1*
X3268483Y1325485D1*
X3263571Y1326412D1*
X3258731Y1327662D1*
X3253984Y1329230D1*
X3249352Y1331110D1*
X3244854Y1333292D1*
X3240511Y1335768D1*
X3236341Y1338526D1*
X3232364Y1341554D1*
X3228596Y1344839D1*
X3225053Y1348366D1*
X3221753Y1352121D1*
X3218708Y1356086D1*
X3215933Y1360244D1*
X3213439Y1364577D1*
X3211238Y1369065D1*
X3209339Y1373689D1*
X3207751Y1378430D1*
X3206481Y1383264D1*
X3205533Y1388173D1*
X3204913Y1393133D1*
X3204623Y1398124D1*
X3204665Y1403123D1*
X3205037Y1408108D1*
X3205739Y1413058D1*
X3206768Y1417950D1*
X3208118Y1422763D1*
X3209400Y1426390D1*
X3157897Y1477897D1*
X3155477Y1480515D1*
X3153270Y1483314D1*
X3151290Y1486278D1*
X3149548Y1489389D1*
X3148056Y1492626D1*
X3146822Y1495971D1*
X3145854Y1499402D1*
X3145159Y1502898D1*
X3144740Y1506438D1*
X3144600Y1515000D1*
Y1840000D1*
X3144740Y1843562D1*
X3145159Y1847102D1*
X3145854Y1850598D1*
X3146822Y1854029D1*
X3148056Y1857374D1*
X3149548Y1860611D1*
X3151290Y1863722D1*
X3153270Y1866686D1*
X3155477Y1869485D1*
X3161433Y1875638D1*
X3330406Y2044612D1*
X2505410Y2044600D1*
X4235374Y3745000D2*
X4234988Y3730006D1*
X4234139Y3715030D1*
X4232827Y3700088D1*
X4231054Y3685194D1*
X4228822Y3670362D1*
X4226133Y3655605D1*
X4222989Y3640939D1*
X4219394Y3626377D1*
X4215350Y3611933D1*
X4210862Y3597621D1*
X4205934Y3583454D1*
X4200570Y3569446D1*
X4194777Y3555611D1*
X4188558Y3541962D1*
X4181921Y3528511D1*
X4174871Y3515271D1*
X4167416Y3502256D1*
X4159562Y3489477D1*
X4151317Y3476947D1*
X4142689Y3464678D1*
X4133685Y3452681D1*
X4124316Y3440968D1*
X4114589Y3429550D1*
X4104514Y3418438D1*
X4094100Y3407643D1*
X4083358Y3397174D1*
X4072297Y3387043D1*
X4060929Y3377258D1*
X4049264Y3367829D1*
X4037313Y3358765D1*
X4025087Y3350075D1*
X4012599Y3341766D1*
X3999860Y3333848D1*
X3986883Y3326326D1*
X3973680Y3319209D1*
X3960263Y3312504D1*
X3946645Y3306216D1*
X3932839Y3300352D1*
X3918859Y3294918D1*
X3904717Y3289918D1*
X3890428Y3285357D1*
X3876005Y3281240D1*
X3861461Y3277571D1*
X3846811Y3274352D1*
X3832068Y3271588D1*
X3817248Y3269281D1*
X3802362Y3267433D1*
X3787427Y3266045D1*
X3772457Y3265120D1*
X3757464Y3264657D1*
X3742465Y3264658D1*
X3727473Y3265123D1*
X3712502Y3266051D1*
X3697567Y3267440D1*
X3682682Y3269291D1*
X3667862Y3271600D1*
X3653120Y3274366D1*
X3638470Y3277587D1*
X3623927Y3281258D1*
X3609504Y3285377D1*
X3595216Y3289940D1*
X3581075Y3294942D1*
X3567095Y3300379D1*
X3553291Y3306245D1*
X3539674Y3312535D1*
X3526257Y3319242D1*
X3513055Y3326361D1*
X3500079Y3333884D1*
X3487341Y3341805D1*
X3474854Y3350115D1*
X3462630Y3358807D1*
X3450681Y3367873D1*
X3439017Y3377304D1*
X3427650Y3387090D1*
X3416591Y3397223D1*
X3405850Y3407693D1*
X3395438Y3418490D1*
X3385364Y3429603D1*
X3375639Y3441022D1*
X3366271Y3452737D1*
X3357270Y3464735D1*
X3348643Y3477005D1*
X3340400Y3489537D1*
X3332548Y3502317D1*
X3325095Y3515333D1*
X3318047Y3528574D1*
X3311412Y3542026D1*
X3305195Y3555676D1*
X3299403Y3569512D1*
X3294042Y3583521D1*
X3289116Y3597688D1*
X3284630Y3612001D1*
X3280588Y3626446D1*
X3276995Y3641008D1*
X3273853Y3655675D1*
X3271166Y3670432D1*
X3268936Y3685264D1*
X3267166Y3700159D1*
X3265856Y3715101D1*
X3265009Y3730077D1*
X3264625Y3745071D1*
X3264704Y3760070D1*
X3265247Y3775060D1*
X3266253Y3790025D1*
X3267721Y3804953D1*
X3269649Y3819828D1*
X3272036Y3834636D1*
X3274879Y3849364D1*
X3278176Y3863996D1*
X3281923Y3878520D1*
X3286118Y3892921D1*
X3290755Y3907185D1*
X3295831Y3921300D1*
X3301341Y3935251D1*
X3307278Y3949025D1*
X3313639Y3962609D1*
X3320417Y3975990D1*
X3327604Y3989155D1*
X3335195Y4002091D1*
X3343182Y4014787D1*
X3351558Y4027231D1*
X3360314Y4039409D1*
X3369442Y4051311D1*
X3378933Y4062926D1*
X3388779Y4074241D1*
X3398970Y4085247D1*
X3409495Y4095933D1*
X3420346Y4106289D1*
X3431512Y4116304D1*
X3442982Y4125970D1*
X3454745Y4135276D1*
X3466790Y4144215D1*
X3479106Y4152777D1*
X3491680Y4160955D1*
X3504501Y4168740D1*
X3517556Y4176125D1*
X3530833Y4183104D1*
X3544319Y4189669D1*
X3558002Y4195814D1*
X3571868Y4201533D1*
X3585905Y4206821D1*
X3600098Y4211674D1*
X3614434Y4216085D1*
X3628899Y4220051D1*
X3643480Y4223568D1*
X3658163Y4226633D1*
X3672934Y4229243D1*
X3687778Y4231395D1*
X3702682Y4233088D1*
X3717630Y4234319D1*
X3732610Y4235088D1*
X3747606Y4235394D1*
X3762605Y4235236D1*
X3777592Y4234615D1*
X3792552Y4233531D1*
X3807471Y4231986D1*
X3822336Y4229980D1*
X3837132Y4227516D1*
X3851844Y4224596D1*
X3866459Y4221222D1*
X3880963Y4217399D1*
X3895342Y4213129D1*
X3909582Y4208418D1*
X3923670Y4203268D1*
X3937592Y4197686D1*
X3951335Y4191676D1*
X3964885Y4185244D1*
X3978230Y4178397D1*
X3991358Y4171141D1*
X4004255Y4163482D1*
X4016909Y4155429D1*
X4029308Y4146989D1*
X4041441Y4138169D1*
X4053295Y4128979D1*
X4064860Y4119427D1*
X4076124Y4109523D1*
X4087076Y4099275D1*
X4097707Y4088693D1*
X4108006Y4077788D1*
X4117963Y4066570D1*
X4127568Y4055050D1*
X4136813Y4043238D1*
X4145689Y4031147D1*
X4154187Y4018787D1*
X4162298Y4006170D1*
X4170017Y3993309D1*
X4177334Y3980215D1*
X4184243Y3966902D1*
X4190737Y3953381D1*
X4196811Y3939667D1*
X4202458Y3925771D1*
X4207672Y3911707D1*
X4212450Y3897489D1*
X4216786Y3883130D1*
X4220677Y3868644D1*
X4224118Y3854044D1*
X4227106Y3839346D1*
X4229639Y3824562D1*
X4231714Y3809707D1*
X4233329Y3794794D1*
X4234482Y3779839D1*
X4235173Y3764856D1*
X4235400Y3750000D1*
X4235374Y3745000D1*
X3679955Y2966094D2*
X3676795Y2964187D1*
X3672353Y2961894D1*
X3667769Y2959900D1*
X3663062Y2958214D1*
X3658255Y2956843D1*
X3653367Y2955794D1*
X3648420Y2955072D1*
X3643437Y2954678D1*
X3638438Y2954616D1*
X3633446Y2954885D1*
X3628483Y2955485D1*
X3623571Y2956412D1*
X3618731Y2957662D1*
X3613984Y2959230D1*
X3609352Y2961110D1*
X3604854Y2963292D1*
X3600511Y2965768D1*
X3596341Y2968526D1*
X3592364Y2971554D1*
X3588596Y2974839D1*
X3585053Y2978366D1*
X3581753Y2982121D1*
X3578708Y2986086D1*
X3575933Y2990244D1*
X3573439Y2994577D1*
X3571238Y2999065D1*
X3569339Y3003689D1*
X3567751Y3008430D1*
X3566481Y3013264D1*
X3565533Y3018173D1*
X3564913Y3023133D1*
X3564623Y3028124D1*
X3564665Y3033123D1*
X3565037Y3038108D1*
X3565739Y3043058D1*
X3566768Y3047950D1*
X3568118Y3052763D1*
X3569785Y3057476D1*
X3571760Y3062069D1*
X3574035Y3066520D1*
X3576600Y3070811D1*
X3579443Y3074923D1*
X3582553Y3078837D1*
X3585915Y3082536D1*
X3589516Y3086004D1*
X3593338Y3089227D1*
X3597365Y3092188D1*
X3601579Y3094877D1*
X3605963Y3097280D1*
X3610496Y3099388D1*
X3615159Y3101190D1*
X3619931Y3102680D1*
X3624791Y3103850D1*
X3629718Y3104696D1*
X3634690Y3105213D1*
X3639686Y3105399D1*
X3644683Y3105254D1*
X3649659Y3104779D1*
X3654593Y3103974D1*
X3659463Y3102845D1*
X3664247Y3101395D1*
X3668925Y3099631D1*
X3673475Y3097562D1*
X3679947Y3093899D1*
X3685963Y3097280D1*
X3690496Y3099388D1*
X3695159Y3101190D1*
X3699931Y3102680D1*
X3704791Y3103850D1*
X3709718Y3104696D1*
X3714690Y3105213D1*
X3719686Y3105399D1*
X3724683Y3105254D1*
X3729659Y3104779D1*
X3734593Y3103974D1*
X3739463Y3102845D1*
X3744247Y3101395D1*
X3748925Y3099631D1*
X3753475Y3097562D1*
X3759947Y3093899D1*
X3765963Y3097280D1*
X3770496Y3099388D1*
X3775159Y3101190D1*
X3779931Y3102680D1*
X3784791Y3103850D1*
X3789718Y3104696D1*
X3794690Y3105213D1*
X3799686Y3105399D1*
X3804683Y3105254D1*
X3809659Y3104779D1*
X3814593Y3103974D1*
X3819463Y3102845D1*
X3824247Y3101395D1*
X3828925Y3099631D1*
X3833475Y3097562D1*
X3837879Y3095195D1*
X3842116Y3092542D1*
X3846167Y3089613D1*
X3850016Y3086423D1*
X3853645Y3082985D1*
X3857038Y3079314D1*
X3860180Y3075426D1*
X3863058Y3071338D1*
X3865659Y3067069D1*
X3867971Y3062636D1*
X3869984Y3058060D1*
X3871690Y3053361D1*
X3873080Y3048559D1*
X3874149Y3043676D1*
X3874893Y3038733D1*
X3875400Y3030000D1*
X3875234Y3025004D1*
X3874738Y3020029D1*
X3873913Y3015099D1*
X3872763Y3010234D1*
X3871293Y3005456D1*
X3869510Y3000785D1*
X3867421Y2996243D1*
X3865036Y2991850D1*
X3862366Y2987624D1*
X3859420Y2983585D1*
X3856214Y2979749D1*
X3852761Y2976135D1*
X3849075Y2972757D1*
X3845174Y2969631D1*
X3841075Y2966770D1*
X3836795Y2964187D1*
X3832353Y2961894D1*
X3827769Y2959900D1*
X3823062Y2958214D1*
X3818255Y2956843D1*
X3813367Y2955794D1*
X3808420Y2955072D1*
X3803437Y2954678D1*
X3798438Y2954616D1*
X3793446Y2954885D1*
X3788483Y2955485D1*
X3783571Y2956412D1*
X3778731Y2957662D1*
X3773984Y2959230D1*
X3769352Y2961110D1*
X3764854Y2963292D1*
X3760006Y2966102D1*
X3756795Y2964187D1*
X3752353Y2961894D1*
X3747769Y2959900D1*
X3743062Y2958214D1*
X3738255Y2956843D1*
X3733367Y2955794D1*
X3728420Y2955072D1*
X3723437Y2954678D1*
X3718438Y2954616D1*
X3713446Y2954885D1*
X3708483Y2955485D1*
X3703571Y2956412D1*
X3698731Y2957662D1*
X3693984Y2959230D1*
X3689352Y2961110D1*
X3684854Y2963292D1*
X3680006Y2966102D1*
X3675234Y1665004D2*
X3674738Y1660029D1*
X3673913Y1655099D1*
X3672763Y1650234D1*
X3671293Y1645456D1*
X3669510Y1640785D1*
X3667421Y1636243D1*
X3665036Y1631850D1*
X3662366Y1627624D1*
X3659420Y1623585D1*
X3656214Y1619749D1*
X3652761Y1616135D1*
X3649075Y1612757D1*
X3645174Y1609631D1*
X3641075Y1606770D1*
X3636795Y1604187D1*
X3632353Y1601894D1*
X3627769Y1599900D1*
X3623062Y1598214D1*
X3618255Y1596843D1*
X3613367Y1595794D1*
X3608420Y1595072D1*
X3603437Y1594678D1*
X3598438Y1594616D1*
X3593446Y1594885D1*
X3588483Y1595485D1*
X3583571Y1596412D1*
X3578731Y1597662D1*
X3573984Y1599230D1*
X3569352Y1601110D1*
X3564854Y1603292D1*
X3560511Y1605768D1*
X3556341Y1608526D1*
X3552364Y1611554D1*
X3548596Y1614839D1*
X3545053Y1618366D1*
X3541753Y1622121D1*
X3538708Y1626086D1*
X3535933Y1630244D1*
X3533439Y1634577D1*
X3531238Y1639065D1*
X3529339Y1643689D1*
X3527751Y1648430D1*
X3526481Y1653264D1*
X3525533Y1658173D1*
X3524913Y1663133D1*
X3524623Y1668124D1*
X3524665Y1673123D1*
X3525037Y1678108D1*
X3525739Y1683058D1*
X3526768Y1687950D1*
X3528118Y1692763D1*
X3529785Y1697476D1*
X3531760Y1702069D1*
X3534035Y1706520D1*
X3536600Y1710811D1*
X3539443Y1714923D1*
X3542553Y1718837D1*
X3545915Y1722536D1*
X3549516Y1726004D1*
X3553338Y1729227D1*
X3557365Y1732188D1*
X3561579Y1734877D1*
X3565963Y1737280D1*
X3570496Y1739388D1*
X3575159Y1741190D1*
X3579931Y1742680D1*
X3584791Y1743850D1*
X3589718Y1744696D1*
X3594690Y1745213D1*
X3599686Y1745399D1*
X3604683Y1745254D1*
X3609659Y1744779D1*
X3614593Y1743974D1*
X3619463Y1742845D1*
X3624247Y1741395D1*
X3628925Y1739631D1*
X3633475Y1737562D1*
X3637879Y1735195D1*
X3642116Y1732542D1*
X3646167Y1729613D1*
X3650016Y1726423D1*
X3653645Y1722985D1*
X3657038Y1719314D1*
X3660180Y1715426D1*
X3663058Y1711338D1*
X3665659Y1707069D1*
X3667971Y1702636D1*
X3669984Y1698060D1*
X3671690Y1693361D1*
X3673080Y1688559D1*
X3674149Y1683676D1*
X3674893Y1678733D1*
X3675400Y1670000D1*
X3675234Y1665004D1*
Y1485004D2*
X3674738Y1480029D1*
X3673913Y1475099D1*
X3672763Y1470234D1*
X3671293Y1465456D1*
X3669510Y1460785D1*
X3667421Y1456243D1*
X3665036Y1451850D1*
X3662366Y1447624D1*
X3659420Y1443585D1*
X3656214Y1439749D1*
X3652761Y1436135D1*
X3649075Y1432757D1*
X3645174Y1429631D1*
X3641075Y1426770D1*
X3636795Y1424187D1*
X3632353Y1421894D1*
X3627769Y1419900D1*
X3623062Y1418214D1*
X3618255Y1416843D1*
X3613367Y1415794D1*
X3608420Y1415072D1*
X3603437Y1414678D1*
X3598438Y1414616D1*
X3593446Y1414885D1*
X3588483Y1415485D1*
X3583571Y1416412D1*
X3578731Y1417662D1*
X3573984Y1419230D1*
X3569352Y1421110D1*
X3564854Y1423292D1*
X3560511Y1425768D1*
X3556341Y1428526D1*
X3552364Y1431554D1*
X3548596Y1434839D1*
X3545053Y1438366D1*
X3541753Y1442121D1*
X3538708Y1446086D1*
X3535933Y1450244D1*
X3533439Y1454577D1*
X3531238Y1459065D1*
X3529339Y1463689D1*
X3527751Y1468430D1*
X3526481Y1473264D1*
X3525533Y1478173D1*
X3524913Y1483133D1*
X3524623Y1488124D1*
X3524665Y1493123D1*
X3525037Y1498108D1*
X3525739Y1503058D1*
X3526768Y1507950D1*
X3528118Y1512763D1*
X3529785Y1517476D1*
X3531760Y1522069D1*
X3534035Y1526520D1*
X3536600Y1530811D1*
X3539443Y1534923D1*
X3542553Y1538837D1*
X3545915Y1542536D1*
X3549516Y1546004D1*
X3553338Y1549227D1*
X3557365Y1552188D1*
X3561579Y1554877D1*
X3565963Y1557280D1*
X3570496Y1559388D1*
X3575159Y1561190D1*
X3579931Y1562680D1*
X3584791Y1563850D1*
X3589718Y1564696D1*
X3594690Y1565213D1*
X3599686Y1565399D1*
X3604683Y1565254D1*
X3609659Y1564779D1*
X3614593Y1563974D1*
X3619463Y1562845D1*
X3624247Y1561395D1*
X3628925Y1559631D1*
X3633475Y1557562D1*
X3637879Y1555195D1*
X3642116Y1552542D1*
X3646167Y1549613D1*
X3650016Y1546423D1*
X3653645Y1542985D1*
X3657038Y1539314D1*
X3660180Y1535426D1*
X3663058Y1531338D1*
X3665659Y1527069D1*
X3667971Y1522636D1*
X3669984Y1518060D1*
X3671690Y1513361D1*
X3673080Y1508559D1*
X3674149Y1503676D1*
X3674893Y1498733D1*
X3675400Y1490000D1*
X3675234Y1485004D1*
X3355234Y1145004D2*
X3354738Y1140029D1*
X3353913Y1135099D1*
X3352763Y1130234D1*
X3351293Y1125456D1*
X3349510Y1120785D1*
X3347421Y1116243D1*
X3345036Y1111850D1*
X3342366Y1107624D1*
X3339420Y1103585D1*
X3336214Y1099749D1*
X3332761Y1096135D1*
X3329075Y1092757D1*
X3325174Y1089631D1*
X3321075Y1086770D1*
X3316795Y1084187D1*
X3312353Y1081894D1*
X3307769Y1079900D1*
X3303062Y1078214D1*
X3298255Y1076843D1*
X3293367Y1075794D1*
X3288420Y1075072D1*
X3283437Y1074678D1*
X3278438Y1074616D1*
X3273446Y1074885D1*
X3268483Y1075485D1*
X3263571Y1076412D1*
X3258731Y1077662D1*
X3253984Y1079230D1*
X3249352Y1081110D1*
X3244854Y1083292D1*
X3240511Y1085768D1*
X3236341Y1088526D1*
X3232364Y1091554D1*
X3228596Y1094839D1*
X3225053Y1098366D1*
X3221753Y1102121D1*
X3218708Y1106086D1*
X3215933Y1110244D1*
X3213439Y1114577D1*
X3211238Y1119065D1*
X3209339Y1123689D1*
X3207751Y1128430D1*
X3206481Y1133264D1*
X3205533Y1138173D1*
X3204913Y1143133D1*
X3204623Y1148124D1*
X3204665Y1153123D1*
X3205037Y1158108D1*
X3205739Y1163058D1*
X3206768Y1167950D1*
X3208118Y1172763D1*
X3209785Y1177476D1*
X3211760Y1182069D1*
X3214035Y1186520D1*
X3216600Y1190811D1*
X3219443Y1194923D1*
X3222553Y1198837D1*
X3225915Y1202536D1*
X3229516Y1206004D1*
X3233338Y1209227D1*
X3237365Y1212188D1*
X3241579Y1214877D1*
X3245963Y1217280D1*
X3250496Y1219388D1*
X3255159Y1221190D1*
X3259931Y1222680D1*
X3264791Y1223850D1*
X3269718Y1224696D1*
X3274690Y1225213D1*
X3279686Y1225399D1*
X3284683Y1225254D1*
X3289659Y1224779D1*
X3294593Y1223974D1*
X3299463Y1222845D1*
X3304247Y1221395D1*
X3308925Y1219631D1*
X3313475Y1217562D1*
X3317879Y1215195D1*
X3322116Y1212542D1*
X3326167Y1209613D1*
X3330016Y1206423D1*
X3333645Y1202985D1*
X3337038Y1199314D1*
X3340180Y1195426D1*
X3343058Y1191338D1*
X3345659Y1187069D1*
X3347971Y1182636D1*
X3349984Y1178060D1*
X3351690Y1173361D1*
X3353080Y1168559D1*
X3354149Y1163676D1*
X3354893Y1158733D1*
X3355400Y1150000D1*
X3355234Y1145004D1*
X4095234Y3185004D2*
X4094738Y3180029D1*
X4093913Y3175099D1*
X4092763Y3170234D1*
X4091293Y3165456D1*
X4089510Y3160785D1*
X4087421Y3156243D1*
X4085036Y3151850D1*
X4082366Y3147624D1*
X4079420Y3143585D1*
X4076214Y3139749D1*
X4072761Y3136135D1*
X4069075Y3132757D1*
X4065174Y3129631D1*
X4061075Y3126770D1*
X4056795Y3124187D1*
X4052353Y3121894D1*
X4047769Y3119900D1*
X4043062Y3118214D1*
X4038255Y3116843D1*
X4033367Y3115794D1*
X4028420Y3115072D1*
X4023437Y3114678D1*
X4018438Y3114616D1*
X4013446Y3114885D1*
X4008483Y3115485D1*
X4003571Y3116412D1*
X3998731Y3117662D1*
X3993984Y3119230D1*
X3989352Y3121110D1*
X3984854Y3123292D1*
X3980511Y3125768D1*
X3976341Y3128526D1*
X3972364Y3131554D1*
X3968596Y3134839D1*
X3965053Y3138366D1*
X3961753Y3142121D1*
X3958708Y3146086D1*
X3955933Y3150244D1*
X3953439Y3154577D1*
X3951238Y3159065D1*
X3949339Y3163689D1*
X3947751Y3168430D1*
X3946481Y3173264D1*
X3945533Y3178173D1*
X3944913Y3183133D1*
X3944623Y3188124D1*
X3944665Y3193123D1*
X3945037Y3198108D1*
X3945739Y3203058D1*
X3946768Y3207950D1*
X3948118Y3212763D1*
X3949785Y3217476D1*
X3951760Y3222069D1*
X3954035Y3226520D1*
X3956600Y3230811D1*
X3959443Y3234923D1*
X3962553Y3238837D1*
X3965915Y3242536D1*
X3969516Y3246004D1*
X3973338Y3249227D1*
X3977365Y3252188D1*
X3981579Y3254877D1*
X3985963Y3257280D1*
X3990496Y3259388D1*
X3995159Y3261190D1*
X3999931Y3262680D1*
X4004791Y3263850D1*
X4009718Y3264696D1*
X4014690Y3265213D1*
X4019686Y3265399D1*
X4024683Y3265254D1*
X4029659Y3264779D1*
X4034593Y3263974D1*
X4039463Y3262845D1*
X4044247Y3261395D1*
X4048925Y3259631D1*
X4053475Y3257562D1*
X4057879Y3255195D1*
X4062116Y3252542D1*
X4066167Y3249613D1*
X4070016Y3246423D1*
X4073645Y3242985D1*
X4077038Y3239314D1*
X4080180Y3235426D1*
X4083058Y3231338D1*
X4085659Y3227069D1*
X4087971Y3222636D1*
X4089984Y3218060D1*
X4091690Y3213361D1*
X4093080Y3208559D1*
X4094149Y3203676D1*
X4094893Y3198733D1*
X4095400Y3190000D1*
X4095234Y3185004D1*
X3724276Y6325002D2*
X3723282Y6315056D1*
X3721303Y6305258D1*
X3718361Y6295705D1*
X3714483Y6286492D1*
X3709708Y6277710D1*
X3704084Y6269446D1*
X3697666Y6261783D1*
X3690517Y6254796D1*
X3682710Y6248555D1*
X3674320Y6243120D1*
X3665432Y6238547D1*
X3656132Y6234881D1*
X3646515Y6232157D1*
X3636674Y6230403D1*
X3626708Y6229637D1*
X3616714Y6229865D1*
X3606793Y6231085D1*
X3597043Y6233287D1*
X3587560Y6236447D1*
X3578437Y6240534D1*
X3569767Y6245508D1*
X3561634Y6251319D1*
X3554119Y6257911D1*
X3547297Y6265217D1*
X3541236Y6273165D1*
X3535994Y6281676D1*
X3531625Y6290667D1*
X3528172Y6300047D1*
X3525669Y6309725D1*
X3524140Y6319603D1*
X3523601Y6329584D1*
X3524057Y6339570D1*
X3525504Y6349460D1*
X3527927Y6359158D1*
X3531303Y6368567D1*
X3535597Y6377593D1*
X3540768Y6386148D1*
X3546763Y6394146D1*
X3553525Y6401508D1*
X3560984Y6408161D1*
X3569069Y6414040D1*
X3577698Y6419086D1*
X3586786Y6423248D1*
X3596243Y6426487D1*
X3605974Y6428769D1*
X3615885Y6430072D1*
X3625876Y6430382D1*
X3635848Y6429698D1*
X3645703Y6428026D1*
X3655343Y6425382D1*
X3664672Y6421793D1*
X3673599Y6417293D1*
X3682033Y6411929D1*
X3689892Y6405752D1*
X3697098Y6398825D1*
X3703579Y6391215D1*
X3709272Y6382998D1*
X3714119Y6374257D1*
X3718074Y6365076D1*
X3721095Y6355548D1*
X3723154Y6345766D1*
X3724231Y6335829D1*
X3724400Y6330000D1*
X3724276Y6325002D1*
X3980276D2*
X3979282Y6315056D1*
X3977303Y6305258D1*
X3974361Y6295705D1*
X3970483Y6286492D1*
X3965708Y6277710D1*
X3960084Y6269446D1*
X3953666Y6261783D1*
X3946517Y6254796D1*
X3938710Y6248555D1*
X3930320Y6243120D1*
X3921432Y6238547D1*
X3912132Y6234881D1*
X3902515Y6232157D1*
X3892674Y6230403D1*
X3882708Y6229637D1*
X3872714Y6229865D1*
X3862793Y6231085D1*
X3853043Y6233287D1*
X3843560Y6236447D1*
X3834437Y6240534D1*
X3825767Y6245508D1*
X3817634Y6251319D1*
X3810119Y6257911D1*
X3803297Y6265217D1*
X3797236Y6273165D1*
X3791994Y6281676D1*
X3787625Y6290667D1*
X3784172Y6300047D1*
X3781669Y6309725D1*
X3780140Y6319603D1*
X3779601Y6329584D1*
X3780057Y6339570D1*
X3781504Y6349460D1*
X3783927Y6359158D1*
X3787303Y6368567D1*
X3791597Y6377593D1*
X3796768Y6386148D1*
X3802763Y6394146D1*
X3809525Y6401508D1*
X3816984Y6408161D1*
X3825069Y6414040D1*
X3833698Y6419086D1*
X3842786Y6423248D1*
X3852243Y6426487D1*
X3861974Y6428769D1*
X3871885Y6430072D1*
X3881876Y6430382D1*
X3891848Y6429698D1*
X3901703Y6428026D1*
X3911343Y6425382D1*
X3920672Y6421793D1*
X3929599Y6417293D1*
X3938033Y6411929D1*
X3945892Y6405752D1*
X3953098Y6398825D1*
X3959579Y6391215D1*
X3965272Y6382998D1*
X3970119Y6374257D1*
X3974074Y6365076D1*
X3977095Y6355548D1*
X3979154Y6345766D1*
X3980231Y6335829D1*
X3980400Y6330000D1*
X3980276Y6325002D1*
X4234276D2*
X4233282Y6315056D1*
X4231303Y6305258D1*
X4228361Y6295705D1*
X4224483Y6286492D1*
X4219708Y6277710D1*
X4214084Y6269446D1*
X4207666Y6261783D1*
X4200517Y6254796D1*
X4192710Y6248555D1*
X4184320Y6243120D1*
X4175432Y6238547D1*
X4166132Y6234881D1*
X4156515Y6232157D1*
X4146674Y6230403D1*
X4136708Y6229637D1*
X4126714Y6229865D1*
X4116793Y6231085D1*
X4107043Y6233287D1*
X4097560Y6236447D1*
X4088437Y6240534D1*
X4079767Y6245508D1*
X4071634Y6251319D1*
X4064119Y6257911D1*
X4057297Y6265217D1*
X4051236Y6273165D1*
X4045994Y6281676D1*
X4041625Y6290667D1*
X4038172Y6300047D1*
X4035669Y6309725D1*
X4034140Y6319603D1*
X4033601Y6329584D1*
X4034057Y6339570D1*
X4035504Y6349460D1*
X4037927Y6359158D1*
X4041303Y6368567D1*
X4045597Y6377593D1*
X4050768Y6386148D1*
X4056763Y6394146D1*
X4063525Y6401508D1*
X4070984Y6408161D1*
X4079069Y6414040D1*
X4087698Y6419086D1*
X4096786Y6423248D1*
X4106243Y6426487D1*
X4115974Y6428769D1*
X4125885Y6430072D1*
X4135876Y6430382D1*
X4145848Y6429698D1*
X4155703Y6428026D1*
X4165343Y6425382D1*
X4174672Y6421793D1*
X4183599Y6417293D1*
X4192033Y6411929D1*
X4199892Y6405752D1*
X4207098Y6398825D1*
X4213579Y6391215D1*
X4219272Y6382998D1*
X4224119Y6374257D1*
X4228074Y6365076D1*
X4231095Y6355548D1*
X4233154Y6345766D1*
X4234231Y6335829D1*
X4234400Y6330000D1*
X4234276Y6325002D1*
X1895320Y2767001D2*
X1894677Y2757023D1*
X1893393Y2747108D1*
X1891475Y2737295D1*
X1888930Y2727626D1*
X1885768Y2718141D1*
X1882003Y2708879D1*
X1877650Y2699878D1*
X1872727Y2691175D1*
X1867255Y2682808D1*
X1861256Y2674809D1*
X1854755Y2667213D1*
X1847779Y2660050D1*
X1840357Y2653351D1*
X1832520Y2647143D1*
X1824299Y2641452D1*
X1815730Y2636301D1*
X1806847Y2631712D1*
X1797687Y2627704D1*
X1788289Y2624293D1*
X1778690Y2621493D1*
X1768932Y2619317D1*
X1759054Y2617773D1*
X1749097Y2616866D1*
X1739102Y2616603D1*
X1729111Y2616982D1*
X1719165Y2618003D1*
X1709305Y2619662D1*
X1699572Y2621951D1*
X1690007Y2624861D1*
X1680649Y2628380D1*
X1671536Y2632494D1*
X1662707Y2637186D1*
X1654197Y2642435D1*
X1646043Y2648221D1*
X1638278Y2654519D1*
X1630934Y2661304D1*
X1624041Y2668546D1*
X1617628Y2676217D1*
X1611722Y2684285D1*
X1606347Y2692715D1*
X1601525Y2701474D1*
X1597277Y2710525D1*
X1593619Y2719830D1*
X1590567Y2729351D1*
X1588134Y2739049D1*
X1586329Y2748883D1*
X1585161Y2758812D1*
X1584633Y2768797D1*
X1584749Y2778794D1*
X1585507Y2788764D1*
X1586905Y2798664D1*
X1588936Y2808454D1*
X1591593Y2818092D1*
X1594864Y2827540D1*
X1598736Y2836759D1*
X1603193Y2845709D1*
X1608216Y2854353D1*
X1613784Y2862658D1*
X1619875Y2870586D1*
X1626464Y2878107D1*
X1633522Y2885188D1*
X1641021Y2891801D1*
X1648930Y2897918D1*
X1657216Y2903514D1*
X1665844Y2908565D1*
X1674779Y2913051D1*
X1683985Y2916953D1*
X1693422Y2920255D1*
X1703052Y2922944D1*
X1712835Y2925007D1*
X1722730Y2926437D1*
X1732697Y2927228D1*
X1742695Y2927377D1*
X1752681Y2926882D1*
X1762614Y2925746D1*
X1772454Y2923973D1*
X1782160Y2921572D1*
X1791691Y2918551D1*
X1801008Y2914924D1*
X1810072Y2910705D1*
X1818847Y2905912D1*
X1827295Y2900564D1*
X1835382Y2894685D1*
X1843074Y2888297D1*
X1850339Y2881428D1*
X1857147Y2874106D1*
X1863471Y2866362D1*
X1869283Y2858227D1*
X1874560Y2849734D1*
X1879281Y2840921D1*
X1883424Y2831821D1*
X1886974Y2822475D1*
X1889916Y2812919D1*
X1892237Y2803194D1*
X1893928Y2793339D1*
X1894982Y2783397D1*
X1895394Y2773407D1*
X1895320Y2767001D1*
X4669941Y2154600D2*
X4510000D1*
X4505004Y2154766D1*
X4500029Y2155262D1*
X4495099Y2156087D1*
X4490234Y2157237D1*
X4485456Y2158707D1*
X4480785Y2160490D1*
X4476243Y2162578D1*
X4471850Y2164963D1*
X4467624Y2167634D1*
X4463585Y2170579D1*
X4459749Y2173786D1*
X4456135Y2177239D1*
X4452745Y2180940D1*
X4449984Y2184358D1*
X4446214Y2179749D1*
X4442761Y2176135D1*
X4439075Y2172757D1*
X4435174Y2169631D1*
X4431075Y2166770D1*
X4426795Y2164187D1*
X4422353Y2161894D1*
X4417769Y2159900D1*
X4413062Y2158214D1*
X4408255Y2156843D1*
X4403367Y2155794D1*
X4398420Y2155072D1*
X4393437Y2154678D1*
X4388438Y2154616D1*
X4383446Y2154885D1*
X4378483Y2155485D1*
X4373571Y2156412D1*
X4368731Y2157662D1*
X4363984Y2159230D1*
X4359352Y2161110D1*
X4354854Y2163292D1*
X4350511Y2165768D1*
X4346341Y2168526D1*
X4342364Y2171554D1*
X4338596Y2174839D1*
X4335053Y2178366D1*
X4331753Y2182121D1*
X4328708Y2186086D1*
X4325933Y2190244D1*
X4323439Y2194577D1*
X4321238Y2199065D1*
X4319339Y2203689D1*
X4317751Y2208430D1*
X4316481Y2213264D1*
X4315533Y2218173D1*
X4314913Y2223133D1*
X4314623Y2228124D1*
X4314665Y2233123D1*
X4315037Y2238108D1*
X4315739Y2243058D1*
X4316768Y2247950D1*
X4318118Y2252763D1*
X4319785Y2257476D1*
X4321760Y2262069D1*
X4324035Y2266520D1*
X4326600Y2270811D1*
X4329443Y2274923D1*
X4332553Y2278837D1*
X4335915Y2282536D1*
X4339516Y2286004D1*
X4343338Y2289227D1*
X4347365Y2292188D1*
X4351579Y2294877D1*
X4355963Y2297280D1*
X4360496Y2299388D1*
X4365159Y2301190D1*
X4369931Y2302680D1*
X4374791Y2303850D1*
X4379718Y2304696D1*
X4384690Y2305213D1*
X4389686Y2305399D1*
X4394683Y2305254D1*
X4399659Y2304779D1*
X4404593Y2303974D1*
X4409463Y2302845D1*
X4414247Y2301395D1*
X4418925Y2299631D1*
X4423475Y2297562D1*
X4427879Y2295195D1*
X4432116Y2292542D1*
X4436167Y2289613D1*
X4440016Y2286423D1*
X4443645Y2282985D1*
X4447038Y2279314D1*
X4449996Y2275653D1*
X4454838Y2281404D1*
X4458366Y2284946D1*
X4462120Y2288247D1*
X4466085Y2291292D1*
X4470243Y2294067D1*
X4474576Y2296561D1*
X4479064Y2298762D1*
X4483689Y2300661D1*
X4488429Y2302249D1*
X4493264Y2303519D1*
X4498172Y2304467D1*
X4503133Y2305087D1*
X4510000Y2305400D1*
X4638770D1*
X4754611Y2421243D1*
X4754600Y2437599D1*
X4489601D1*
Y2962399D1*
X4760401D1*
Y2829020D1*
X4763659Y2835834D1*
X4766180Y2840152D1*
X4768981Y2844292D1*
X4772050Y2848239D1*
X4776684Y2853316D1*
X4858366Y2934946D1*
X4862120Y2938247D1*
X4866085Y2941292D1*
X4870243Y2944067D1*
X4874576Y2946561D1*
X4879064Y2948762D1*
X4883689Y2950661D1*
X4888429Y2952249D1*
X4893264Y2953519D1*
X4898172Y2954467D1*
X4903133Y2955087D1*
X4910000Y2955400D1*
X5242342Y2955364D1*
X5247331Y2955043D1*
X5252287Y2954392D1*
X5257190Y2953415D1*
X5262017Y2952114D1*
X5266747Y2950497D1*
X5271360Y2948570D1*
X5275834Y2946341D1*
X5280152Y2943820D1*
X5284292Y2941020D1*
X5288238Y2937950D1*
X5293316Y2933316D1*
X5334946Y2891634D1*
X5338247Y2887880D1*
X5341292Y2883915D1*
X5344067Y2879757D1*
X5346561Y2875424D1*
X5348762Y2870936D1*
X5350661Y2866311D1*
X5352249Y2861571D1*
X5353519Y2856736D1*
X5354467Y2851828D1*
X5355087Y2846867D1*
X5355400Y2840000D1*
X5355401Y2830400D1*
X5393800Y2830399D1*
X5388596Y2834839D1*
X5385053Y2838366D1*
X5381753Y2842121D1*
X5378708Y2846086D1*
X5375933Y2850244D1*
X5373439Y2854577D1*
X5371238Y2859065D1*
X5369339Y2863689D1*
X5367751Y2868430D1*
X5366481Y2873264D1*
X5365533Y2878173D1*
X5364913Y2883133D1*
X5364623Y2888124D1*
X5364665Y2893123D1*
X5365037Y2898108D1*
X5365739Y2903058D1*
X5366768Y2907950D1*
X5368118Y2912763D1*
X5369785Y2917476D1*
X5371760Y2922069D1*
X5374035Y2926520D1*
X5376600Y2930811D1*
X5379443Y2934923D1*
X5382553Y2938837D1*
X5385915Y2942536D1*
X5389516Y2946004D1*
X5393338Y2949227D1*
X5397365Y2952188D1*
X5401579Y2954877D1*
X5405963Y2957280D1*
X5410496Y2959388D1*
X5415159Y2961190D1*
X5419931Y2962680D1*
X5424791Y2963850D1*
X5429718Y2964696D1*
X5434690Y2965213D1*
X5439686Y2965399D1*
X5444683Y2965254D1*
X5449659Y2964779D1*
X5454593Y2963974D1*
X5459463Y2962845D1*
X5464247Y2961395D1*
X5468925Y2959631D1*
X5473475Y2957562D1*
X5477879Y2955195D1*
X5482116Y2952542D1*
X5486167Y2949613D1*
X5490016Y2946423D1*
X5493645Y2942985D1*
X5497038Y2939314D1*
X5500180Y2935426D1*
X5503058Y2931338D1*
X5505659Y2927069D1*
X5507971Y2922636D1*
X5509984Y2918060D1*
X5511690Y2913361D1*
X5513080Y2908559D1*
X5514149Y2903676D1*
X5514893Y2898733D1*
X5515400Y2890000D1*
X5515234Y2885004D1*
X5514738Y2880029D1*
X5513913Y2875099D1*
X5512763Y2870234D1*
X5511293Y2865456D1*
X5509510Y2860785D1*
X5507421Y2856243D1*
X5505036Y2851850D1*
X5502366Y2847624D1*
X5499420Y2843585D1*
X5496214Y2839749D1*
X5492761Y2836135D1*
X5489075Y2832757D1*
X5486134Y2830400D1*
X5685401Y2830399D1*
Y2649599D1*
X5034600Y2649600D1*
Y2664619D1*
X4960000Y2664600D1*
X4955004Y2664765D1*
X4950029Y2665262D1*
X4945099Y2666087D1*
X4940234Y2667237D1*
X4935456Y2668706D1*
X4930785Y2670489D1*
X4926243Y2672578D1*
X4921850Y2674963D1*
X4917624Y2677634D1*
X4913585Y2680579D1*
X4909749Y2683785D1*
X4906122Y2687253D1*
X4905400Y2685000D1*
Y2390000D1*
X4905234Y2385004D1*
X4904738Y2380029D1*
X4903913Y2375099D1*
X4902763Y2370234D1*
X4901294Y2365456D1*
X4899510Y2360785D1*
X4897422Y2356243D1*
X4895037Y2351850D1*
X4892366Y2347624D1*
X4889421Y2343585D1*
X4886201Y2339735D1*
X4876245Y2329613D1*
X4723316Y2176684D1*
X4719666Y2173268D1*
X4715797Y2170102D1*
X4711728Y2167199D1*
X4707474Y2164572D1*
X4703057Y2162232D1*
X4698493Y2160191D1*
X4693805Y2158456D1*
X4689012Y2157036D1*
X4684135Y2155937D1*
X4679196Y2155163D1*
X4674197Y2154717D1*
D24*
X1490000Y3250000D3*
X1744000D3*
X1998000D3*
X2252000D3*
X2506000D3*
X2760000D3*
X3014000D3*
D25*
X2952123Y4836247D3*
X1552123D3*
D27*
X2220000Y5410000D3*
X2050000D3*
D28*
X3440000Y3110000D3*
Y3280000D3*
X3270000Y3110000D3*
Y3280000D3*
X5280000Y2740000D3*
Y2570000D3*
X5120000Y2740000D3*
Y2570000D3*
D27*
X4470000Y3930000D3*
X4640000D3*
D28*
X5440000Y2740000D3*
Y2570000D3*
D27*
X2850000Y5840000D3*
X3020000D3*
Y6010000D3*
X3190000D3*
X4940000Y5950000D3*
X5110000D3*
D28*
X4070000Y5710000D3*
Y5540000D3*
D27*
X3430000Y5800000D3*
X3600000D3*
D28*
X3340000Y5160000D3*
Y5330000D3*
D27*
X3830000Y5090000D3*
X4000000D3*
D28*
X4240000Y5710000D3*
Y5540000D3*
D27*
X3430000Y5960000D3*
X3600000D3*
D28*
X3180000Y5160000D3*
Y5330000D3*
D27*
X3830000Y4930000D3*
X4000000D3*
X4850000Y3930000D3*
X5020000D3*
X4940000Y5750000D3*
X5110000D3*
X4940000Y5540000D3*
X5110000D3*
D31*
X4420000Y4070000D3*
X4640000D3*
X4740000Y5950000D3*
X4520000D3*
X4800000Y4070000D3*
X5020000D3*
X4740000Y5750000D3*
X4520000D3*
X4740000Y5540000D3*
X4520000D3*
D37*
X2770000Y1430000D3*
Y1684000D3*
D38*
Y2573000D3*
Y2827000D3*
D37*
X4625000Y1430000D3*
Y1684000D3*
D38*
Y2573000D3*
Y2827000D3*
D40*
X2370000Y5760000D3*
Y5570000D3*
X2140000Y5665000D3*
D44*
X4640000Y4200000D3*
X4509987D3*
X4574993Y4410000D3*
X5020000Y4200000D3*
X4889987D3*
X4954993Y4410000D3*
D28*
X2540000Y5580000D3*
Y5750000D3*
X2380000Y5410000D3*
Y5240000D3*
X2540000Y5410000D3*
Y5240000D3*
X5600000Y2570000D3*
Y2740000D3*
D27*
X4470000Y3770000D3*
X4640000D3*
D28*
X2850000Y6180000D3*
Y6010000D3*
X2420000Y2600000D3*
Y2770000D3*
X4390000Y4580000D3*
Y4410000D3*
D27*
X3190000Y6180000D3*
X3020000D3*
X4850000Y3770000D3*
X5020000D3*
D28*
X2420000Y2090000D3*
Y2260000D3*
X4770000Y4580000D3*
Y4410000D3*
D27*
X4940000Y5350000D3*
X5110000D3*
D50*
X1160000Y3890000D3*
Y3610000D3*
D51*
X1740000Y2772000D3*
Y2264000D3*
D50*
X2100000Y2766000D3*
Y2512000D3*
Y2258000D3*
Y2004000D3*
Y1750000D3*
G36*
X2167000Y3530000D2*
X2337000D1*
Y3390000D1*
X2167000D1*
Y3530000D1*
G37*
M02*
