G04 DipTrace 3.3.1.1*
G04 Inner2.gbr*
%MOMM*%
G04 #@! TF.FileFunction,Copper,L3,Inr*
G04 #@! TF.Part,Single*
G04 #@! TA.AperFunction,Conductor*
%ADD13C,0.2*%
%ADD15C,1.0*%
%ADD16C,1.5*%
%ADD17C,0.5*%
G04 #@! TA.AperFunction,ViaPad*
%ADD19C,0.8*%
G04 #@! TA.AperFunction,Conductor*
%ADD20C,0.4*%
G04 #@! TA.AperFunction,CopperBalancing*
%ADD21C,0.1*%
G04 #@! TA.AperFunction,ComponentPad*
%ADD37C,2.0*%
%ADD38R,2.0X2.0*%
%ADD50C,2.2*%
%ADD51C,2.4*%
G04 #@! TA.AperFunction,ViaPad*
%ADD54C,9.0*%
%ADD56C,1.3*%
%FSLAX35Y35*%
G04*
G71*
G90*
G75*
G01*
G04 Inner2*
%LPD*%
X1740000Y2264000D2*
D16*
X1440000Y2564000D1*
Y2920000D1*
X1590000Y3070000D1*
X2200000D1*
X2384000Y2886000D1*
Y2496000D1*
X2770000Y2110000D1*
Y2000000D1*
X2290000Y3480000D2*
D15*
Y3570000D1*
X2350000Y3630000D1*
X2450000D1*
X2540000Y3540000D1*
Y2560000D1*
X2990000Y2110000D1*
Y1750000D1*
X2770000Y1530000D1*
Y1430000D1*
X2210000Y3480000D2*
X2290000Y3570000D1*
X2210000Y3480000D2*
X2290000D1*
X1740000D2*
D13*
X2640000Y4380000D1*
Y5870000D1*
X2690000Y5920000D1*
X3120000D1*
X3190000Y5850000D1*
X3780000Y5200000D2*
D17*
X3550000D1*
X3470000Y5280000D1*
X3940000Y5670000D2*
X3930000Y5680000D1*
X3470000D1*
Y5280000D2*
D19*
Y5680000D1*
X2720000Y6180000D2*
D17*
X3120000D1*
X3470000Y5830000D1*
Y5680000D1*
X1920000Y5410000D2*
X2540000Y6030000D1*
X3160000D1*
X3470000Y5720000D1*
Y5680000D1*
X3190000Y5850000D2*
D20*
X3200000D1*
X3370000Y5680000D1*
Y5380000D1*
X3470000Y5280000D1*
X3580000Y4320000D2*
X3500000D1*
X3350000Y4470000D1*
Y4740000D1*
Y5160000D1*
X3470000Y5280000D1*
D19*
Y4830000D1*
X4270000Y4030000D1*
Y2110000D1*
X4390000Y1990000D1*
X3780000Y5200000D2*
D20*
X3870000D1*
X4100000Y4970000D1*
Y4740000D1*
X5240000Y5750000D2*
X5150000D1*
X4680000Y5280000D1*
X3470000D1*
X1920000Y5410000D2*
D17*
Y4810000D1*
X2030000Y4700000D1*
X5950000Y2590000D2*
D13*
Y3720000D1*
X6370000Y4140000D1*
X2770000Y1430000D2*
D15*
X2860000D1*
X3230000Y1800000D1*
X4255000D1*
X4625000Y1430000D1*
X3372000Y6330000D2*
D17*
X3270000D1*
X3120000Y6180000D1*
X5110000Y5230000D2*
D13*
X4810000D1*
X4700000Y5120000D1*
Y3340000D1*
X5190000Y2850000D1*
Y1760000D1*
X4690000Y1260000D1*
X3390000D1*
X3280000Y1150000D1*
X3230000Y4850000D2*
Y3660000D1*
X3120000Y3550000D1*
Y3360000D1*
X3290000Y3190000D1*
X4020000D1*
X2000000Y3480000D2*
Y3640000D1*
X2702000Y4342000D1*
Y5840000D1*
X2720000D1*
D54*
X3750000Y3750000D3*
D19*
X3430000Y6070000D3*
X4350000Y5710000D3*
X3860000Y4820000D3*
X3180000Y5040000D3*
X3350000Y4740000D3*
X3780000Y5200000D3*
X3580000Y4320000D3*
X4100000Y4740000D3*
X4960000Y2740000D3*
Y2590000D3*
X5440000Y2890000D3*
X6370000Y4140000D3*
X2960000Y2520000D3*
Y2440000D3*
Y2360000D3*
X2770000Y2000000D3*
X2850000D3*
X2690000D3*
X2290000Y3480000D3*
X2210000D3*
X3640000Y3030000D3*
X3720000D3*
X3800000D3*
X3600000Y1670000D3*
Y1490000D3*
X3590000Y1100000D3*
X3280000Y1650000D3*
Y1400000D3*
Y1150000D3*
X3710000Y1090000D3*
X3270000Y3460000D3*
X2000000Y3480000D3*
X1740000D3*
X4390000Y2230000D3*
X4510000D3*
X4740000Y6050000D3*
Y5850000D3*
Y5640000D3*
X3820000Y6010000D3*
X4470000Y3640000D3*
X3060000Y5400000D3*
Y5510000D3*
X3780000Y5480000D3*
X2950000Y5630000D3*
X3890000Y5380000D3*
X3470000Y5680000D3*
Y5280000D3*
X3940000Y5670000D3*
X1920000Y4620000D3*
X2250000Y4700000D3*
X2470000Y4620000D3*
X2030000Y4700000D3*
X1920000Y5410000D3*
X3190000Y5850000D3*
X2720000Y5840000D3*
Y6180000D3*
X5130000Y4320000D3*
Y4210000D3*
X2880000Y5300000D3*
X5170000Y3840000D3*
X4390000Y1990000D3*
X4510000D3*
X5240000Y5750000D3*
X2810000Y5610000D3*
X5110000Y5230000D3*
X4020000Y3190000D3*
X5950000Y2590000D3*
X3230000Y4850000D3*
D56*
X3372000Y6330000D3*
X3624000D3*
X3880000D3*
X4134000D3*
D19*
X3550000Y6100000D3*
X1860000Y2520000D3*
X5200000Y1550000D3*
X1300000Y4750000D3*
X5500000Y3200000D3*
X4670000Y3060000D3*
X3170000Y1940000D3*
X2970000Y2660000D3*
X5400000Y2290000D3*
X3910000Y2270000D3*
X5150000Y3700000D3*
X4900000Y1630000D3*
X3720000Y5370000D3*
X5140000Y3410000D3*
X5570000Y4360000D3*
X5200000Y3980000D3*
X2700000Y4050000D3*
X4090000Y5850000D3*
X5680000Y1970000D3*
X1800000Y4050000D3*
X3360000Y4160000D3*
X5970000Y4330000D3*
X4120000Y2320000D3*
X4040000Y1120000D3*
X1680000Y4460000D3*
X2830000Y4500000D3*
X3940000Y3060000D3*
X5570000Y5560000D3*
X5750000Y2890000D3*
X5740000Y3440000D3*
X4470000Y5080000D3*
X5150000Y3030000D3*
X5760000Y3980000D3*
X4950000Y2290000D3*
X4250000Y6000000D3*
X4240000Y1540000D3*
X2380000D3*
X1560000Y5230000D3*
X5090000Y2010000D3*
X2460000Y4830000D3*
X3170000Y1400000D3*
X4460000Y1180000D3*
X4120000Y1970000D3*
X3070000Y2880000D3*
X2380000Y1870000D3*
X6240000Y3350000D3*
X5580000Y3670000D3*
X5300000Y5330000D3*
X4230000Y5000000D3*
X4470000Y4740000D3*
X4430000Y6290000D3*
X3020000Y3750000D3*
X4130000Y3300000D3*
X5910000Y5310000D3*
X6340000Y4420000D3*
X1180000Y4260000D3*
X2250000Y5930000D3*
X2800000Y5190000D3*
X1190000Y3290000D3*
X4380000Y3400000D3*
X4560000Y3550000D3*
X4100000Y2540000D3*
X3521788Y6462857D2*
D21*
X3978226D1*
X3408214Y6453190D2*
X4091780D1*
X3350167Y6443523D2*
X4149847D1*
X3293780Y6433857D2*
X4206214D1*
X3237413Y6424190D2*
X3588245D1*
X3659757D2*
X3844241D1*
X3915753D2*
X4098245D1*
X4169757D2*
X4262601D1*
X3181026Y6414523D2*
X3568812D1*
X3679190D2*
X3824808D1*
X3935187D2*
X4078812D1*
X4189190D2*
X4318968D1*
X3142491Y6404857D2*
X3556097D1*
X3691905D2*
X3812093D1*
X3947901D2*
X4066097D1*
X4201905D2*
X4357503D1*
X3105362Y6395190D2*
X3546644D1*
X3701358D2*
X3802640D1*
X3957355D2*
X4056644D1*
X4211358D2*
X4394632D1*
X3068233Y6385523D2*
X3539358D1*
X3708644D2*
X3795355D1*
X3964659D2*
X4049358D1*
X4218644D2*
X4431761D1*
X3031124Y6375857D2*
X3533675D1*
X3714308D2*
X3789690D1*
X3970323D2*
X4043675D1*
X4224308D2*
X4468870D1*
X2993995Y6366190D2*
X3529358D1*
X3718644D2*
X3785355D1*
X3974659D2*
X4039358D1*
X4228644D2*
X4505999D1*
X2956866Y6356523D2*
X3526175D1*
X3721827D2*
X3782171D1*
X3977843D2*
X4036175D1*
X4231827D2*
X4543128D1*
X2928507Y6346857D2*
X3524026D1*
X3723976D2*
X3780023D1*
X3979972D2*
X4034026D1*
X4233976D2*
X4571487D1*
X2901144Y6337190D2*
X3522855D1*
X3725148D2*
X3778851D1*
X3981144D2*
X4032855D1*
X4235148D2*
X4598851D1*
X2873780Y6327523D2*
X3522640D1*
X3725362D2*
X3778636D1*
X3981378D2*
X4032640D1*
X4235362D2*
X4626214D1*
X2846437Y6317857D2*
X3523343D1*
X3724659D2*
X3779339D1*
X3980655D2*
X4033343D1*
X4234659D2*
X4653577D1*
X2819073Y6308190D2*
X3525003D1*
X3722999D2*
X3780999D1*
X3978995D2*
X4035003D1*
X4232999D2*
X4680921D1*
X2791710Y6298523D2*
X3527659D1*
X3720343D2*
X3783655D1*
X3976339D2*
X4037659D1*
X4230343D2*
X4708284D1*
X2764347Y6288857D2*
X3531409D1*
X3716573D2*
X3787425D1*
X3972589D2*
X4041409D1*
X4226573D2*
X4735648D1*
X2737003Y6279190D2*
X3536409D1*
X3711593D2*
X3792405D1*
X3967589D2*
X4046409D1*
X4221593D2*
X4763011D1*
X2715167Y6269523D2*
X3542855D1*
X3705148D2*
X3798851D1*
X3961144D2*
X4052855D1*
X4215148D2*
X4784827D1*
X2693780Y6259857D2*
X3551175D1*
X3696827D2*
X3807171D1*
X3952843D2*
X4061175D1*
X4206827D2*
X4806214D1*
X2672394Y6250190D2*
X3562093D1*
X3685909D2*
X3818089D1*
X3941905D2*
X4072093D1*
X4195909D2*
X4827601D1*
X2651007Y6240523D2*
X3577464D1*
X3670538D2*
X3833460D1*
X3926534D2*
X4087464D1*
X4180538D2*
X4848987D1*
X2629620Y6230857D2*
X3607171D1*
X3640831D2*
X3863167D1*
X3896827D2*
X4117171D1*
X4150831D2*
X4870374D1*
X2608233Y6221190D2*
X4891761D1*
X2586847Y6211523D2*
X4913148D1*
X2565480Y6201857D2*
X4934534D1*
X2544093Y6192190D2*
X4955921D1*
X2522980Y6182523D2*
X4977015D1*
X2505675Y6172857D2*
X3529573D1*
X3570421D2*
X4994319D1*
X2488370Y6163190D2*
X3507855D1*
X3592140D2*
X5011624D1*
X2471085Y6153523D2*
X3495901D1*
X3604112D2*
X5028929D1*
X2453780Y6143857D2*
X3413831D1*
X3446183D2*
X3487659D1*
X3612335D2*
X5046233D1*
X2436476Y6134190D2*
X3389437D1*
X3470558D2*
X3481800D1*
X3618194D2*
X5063538D1*
X2419171Y6124523D2*
X3376917D1*
X3622296D2*
X4727542D1*
X4752472D2*
X5080843D1*
X2401866Y6114857D2*
X3368401D1*
X3624913D2*
X4700550D1*
X4779464D2*
X5098148D1*
X2384562Y6105190D2*
X3362308D1*
X3626222D2*
X4687620D1*
X4792374D2*
X5115452D1*
X2367257Y6095523D2*
X3358050D1*
X3626261D2*
X4678890D1*
X4801105D2*
X5132757D1*
X2349952Y6085857D2*
X3355276D1*
X3625069D2*
X4672679D1*
X4807335D2*
X5150062D1*
X2332648Y6076190D2*
X3353851D1*
X3622550D2*
X3782894D1*
X3857120D2*
X4668304D1*
X4811710D2*
X5167347D1*
X2316554Y6066523D2*
X3353675D1*
X3618565D2*
X3769105D1*
X3870909D2*
X4665433D1*
X4814562D2*
X5183460D1*
X2302237Y6056857D2*
X3354749D1*
X3612843D2*
X3759925D1*
X3880069D2*
X4663909D1*
X4816085D2*
X5197757D1*
X2287940Y6047190D2*
X3357132D1*
X3604815D2*
X3753401D1*
X3886593D2*
X4663655D1*
X4816339D2*
X5212054D1*
X2273644Y6037523D2*
X3360960D1*
X3499054D2*
X3506780D1*
X3593214D2*
X3748812D1*
X3891202D2*
X4664632D1*
X4815362D2*
X5226370D1*
X2259327Y6027857D2*
X3366468D1*
X3493526D2*
X3527073D1*
X3572921D2*
X3745745D1*
X3894249D2*
X4666917D1*
X4813077D2*
X5240667D1*
X2245030Y6018190D2*
X3374222D1*
X3485773D2*
X3744046D1*
X3895948D2*
X4670648D1*
X4809366D2*
X5254964D1*
X2230733Y6008523D2*
X3385335D1*
X3474659D2*
X3743616D1*
X3896378D2*
X4676038D1*
X4803976D2*
X5269280D1*
X2216417Y5998857D2*
X3404026D1*
X3455968D2*
X3744437D1*
X3895577D2*
X4683597D1*
X4796398D2*
X5283577D1*
X2202120Y5989190D2*
X3746526D1*
X3893468D2*
X4694417D1*
X4785577D2*
X5297874D1*
X2187823Y5979523D2*
X3750042D1*
X3889972D2*
X4712210D1*
X4767804D2*
X5312171D1*
X2173526Y5969857D2*
X3755179D1*
X3884835D2*
X5326487D1*
X2159210Y5960190D2*
X3762386D1*
X3877608D2*
X5340784D1*
X2144913Y5950523D2*
X3772659D1*
X3867335D2*
X5355081D1*
X2130616Y5940857D2*
X3788929D1*
X3851065D2*
X5369378D1*
X2118644Y5931190D2*
X5381351D1*
X2106671Y5921523D2*
X4715140D1*
X4764874D2*
X5393323D1*
X2094698Y5911857D2*
X2696155D1*
X2743839D2*
X4695882D1*
X4784112D2*
X5405296D1*
X2082726Y5902190D2*
X2676370D1*
X2763624D2*
X4684573D1*
X4795421D2*
X5417269D1*
X2070753Y5892523D2*
X2664905D1*
X2775089D2*
X4676741D1*
X4803273D2*
X5429241D1*
X2058780Y5882857D2*
X2656956D1*
X2783038D2*
X4671136D1*
X4808858D2*
X5441214D1*
X2046808Y5873190D2*
X2651292D1*
X2788702D2*
X4667249D1*
X4812745D2*
X5453187D1*
X2034835Y5863523D2*
X2647366D1*
X2792628D2*
X4664827D1*
X4815187D2*
X5465159D1*
X2022862Y5853857D2*
X2644886D1*
X2795108D2*
X4663694D1*
X4816300D2*
X5477132D1*
X2010890Y5844190D2*
X2643714D1*
X2796280D2*
X4663831D1*
X4816183D2*
X5489105D1*
X1998917Y5834523D2*
X2643792D1*
X2796202D2*
X4665198D1*
X4814796D2*
X5501077D1*
X1986944Y5824857D2*
X2645140D1*
X2794855D2*
X4667913D1*
X4812081D2*
X5513050D1*
X1974972Y5815190D2*
X2647796D1*
X2792198D2*
X4672112D1*
X4807882D2*
X5525023D1*
X1962999Y5805523D2*
X2651937D1*
X2788058D2*
X4678108D1*
X4801886D2*
X5536995D1*
X1951026Y5795857D2*
X2655608D1*
X2782120D2*
X4686526D1*
X4793468D2*
X5548968D1*
X1940890Y5786190D2*
X2655608D1*
X2773819D2*
X4698831D1*
X4781163D2*
X5559105D1*
X1930812Y5776523D2*
X2655608D1*
X2761690D2*
X4313499D1*
X4386495D2*
X4722073D1*
X4757921D2*
X5569202D1*
X1920714Y5766857D2*
X2655608D1*
X2748409D2*
X4299476D1*
X4400519D2*
X5579280D1*
X1910636Y5757190D2*
X2655608D1*
X2748409D2*
X4290198D1*
X4409815D2*
X5589358D1*
X1900558Y5747523D2*
X2655608D1*
X2748409D2*
X4283597D1*
X4416398D2*
X5599456D1*
X1890460Y5737857D2*
X2655608D1*
X2748409D2*
X4278929D1*
X4421065D2*
X5609534D1*
X1880382Y5728190D2*
X2655608D1*
X2748409D2*
X4275823D1*
X4424171D2*
X5619632D1*
X1870284Y5718523D2*
X2655608D1*
X2748409D2*
X4274085D1*
X4425909D2*
X5629710D1*
X1860206Y5708857D2*
X2655608D1*
X2748409D2*
X4273616D1*
X4426398D2*
X4708284D1*
X4771730D2*
X5639788D1*
X1850128Y5699190D2*
X2655608D1*
X2748409D2*
X2919026D1*
X2980968D2*
X4274378D1*
X4425616D2*
X4692288D1*
X4787706D2*
X5649886D1*
X1840030Y5689523D2*
X2655608D1*
X2748409D2*
X2902718D1*
X2997276D2*
X4276429D1*
X4423565D2*
X4682151D1*
X4797862D2*
X5659964D1*
X1829952Y5679857D2*
X2655608D1*
X2748409D2*
X2780628D1*
X2839386D2*
X2892444D1*
X3007569D2*
X4279886D1*
X4420108D2*
X4675003D1*
X4805011D2*
X5670062D1*
X1819855Y5670190D2*
X2655608D1*
X2748409D2*
X2763597D1*
X2856417D2*
X2885198D1*
X3014796D2*
X4284964D1*
X4415030D2*
X4669905D1*
X4810089D2*
X5680140D1*
X1809776Y5660523D2*
X2655608D1*
X2866964D2*
X2880062D1*
X3019952D2*
X4292112D1*
X4407901D2*
X4666448D1*
X4813546D2*
X5690218D1*
X1799679Y5650857D2*
X2655608D1*
X3023448D2*
X4302230D1*
X4397765D2*
X4664378D1*
X4815616D2*
X5700315D1*
X1789601Y5641190D2*
X2655608D1*
X3025558D2*
X4318167D1*
X4381827D2*
X4663616D1*
X4816398D2*
X5710394D1*
X1780167Y5631523D2*
X2655608D1*
X3026378D2*
X4664085D1*
X4815929D2*
X5719827D1*
X1771651Y5621857D2*
X2655608D1*
X3025968D2*
X4665823D1*
X4814190D2*
X5728343D1*
X1763155Y5612190D2*
X2655608D1*
X3024269D2*
X4668909D1*
X4811085D2*
X5736839D1*
X1754640Y5602523D2*
X2655608D1*
X3021222D2*
X4673577D1*
X4806417D2*
X5745355D1*
X1746144Y5592857D2*
X2655608D1*
X3016612D2*
X4680159D1*
X4799835D2*
X5753870D1*
X1737628Y5583190D2*
X2655608D1*
X2881476D2*
X2889886D1*
X3010108D2*
X3040882D1*
X3079112D2*
X4689417D1*
X4790577D2*
X5762366D1*
X1729132Y5573523D2*
X2655608D1*
X2876983D2*
X2899046D1*
X3000948D2*
X3018382D1*
X3101612D2*
X4703421D1*
X4776573D2*
X5770882D1*
X1720616Y5563857D2*
X2655608D1*
X2870636D2*
X2912796D1*
X2987198D2*
X3006233D1*
X3113761D2*
X5779378D1*
X1712101Y5554190D2*
X2655608D1*
X2748409D2*
X2758304D1*
X2861690D2*
X2997913D1*
X3122101D2*
X3765550D1*
X3794444D2*
X5787894D1*
X1703605Y5544523D2*
X2655608D1*
X2748409D2*
X2771605D1*
X2848390D2*
X2991976D1*
X3128038D2*
X3739983D1*
X3820011D2*
X5796409D1*
X1695089Y5534857D2*
X2655608D1*
X2748409D2*
X2802776D1*
X2817218D2*
X2987815D1*
X3132179D2*
X3727269D1*
X3832726D2*
X5804905D1*
X1686593Y5525190D2*
X2655608D1*
X2748409D2*
X2985140D1*
X3134855D2*
X3718636D1*
X3841358D2*
X5813421D1*
X1678077Y5515523D2*
X2655608D1*
X2748409D2*
X2983812D1*
X3136202D2*
X3712483D1*
X3847511D2*
X5821917D1*
X1669562Y5505857D2*
X2655608D1*
X2748409D2*
X2983714D1*
X3136280D2*
X3708167D1*
X3851827D2*
X5830433D1*
X1661065Y5496190D2*
X2655608D1*
X2748409D2*
X2984866D1*
X3135128D2*
X3705355D1*
X3854640D2*
X5838948D1*
X1652550Y5486523D2*
X2655608D1*
X2748409D2*
X2987347D1*
X3132648D2*
X3703890D1*
X3856124D2*
X5847444D1*
X1644054Y5476857D2*
X2655608D1*
X2748409D2*
X2991273D1*
X3128722D2*
X3703675D1*
X3856339D2*
X5855960D1*
X1635538Y5467190D2*
X2655608D1*
X2748409D2*
X2996937D1*
X3123077D2*
X3704690D1*
X3855304D2*
X5864456D1*
X1627648Y5457523D2*
X2655608D1*
X2748409D2*
X3004866D1*
X3115148D2*
X3707034D1*
X3852980D2*
X5872366D1*
X1620499Y5447857D2*
X2655608D1*
X2748409D2*
X3000726D1*
X3119269D2*
X3710804D1*
X3849210D2*
X3856136D1*
X3923878D2*
X5879515D1*
X1613351Y5438190D2*
X2655608D1*
X2748409D2*
X2993987D1*
X3126007D2*
X3716253D1*
X3938956D2*
X5886663D1*
X1606202Y5428523D2*
X2655608D1*
X2748409D2*
X2989202D1*
X3130792D2*
X3723909D1*
X3948702D2*
X5893812D1*
X1599054Y5418857D2*
X2655608D1*
X2748409D2*
X2985999D1*
X3133995D2*
X3734886D1*
X3955616D2*
X5900960D1*
X1591905Y5409190D2*
X2655608D1*
X2748409D2*
X2984163D1*
X3135831D2*
X3753089D1*
X3806905D2*
X3819476D1*
X3960519D2*
X5908108D1*
X1584737Y5399523D2*
X2655608D1*
X2748409D2*
X2983597D1*
X3136398D2*
X3816175D1*
X3963819D2*
X5915257D1*
X1577589Y5389857D2*
X2655608D1*
X2748409D2*
X2984280D1*
X3135714D2*
X3814241D1*
X3965753D2*
X5922405D1*
X1570440Y5380190D2*
X2655608D1*
X2748409D2*
X2986253D1*
X3133761D2*
X3813597D1*
X3966398D2*
X5929554D1*
X1563292Y5370523D2*
X2655608D1*
X2748409D2*
X2852327D1*
X2907667D2*
X2989593D1*
X3130401D2*
X3814202D1*
X3965812D2*
X5936702D1*
X1556144Y5360857D2*
X2655608D1*
X2748409D2*
X2834476D1*
X2925519D2*
X2994554D1*
X3125440D2*
X3816077D1*
X3963937D2*
X5943851D1*
X1548995Y5351190D2*
X2655608D1*
X2748409D2*
X2823636D1*
X2936358D2*
X3001526D1*
X3118468D2*
X3819319D1*
X3960675D2*
X5950999D1*
X1541847Y5341523D2*
X2655608D1*
X2748409D2*
X2816058D1*
X2943937D2*
X3011409D1*
X3108605D2*
X3824163D1*
X3955851D2*
X5958148D1*
X1534698Y5331857D2*
X2655608D1*
X2748409D2*
X2810667D1*
X2949347D2*
X3026722D1*
X3093273D2*
X3830980D1*
X3949034D2*
X5965296D1*
X1527550Y5322190D2*
X2655608D1*
X2748409D2*
X2806937D1*
X2953058D2*
X3840589D1*
X3939405D2*
X5972444D1*
X1520401Y5312523D2*
X2655608D1*
X2748409D2*
X2804651D1*
X2955362D2*
X3855355D1*
X3924640D2*
X5979593D1*
X1513253Y5302857D2*
X2655608D1*
X2748409D2*
X2803655D1*
X2956339D2*
X5089573D1*
X5130421D2*
X5986741D1*
X1506105Y5293190D2*
X2655608D1*
X2748409D2*
X2803909D1*
X2956085D2*
X5067855D1*
X5152140D2*
X5993890D1*
X1498956Y5283523D2*
X2655608D1*
X2748409D2*
X2805413D1*
X2954581D2*
X5055901D1*
X5164112D2*
X6001038D1*
X1492062Y5273857D2*
X2655608D1*
X2748409D2*
X2808284D1*
X2951730D2*
X4797269D1*
X5172335D2*
X6007933D1*
X1486105Y5264190D2*
X2655608D1*
X2748409D2*
X2812640D1*
X2947355D2*
X4779124D1*
X5178194D2*
X6013890D1*
X1480148Y5254523D2*
X2655608D1*
X2748409D2*
X2818851D1*
X2941144D2*
X4769319D1*
X5182296D2*
X6019847D1*
X1474210Y5244857D2*
X2655608D1*
X2748409D2*
X2827581D1*
X2932433D2*
X4685315D1*
X1468253Y5235190D2*
X2655608D1*
X2748409D2*
X2840472D1*
X2919542D2*
X4664632D1*
X1462296Y5225523D2*
X2655608D1*
X2748409D2*
X2867230D1*
X2892765D2*
X4657581D1*
X1456339Y5215857D2*
X2655608D1*
X2748409D2*
X4654437D1*
X1450401Y5206190D2*
X2655608D1*
X2748409D2*
X4653948D1*
X1444444Y5196523D2*
X2655608D1*
X2748409D2*
X4653948D1*
X1438487Y5186857D2*
X2655608D1*
X2748409D2*
X4653948D1*
X1432530Y5177190D2*
X2655608D1*
X2748409D2*
X4653948D1*
X1426593Y5167523D2*
X2655608D1*
X2748409D2*
X4653948D1*
X1420636Y5157857D2*
X2655608D1*
X2748409D2*
X4653948D1*
X1414679Y5148190D2*
X2655608D1*
X2748409D2*
X4653948D1*
X1408722Y5138523D2*
X2655608D1*
X2748409D2*
X4653948D1*
X1402784Y5128857D2*
X2655608D1*
X2748409D2*
X4653948D1*
X1396827Y5119190D2*
X2655608D1*
X2748409D2*
X4653597D1*
X1390870Y5109523D2*
X2655608D1*
X2748409D2*
X3149808D1*
X3210187D2*
X4653597D1*
X1384913Y5099857D2*
X2655608D1*
X2748409D2*
X3133148D1*
X3226847D2*
X4653597D1*
X1378976Y5090190D2*
X2655608D1*
X2748409D2*
X3122737D1*
X3237276D2*
X4653597D1*
X1373019Y5080523D2*
X2655608D1*
X2748409D2*
X3115413D1*
X3244581D2*
X4653597D1*
X1367980Y5070857D2*
X2655608D1*
X2748409D2*
X3110198D1*
X3249796D2*
X4653597D1*
X1363097Y5061190D2*
X2655608D1*
X2748409D2*
X3106644D1*
X3253370D2*
X4653597D1*
X1358214Y5051523D2*
X2655608D1*
X2748409D2*
X3104495D1*
X3255519D2*
X4653597D1*
X1353351Y5041857D2*
X2655608D1*
X2748409D2*
X3103616D1*
X3256378D2*
X4653597D1*
X1348468Y5032190D2*
X2655608D1*
X2748409D2*
X3104007D1*
X3255987D2*
X4653597D1*
X1343605Y5022523D2*
X2655608D1*
X2748409D2*
X3105648D1*
X3254347D2*
X4653597D1*
X1338722Y5012857D2*
X2655608D1*
X2748409D2*
X3108655D1*
X3251339D2*
X4653597D1*
X1333858Y5003190D2*
X2655608D1*
X2748409D2*
X3113187D1*
X3246808D2*
X4653597D1*
X1328976Y4993523D2*
X2655608D1*
X2748409D2*
X3119632D1*
X3240382D2*
X4653597D1*
X1324112Y4983857D2*
X2655608D1*
X2748409D2*
X3128675D1*
X3231339D2*
X4653597D1*
X1319230Y4974190D2*
X2655608D1*
X2748409D2*
X3142210D1*
X3217804D2*
X4653597D1*
X1314366Y4964523D2*
X2655608D1*
X2748409D2*
X4653597D1*
X1309483Y4954857D2*
X2655608D1*
X2748409D2*
X4653597D1*
X1304620Y4945190D2*
X2655608D1*
X2748409D2*
X4653597D1*
X1299737Y4935523D2*
X2655608D1*
X2748409D2*
X4653597D1*
X1294874Y4925857D2*
X2655608D1*
X2748409D2*
X4653597D1*
X1289991Y4916190D2*
X2655608D1*
X2748409D2*
X3192894D1*
X3267120D2*
X4653597D1*
X1285108Y4906523D2*
X2655608D1*
X2748409D2*
X3179105D1*
X3280909D2*
X4653597D1*
X1280245Y4896857D2*
X2655608D1*
X2748409D2*
X3169925D1*
X3290069D2*
X4653597D1*
X1275362Y4887190D2*
X2655608D1*
X2748409D2*
X3163401D1*
X3296593D2*
X3824788D1*
X3895206D2*
X4653597D1*
X1270499Y4877523D2*
X2655608D1*
X2748409D2*
X3158812D1*
X3301202D2*
X3810257D1*
X3909737D2*
X4653597D1*
X1266085Y4867857D2*
X2655608D1*
X2748409D2*
X3155745D1*
X3304249D2*
X3800726D1*
X3919269D2*
X4653597D1*
X1262198Y4858190D2*
X2655608D1*
X2748409D2*
X3154046D1*
X3305948D2*
X3793987D1*
X3926007D2*
X4653597D1*
X1258312Y4848523D2*
X2655608D1*
X2748409D2*
X3153616D1*
X3306378D2*
X3789202D1*
X3930792D2*
X4653597D1*
X1254444Y4838857D2*
X2655608D1*
X2748409D2*
X3154437D1*
X3305577D2*
X3785999D1*
X3933995D2*
X4653597D1*
X1250558Y4829190D2*
X2655608D1*
X2748409D2*
X3156526D1*
X3303468D2*
X3784163D1*
X3935831D2*
X4653597D1*
X1246671Y4819523D2*
X2655608D1*
X2748409D2*
X3160042D1*
X3299972D2*
X3783597D1*
X3936398D2*
X4653597D1*
X1242784Y4809857D2*
X2655608D1*
X2748409D2*
X3165179D1*
X3294835D2*
X3784280D1*
X3935714D2*
X4653597D1*
X1238898Y4800190D2*
X2655608D1*
X2748409D2*
X3172386D1*
X3287608D2*
X3786253D1*
X3933761D2*
X4653597D1*
X1235011Y4790523D2*
X2655608D1*
X2748409D2*
X3182659D1*
X3277335D2*
X3789593D1*
X3930401D2*
X4653597D1*
X1231124Y4780857D2*
X2655608D1*
X2748409D2*
X3183597D1*
X3276398D2*
X3794554D1*
X3925440D2*
X4653597D1*
X1227237Y4771190D2*
X2224163D1*
X2275851D2*
X2655608D1*
X2748409D2*
X3183597D1*
X3276398D2*
X3801526D1*
X3918468D2*
X4653597D1*
X1223370Y4761523D2*
X2205413D1*
X2294581D2*
X2655608D1*
X2748409D2*
X3183597D1*
X3276398D2*
X3811409D1*
X3908605D2*
X4653597D1*
X1219483Y4751857D2*
X2194261D1*
X2305733D2*
X2655608D1*
X2748409D2*
X3183597D1*
X3276398D2*
X3826722D1*
X3893273D2*
X4653597D1*
X1215597Y4742190D2*
X2186507D1*
X2313487D2*
X2655608D1*
X2748409D2*
X3183597D1*
X3276398D2*
X4653597D1*
X1211710Y4732523D2*
X2180980D1*
X2319034D2*
X2655608D1*
X2748409D2*
X3183597D1*
X3276398D2*
X4653597D1*
X1207823Y4722857D2*
X2177151D1*
X2322843D2*
X2655608D1*
X2748409D2*
X3183597D1*
X3276398D2*
X4653597D1*
X1203937Y4713190D2*
X2174769D1*
X2325245D2*
X2655608D1*
X2748409D2*
X3183597D1*
X3276398D2*
X4653597D1*
X1200050Y4703523D2*
X2173675D1*
X2326319D2*
X2655608D1*
X2748409D2*
X3183597D1*
X3276398D2*
X4653597D1*
X1196163Y4693857D2*
X1903831D1*
X1936183D2*
X2173851D1*
X2326144D2*
X2453831D1*
X2486183D2*
X2655608D1*
X2748409D2*
X3183597D1*
X3276398D2*
X4653597D1*
X1192296Y4684190D2*
X1879437D1*
X1960558D2*
X2175276D1*
X2324718D2*
X2429437D1*
X2510558D2*
X2655608D1*
X2748409D2*
X3183597D1*
X3276398D2*
X4653597D1*
X1188409Y4674523D2*
X1866917D1*
X1973077D2*
X2178030D1*
X2321964D2*
X2416917D1*
X2523077D2*
X2655608D1*
X2748409D2*
X3183597D1*
X3276398D2*
X4653597D1*
X1184523Y4664857D2*
X1858401D1*
X1981612D2*
X2182288D1*
X2317706D2*
X2408401D1*
X2531612D2*
X2655608D1*
X2748409D2*
X3183597D1*
X3276398D2*
X4653597D1*
X1180890Y4655190D2*
X1852308D1*
X1987687D2*
X2188362D1*
X2311632D2*
X2402308D1*
X2537687D2*
X2655608D1*
X2748409D2*
X3183597D1*
X3276398D2*
X4653597D1*
X1177921Y4645523D2*
X1848050D1*
X1991944D2*
X2196878D1*
X2303136D2*
X2398050D1*
X2541944D2*
X2655608D1*
X2748409D2*
X3183597D1*
X3276398D2*
X4653597D1*
X1174972Y4635857D2*
X1845276D1*
X1994718D2*
X2209358D1*
X2290636D2*
X2395276D1*
X2544718D2*
X2655608D1*
X2748409D2*
X3183597D1*
X3276398D2*
X4653597D1*
X1172003Y4626190D2*
X1843851D1*
X1996144D2*
X2233597D1*
X2266398D2*
X2393851D1*
X2546144D2*
X2655608D1*
X2748409D2*
X3183597D1*
X3276398D2*
X4653597D1*
X1169034Y4616523D2*
X1843675D1*
X1996319D2*
X2393675D1*
X2546319D2*
X2655608D1*
X2748409D2*
X3183597D1*
X3276398D2*
X4653597D1*
X1166085Y4606857D2*
X1844749D1*
X1995245D2*
X2394749D1*
X2545245D2*
X2655608D1*
X2748409D2*
X3183597D1*
X3276398D2*
X4653597D1*
X1163116Y4597190D2*
X1847132D1*
X1992862D2*
X2397132D1*
X2542862D2*
X2655608D1*
X2748409D2*
X3183597D1*
X3276398D2*
X4653597D1*
X1160167Y4587523D2*
X1850960D1*
X1989054D2*
X2400960D1*
X2539054D2*
X2655608D1*
X2748409D2*
X3183597D1*
X3276398D2*
X4653597D1*
X1157198Y4577857D2*
X1856468D1*
X1983526D2*
X2406468D1*
X2533526D2*
X2655608D1*
X2748409D2*
X3183597D1*
X3276398D2*
X4653597D1*
X1154230Y4568190D2*
X1864222D1*
X1975773D2*
X2414222D1*
X2525773D2*
X2655608D1*
X2748409D2*
X3183597D1*
X3276398D2*
X4653597D1*
X1151280Y4558523D2*
X1875335D1*
X1964659D2*
X2425335D1*
X2514659D2*
X2655608D1*
X2748409D2*
X3183597D1*
X3276398D2*
X4653597D1*
X1148312Y4548857D2*
X1894026D1*
X1945968D2*
X2444026D1*
X2495968D2*
X2655608D1*
X2748409D2*
X3183597D1*
X3276398D2*
X4653597D1*
X1145362Y4539190D2*
X2655608D1*
X2748409D2*
X3183597D1*
X3276398D2*
X4653597D1*
X1142394Y4529523D2*
X2655608D1*
X2748409D2*
X3183597D1*
X3276398D2*
X4653597D1*
X1139444Y4519857D2*
X2655608D1*
X2748409D2*
X3183597D1*
X3276398D2*
X4653597D1*
X1136476Y4510190D2*
X2655608D1*
X2748409D2*
X3183597D1*
X3276398D2*
X4653597D1*
X1133507Y4500523D2*
X2655608D1*
X2748409D2*
X3183597D1*
X3276398D2*
X4653597D1*
X1130558Y4490857D2*
X2655608D1*
X2748409D2*
X3183597D1*
X3276398D2*
X4653597D1*
X1127589Y4481190D2*
X2655608D1*
X2748409D2*
X3183597D1*
X3276398D2*
X4653597D1*
X1124640Y4471523D2*
X2655608D1*
X2748409D2*
X3183597D1*
X3276398D2*
X4653597D1*
X4746398D2*
X6375374D1*
X1121671Y4461857D2*
X2655608D1*
X2748409D2*
X3183597D1*
X3276398D2*
X4653597D1*
X4746398D2*
X6378323D1*
X1118722Y4452190D2*
X2655608D1*
X2748409D2*
X3183597D1*
X3276398D2*
X4653597D1*
X4746398D2*
X6381292D1*
X1115753Y4442523D2*
X2655608D1*
X2748409D2*
X3183597D1*
X3276398D2*
X4653597D1*
X4746398D2*
X6384241D1*
X1113136Y4432857D2*
X2655608D1*
X2748409D2*
X3183597D1*
X3276398D2*
X4653597D1*
X4746398D2*
X6386858D1*
X1111046Y4423190D2*
X2655608D1*
X2748409D2*
X3183597D1*
X3276398D2*
X4653597D1*
X4746398D2*
X6388948D1*
X1108976Y4413523D2*
X2655608D1*
X2748409D2*
X3183597D1*
X3276398D2*
X4653597D1*
X4746398D2*
X6391038D1*
X1106886Y4403857D2*
X2655608D1*
X2748409D2*
X3183597D1*
X3276398D2*
X4653597D1*
X4746398D2*
X6393108D1*
X1104796Y4394190D2*
X2655608D1*
X2748409D2*
X3183597D1*
X3276398D2*
X4653597D1*
X4746398D2*
X5115550D1*
X5144444D2*
X6395198D1*
X1102726Y4384523D2*
X2655608D1*
X2748409D2*
X3183597D1*
X3276398D2*
X4653597D1*
X4746398D2*
X5089983D1*
X5170011D2*
X6397288D1*
X1100636Y4374857D2*
X2655608D1*
X2748409D2*
X3183597D1*
X3276398D2*
X4653597D1*
X4746398D2*
X5077269D1*
X5182726D2*
X6399358D1*
X1098546Y4365190D2*
X2655608D1*
X2748409D2*
X3183597D1*
X3276398D2*
X4653597D1*
X4746398D2*
X5068636D1*
X5191358D2*
X6401448D1*
X1096476Y4355523D2*
X2650315D1*
X2748409D2*
X3183597D1*
X3276398D2*
X4653597D1*
X4746398D2*
X5062483D1*
X5197511D2*
X6403538D1*
X1094386Y4345857D2*
X2640648D1*
X2748409D2*
X3183597D1*
X3276398D2*
X4653597D1*
X4746398D2*
X5058167D1*
X5201827D2*
X6405608D1*
X1092296Y4336190D2*
X2630980D1*
X2748019D2*
X3183597D1*
X3276398D2*
X4653597D1*
X4746398D2*
X5055355D1*
X5204640D2*
X6407698D1*
X1090226Y4326523D2*
X2621312D1*
X2745675D2*
X3183597D1*
X3276398D2*
X4653597D1*
X4746398D2*
X5053890D1*
X5206124D2*
X6409788D1*
X1088136Y4316857D2*
X2611644D1*
X2740812D2*
X3183597D1*
X3276398D2*
X4653597D1*
X4746398D2*
X5053675D1*
X5206339D2*
X6411858D1*
X1086046Y4307190D2*
X2601976D1*
X2732394D2*
X3183597D1*
X3276398D2*
X4653597D1*
X4746398D2*
X5054690D1*
X5205304D2*
X6413948D1*
X1083976Y4297523D2*
X2592327D1*
X2722726D2*
X3183597D1*
X3276398D2*
X4653597D1*
X4746398D2*
X5057034D1*
X5202980D2*
X6416038D1*
X1081886Y4287857D2*
X2582659D1*
X2713058D2*
X3183597D1*
X3276398D2*
X4653597D1*
X4746398D2*
X5060804D1*
X5199210D2*
X6418108D1*
X1079796Y4278190D2*
X2572991D1*
X2703390D2*
X3183597D1*
X3276398D2*
X4653597D1*
X4746398D2*
X5066253D1*
X5193741D2*
X6420198D1*
X1077726Y4268523D2*
X2563323D1*
X2693722D2*
X3183597D1*
X3276398D2*
X4653597D1*
X4746398D2*
X5073909D1*
X5186085D2*
X6422288D1*
X1075636Y4258857D2*
X2553655D1*
X2684054D2*
X3183597D1*
X3276398D2*
X4653597D1*
X4746398D2*
X5071565D1*
X5188429D2*
X6424358D1*
X1073546Y4249190D2*
X2543987D1*
X2674386D2*
X3183597D1*
X3276398D2*
X4653597D1*
X4746398D2*
X5064593D1*
X5195421D2*
X6426448D1*
X1071476Y4239523D2*
X2534319D1*
X2664737D2*
X3183597D1*
X3276398D2*
X4653597D1*
X4746398D2*
X5059612D1*
X5200382D2*
X6428538D1*
X1069386Y4229857D2*
X2524651D1*
X2655069D2*
X3183597D1*
X3276398D2*
X3675843D1*
X3824151D2*
X4653597D1*
X4746398D2*
X5056253D1*
X5203741D2*
X6430608D1*
X1067296Y4220190D2*
X2514983D1*
X2645401D2*
X3183597D1*
X3276398D2*
X3628440D1*
X3871554D2*
X4653597D1*
X4746398D2*
X5054300D1*
X5205714D2*
X6432698D1*
X1065226Y4210523D2*
X2505315D1*
X2635733D2*
X3183597D1*
X3276398D2*
X3595608D1*
X3904405D2*
X4653597D1*
X4746398D2*
X5053597D1*
X5206398D2*
X6434788D1*
X1063976Y4200857D2*
X2495648D1*
X2626065D2*
X3183597D1*
X3276398D2*
X3569163D1*
X3930831D2*
X4653597D1*
X4746398D2*
X5054163D1*
X5205851D2*
X6436019D1*
X1062745Y4191190D2*
X2485980D1*
X2616398D2*
X3183597D1*
X3276398D2*
X3546605D1*
X3953390D2*
X4653597D1*
X4746398D2*
X5055980D1*
X5204015D2*
X6437249D1*
X1061515Y4181523D2*
X2476312D1*
X2606730D2*
X3183597D1*
X3276398D2*
X3526741D1*
X3973273D2*
X4653597D1*
X4746398D2*
X5059183D1*
X5200812D2*
X6438499D1*
X1060265Y4171857D2*
X2466644D1*
X2597062D2*
X3183597D1*
X3276398D2*
X3508890D1*
X3991105D2*
X4653597D1*
X4746398D2*
X5063968D1*
X5196046D2*
X6439730D1*
X1059034Y4162190D2*
X2456976D1*
X2587394D2*
X3183597D1*
X3276398D2*
X3492659D1*
X4007335D2*
X4653597D1*
X4746398D2*
X5070687D1*
X5189308D2*
X6440960D1*
X1057784Y4152523D2*
X2447327D1*
X2577726D2*
X3183597D1*
X3276398D2*
X3477737D1*
X4022276D2*
X4653597D1*
X4746398D2*
X5080198D1*
X5179796D2*
X6442210D1*
X1056554Y4142857D2*
X2437659D1*
X2568058D2*
X3183597D1*
X3276398D2*
X3463909D1*
X4036085D2*
X4653597D1*
X4746398D2*
X5094690D1*
X5165304D2*
X6443440D1*
X1055323Y4133190D2*
X2427991D1*
X2558390D2*
X3183597D1*
X3276398D2*
X3451038D1*
X4048956D2*
X4653597D1*
X4746398D2*
X6444690D1*
X1054073Y4123523D2*
X2418323D1*
X2548722D2*
X3183597D1*
X3276398D2*
X3439007D1*
X4060987D2*
X4653597D1*
X4746398D2*
X6445921D1*
X1052843Y4113857D2*
X2408655D1*
X2539054D2*
X3183597D1*
X3276398D2*
X3427718D1*
X4072276D2*
X4653597D1*
X4746398D2*
X6447151D1*
X1051612Y4104190D2*
X2398987D1*
X2529386D2*
X3183597D1*
X3276398D2*
X3417093D1*
X4082901D2*
X4653597D1*
X4746398D2*
X6448401D1*
X1050362Y4094523D2*
X2389319D1*
X2519737D2*
X3183597D1*
X3276398D2*
X3407073D1*
X4092940D2*
X4653597D1*
X4746398D2*
X6449632D1*
X1049132Y4084857D2*
X2379651D1*
X2510069D2*
X3183597D1*
X3276398D2*
X3397601D1*
X4102394D2*
X4653597D1*
X4746398D2*
X6450882D1*
X1047882Y4075190D2*
X2369983D1*
X2500401D2*
X3183597D1*
X3276398D2*
X3388636D1*
X4111358D2*
X4653597D1*
X4746398D2*
X6452112D1*
X1046651Y4065523D2*
X2360315D1*
X2490733D2*
X3183597D1*
X3276398D2*
X3380140D1*
X4119855D2*
X4653597D1*
X4746398D2*
X6453343D1*
X1045421Y4055857D2*
X2350648D1*
X2481065D2*
X3183597D1*
X3276398D2*
X3372093D1*
X4127921D2*
X4653597D1*
X4746398D2*
X6454593D1*
X1044171Y4046190D2*
X2340980D1*
X2471398D2*
X3183597D1*
X3276398D2*
X3364437D1*
X4135558D2*
X4653597D1*
X4746398D2*
X6455823D1*
X1042940Y4036523D2*
X2331312D1*
X2461730D2*
X3183597D1*
X3276398D2*
X3357190D1*
X4142804D2*
X4653597D1*
X4746398D2*
X6457054D1*
X1041690Y4026857D2*
X1109886D1*
X1210108D2*
X2321644D1*
X2452062D2*
X3183597D1*
X3276398D2*
X3350296D1*
X4149698D2*
X4653597D1*
X4746398D2*
X6458304D1*
X1040460Y4017190D2*
X1088538D1*
X1231456D2*
X2311976D1*
X2442394D2*
X3183597D1*
X3276398D2*
X3343753D1*
X4156241D2*
X4653597D1*
X4746398D2*
X6459534D1*
X1039230Y4007523D2*
X1073382D1*
X1246612D2*
X2302327D1*
X2432726D2*
X3183597D1*
X3276398D2*
X3337542D1*
X4162452D2*
X4653597D1*
X4746398D2*
X6460784D1*
X1037980Y3997857D2*
X1061487D1*
X1258507D2*
X2292659D1*
X2423058D2*
X3183597D1*
X3276398D2*
X3331644D1*
X4168351D2*
X4653597D1*
X4746398D2*
X6462015D1*
X1036749Y3988190D2*
X1051761D1*
X1268233D2*
X2282991D1*
X2413390D2*
X3183597D1*
X3276398D2*
X3326058D1*
X4173937D2*
X4653597D1*
X4746398D2*
X6463245D1*
X1035733Y3978523D2*
X1043655D1*
X1276339D2*
X2273323D1*
X2403722D2*
X3183597D1*
X3276398D2*
X3320765D1*
X4179249D2*
X4653597D1*
X4746398D2*
X6464261D1*
X1283155Y3968857D2*
X2263655D1*
X2394054D2*
X3183597D1*
X3276398D2*
X3315745D1*
X4184269D2*
X4653597D1*
X4746398D2*
X6464671D1*
X1288878Y3959190D2*
X2253987D1*
X2384386D2*
X3183597D1*
X3276398D2*
X3310999D1*
X4189015D2*
X4653597D1*
X4746398D2*
X6465081D1*
X1293663Y3949523D2*
X2244319D1*
X2374737D2*
X3183597D1*
X3276398D2*
X3306507D1*
X4193487D2*
X4653597D1*
X4746398D2*
X6465511D1*
X1297589Y3939857D2*
X2234651D1*
X2365069D2*
X3183597D1*
X3276398D2*
X3302269D1*
X4197726D2*
X4653597D1*
X4746398D2*
X6465921D1*
X1300733Y3930190D2*
X2224983D1*
X2355401D2*
X3183597D1*
X3276398D2*
X3298284D1*
X4201710D2*
X4653597D1*
X4746398D2*
X6466331D1*
X1303155Y3920523D2*
X2215315D1*
X2345733D2*
X3183597D1*
X3276398D2*
X3294534D1*
X4205460D2*
X4653597D1*
X4746398D2*
X6466741D1*
X1304894Y3910857D2*
X2205648D1*
X2336065D2*
X3183597D1*
X3276398D2*
X3291019D1*
X4208976D2*
X4653597D1*
X4746398D2*
X5143226D1*
X5196769D2*
X6467151D1*
X1305968Y3901190D2*
X2195980D1*
X2326398D2*
X3183597D1*
X3276398D2*
X3287737D1*
X4212257D2*
X4653597D1*
X4746398D2*
X5124944D1*
X5215050D2*
X6467562D1*
X1306398Y3891523D2*
X2186312D1*
X2316730D2*
X3183597D1*
X3276398D2*
X3284690D1*
X4215304D2*
X4653597D1*
X4746398D2*
X5113948D1*
X5226046D2*
X6467972D1*
X1306163Y3881857D2*
X2176644D1*
X2307062D2*
X3183597D1*
X3276398D2*
X3281856D1*
X4218155D2*
X4653597D1*
X4746398D2*
X5106292D1*
X5233722D2*
X6468382D1*
X1305304Y3872190D2*
X2166976D1*
X2297394D2*
X3183597D1*
X4220773D2*
X4653597D1*
X4746398D2*
X5100823D1*
X5239190D2*
X6468792D1*
X1303780Y3862523D2*
X2157327D1*
X2287726D2*
X3183597D1*
X4223175D2*
X4653597D1*
X4746398D2*
X5097034D1*
X5242960D2*
X6469202D1*
X1301573Y3852857D2*
X2147659D1*
X2278058D2*
X3183597D1*
X4225382D2*
X4653597D1*
X4746398D2*
X5094710D1*
X5245304D2*
X6469612D1*
X1298663Y3843190D2*
X2137991D1*
X2268390D2*
X3183597D1*
X4227374D2*
X4653597D1*
X4746398D2*
X5093675D1*
X5246339D2*
X6470023D1*
X1294991Y3833523D2*
X2128323D1*
X2258722D2*
X3183597D1*
X4229151D2*
X4653597D1*
X4746398D2*
X5093870D1*
X5246124D2*
X6470433D1*
X1290480Y3823857D2*
X2118655D1*
X2249054D2*
X3183597D1*
X4230753D2*
X4653597D1*
X4746398D2*
X5095355D1*
X5244659D2*
X6470843D1*
X1285069Y3814190D2*
X2108987D1*
X2239386D2*
X3183597D1*
X4232140D2*
X4653597D1*
X4746398D2*
X5098148D1*
X5241847D2*
X6471253D1*
X1278624Y3804523D2*
X2099319D1*
X2229737D2*
X3183597D1*
X4233331D2*
X4653597D1*
X4746398D2*
X5102464D1*
X5237530D2*
X6471663D1*
X1270948Y3794857D2*
X2089651D1*
X2220069D2*
X3183597D1*
X4234327D2*
X4653597D1*
X4746398D2*
X5108616D1*
X5231398D2*
X6472073D1*
X1261769Y3785190D2*
X2079983D1*
X2210401D2*
X3183597D1*
X4235128D2*
X4653597D1*
X4746398D2*
X5117230D1*
X5222784D2*
X6472483D1*
X1250636Y3775523D2*
X2070315D1*
X2200733D2*
X3183597D1*
X4235733D2*
X4653597D1*
X4746398D2*
X5129905D1*
X5210089D2*
X6472894D1*
X1236690Y3765857D2*
X2060648D1*
X2191065D2*
X3183597D1*
X4236144D2*
X4653597D1*
X4746398D2*
X5155296D1*
X5184718D2*
X6473304D1*
X1217882Y3756190D2*
X2050980D1*
X2181398D2*
X3183597D1*
X4236358D2*
X4653597D1*
X4746398D2*
X6473714D1*
X1211026Y3746523D2*
X2041312D1*
X2171730D2*
X3183597D1*
X4236378D2*
X4653597D1*
X4746398D2*
X6473831D1*
X1232062Y3736857D2*
X2031644D1*
X2162062D2*
X3183597D1*
X4236222D2*
X4653597D1*
X4746398D2*
X6473421D1*
X1247062Y3727190D2*
X2021976D1*
X2152394D2*
X3183597D1*
X4235870D2*
X4653597D1*
X4746398D2*
X6473011D1*
X1258878Y3717523D2*
X2012327D1*
X2142726D2*
X3183597D1*
X4235304D2*
X4653597D1*
X4746398D2*
X6472601D1*
X1268546Y3707857D2*
X2002659D1*
X2133058D2*
X3183597D1*
X4234562D2*
X4436136D1*
X4503878D2*
X4653597D1*
X4746398D2*
X6472190D1*
X1276593Y3698190D2*
X1992991D1*
X2123390D2*
X3183597D1*
X4233624D2*
X4421058D1*
X4518956D2*
X4653597D1*
X4746398D2*
X6471780D1*
X1283370Y3688523D2*
X1983323D1*
X2113722D2*
X3183597D1*
X4232491D2*
X4411292D1*
X4528702D2*
X4653597D1*
X4746398D2*
X6471370D1*
X1289054Y3678857D2*
X1973655D1*
X2104054D2*
X3183597D1*
X4231163D2*
X4404378D1*
X4535616D2*
X4653597D1*
X4746398D2*
X6470960D1*
X1293800Y3669190D2*
X1964222D1*
X2094386D2*
X3173987D1*
X4229620D2*
X4399476D1*
X4540519D2*
X4653597D1*
X4746398D2*
X6470550D1*
X1297706Y3659523D2*
X1958011D1*
X2084737D2*
X3164319D1*
X4227901D2*
X4396175D1*
X4543819D2*
X4653597D1*
X4746398D2*
X6470140D1*
X1300831Y3649857D2*
X1954690D1*
X2075069D2*
X3154651D1*
X4225948D2*
X4394241D1*
X4545753D2*
X4653597D1*
X4746398D2*
X6469730D1*
X1303233Y3640190D2*
X1953597D1*
X2065401D2*
X3144983D1*
X4223819D2*
X4393597D1*
X4546398D2*
X4653597D1*
X4746398D2*
X6469319D1*
X1304952Y3630523D2*
X1953597D1*
X2055733D2*
X3135315D1*
X3265538D2*
X3278538D1*
X4221476D2*
X4394202D1*
X4545812D2*
X4653597D1*
X4746398D2*
X6468909D1*
X1305987Y3620857D2*
X1953597D1*
X2046398D2*
X3125648D1*
X3256065D2*
X3281097D1*
X4218898D2*
X4396077D1*
X4543937D2*
X4653597D1*
X4746398D2*
X6468499D1*
X1306398Y3611190D2*
X1953597D1*
X2046398D2*
X3115980D1*
X3246398D2*
X3283870D1*
X4216124D2*
X4399319D1*
X4540675D2*
X4653597D1*
X4746398D2*
X6468089D1*
X1306144Y3601523D2*
X1953597D1*
X2046398D2*
X3106312D1*
X3236730D2*
X3286858D1*
X4213136D2*
X4404163D1*
X4535851D2*
X4653597D1*
X4746398D2*
X6467679D1*
X1305265Y3591857D2*
X1953597D1*
X2046398D2*
X3096644D1*
X3227062D2*
X3290081D1*
X4209913D2*
X4410980D1*
X4529034D2*
X4653597D1*
X4746398D2*
X6467269D1*
X1303722Y3582190D2*
X1953597D1*
X2046398D2*
X3086976D1*
X3217394D2*
X3293538D1*
X4206476D2*
X4420589D1*
X4519405D2*
X4653597D1*
X4746398D2*
X6466858D1*
X1301495Y3572523D2*
X1953597D1*
X2046398D2*
X3079573D1*
X3207726D2*
X3297210D1*
X4202784D2*
X4435355D1*
X4504640D2*
X4653597D1*
X4746398D2*
X6466429D1*
X1298546Y3562857D2*
X1953597D1*
X2046398D2*
X3075452D1*
X3198058D2*
X3301136D1*
X4198878D2*
X4653597D1*
X4746398D2*
X6466019D1*
X1294835Y3553190D2*
X1953597D1*
X2046398D2*
X3073714D1*
X3188390D2*
X3305296D1*
X4194718D2*
X4653597D1*
X4746398D2*
X6465608D1*
X1290323Y3543523D2*
X1953597D1*
X2046398D2*
X3073597D1*
X3178722D2*
X3309710D1*
X4190304D2*
X4653597D1*
X4746398D2*
X6465198D1*
X1284874Y3533857D2*
X1946233D1*
X2053761D2*
X3073597D1*
X3169054D2*
X3314378D1*
X4185616D2*
X4653597D1*
X4746398D2*
X6464788D1*
X1035616Y3524190D2*
X1041624D1*
X1278370D2*
X1937913D1*
X2062101D2*
X3073597D1*
X3166398D2*
X3319319D1*
X4180675D2*
X4653597D1*
X4746398D2*
X6464378D1*
X1036398Y3514523D2*
X1049339D1*
X1270655D2*
X1931976D1*
X2068038D2*
X3073597D1*
X3166398D2*
X3324534D1*
X4175460D2*
X4653597D1*
X4746398D2*
X6463597D1*
X1037648Y3504857D2*
X1058577D1*
X1261437D2*
X1927815D1*
X2072179D2*
X3073597D1*
X3166398D2*
X3330042D1*
X4169952D2*
X4653597D1*
X4746398D2*
X6462366D1*
X1038878Y3495190D2*
X1069788D1*
X1250226D2*
X1925140D1*
X2074855D2*
X3073597D1*
X3166398D2*
X3335862D1*
X4164132D2*
X4653597D1*
X4746398D2*
X6461116D1*
X1040108Y3485523D2*
X1083851D1*
X1236144D2*
X1923812D1*
X2076202D2*
X3073597D1*
X3166398D2*
X3341976D1*
X4158019D2*
X4653597D1*
X4746398D2*
X6459886D1*
X1041358Y3475857D2*
X1102913D1*
X1217101D2*
X1923714D1*
X2076280D2*
X3073597D1*
X3166398D2*
X3348421D1*
X4151573D2*
X4653597D1*
X4746398D2*
X6458655D1*
X1042589Y3466190D2*
X1137562D1*
X1182452D2*
X1924866D1*
X2075128D2*
X3073597D1*
X3166398D2*
X3355218D1*
X4144776D2*
X4653597D1*
X4746398D2*
X6457405D1*
X1043819Y3456523D2*
X1927347D1*
X2072648D2*
X3073597D1*
X3166398D2*
X3362366D1*
X4137628D2*
X4653597D1*
X4746398D2*
X6456175D1*
X1045069Y3446857D2*
X1931273D1*
X2068722D2*
X3073597D1*
X3166398D2*
X3369905D1*
X4130108D2*
X4653597D1*
X4746398D2*
X6454925D1*
X1046300Y3437190D2*
X1936937D1*
X2063077D2*
X3073597D1*
X3166398D2*
X3377835D1*
X4122159D2*
X4653597D1*
X4746398D2*
X6453694D1*
X1047550Y3427523D2*
X1944866D1*
X2055148D2*
X3073597D1*
X3166398D2*
X3386194D1*
X4113800D2*
X4653597D1*
X4746398D2*
X6452464D1*
X1048780Y3417857D2*
X1956292D1*
X2043702D2*
X3073597D1*
X3166398D2*
X3395023D1*
X4104972D2*
X4653597D1*
X4746398D2*
X6451214D1*
X1050011Y3408190D2*
X1976019D1*
X2023995D2*
X3073597D1*
X3166398D2*
X3404358D1*
X4095636D2*
X4653597D1*
X4746398D2*
X6449983D1*
X1051261Y3398523D2*
X3073597D1*
X3166398D2*
X3414222D1*
X4085773D2*
X4653597D1*
X4746398D2*
X6448753D1*
X1052491Y3388857D2*
X3073597D1*
X3166398D2*
X3424671D1*
X4075323D2*
X4653597D1*
X4746398D2*
X6447503D1*
X1053741Y3379190D2*
X3073597D1*
X3166398D2*
X3435765D1*
X4064230D2*
X4653597D1*
X4746398D2*
X6446273D1*
X1054972Y3369523D2*
X3073597D1*
X3175675D2*
X3447581D1*
X4052413D2*
X4653597D1*
X4746398D2*
X6445023D1*
X1056202Y3359857D2*
X3073597D1*
X3185343D2*
X3460198D1*
X4039796D2*
X4653597D1*
X4746398D2*
X6443792D1*
X1057452Y3350190D2*
X3074671D1*
X3195011D2*
X3473753D1*
X4026261D2*
X4653597D1*
X4755011D2*
X6442562D1*
X1058683Y3340523D2*
X3077991D1*
X3204679D2*
X3488343D1*
X4011651D2*
X4653597D1*
X4764679D2*
X6441312D1*
X1059913Y3330857D2*
X3084183D1*
X3214347D2*
X3504183D1*
X3995812D2*
X4654534D1*
X4774347D2*
X6440081D1*
X1061163Y3321190D2*
X3093597D1*
X3224015D2*
X3521546D1*
X3978448D2*
X4657679D1*
X4784015D2*
X6438851D1*
X1062394Y3311523D2*
X3103265D1*
X3233683D2*
X3540784D1*
X3959210D2*
X4663636D1*
X4793683D2*
X6437601D1*
X1063644Y3301857D2*
X3112933D1*
X3243351D2*
X3562503D1*
X3937491D2*
X4672933D1*
X4803351D2*
X6436370D1*
X1064874Y3292190D2*
X3122601D1*
X3253019D2*
X3587679D1*
X3912315D2*
X4682601D1*
X4813019D2*
X6435120D1*
X1066710Y3282523D2*
X3132269D1*
X3262687D2*
X3618323D1*
X3881690D2*
X4692269D1*
X4822687D2*
X6433284D1*
X1068800Y3272857D2*
X3141937D1*
X3272355D2*
X3659847D1*
X3840148D2*
X4701937D1*
X4832355D2*
X6431194D1*
X1070890Y3263190D2*
X3151605D1*
X3282023D2*
X4000882D1*
X4039112D2*
X4711605D1*
X4842023D2*
X6429124D1*
X1072960Y3253523D2*
X3161273D1*
X3291690D2*
X3978382D1*
X4061612D2*
X4721273D1*
X4851690D2*
X6427034D1*
X1075050Y3243857D2*
X3170940D1*
X3301339D2*
X3966233D1*
X4073761D2*
X4730940D1*
X4861358D2*
X6424944D1*
X1077140Y3234190D2*
X3180608D1*
X4082101D2*
X4740608D1*
X4871007D2*
X6422874D1*
X1079210Y3224523D2*
X3190276D1*
X4088038D2*
X4750276D1*
X4880675D2*
X6420784D1*
X1081300Y3214857D2*
X3199944D1*
X4092179D2*
X4759944D1*
X4890343D2*
X6418694D1*
X1083390Y3205190D2*
X3209612D1*
X4094855D2*
X4769612D1*
X4900011D2*
X6416624D1*
X1085460Y3195523D2*
X3219280D1*
X4096202D2*
X4779280D1*
X4909679D2*
X6414534D1*
X1087550Y3185857D2*
X3228929D1*
X4096280D2*
X4788929D1*
X4919347D2*
X6412444D1*
X1089640Y3176190D2*
X3238597D1*
X4095128D2*
X4798597D1*
X4929015D2*
X6410374D1*
X1091710Y3166523D2*
X3248265D1*
X4092648D2*
X4808265D1*
X4938683D2*
X6408284D1*
X1093800Y3156857D2*
X3257972D1*
X4088722D2*
X4817933D1*
X4948351D2*
X6406194D1*
X1095890Y3147190D2*
X3273890D1*
X4083077D2*
X4827601D1*
X4958019D2*
X6404124D1*
X1097960Y3137523D2*
X3964866D1*
X4075148D2*
X4837269D1*
X4967687D2*
X6402034D1*
X1100050Y3127857D2*
X3976292D1*
X4063702D2*
X4846937D1*
X4977355D2*
X6399944D1*
X1102140Y3118190D2*
X3996019D1*
X4043995D2*
X4856605D1*
X4987023D2*
X6397874D1*
X1104210Y3108523D2*
X4866273D1*
X4996690D2*
X6395784D1*
X1106300Y3098857D2*
X3608284D1*
X3671730D2*
X3688284D1*
X3751730D2*
X3768284D1*
X3831730D2*
X4875940D1*
X5006358D2*
X6393694D1*
X1108390Y3089190D2*
X3592288D1*
X3847706D2*
X4885608D1*
X5016007D2*
X6391624D1*
X1110460Y3079523D2*
X3582151D1*
X3857862D2*
X4895276D1*
X5025675D2*
X6389534D1*
X1112550Y3069857D2*
X3575003D1*
X3865011D2*
X4904944D1*
X5035343D2*
X6387444D1*
X1114933Y3060190D2*
X3569905D1*
X3870089D2*
X4914612D1*
X5045011D2*
X6385081D1*
X1117882Y3050523D2*
X3566448D1*
X3873546D2*
X4924280D1*
X5054679D2*
X6382112D1*
X1120851Y3040857D2*
X3564378D1*
X3875616D2*
X4933929D1*
X5064347D2*
X6379163D1*
X1123800Y3031190D2*
X3563616D1*
X3876398D2*
X4943597D1*
X5074015D2*
X6376194D1*
X1126769Y3021523D2*
X3564085D1*
X3875929D2*
X4953265D1*
X5083683D2*
X6373245D1*
X1129718Y3011857D2*
X3565823D1*
X3874190D2*
X4962933D1*
X5093351D2*
X6370276D1*
X1132687Y3002190D2*
X3568909D1*
X3871085D2*
X4972601D1*
X5103019D2*
X6367308D1*
X1135636Y2992523D2*
X3573577D1*
X3866417D2*
X4982269D1*
X5112687D2*
X6364358D1*
X1138605Y2982857D2*
X3580159D1*
X3859835D2*
X4991937D1*
X5122355D2*
X6361390D1*
X1141573Y2973190D2*
X3589417D1*
X3850577D2*
X5001605D1*
X5132023D2*
X6358440D1*
X1144523Y2963523D2*
X3603421D1*
X3676573D2*
X3683408D1*
X3756573D2*
X3763408D1*
X3836573D2*
X5011273D1*
X5141690D2*
X5422288D1*
X5457726D2*
X6355472D1*
X1147491Y2953857D2*
X2633597D1*
X2906398D2*
X4488597D1*
X4761398D2*
X5020940D1*
X5151358D2*
X5398909D1*
X5481085D2*
X6352523D1*
X1150440Y2944190D2*
X2633597D1*
X2906398D2*
X4488597D1*
X4761398D2*
X5030608D1*
X5161007D2*
X5386565D1*
X5493429D2*
X6349554D1*
X1153409Y2934523D2*
X2633597D1*
X2906398D2*
X4488597D1*
X4761398D2*
X5040276D1*
X5170675D2*
X5378148D1*
X5501847D2*
X6346585D1*
X1156358Y2924857D2*
X1710999D1*
X1768995D2*
X2633597D1*
X2906398D2*
X4488597D1*
X4761398D2*
X5049944D1*
X5180343D2*
X5372132D1*
X5507862D2*
X6343636D1*
X1159327Y2915190D2*
X1678616D1*
X1801378D2*
X2633597D1*
X2906398D2*
X4488597D1*
X4761398D2*
X5059612D1*
X5190011D2*
X5367933D1*
X5512062D2*
X6340667D1*
X1162296Y2905523D2*
X1659495D1*
X1820499D2*
X2058089D1*
X2141925D2*
X2633597D1*
X2906398D2*
X4488597D1*
X4761398D2*
X5069280D1*
X5199679D2*
X5365218D1*
X5514776D2*
X6337718D1*
X1165245Y2895857D2*
X1645140D1*
X1834855D2*
X2033597D1*
X2166417D2*
X2633597D1*
X2906398D2*
X4488597D1*
X4761398D2*
X5078929D1*
X5209347D2*
X5363831D1*
X5516163D2*
X6334749D1*
X1168214Y2886190D2*
X1633597D1*
X1846398D2*
X2017171D1*
X2182823D2*
X2633597D1*
X2906398D2*
X4488597D1*
X4761398D2*
X5088597D1*
X5219015D2*
X5363694D1*
X5516300D2*
X6331800D1*
X1171163Y2876523D2*
X1624007D1*
X1855987D2*
X2004515D1*
X2195480D2*
X2633597D1*
X2906398D2*
X4488597D1*
X4761398D2*
X5098265D1*
X5227843D2*
X5364808D1*
X5515187D2*
X6328831D1*
X1174132Y2866857D2*
X1615901D1*
X1864093D2*
X1994261D1*
X2205733D2*
X2633597D1*
X2906398D2*
X4488597D1*
X4761398D2*
X5107933D1*
X5233155D2*
X5367249D1*
X5512765D2*
X6325862D1*
X1177081Y2857190D2*
X1609026D1*
X1870968D2*
X1985745D1*
X2214249D2*
X2633597D1*
X2906398D2*
X4488597D1*
X4761398D2*
X5117601D1*
X5235831D2*
X5371116D1*
X5508878D2*
X6322913D1*
X1180050Y2847523D2*
X1603187D1*
X1876808D2*
X1978597D1*
X2221398D2*
X2633597D1*
X2906398D2*
X4488597D1*
X4761398D2*
X5127269D1*
X5236398D2*
X5376702D1*
X5503292D2*
X6319944D1*
X1183429Y2837857D2*
X1598245D1*
X1881749D2*
X1972601D1*
X2227394D2*
X2633597D1*
X2906398D2*
X4488597D1*
X4761398D2*
X5136937D1*
X5236398D2*
X5384534D1*
X5495460D2*
X6316585D1*
X1187315Y2828190D2*
X1594124D1*
X1885890D2*
X1967562D1*
X2232433D2*
X2633597D1*
X2906398D2*
X4488597D1*
X4761398D2*
X5143597D1*
X5236398D2*
X5395823D1*
X5484190D2*
X6312698D1*
X1191202Y2818523D2*
X1590726D1*
X1889269D2*
X1963421D1*
X2236573D2*
X2633597D1*
X2906398D2*
X4488597D1*
X4761398D2*
X5143597D1*
X5236398D2*
X5415003D1*
X5465011D2*
X6308812D1*
X1195089Y2808857D2*
X1588030D1*
X1891964D2*
X1960062D1*
X2239933D2*
X2633597D1*
X2906398D2*
X4488597D1*
X4761398D2*
X4928284D1*
X4991730D2*
X5143597D1*
X5236398D2*
X6304925D1*
X1198956Y2799190D2*
X1585999D1*
X1893995D2*
X1957444D1*
X2242569D2*
X2633597D1*
X2906398D2*
X4488597D1*
X4761398D2*
X4912288D1*
X5007706D2*
X5143597D1*
X5236398D2*
X6301038D1*
X1202843Y2789523D2*
X1584593D1*
X1895401D2*
X1955511D1*
X2244483D2*
X2633597D1*
X2906398D2*
X4488597D1*
X4761398D2*
X4902151D1*
X5017862D2*
X5143597D1*
X5236398D2*
X6297151D1*
X1206730Y2779857D2*
X1583792D1*
X1896202D2*
X1954261D1*
X2245733D2*
X2633597D1*
X2906398D2*
X4488597D1*
X4761398D2*
X4895003D1*
X5025011D2*
X5143597D1*
X5236398D2*
X6293265D1*
X1210616Y2770190D2*
X1583616D1*
X1896398D2*
X1953655D1*
X2246339D2*
X2633597D1*
X2906398D2*
X4488597D1*
X4761398D2*
X4889905D1*
X5030089D2*
X5143597D1*
X5236398D2*
X6289378D1*
X1214503Y2760523D2*
X1584026D1*
X1895968D2*
X1953694D1*
X2246300D2*
X2633597D1*
X2906398D2*
X4488597D1*
X4761398D2*
X4886448D1*
X5033546D2*
X5143597D1*
X5236398D2*
X6285491D1*
X1218390Y2750857D2*
X1585042D1*
X1894952D2*
X1954398D1*
X2245616D2*
X2633597D1*
X2906398D2*
X4488597D1*
X4761398D2*
X4884378D1*
X5035616D2*
X5143597D1*
X5236398D2*
X6281624D1*
X1222276Y2741190D2*
X1586683D1*
X1893312D2*
X1955726D1*
X2244269D2*
X2633597D1*
X2906398D2*
X4488597D1*
X4761398D2*
X4883616D1*
X5036398D2*
X5143597D1*
X5236398D2*
X6277737D1*
X1226163Y2731523D2*
X1588968D1*
X1891026D2*
X1957737D1*
X2242257D2*
X2633597D1*
X2906398D2*
X4488597D1*
X4761398D2*
X4884085D1*
X5035929D2*
X5143597D1*
X5236398D2*
X6273851D1*
X1230030Y2721857D2*
X1591917D1*
X1888097D2*
X1960472D1*
X2239542D2*
X2633597D1*
X2906398D2*
X4488597D1*
X4761398D2*
X4885823D1*
X5034190D2*
X5143597D1*
X5236398D2*
X6269964D1*
X1233917Y2712190D2*
X1595569D1*
X1884425D2*
X1963929D1*
X2236085D2*
X2633597D1*
X2906398D2*
X4488597D1*
X4761398D2*
X4888909D1*
X5031085D2*
X5143597D1*
X5236398D2*
X6266077D1*
X1237804Y2702523D2*
X1600003D1*
X1880011D2*
X1968187D1*
X2231808D2*
X2633597D1*
X2906398D2*
X4488597D1*
X4761398D2*
X4893577D1*
X5026417D2*
X5143597D1*
X5236398D2*
X6262190D1*
X1241690Y2692857D2*
X1605257D1*
X1874737D2*
X1973343D1*
X2226671D2*
X2633597D1*
X2906398D2*
X4488597D1*
X4761398D2*
X4900159D1*
X5019835D2*
X5143597D1*
X5236398D2*
X6258304D1*
X1245577Y2683190D2*
X1611487D1*
X1868526D2*
X1979495D1*
X2220519D2*
X4909417D1*
X5010577D2*
X5143597D1*
X5236398D2*
X6254417D1*
X1249464Y2673523D2*
X1618792D1*
X1861222D2*
X1986800D1*
X2213194D2*
X4923421D1*
X4996573D2*
X5143597D1*
X5236398D2*
X6250530D1*
X1253351Y2663857D2*
X1627405D1*
X1852589D2*
X1995530D1*
X2204483D2*
X5143597D1*
X5236398D2*
X6246663D1*
X1257237Y2654190D2*
X1637659D1*
X1842335D2*
X2006058D1*
X2193956D2*
X5143597D1*
X5236398D2*
X6242776D1*
X1261124Y2644523D2*
X1650120D1*
X1829874D2*
X2019105D1*
X2180909D2*
X5143597D1*
X5236398D2*
X6238890D1*
X1264991Y2634857D2*
X1665921D1*
X1814073D2*
X2021233D1*
X2178761D2*
X5143597D1*
X5236398D2*
X6235003D1*
X1269132Y2625190D2*
X1688050D1*
X1791944D2*
X2007737D1*
X2192257D2*
X5143597D1*
X5236398D2*
X6230882D1*
X1273995Y2615523D2*
X1996898D1*
X2203097D2*
X5143597D1*
X5236398D2*
X6225999D1*
X1278878Y2605857D2*
X1987952D1*
X2212042D2*
X5143597D1*
X5236398D2*
X6221116D1*
X1283741Y2596190D2*
X1980452D1*
X2219542D2*
X5143597D1*
X5236398D2*
X6216253D1*
X1288624Y2586523D2*
X1974144D1*
X2225851D2*
X2923499D1*
X2996495D2*
X5143597D1*
X5236398D2*
X6211370D1*
X1293487Y2576857D2*
X1968870D1*
X2231124D2*
X2909476D1*
X3010519D2*
X5143597D1*
X5236398D2*
X6206507D1*
X1298370Y2567190D2*
X1964476D1*
X2235519D2*
X2900198D1*
X3019815D2*
X5143597D1*
X5236398D2*
X6201624D1*
X1303253Y2557523D2*
X1960901D1*
X2239093D2*
X2893597D1*
X3026398D2*
X5143597D1*
X5236398D2*
X6196761D1*
X1308116Y2547857D2*
X1958089D1*
X2241905D2*
X2888929D1*
X3031065D2*
X5143597D1*
X5236398D2*
X6191878D1*
X1312999Y2538190D2*
X1955980D1*
X2244015D2*
X2885823D1*
X3034171D2*
X5143597D1*
X5236398D2*
X6187015D1*
X1317862Y2528523D2*
X1954534D1*
X2245460D2*
X2884085D1*
X3035909D2*
X5143597D1*
X5236398D2*
X6182132D1*
X1322745Y2518857D2*
X1953753D1*
X2246241D2*
X2883616D1*
X3036398D2*
X5143597D1*
X5236398D2*
X6177269D1*
X1327608Y2509190D2*
X1953636D1*
X2246378D2*
X2884378D1*
X3035616D2*
X5143597D1*
X5236398D2*
X6172386D1*
X1332491Y2499523D2*
X1954144D1*
X2245870D2*
X2886429D1*
X3033565D2*
X5143597D1*
X5236398D2*
X6167523D1*
X1337355Y2489857D2*
X1955296D1*
X2244698D2*
X2889886D1*
X3030108D2*
X5143597D1*
X5236398D2*
X6162640D1*
X1342237Y2480190D2*
X1957132D1*
X2242882D2*
X2894964D1*
X3025030D2*
X5143597D1*
X5236398D2*
X6157757D1*
X1347101Y2470523D2*
X1959632D1*
X2240362D2*
X2890062D1*
X3029952D2*
X5143597D1*
X5236398D2*
X6152894D1*
X1351983Y2460857D2*
X1962894D1*
X2237101D2*
X2886546D1*
X3033448D2*
X5143597D1*
X5236398D2*
X6148011D1*
X1356866Y2451190D2*
X1966937D1*
X2233077D2*
X2884437D1*
X3035558D2*
X5143597D1*
X5236398D2*
X6143148D1*
X1361730Y2441523D2*
X1971819D1*
X2228175D2*
X2883616D1*
X3036378D2*
X5143597D1*
X5236398D2*
X6138265D1*
X1366612Y2431857D2*
X1977679D1*
X2222315D2*
X2884046D1*
X3035968D2*
X5143597D1*
X5236398D2*
X6133401D1*
X1371476Y2422190D2*
X1984651D1*
X2215343D2*
X2885726D1*
X3034269D2*
X5143597D1*
X5236398D2*
X6128519D1*
X1377296Y2412523D2*
X1992952D1*
X2207042D2*
X2888792D1*
X3031222D2*
X5143597D1*
X5236398D2*
X6122698D1*
X1383253Y2402857D2*
X2002933D1*
X2197062D2*
X2893382D1*
X3026612D2*
X5143597D1*
X5236398D2*
X6116741D1*
X1389210Y2393190D2*
X2015179D1*
X2184815D2*
X2891292D1*
X3028702D2*
X5143597D1*
X5236398D2*
X6110804D1*
X1395167Y2383523D2*
X2025608D1*
X2174386D2*
X2887366D1*
X3032628D2*
X5143597D1*
X5236398D2*
X6104847D1*
X1401105Y2373857D2*
X2011155D1*
X2188858D2*
X2884886D1*
X3035108D2*
X5143597D1*
X5236398D2*
X6098890D1*
X1407062Y2364190D2*
X1999671D1*
X2200323D2*
X2883714D1*
X3036280D2*
X5143597D1*
X5236398D2*
X6092933D1*
X1413019Y2354523D2*
X1990257D1*
X2209737D2*
X2883792D1*
X3036202D2*
X5143597D1*
X5236398D2*
X6086995D1*
X1418976Y2344857D2*
X1982386D1*
X2217608D2*
X2885140D1*
X3034855D2*
X5143597D1*
X5236398D2*
X6081038D1*
X1424913Y2335190D2*
X1975784D1*
X2224210D2*
X2887796D1*
X3032198D2*
X5143597D1*
X5236398D2*
X6075081D1*
X1430870Y2325523D2*
X1970237D1*
X2229776D2*
X2891937D1*
X3028058D2*
X5143597D1*
X5236398D2*
X6069124D1*
X1436827Y2315857D2*
X1965608D1*
X2234386D2*
X2897874D1*
X3022120D2*
X5143597D1*
X5236398D2*
X6063187D1*
X1442765Y2306190D2*
X1961819D1*
X2238175D2*
X2906175D1*
X3013819D2*
X5143597D1*
X5236398D2*
X6057230D1*
X1448722Y2296523D2*
X1958792D1*
X2241202D2*
X2918304D1*
X3001690D2*
X4353499D1*
X4426495D2*
X4473499D1*
X4546495D2*
X5143597D1*
X5236398D2*
X6051273D1*
X1454679Y2286857D2*
X1956487D1*
X2243507D2*
X2940687D1*
X2979308D2*
X4339476D1*
X4440519D2*
X4459476D1*
X4560519D2*
X5143597D1*
X5236398D2*
X6045315D1*
X1460636Y2277190D2*
X1954866D1*
X2245128D2*
X4330198D1*
X4569815D2*
X5143597D1*
X5236398D2*
X6039378D1*
X1466573Y2267523D2*
X1953909D1*
X2246085D2*
X4323597D1*
X4576398D2*
X5143597D1*
X5236398D2*
X6033421D1*
X1472530Y2257857D2*
X1953597D1*
X2246398D2*
X4318929D1*
X4581065D2*
X5143597D1*
X5236398D2*
X6027464D1*
X1478487Y2248190D2*
X1953929D1*
X2246065D2*
X4315823D1*
X4584171D2*
X5143597D1*
X5236398D2*
X6021507D1*
X1484444Y2238523D2*
X1954905D1*
X2245089D2*
X4314085D1*
X4585909D2*
X5143597D1*
X5236398D2*
X6015569D1*
X1490382Y2228857D2*
X1956546D1*
X2243448D2*
X4313616D1*
X4586398D2*
X5143597D1*
X5236398D2*
X6009612D1*
X1496944Y2219190D2*
X1958870D1*
X2241124D2*
X4314378D1*
X4585616D2*
X5143597D1*
X5236398D2*
X6003050D1*
X1504093Y2209523D2*
X1961917D1*
X2238077D2*
X4316429D1*
X4583565D2*
X5143597D1*
X5236398D2*
X5995901D1*
X1511241Y2199857D2*
X1965726D1*
X2234269D2*
X4319886D1*
X4580108D2*
X5143597D1*
X5236398D2*
X5988753D1*
X1518390Y2190190D2*
X1970374D1*
X2229620D2*
X4324964D1*
X4575030D2*
X5143597D1*
X5236398D2*
X5981605D1*
X1525538Y2180523D2*
X1975960D1*
X2224034D2*
X4332112D1*
X4567901D2*
X5143597D1*
X5236398D2*
X5974456D1*
X1532687Y2170857D2*
X1982601D1*
X2217394D2*
X4342230D1*
X4437765D2*
X4462230D1*
X4557765D2*
X5143597D1*
X5236398D2*
X5967308D1*
X1539855Y2161190D2*
X1990511D1*
X2209483D2*
X4358167D1*
X4421827D2*
X4478167D1*
X4541827D2*
X5143597D1*
X5236398D2*
X5960159D1*
X1547003Y2151523D2*
X1999983D1*
X2200011D2*
X5143597D1*
X5236398D2*
X5953011D1*
X1554151Y2141857D2*
X2011526D1*
X2188468D2*
X5143597D1*
X5236398D2*
X5945862D1*
X1561300Y2132190D2*
X2026116D1*
X2173898D2*
X5143597D1*
X5236398D2*
X5938714D1*
X1568448Y2122523D2*
X2014769D1*
X2185226D2*
X5143597D1*
X5236398D2*
X5931565D1*
X1575597Y2112857D2*
X2002601D1*
X2197394D2*
X5143597D1*
X5236398D2*
X5924417D1*
X1582745Y2103190D2*
X1992679D1*
X2207315D2*
X5143597D1*
X5236398D2*
X5917269D1*
X1589894Y2093523D2*
X1984437D1*
X2215577D2*
X5143597D1*
X5236398D2*
X5910101D1*
X1597042Y2083857D2*
X1977483D1*
X2222511D2*
X5143597D1*
X5236398D2*
X5902952D1*
X1604190Y2074190D2*
X1971663D1*
X2228331D2*
X5143597D1*
X5236398D2*
X5895804D1*
X1611339Y2064523D2*
X1966800D1*
X2233214D2*
X5143597D1*
X5236398D2*
X5888655D1*
X1618487Y2054857D2*
X1962776D1*
X2237218D2*
X5143597D1*
X5236398D2*
X5881507D1*
X1625636Y2045190D2*
X1959554D1*
X2240440D2*
X5143597D1*
X5236398D2*
X5874358D1*
X1633155Y2035523D2*
X1957054D1*
X2242940D2*
X5143597D1*
X5236398D2*
X5866858D1*
X1641671Y2025857D2*
X1955257D1*
X2244757D2*
X5143597D1*
X5236398D2*
X5858343D1*
X1650167Y2016190D2*
X1954105D1*
X2245890D2*
X5143597D1*
X5236398D2*
X5849827D1*
X1658683Y2006523D2*
X1953616D1*
X2246378D2*
X5143597D1*
X5236398D2*
X5841331D1*
X1667179Y1996857D2*
X1953773D1*
X2246222D2*
X5143597D1*
X5236398D2*
X5832815D1*
X1675694Y1987190D2*
X1954573D1*
X2245421D2*
X5143597D1*
X5236398D2*
X5824319D1*
X1684190Y1977523D2*
X1956038D1*
X2243976D2*
X5143597D1*
X5236398D2*
X5815804D1*
X1692706Y1967857D2*
X1958167D1*
X2241827D2*
X5143597D1*
X5236398D2*
X5807288D1*
X1701222Y1958190D2*
X1960999D1*
X2238995D2*
X5143597D1*
X5236398D2*
X5798792D1*
X1709718Y1948523D2*
X1964593D1*
X2235401D2*
X5143597D1*
X5236398D2*
X5790276D1*
X1718233Y1938857D2*
X1969007D1*
X2230987D2*
X5143597D1*
X5236398D2*
X5781780D1*
X1726730Y1929190D2*
X1974319D1*
X2225675D2*
X5143597D1*
X5236398D2*
X5773265D1*
X1735245Y1919523D2*
X1980667D1*
X2219347D2*
X5143597D1*
X5236398D2*
X5764749D1*
X1743761Y1909857D2*
X1988187D1*
X2211808D2*
X5143597D1*
X5236398D2*
X5756253D1*
X1752257Y1900190D2*
X1997190D1*
X2202804D2*
X5143597D1*
X5236398D2*
X5747737D1*
X1760773Y1890523D2*
X2008089D1*
X2191905D2*
X5143597D1*
X5236398D2*
X5739241D1*
X1769269Y1880857D2*
X2021683D1*
X2178312D2*
X5143597D1*
X5236398D2*
X5730726D1*
X1777784Y1871190D2*
X2018655D1*
X2181339D2*
X5143597D1*
X5236398D2*
X5722210D1*
X1786769Y1861523D2*
X2005706D1*
X2194288D2*
X5143597D1*
X5236398D2*
X5713226D1*
X1796866Y1851857D2*
X1995237D1*
X2204757D2*
X5143597D1*
X5236398D2*
X5703148D1*
X1806944Y1842190D2*
X1986565D1*
X2213429D2*
X5143597D1*
X5236398D2*
X5693050D1*
X1817042Y1832523D2*
X1979280D1*
X2220714D2*
X5143597D1*
X5236398D2*
X5682972D1*
X1827120Y1822857D2*
X1973167D1*
X2226827D2*
X5143597D1*
X5236398D2*
X5672874D1*
X1837198Y1813190D2*
X1968050D1*
X2231944D2*
X5143597D1*
X5236398D2*
X5662796D1*
X1847296Y1803523D2*
X1963812D1*
X2236183D2*
X5143597D1*
X5236398D2*
X5652718D1*
X1857374Y1793857D2*
X1960374D1*
X2239620D2*
X5143597D1*
X5236398D2*
X5642620D1*
X1867472Y1784190D2*
X1957679D1*
X2242315D2*
X5143597D1*
X5236398D2*
X5632542D1*
X1877550Y1774523D2*
X1955687D1*
X2244308D2*
X5139319D1*
X5236398D2*
X5622444D1*
X1887628Y1764857D2*
X1954358D1*
X2245636D2*
X5129651D1*
X5236398D2*
X5612366D1*
X1897726Y1755190D2*
X1953694D1*
X2246300D2*
X5119983D1*
X5236144D2*
X5602288D1*
X1907804Y1745523D2*
X1953675D1*
X2246339D2*
X5110315D1*
X5234034D2*
X5592190D1*
X1917901Y1735857D2*
X1954280D1*
X2245714D2*
X3562288D1*
X3637726D2*
X5100648D1*
X5229444D2*
X5582112D1*
X1927980Y1726190D2*
X1955569D1*
X2244444D2*
X3548714D1*
X3651280D2*
X5090980D1*
X5221398D2*
X5572015D1*
X1938058Y1716523D2*
X1957503D1*
X2242491D2*
X3243499D1*
X3316495D2*
X3539671D1*
X3660343D2*
X5081312D1*
X5211730D2*
X5561937D1*
X1948155Y1706857D2*
X1960140D1*
X2239855D2*
X3229476D1*
X3330519D2*
X3533226D1*
X3666769D2*
X5071644D1*
X5202062D2*
X5551858D1*
X2236476Y1697190D2*
X3220198D1*
X3339815D2*
X3528675D1*
X3671319D2*
X5061976D1*
X5192394D2*
X5540355D1*
X2232296Y1687523D2*
X3213597D1*
X3346398D2*
X3525667D1*
X3674327D2*
X5052327D1*
X5182726D2*
X5528382D1*
X2227237Y1677857D2*
X3208929D1*
X3351065D2*
X3524007D1*
X3675987D2*
X5042659D1*
X5173058D2*
X5516409D1*
X2221202Y1668190D2*
X3205823D1*
X3354171D2*
X3523616D1*
X3676378D2*
X5032991D1*
X5163390D2*
X5504437D1*
X2214015Y1658523D2*
X3204085D1*
X3355909D2*
X3524476D1*
X3675519D2*
X5023323D1*
X5153722D2*
X5492464D1*
X2205460Y1648857D2*
X3203616D1*
X3356398D2*
X3526624D1*
X3673370D2*
X5013655D1*
X5144054D2*
X5480491D1*
X2195148Y1639190D2*
X3204378D1*
X3355616D2*
X3530179D1*
X3669815D2*
X5003987D1*
X5134405D2*
X5468519D1*
X2182413Y1629523D2*
X3206429D1*
X3353565D2*
X3535394D1*
X3664620D2*
X4994319D1*
X5124737D2*
X5456546D1*
X2165831Y1619857D2*
X3209886D1*
X3350108D2*
X3542698D1*
X3657315D2*
X4984651D1*
X5115069D2*
X5444573D1*
X2140929Y1610190D2*
X3214964D1*
X3345030D2*
X3553089D1*
X3646905D2*
X4974983D1*
X5105401D2*
X5432601D1*
X2079366Y1600523D2*
X3222112D1*
X3337901D2*
X3569710D1*
X3630304D2*
X4965315D1*
X5095733D2*
X5420628D1*
X2091339Y1590857D2*
X3232230D1*
X3327765D2*
X4955648D1*
X5086065D2*
X5408655D1*
X2103312Y1581190D2*
X3248167D1*
X3311827D2*
X4945980D1*
X5076398D2*
X5396683D1*
X2115284Y1571523D2*
X4936312D1*
X5066730D2*
X5384710D1*
X2127257Y1561857D2*
X3576155D1*
X3623839D2*
X4926644D1*
X5057062D2*
X5372737D1*
X2140909Y1552190D2*
X3556370D1*
X3643624D2*
X4916976D1*
X5047394D2*
X5359105D1*
X2155206Y1542523D2*
X3544905D1*
X3655089D2*
X4907327D1*
X5037726D2*
X5344788D1*
X2169503Y1532857D2*
X3536956D1*
X3663038D2*
X4897659D1*
X5028058D2*
X5330491D1*
X2183800Y1523190D2*
X3531292D1*
X3668702D2*
X4887991D1*
X5018390D2*
X5316194D1*
X2198116Y1513523D2*
X3527366D1*
X3672628D2*
X4878323D1*
X5008722D2*
X5301898D1*
X2212413Y1503857D2*
X3524886D1*
X3675108D2*
X4868655D1*
X4999054D2*
X5287581D1*
X2226710Y1494190D2*
X3523714D1*
X3676280D2*
X4858987D1*
X4989405D2*
X5273284D1*
X2241007Y1484523D2*
X3523792D1*
X3676202D2*
X4849319D1*
X4979737D2*
X5258987D1*
X2255323Y1474857D2*
X3269964D1*
X3290030D2*
X3525140D1*
X3674855D2*
X4839651D1*
X4970069D2*
X5244690D1*
X2269620Y1465190D2*
X3241116D1*
X3318878D2*
X3527796D1*
X3672198D2*
X4829983D1*
X4960401D2*
X5230374D1*
X2283917Y1455523D2*
X3227991D1*
X3332023D2*
X3531937D1*
X3668058D2*
X4820315D1*
X4950733D2*
X5216077D1*
X2298233Y1445857D2*
X3219144D1*
X3340851D2*
X3537874D1*
X3662120D2*
X4810648D1*
X4941065D2*
X5201780D1*
X2312530Y1436190D2*
X3212855D1*
X3347140D2*
X3546175D1*
X3653819D2*
X4800980D1*
X4931398D2*
X5187464D1*
X2327784Y1426523D2*
X3208421D1*
X3351573D2*
X3558304D1*
X3641690D2*
X4791312D1*
X4921730D2*
X5172210D1*
X2345089Y1416857D2*
X3205511D1*
X3354483D2*
X3580687D1*
X3619308D2*
X4781644D1*
X4912062D2*
X5154905D1*
X2362394Y1407190D2*
X3203948D1*
X3356065D2*
X4771976D1*
X4902394D2*
X5137601D1*
X2379698Y1397523D2*
X3203636D1*
X3356358D2*
X4762327D1*
X4892726D2*
X5120296D1*
X2397003Y1387857D2*
X3204593D1*
X3355421D2*
X4752659D1*
X4883058D2*
X5102991D1*
X2414308Y1378190D2*
X3206819D1*
X3353175D2*
X4742991D1*
X4873390D2*
X5085687D1*
X2431612Y1368523D2*
X3210491D1*
X3349523D2*
X4733323D1*
X4863722D2*
X5068382D1*
X2448917Y1358857D2*
X3215823D1*
X3344190D2*
X4723655D1*
X4854054D2*
X5051077D1*
X2466222Y1349190D2*
X3223284D1*
X3336710D2*
X4713987D1*
X4844405D2*
X5033773D1*
X2483526Y1339523D2*
X3233968D1*
X3326026D2*
X4704319D1*
X4834737D2*
X5016487D1*
X2500831Y1329857D2*
X3251331D1*
X3308663D2*
X4694651D1*
X4825069D2*
X4999183D1*
X2518136Y1320190D2*
X4684983D1*
X4815401D2*
X4981878D1*
X2538077Y1310523D2*
X4675315D1*
X4805733D2*
X4961917D1*
X2559464Y1300857D2*
X3369202D1*
X4796065D2*
X4940530D1*
X2580851Y1291190D2*
X3355980D1*
X4786398D2*
X4919144D1*
X2602237Y1281523D2*
X3346312D1*
X4776730D2*
X4897757D1*
X2623624Y1271857D2*
X3336644D1*
X4767062D2*
X4876370D1*
X2645011Y1262190D2*
X3326976D1*
X4757394D2*
X4854983D1*
X2666398Y1252523D2*
X3317327D1*
X4747726D2*
X4833597D1*
X2687784Y1242857D2*
X3307659D1*
X4738058D2*
X4812210D1*
X2709171Y1233190D2*
X3297991D1*
X4728390D2*
X4790823D1*
X2730558Y1223523D2*
X3262288D1*
X4718038D2*
X4769456D1*
X2756671Y1213857D2*
X3238909D1*
X3409054D2*
X4743323D1*
X2784034Y1204190D2*
X3226565D1*
X3399405D2*
X4715960D1*
X2811398Y1194523D2*
X3218148D1*
X3389737D2*
X4688597D1*
X2838761Y1184857D2*
X3212132D1*
X3380069D2*
X4661253D1*
X2866105Y1175190D2*
X3207933D1*
X3370401D2*
X3583382D1*
X3596632D2*
X4633890D1*
X2893468Y1165523D2*
X3205218D1*
X3360733D2*
X3551702D1*
X3628312D2*
X4606526D1*
X2920831Y1155857D2*
X3203831D1*
X3356163D2*
X3538343D1*
X3641651D2*
X3672288D1*
X3747726D2*
X4579163D1*
X2948194Y1146190D2*
X3203694D1*
X3356300D2*
X3529398D1*
X3650597D2*
X3658714D1*
X3761280D2*
X4551800D1*
X2983585Y1136523D2*
X3204808D1*
X3355187D2*
X3523030D1*
X3770343D2*
X4516429D1*
X3020694Y1126857D2*
X3207249D1*
X3352765D2*
X3518538D1*
X3776769D2*
X4479300D1*
X3057823Y1117190D2*
X3211116D1*
X3348878D2*
X3515589D1*
X3781319D2*
X4442171D1*
X3094952Y1107523D2*
X3216702D1*
X3343292D2*
X3513968D1*
X3784327D2*
X4405042D1*
X3132081Y1097857D2*
X3224534D1*
X3335460D2*
X3513636D1*
X3785987D2*
X4367913D1*
X3169210Y1088190D2*
X3235823D1*
X3324190D2*
X3514534D1*
X3786378D2*
X4330784D1*
X3221593Y1078523D2*
X3255003D1*
X3305011D2*
X3516722D1*
X3785519D2*
X4278401D1*
X3277960Y1068857D2*
X3520335D1*
X3783370D2*
X4222034D1*
X3334347Y1059190D2*
X3525608D1*
X3779815D2*
X4165667D1*
X3390714Y1049523D2*
X3532991D1*
X3774620D2*
X4109280D1*
X3489913Y1039857D2*
X3543519D1*
X3767315D2*
X4010101D1*
X3756905Y1030190D2*
X3896526D1*
X2639600Y2962400D2*
X2905400D1*
Y2691600D1*
X2634600D1*
Y2962400D1*
X2639600D1*
X4494600D2*
X4760400D1*
Y2691600D1*
X4489600D1*
Y2962400D1*
X4494600D1*
X4235374Y3745000D2*
X4234988Y3730006D1*
X4234139Y3715030D1*
X4232827Y3700088D1*
X4231054Y3685194D1*
X4228822Y3670362D1*
X4226133Y3655605D1*
X4222989Y3640939D1*
X4219394Y3626377D1*
X4215350Y3611933D1*
X4210862Y3597621D1*
X4205934Y3583454D1*
X4200570Y3569446D1*
X4194777Y3555611D1*
X4188558Y3541962D1*
X4181921Y3528511D1*
X4174871Y3515271D1*
X4167416Y3502256D1*
X4159562Y3489477D1*
X4151317Y3476947D1*
X4142689Y3464678D1*
X4133685Y3452681D1*
X4124316Y3440968D1*
X4114589Y3429550D1*
X4104514Y3418438D1*
X4094100Y3407643D1*
X4083358Y3397174D1*
X4072297Y3387043D1*
X4060929Y3377258D1*
X4049264Y3367829D1*
X4037313Y3358765D1*
X4025087Y3350075D1*
X4012599Y3341766D1*
X3999860Y3333848D1*
X3986883Y3326326D1*
X3973680Y3319209D1*
X3960263Y3312504D1*
X3946645Y3306216D1*
X3932839Y3300352D1*
X3918859Y3294918D1*
X3904717Y3289918D1*
X3890428Y3285357D1*
X3876005Y3281240D1*
X3861461Y3277571D1*
X3846811Y3274352D1*
X3832068Y3271588D1*
X3817248Y3269281D1*
X3802362Y3267433D1*
X3787427Y3266045D1*
X3772457Y3265120D1*
X3757464Y3264657D1*
X3742465Y3264658D1*
X3727473Y3265123D1*
X3712502Y3266051D1*
X3697567Y3267440D1*
X3682682Y3269291D1*
X3667862Y3271600D1*
X3653120Y3274366D1*
X3638470Y3277587D1*
X3623927Y3281258D1*
X3609504Y3285377D1*
X3595216Y3289940D1*
X3581075Y3294942D1*
X3567095Y3300379D1*
X3553291Y3306245D1*
X3539674Y3312535D1*
X3526257Y3319242D1*
X3513055Y3326361D1*
X3500079Y3333884D1*
X3487341Y3341805D1*
X3474854Y3350115D1*
X3462630Y3358807D1*
X3450681Y3367873D1*
X3439017Y3377304D1*
X3427650Y3387090D1*
X3416591Y3397223D1*
X3405850Y3407693D1*
X3395438Y3418490D1*
X3385364Y3429603D1*
X3375639Y3441022D1*
X3366271Y3452737D1*
X3357270Y3464735D1*
X3348643Y3477005D1*
X3340400Y3489537D1*
X3332548Y3502317D1*
X3325095Y3515333D1*
X3318047Y3528574D1*
X3311412Y3542026D1*
X3305195Y3555676D1*
X3299403Y3569512D1*
X3294042Y3583521D1*
X3289116Y3597688D1*
X3284630Y3612001D1*
X3280588Y3626446D1*
X3276995Y3641008D1*
X3274651Y3651751D1*
X3273178Y3645971D1*
X3271944Y3642626D1*
X3270452Y3639389D1*
X3268710Y3636278D1*
X3266730Y3633314D1*
X3264523Y3630515D1*
X3258567Y3624362D1*
X3165387Y3531181D1*
X3165400Y3378809D1*
X3308812Y3235393D1*
X3959785Y3235400D1*
X3962553Y3238837D1*
X3965915Y3242536D1*
X3969516Y3246004D1*
X3973338Y3249227D1*
X3977365Y3252188D1*
X3981579Y3254877D1*
X3985963Y3257280D1*
X3990496Y3259388D1*
X3995159Y3261190D1*
X3999931Y3262680D1*
X4004791Y3263850D1*
X4009718Y3264696D1*
X4014690Y3265213D1*
X4019686Y3265399D1*
X4024683Y3265254D1*
X4029659Y3264779D1*
X4034593Y3263974D1*
X4039463Y3262845D1*
X4044247Y3261395D1*
X4048925Y3259631D1*
X4053475Y3257562D1*
X4057879Y3255195D1*
X4062116Y3252542D1*
X4066167Y3249613D1*
X4070016Y3246423D1*
X4073645Y3242985D1*
X4077038Y3239314D1*
X4080180Y3235426D1*
X4083058Y3231338D1*
X4085659Y3227069D1*
X4087971Y3222636D1*
X4089984Y3218060D1*
X4091690Y3213361D1*
X4093080Y3208559D1*
X4094149Y3203676D1*
X4094893Y3198733D1*
X4095400Y3190000D1*
X4095234Y3185004D1*
X4094738Y3180029D1*
X4093913Y3175099D1*
X4092763Y3170234D1*
X4091293Y3165456D1*
X4089510Y3160785D1*
X4087421Y3156243D1*
X4085036Y3151850D1*
X4082366Y3147624D1*
X4079420Y3143585D1*
X4076214Y3139749D1*
X4072761Y3136135D1*
X4069075Y3132757D1*
X4065174Y3129631D1*
X4061075Y3126770D1*
X4056795Y3124187D1*
X4052353Y3121894D1*
X4047769Y3119900D1*
X4043062Y3118214D1*
X4038255Y3116843D1*
X4033367Y3115794D1*
X4028420Y3115072D1*
X4023437Y3114678D1*
X4018438Y3114616D1*
X4013446Y3114885D1*
X4008483Y3115485D1*
X4003571Y3116412D1*
X3998731Y3117662D1*
X3993984Y3119230D1*
X3989352Y3121110D1*
X3984854Y3123292D1*
X3980511Y3125768D1*
X3976341Y3128526D1*
X3972364Y3131554D1*
X3968596Y3134839D1*
X3965053Y3138366D1*
X3961753Y3142121D1*
X3959838Y3144614D1*
X3290000Y3144600D1*
X3286438Y3144740D1*
X3282898Y3145159D1*
X3279402Y3145854D1*
X3275971Y3146822D1*
X3272626Y3148056D1*
X3269389Y3149548D1*
X3266279Y3151290D1*
X3263315Y3153271D1*
X3260515Y3155478D1*
X3254362Y3161433D1*
X3087897Y3327897D1*
X3085477Y3330515D1*
X3083270Y3333314D1*
X3081290Y3336278D1*
X3079548Y3339389D1*
X3078055Y3342626D1*
X3076822Y3345971D1*
X3075854Y3349401D1*
X3075159Y3352898D1*
X3074740Y3356438D1*
X3074600Y3365000D1*
Y3550000D1*
X3074740Y3553562D1*
X3075159Y3557102D1*
X3075854Y3560599D1*
X3076822Y3564029D1*
X3078055Y3567374D1*
X3079548Y3570611D1*
X3081290Y3573722D1*
X3083270Y3576686D1*
X3085477Y3579485D1*
X3091433Y3585638D1*
X3184613Y3678819D1*
X3184600Y4789785D1*
X3178596Y4794839D1*
X3175053Y4798366D1*
X3171753Y4802121D1*
X3168708Y4806086D1*
X3165933Y4810244D1*
X3163439Y4814577D1*
X3161238Y4819065D1*
X3159339Y4823689D1*
X3157751Y4828430D1*
X3156481Y4833264D1*
X3155533Y4838173D1*
X3154913Y4843133D1*
X3154623Y4848124D1*
X3154665Y4853123D1*
X3155037Y4858108D1*
X3155739Y4863058D1*
X3156768Y4867950D1*
X3158118Y4872763D1*
X3159785Y4877476D1*
X3161760Y4882069D1*
X3164035Y4886520D1*
X3166600Y4890811D1*
X3169443Y4894923D1*
X3172553Y4898837D1*
X3175915Y4902536D1*
X3179516Y4906004D1*
X3183338Y4909227D1*
X3187365Y4912188D1*
X3191579Y4914877D1*
X3195963Y4917280D1*
X3200496Y4919388D1*
X3205159Y4921190D1*
X3209931Y4922680D1*
X3214791Y4923850D1*
X3219718Y4924696D1*
X3224690Y4925213D1*
X3229686Y4925399D1*
X3234683Y4925254D1*
X3239659Y4924779D1*
X3244593Y4923974D1*
X3249463Y4922845D1*
X3254247Y4921395D1*
X3258925Y4919631D1*
X3263475Y4917562D1*
X3267879Y4915195D1*
X3272116Y4912542D1*
X3276167Y4909613D1*
X3280016Y4906423D1*
X3283645Y4902985D1*
X3287038Y4899314D1*
X3290180Y4895426D1*
X3293058Y4891338D1*
X3295659Y4887069D1*
X3297971Y4882636D1*
X3299984Y4878060D1*
X3301690Y4873361D1*
X3303080Y4868559D1*
X3304149Y4863676D1*
X3304893Y4858733D1*
X3305400Y4850000D1*
X3305234Y4845004D1*
X3304738Y4840029D1*
X3303913Y4835099D1*
X3302763Y4830234D1*
X3301293Y4825456D1*
X3299510Y4820785D1*
X3297421Y4816243D1*
X3295036Y4811850D1*
X3292366Y4807624D1*
X3289420Y4803585D1*
X3286214Y4799749D1*
X3282761Y4796135D1*
X3279075Y4792757D1*
X3275403Y4789814D1*
X3275400Y3851816D1*
X3279375Y3868850D1*
X3283272Y3883335D1*
X3287614Y3897692D1*
X3292399Y3911908D1*
X3297620Y3925969D1*
X3303273Y3939862D1*
X3309352Y3953574D1*
X3315852Y3967092D1*
X3322767Y3980403D1*
X3330090Y3993493D1*
X3337814Y4006351D1*
X3345931Y4018964D1*
X3354434Y4031320D1*
X3363315Y4043408D1*
X3372566Y4055215D1*
X3382176Y4066731D1*
X3392138Y4077945D1*
X3402441Y4088845D1*
X3413077Y4099422D1*
X3424034Y4109665D1*
X3435302Y4119565D1*
X3446871Y4129112D1*
X3458729Y4138297D1*
X3470866Y4147111D1*
X3483269Y4155546D1*
X3495927Y4163594D1*
X3508827Y4171247D1*
X3521957Y4178497D1*
X3535306Y4185338D1*
X3548859Y4191764D1*
X3562605Y4197768D1*
X3576529Y4203344D1*
X3590619Y4208488D1*
X3604861Y4213193D1*
X3619242Y4217456D1*
X3633747Y4221273D1*
X3648364Y4224640D1*
X3663078Y4227554D1*
X3677874Y4230012D1*
X3692740Y4232011D1*
X3707660Y4233550D1*
X3722621Y4234627D1*
X3737608Y4235242D1*
X3752606Y4235393D1*
X3767603Y4235081D1*
X3782582Y4234305D1*
X3797530Y4233067D1*
X3812433Y4231368D1*
X3827276Y4229209D1*
X3842046Y4226593D1*
X3856727Y4223521D1*
X3871307Y4219998D1*
X3885771Y4216025D1*
X3900105Y4211608D1*
X3914296Y4206750D1*
X3928330Y4201455D1*
X3942193Y4195730D1*
X3955873Y4189579D1*
X3969357Y4183008D1*
X3982631Y4176023D1*
X3995683Y4168632D1*
X4008500Y4160842D1*
X4021071Y4152658D1*
X4033383Y4144091D1*
X4045424Y4135147D1*
X4057183Y4125835D1*
X4068648Y4116164D1*
X4079810Y4106144D1*
X4090656Y4095784D1*
X4101177Y4085093D1*
X4111363Y4074083D1*
X4121204Y4062763D1*
X4130690Y4051144D1*
X4139813Y4039238D1*
X4148564Y4027056D1*
X4156934Y4014609D1*
X4164915Y4001910D1*
X4172501Y3988969D1*
X4179682Y3975801D1*
X4186454Y3962417D1*
X4192809Y3948831D1*
X4198741Y3935054D1*
X4204244Y3921101D1*
X4209314Y3906984D1*
X4213945Y3892718D1*
X4218133Y3878315D1*
X4221874Y3863789D1*
X4225165Y3849155D1*
X4228001Y3834427D1*
X4230382Y3819617D1*
X4232303Y3804741D1*
X4233764Y3789813D1*
X4234764Y3774847D1*
X4235300Y3759857D1*
X4235374Y3745000D1*
X3500423Y6043175D2*
X3497421Y6036243D1*
X3495036Y6031850D1*
X3492366Y6027624D1*
X3489420Y6023585D1*
X3486214Y6019749D1*
X3482761Y6016135D1*
X3479075Y6012757D1*
X3475174Y6009631D1*
X3471075Y6006770D1*
X3466795Y6004187D1*
X3462353Y6001894D1*
X3457769Y5999900D1*
X3453062Y5998214D1*
X3448255Y5996843D1*
X3443367Y5995794D1*
X3438420Y5995072D1*
X3433437Y5994678D1*
X3428438Y5994616D1*
X3423446Y5994885D1*
X3418483Y5995485D1*
X3413571Y5996412D1*
X3408731Y5997662D1*
X3403984Y5999230D1*
X3399352Y6001110D1*
X3394854Y6003292D1*
X3390511Y6005768D1*
X3386341Y6008526D1*
X3382364Y6011554D1*
X3378596Y6014839D1*
X3375053Y6018366D1*
X3371753Y6022121D1*
X3368708Y6026086D1*
X3365933Y6030244D1*
X3363439Y6034577D1*
X3361238Y6039065D1*
X3359339Y6043689D1*
X3357751Y6048430D1*
X3356481Y6053264D1*
X3355533Y6058173D1*
X3354913Y6063133D1*
X3354623Y6068124D1*
X3354665Y6073123D1*
X3355037Y6078108D1*
X3355739Y6083058D1*
X3356768Y6087950D1*
X3358118Y6092763D1*
X3359785Y6097476D1*
X3361760Y6102069D1*
X3364035Y6106520D1*
X3366600Y6110811D1*
X3369443Y6114923D1*
X3372553Y6118837D1*
X3375915Y6122536D1*
X3379516Y6126004D1*
X3383338Y6129227D1*
X3387365Y6132188D1*
X3391579Y6134877D1*
X3395963Y6137280D1*
X3400496Y6139388D1*
X3405159Y6141190D1*
X3409931Y6142680D1*
X3414791Y6143850D1*
X3419718Y6144696D1*
X3424690Y6145213D1*
X3429686Y6145399D1*
X3434683Y6145254D1*
X3439659Y6144779D1*
X3444593Y6143974D1*
X3449463Y6142845D1*
X3454247Y6141395D1*
X3458925Y6139631D1*
X3463475Y6137562D1*
X3467879Y6135195D1*
X3472116Y6132542D1*
X3476167Y6129613D1*
X3479520Y6126834D1*
X3481760Y6132069D1*
X3484035Y6136520D1*
X3486600Y6140811D1*
X3489443Y6144923D1*
X3492553Y6148837D1*
X3495915Y6152536D1*
X3499516Y6156004D1*
X3503338Y6159227D1*
X3507365Y6162188D1*
X3511579Y6164877D1*
X3515963Y6167280D1*
X3520496Y6169388D1*
X3525159Y6171190D1*
X3529931Y6172680D1*
X3534791Y6173850D1*
X3539718Y6174696D1*
X3544690Y6175213D1*
X3549686Y6175399D1*
X3554683Y6175254D1*
X3559659Y6174779D1*
X3564593Y6173974D1*
X3569463Y6172845D1*
X3574247Y6171395D1*
X3578925Y6169631D1*
X3583475Y6167562D1*
X3587879Y6165195D1*
X3592116Y6162542D1*
X3596167Y6159613D1*
X3600016Y6156423D1*
X3603645Y6152985D1*
X3607038Y6149314D1*
X3610180Y6145426D1*
X3613058Y6141338D1*
X3615659Y6137069D1*
X3617971Y6132636D1*
X3619984Y6128060D1*
X3621690Y6123361D1*
X3623080Y6118559D1*
X3624149Y6113676D1*
X3624893Y6108733D1*
X3625400Y6100000D1*
X3625234Y6095004D1*
X3624738Y6090029D1*
X3623913Y6085099D1*
X3622763Y6080234D1*
X3621293Y6075456D1*
X3619510Y6070785D1*
X3617421Y6066243D1*
X3615036Y6061850D1*
X3612366Y6057624D1*
X3609420Y6053585D1*
X3606214Y6049749D1*
X3602761Y6046135D1*
X3599075Y6042757D1*
X3595174Y6039631D1*
X3591075Y6036770D1*
X3586795Y6034187D1*
X3582353Y6031894D1*
X3577769Y6029900D1*
X3573062Y6028214D1*
X3568255Y6026843D1*
X3563367Y6025794D1*
X3558420Y6025072D1*
X3553437Y6024678D1*
X3548438Y6024616D1*
X3543446Y6024885D1*
X3538483Y6025485D1*
X3533571Y6026412D1*
X3528731Y6027662D1*
X3523984Y6029230D1*
X3519352Y6031110D1*
X3514854Y6033292D1*
X3510511Y6035768D1*
X3506341Y6038526D1*
X3500465Y6043209D1*
X4425234Y5705004D2*
X4424738Y5700029D1*
X4423913Y5695099D1*
X4422763Y5690234D1*
X4421293Y5685456D1*
X4419510Y5680785D1*
X4417421Y5676243D1*
X4415036Y5671850D1*
X4412366Y5667624D1*
X4409420Y5663585D1*
X4406214Y5659749D1*
X4402761Y5656135D1*
X4399075Y5652757D1*
X4395174Y5649631D1*
X4391075Y5646770D1*
X4386795Y5644187D1*
X4382353Y5641894D1*
X4377769Y5639900D1*
X4373062Y5638214D1*
X4368255Y5636843D1*
X4363367Y5635794D1*
X4358420Y5635072D1*
X4353437Y5634678D1*
X4348438Y5634616D1*
X4343446Y5634885D1*
X4338483Y5635485D1*
X4333571Y5636412D1*
X4328731Y5637662D1*
X4323984Y5639230D1*
X4319352Y5641110D1*
X4314854Y5643292D1*
X4310511Y5645768D1*
X4306341Y5648526D1*
X4302364Y5651554D1*
X4298596Y5654839D1*
X4295053Y5658366D1*
X4291753Y5662121D1*
X4288708Y5666086D1*
X4285933Y5670244D1*
X4283439Y5674577D1*
X4281238Y5679065D1*
X4279339Y5683689D1*
X4277751Y5688430D1*
X4276481Y5693264D1*
X4275533Y5698173D1*
X4274913Y5703133D1*
X4274623Y5708124D1*
X4274665Y5713123D1*
X4275037Y5718108D1*
X4275739Y5723058D1*
X4276768Y5727950D1*
X4278118Y5732763D1*
X4279785Y5737476D1*
X4281760Y5742069D1*
X4284035Y5746520D1*
X4286600Y5750811D1*
X4289443Y5754923D1*
X4292553Y5758837D1*
X4295915Y5762536D1*
X4299516Y5766004D1*
X4303338Y5769227D1*
X4307365Y5772188D1*
X4311579Y5774877D1*
X4315963Y5777280D1*
X4320496Y5779388D1*
X4325159Y5781190D1*
X4329931Y5782680D1*
X4334791Y5783850D1*
X4339718Y5784696D1*
X4344690Y5785213D1*
X4349686Y5785399D1*
X4354683Y5785254D1*
X4359659Y5784779D1*
X4364593Y5783974D1*
X4369463Y5782845D1*
X4374247Y5781395D1*
X4378925Y5779631D1*
X4383475Y5777562D1*
X4387879Y5775195D1*
X4392116Y5772542D1*
X4396167Y5769613D1*
X4400016Y5766423D1*
X4403645Y5762985D1*
X4407038Y5759314D1*
X4410180Y5755426D1*
X4413058Y5751338D1*
X4415659Y5747069D1*
X4417971Y5742636D1*
X4419984Y5738060D1*
X4421690Y5733361D1*
X4423080Y5728559D1*
X4424149Y5723676D1*
X4424893Y5718733D1*
X4425400Y5710000D1*
X4425234Y5705004D1*
X3935234Y4815004D2*
X3934738Y4810029D1*
X3933913Y4805099D1*
X3932763Y4800234D1*
X3931293Y4795456D1*
X3929510Y4790785D1*
X3927421Y4786243D1*
X3925036Y4781850D1*
X3922366Y4777624D1*
X3919420Y4773585D1*
X3916214Y4769749D1*
X3912761Y4766135D1*
X3909075Y4762757D1*
X3905174Y4759631D1*
X3901075Y4756770D1*
X3896795Y4754187D1*
X3892353Y4751894D1*
X3887769Y4749900D1*
X3883062Y4748214D1*
X3878255Y4746843D1*
X3873367Y4745794D1*
X3868420Y4745072D1*
X3863437Y4744678D1*
X3858438Y4744616D1*
X3853446Y4744885D1*
X3848483Y4745485D1*
X3843571Y4746412D1*
X3838731Y4747662D1*
X3833984Y4749230D1*
X3829352Y4751110D1*
X3824854Y4753292D1*
X3820511Y4755768D1*
X3816341Y4758526D1*
X3812364Y4761554D1*
X3808596Y4764839D1*
X3805053Y4768366D1*
X3801753Y4772121D1*
X3798708Y4776086D1*
X3795933Y4780244D1*
X3793439Y4784577D1*
X3791238Y4789065D1*
X3789339Y4793689D1*
X3787751Y4798430D1*
X3786481Y4803264D1*
X3785533Y4808173D1*
X3784913Y4813133D1*
X3784623Y4818124D1*
X3784665Y4823123D1*
X3785037Y4828108D1*
X3785739Y4833058D1*
X3786768Y4837950D1*
X3788118Y4842763D1*
X3789785Y4847476D1*
X3791760Y4852069D1*
X3794035Y4856520D1*
X3796600Y4860811D1*
X3799443Y4864923D1*
X3802553Y4868837D1*
X3805915Y4872536D1*
X3809516Y4876004D1*
X3813338Y4879227D1*
X3817365Y4882188D1*
X3821579Y4884877D1*
X3825963Y4887280D1*
X3830496Y4889388D1*
X3835159Y4891190D1*
X3839931Y4892680D1*
X3844791Y4893850D1*
X3849718Y4894696D1*
X3854690Y4895213D1*
X3859686Y4895399D1*
X3864683Y4895254D1*
X3869659Y4894779D1*
X3874593Y4893974D1*
X3879463Y4892845D1*
X3884247Y4891395D1*
X3888925Y4889631D1*
X3893475Y4887562D1*
X3897879Y4885195D1*
X3902116Y4882542D1*
X3906167Y4879613D1*
X3910016Y4876423D1*
X3913645Y4872985D1*
X3917038Y4869314D1*
X3920180Y4865426D1*
X3923058Y4861338D1*
X3925659Y4857069D1*
X3927971Y4852636D1*
X3929984Y4848060D1*
X3931690Y4843361D1*
X3933080Y4838559D1*
X3934149Y4833676D1*
X3934893Y4828733D1*
X3935400Y4820000D1*
X3935234Y4815004D1*
X3255234Y5035004D2*
X3254738Y5030029D1*
X3253913Y5025099D1*
X3252763Y5020234D1*
X3251293Y5015456D1*
X3249510Y5010785D1*
X3247421Y5006243D1*
X3245036Y5001850D1*
X3242366Y4997624D1*
X3239420Y4993585D1*
X3236214Y4989749D1*
X3232761Y4986135D1*
X3229075Y4982757D1*
X3225174Y4979631D1*
X3221075Y4976770D1*
X3216795Y4974187D1*
X3212353Y4971894D1*
X3207769Y4969900D1*
X3203062Y4968214D1*
X3198255Y4966843D1*
X3193367Y4965794D1*
X3188420Y4965072D1*
X3183437Y4964678D1*
X3178438Y4964616D1*
X3173446Y4964885D1*
X3168483Y4965485D1*
X3163571Y4966412D1*
X3158731Y4967662D1*
X3153984Y4969230D1*
X3149352Y4971110D1*
X3144854Y4973292D1*
X3140511Y4975768D1*
X3136341Y4978526D1*
X3132364Y4981554D1*
X3128596Y4984839D1*
X3125053Y4988366D1*
X3121753Y4992121D1*
X3118708Y4996086D1*
X3115933Y5000244D1*
X3113439Y5004577D1*
X3111238Y5009065D1*
X3109339Y5013689D1*
X3107751Y5018430D1*
X3106481Y5023264D1*
X3105533Y5028173D1*
X3104913Y5033133D1*
X3104623Y5038124D1*
X3104665Y5043123D1*
X3105037Y5048108D1*
X3105739Y5053058D1*
X3106768Y5057950D1*
X3108118Y5062763D1*
X3109785Y5067476D1*
X3111760Y5072069D1*
X3114035Y5076520D1*
X3116600Y5080811D1*
X3119443Y5084923D1*
X3122553Y5088837D1*
X3125915Y5092536D1*
X3129516Y5096004D1*
X3133338Y5099227D1*
X3137365Y5102188D1*
X3141579Y5104877D1*
X3145963Y5107280D1*
X3150496Y5109388D1*
X3155159Y5111190D1*
X3159931Y5112680D1*
X3164791Y5113850D1*
X3169718Y5114696D1*
X3174690Y5115213D1*
X3179686Y5115399D1*
X3184683Y5115254D1*
X3189659Y5114779D1*
X3194593Y5113974D1*
X3199463Y5112845D1*
X3204247Y5111395D1*
X3208925Y5109631D1*
X3213475Y5107562D1*
X3217879Y5105195D1*
X3222116Y5102542D1*
X3226167Y5099613D1*
X3230016Y5096423D1*
X3233645Y5092985D1*
X3237038Y5089314D1*
X3240180Y5085426D1*
X3243058Y5081338D1*
X3245659Y5077069D1*
X3247971Y5072636D1*
X3249984Y5068060D1*
X3251690Y5063361D1*
X3253080Y5058559D1*
X3254149Y5053676D1*
X3254893Y5048733D1*
X3255400Y5040000D1*
X3255234Y5035004D1*
X5035234Y2735004D2*
X5034738Y2730029D1*
X5033913Y2725099D1*
X5032763Y2720234D1*
X5031293Y2715456D1*
X5029510Y2710785D1*
X5027421Y2706243D1*
X5025036Y2701850D1*
X5022366Y2697624D1*
X5019420Y2693585D1*
X5016214Y2689749D1*
X5012761Y2686135D1*
X5009075Y2682757D1*
X5005174Y2679631D1*
X5001075Y2676770D1*
X4996795Y2674187D1*
X4992353Y2671894D1*
X4987769Y2669900D1*
X4983062Y2668214D1*
X4978255Y2666843D1*
X4973367Y2665794D1*
X4968420Y2665072D1*
X4963437Y2664678D1*
X4958438Y2664616D1*
X4953446Y2664885D1*
X4948483Y2665485D1*
X4943571Y2666412D1*
X4938731Y2667662D1*
X4933984Y2669230D1*
X4929352Y2671110D1*
X4924854Y2673292D1*
X4920511Y2675768D1*
X4916341Y2678526D1*
X4912364Y2681554D1*
X4908596Y2684839D1*
X4905053Y2688366D1*
X4901753Y2692121D1*
X4898708Y2696086D1*
X4895933Y2700244D1*
X4893439Y2704577D1*
X4891238Y2709065D1*
X4889339Y2713689D1*
X4887751Y2718430D1*
X4886481Y2723264D1*
X4885533Y2728173D1*
X4884913Y2733133D1*
X4884623Y2738124D1*
X4884665Y2743123D1*
X4885037Y2748108D1*
X4885739Y2753058D1*
X4886768Y2757950D1*
X4888118Y2762763D1*
X4889785Y2767476D1*
X4891760Y2772069D1*
X4894035Y2776520D1*
X4896600Y2780811D1*
X4899443Y2784923D1*
X4902553Y2788837D1*
X4905915Y2792536D1*
X4909516Y2796004D1*
X4913338Y2799227D1*
X4917365Y2802188D1*
X4921579Y2804877D1*
X4925963Y2807280D1*
X4930496Y2809388D1*
X4935159Y2811190D1*
X4939931Y2812680D1*
X4944791Y2813850D1*
X4949718Y2814696D1*
X4954690Y2815213D1*
X4959686Y2815399D1*
X4964683Y2815254D1*
X4969659Y2814779D1*
X4974593Y2813974D1*
X4979463Y2812845D1*
X4984247Y2811395D1*
X4988925Y2809631D1*
X4993475Y2807562D1*
X4997879Y2805195D1*
X5002116Y2802542D1*
X5006167Y2799613D1*
X5010016Y2796423D1*
X5013645Y2792985D1*
X5017038Y2789314D1*
X5020180Y2785426D1*
X5023058Y2781338D1*
X5025659Y2777069D1*
X5027971Y2772636D1*
X5029984Y2768060D1*
X5031690Y2763361D1*
X5033080Y2758559D1*
X5034149Y2753676D1*
X5034893Y2748733D1*
X5035400Y2740000D1*
X5035234Y2735004D1*
X5515234Y2885004D2*
X5514738Y2880029D1*
X5513913Y2875099D1*
X5512763Y2870234D1*
X5511293Y2865456D1*
X5509510Y2860785D1*
X5507421Y2856243D1*
X5505036Y2851850D1*
X5502366Y2847624D1*
X5499420Y2843585D1*
X5496214Y2839749D1*
X5492761Y2836135D1*
X5489075Y2832757D1*
X5485174Y2829631D1*
X5481075Y2826770D1*
X5476795Y2824187D1*
X5472353Y2821894D1*
X5467769Y2819900D1*
X5463062Y2818214D1*
X5458255Y2816843D1*
X5453367Y2815794D1*
X5448420Y2815072D1*
X5443437Y2814678D1*
X5438438Y2814616D1*
X5433446Y2814885D1*
X5428483Y2815485D1*
X5423571Y2816412D1*
X5418731Y2817662D1*
X5413984Y2819230D1*
X5409352Y2821110D1*
X5404854Y2823292D1*
X5400511Y2825768D1*
X5396341Y2828526D1*
X5392364Y2831554D1*
X5388596Y2834839D1*
X5385053Y2838366D1*
X5381753Y2842121D1*
X5378708Y2846086D1*
X5375933Y2850244D1*
X5373439Y2854577D1*
X5371238Y2859065D1*
X5369339Y2863689D1*
X5367751Y2868430D1*
X5366481Y2873264D1*
X5365533Y2878173D1*
X5364913Y2883133D1*
X5364623Y2888124D1*
X5364665Y2893123D1*
X5365037Y2898108D1*
X5365739Y2903058D1*
X5366768Y2907950D1*
X5368118Y2912763D1*
X5369785Y2917476D1*
X5371760Y2922069D1*
X5374035Y2926520D1*
X5376600Y2930811D1*
X5379443Y2934923D1*
X5382553Y2938837D1*
X5385915Y2942536D1*
X5389516Y2946004D1*
X5393338Y2949227D1*
X5397365Y2952188D1*
X5401579Y2954877D1*
X5405963Y2957280D1*
X5410496Y2959388D1*
X5415159Y2961190D1*
X5419931Y2962680D1*
X5424791Y2963850D1*
X5429718Y2964696D1*
X5434690Y2965213D1*
X5439686Y2965399D1*
X5444683Y2965254D1*
X5449659Y2964779D1*
X5454593Y2963974D1*
X5459463Y2962845D1*
X5464247Y2961395D1*
X5468925Y2959631D1*
X5473475Y2957562D1*
X5477879Y2955195D1*
X5482116Y2952542D1*
X5486167Y2949613D1*
X5490016Y2946423D1*
X5493645Y2942985D1*
X5497038Y2939314D1*
X5500180Y2935426D1*
X5503058Y2931338D1*
X5505659Y2927069D1*
X5507971Y2922636D1*
X5509984Y2918060D1*
X5511690Y2913361D1*
X5513080Y2908559D1*
X5514149Y2903676D1*
X5514893Y2898733D1*
X5515400Y2890000D1*
X5515234Y2885004D1*
X3035234Y2515004D2*
X3034738Y2510029D1*
X3033913Y2505099D1*
X3032763Y2500234D1*
X3031293Y2495456D1*
X3029510Y2490785D1*
X3027421Y2486243D1*
X3023899Y2480051D1*
X3027971Y2472636D1*
X3029984Y2468060D1*
X3031690Y2463361D1*
X3033080Y2458559D1*
X3034149Y2453676D1*
X3034893Y2448733D1*
X3035400Y2440000D1*
X3035234Y2435004D1*
X3034738Y2430029D1*
X3033913Y2425099D1*
X3032763Y2420234D1*
X3031293Y2415456D1*
X3029510Y2410785D1*
X3027421Y2406243D1*
X3023899Y2400051D1*
X3027971Y2392636D1*
X3029984Y2388060D1*
X3031690Y2383361D1*
X3033080Y2378559D1*
X3034149Y2373676D1*
X3034893Y2368733D1*
X3035400Y2360000D1*
X3035234Y2355004D1*
X3034738Y2350029D1*
X3033913Y2345099D1*
X3032763Y2340234D1*
X3031293Y2335456D1*
X3029510Y2330785D1*
X3027421Y2326243D1*
X3025036Y2321850D1*
X3022366Y2317624D1*
X3019420Y2313585D1*
X3016214Y2309749D1*
X3012761Y2306135D1*
X3009075Y2302757D1*
X3005174Y2299631D1*
X3001075Y2296770D1*
X2996795Y2294187D1*
X2992353Y2291894D1*
X2987769Y2289900D1*
X2983062Y2288214D1*
X2978255Y2286843D1*
X2973367Y2285794D1*
X2968420Y2285072D1*
X2963437Y2284678D1*
X2958438Y2284616D1*
X2953446Y2284885D1*
X2948483Y2285485D1*
X2943571Y2286412D1*
X2938731Y2287662D1*
X2933984Y2289230D1*
X2929352Y2291110D1*
X2924854Y2293292D1*
X2920511Y2295768D1*
X2916341Y2298526D1*
X2912364Y2301554D1*
X2908596Y2304839D1*
X2905053Y2308366D1*
X2901753Y2312121D1*
X2898708Y2316086D1*
X2895933Y2320244D1*
X2893439Y2324577D1*
X2891238Y2329065D1*
X2889339Y2333689D1*
X2887751Y2338430D1*
X2886481Y2343264D1*
X2885533Y2348173D1*
X2884913Y2353133D1*
X2884623Y2358124D1*
X2884665Y2363123D1*
X2885037Y2368108D1*
X2885739Y2373058D1*
X2886768Y2377950D1*
X2888118Y2382763D1*
X2889785Y2387476D1*
X2891760Y2392069D1*
X2894035Y2396520D1*
X2896109Y2399990D1*
X2893439Y2404577D1*
X2891238Y2409065D1*
X2889339Y2413689D1*
X2887751Y2418430D1*
X2886481Y2423264D1*
X2885533Y2428173D1*
X2884913Y2433133D1*
X2884623Y2438124D1*
X2884665Y2443123D1*
X2885037Y2448108D1*
X2885739Y2453058D1*
X2886768Y2457950D1*
X2888118Y2462763D1*
X2889785Y2467476D1*
X2891760Y2472069D1*
X2894035Y2476520D1*
X2896109Y2479990D1*
X2893439Y2484577D1*
X2891238Y2489065D1*
X2889339Y2493689D1*
X2887751Y2498430D1*
X2886481Y2503264D1*
X2885533Y2508173D1*
X2884913Y2513133D1*
X2884623Y2518124D1*
X2884665Y2523123D1*
X2885037Y2528108D1*
X2885739Y2533058D1*
X2886768Y2537950D1*
X2888118Y2542763D1*
X2889785Y2547476D1*
X2891760Y2552069D1*
X2894035Y2556520D1*
X2896600Y2560811D1*
X2899443Y2564923D1*
X2902553Y2568837D1*
X2905915Y2572536D1*
X2909516Y2576004D1*
X2913338Y2579227D1*
X2917365Y2582188D1*
X2921579Y2584877D1*
X2925963Y2587280D1*
X2930496Y2589388D1*
X2935159Y2591190D1*
X2939931Y2592680D1*
X2944791Y2593850D1*
X2949718Y2594696D1*
X2954690Y2595213D1*
X2959686Y2595399D1*
X2964683Y2595254D1*
X2969659Y2594779D1*
X2974593Y2593974D1*
X2979463Y2592845D1*
X2984247Y2591395D1*
X2988925Y2589631D1*
X2993475Y2587562D1*
X2997879Y2585195D1*
X3002116Y2582542D1*
X3006167Y2579613D1*
X3010016Y2576423D1*
X3013645Y2572985D1*
X3017038Y2569314D1*
X3020180Y2565426D1*
X3023058Y2561338D1*
X3025659Y2557069D1*
X3027971Y2552636D1*
X3029984Y2548060D1*
X3031690Y2543361D1*
X3033080Y2538559D1*
X3034149Y2533676D1*
X3034893Y2528733D1*
X3035400Y2520000D1*
X3035234Y2515004D1*
X3679955Y2966094D2*
X3676795Y2964187D1*
X3672353Y2961894D1*
X3667769Y2959900D1*
X3663062Y2958214D1*
X3658255Y2956843D1*
X3653367Y2955794D1*
X3648420Y2955072D1*
X3643437Y2954678D1*
X3638438Y2954616D1*
X3633446Y2954885D1*
X3628483Y2955485D1*
X3623571Y2956412D1*
X3618731Y2957662D1*
X3613984Y2959230D1*
X3609352Y2961110D1*
X3604854Y2963292D1*
X3600511Y2965768D1*
X3596341Y2968526D1*
X3592364Y2971554D1*
X3588596Y2974839D1*
X3585053Y2978366D1*
X3581753Y2982121D1*
X3578708Y2986086D1*
X3575933Y2990244D1*
X3573439Y2994577D1*
X3571238Y2999065D1*
X3569339Y3003689D1*
X3567751Y3008430D1*
X3566481Y3013264D1*
X3565533Y3018173D1*
X3564913Y3023133D1*
X3564623Y3028124D1*
X3564665Y3033123D1*
X3565037Y3038108D1*
X3565739Y3043058D1*
X3566768Y3047950D1*
X3568118Y3052763D1*
X3569785Y3057476D1*
X3571760Y3062069D1*
X3574035Y3066520D1*
X3576600Y3070811D1*
X3579443Y3074923D1*
X3582553Y3078837D1*
X3585915Y3082536D1*
X3589516Y3086004D1*
X3593338Y3089227D1*
X3597365Y3092188D1*
X3601579Y3094877D1*
X3605963Y3097280D1*
X3610496Y3099388D1*
X3615159Y3101190D1*
X3619931Y3102680D1*
X3624791Y3103850D1*
X3629718Y3104696D1*
X3634690Y3105213D1*
X3639686Y3105399D1*
X3644683Y3105254D1*
X3649659Y3104779D1*
X3654593Y3103974D1*
X3659463Y3102845D1*
X3664247Y3101395D1*
X3668925Y3099631D1*
X3673475Y3097562D1*
X3679947Y3093899D1*
X3685963Y3097280D1*
X3690496Y3099388D1*
X3695159Y3101190D1*
X3699931Y3102680D1*
X3704791Y3103850D1*
X3709718Y3104696D1*
X3714690Y3105213D1*
X3719686Y3105399D1*
X3724683Y3105254D1*
X3729659Y3104779D1*
X3734593Y3103974D1*
X3739463Y3102845D1*
X3744247Y3101395D1*
X3748925Y3099631D1*
X3753475Y3097562D1*
X3759947Y3093899D1*
X3765963Y3097280D1*
X3770496Y3099388D1*
X3775159Y3101190D1*
X3779931Y3102680D1*
X3784791Y3103850D1*
X3789718Y3104696D1*
X3794690Y3105213D1*
X3799686Y3105399D1*
X3804683Y3105254D1*
X3809659Y3104779D1*
X3814593Y3103974D1*
X3819463Y3102845D1*
X3824247Y3101395D1*
X3828925Y3099631D1*
X3833475Y3097562D1*
X3837879Y3095195D1*
X3842116Y3092542D1*
X3846167Y3089613D1*
X3850016Y3086423D1*
X3853645Y3082985D1*
X3857038Y3079314D1*
X3860180Y3075426D1*
X3863058Y3071338D1*
X3865659Y3067069D1*
X3867971Y3062636D1*
X3869984Y3058060D1*
X3871690Y3053361D1*
X3873080Y3048559D1*
X3874149Y3043676D1*
X3874893Y3038733D1*
X3875400Y3030000D1*
X3875234Y3025004D1*
X3874738Y3020029D1*
X3873913Y3015099D1*
X3872763Y3010234D1*
X3871293Y3005456D1*
X3869510Y3000785D1*
X3867421Y2996243D1*
X3865036Y2991850D1*
X3862366Y2987624D1*
X3859420Y2983585D1*
X3856214Y2979749D1*
X3852761Y2976135D1*
X3849075Y2972757D1*
X3845174Y2969631D1*
X3841075Y2966770D1*
X3836795Y2964187D1*
X3832353Y2961894D1*
X3827769Y2959900D1*
X3823062Y2958214D1*
X3818255Y2956843D1*
X3813367Y2955794D1*
X3808420Y2955072D1*
X3803437Y2954678D1*
X3798438Y2954616D1*
X3793446Y2954885D1*
X3788483Y2955485D1*
X3783571Y2956412D1*
X3778731Y2957662D1*
X3773984Y2959230D1*
X3769352Y2961110D1*
X3764854Y2963292D1*
X3760006Y2966102D1*
X3756795Y2964187D1*
X3752353Y2961894D1*
X3747769Y2959900D1*
X3743062Y2958214D1*
X3738255Y2956843D1*
X3733367Y2955794D1*
X3728420Y2955072D1*
X3723437Y2954678D1*
X3718438Y2954616D1*
X3713446Y2954885D1*
X3708483Y2955485D1*
X3703571Y2956412D1*
X3698731Y2957662D1*
X3693984Y2959230D1*
X3689352Y2961110D1*
X3684854Y2963292D1*
X3680006Y2966102D1*
X3675234Y1665004D2*
X3674738Y1660029D1*
X3673913Y1655099D1*
X3672763Y1650234D1*
X3671293Y1645456D1*
X3669510Y1640785D1*
X3667421Y1636243D1*
X3665036Y1631850D1*
X3662366Y1627624D1*
X3659420Y1623585D1*
X3656214Y1619749D1*
X3652761Y1616135D1*
X3649075Y1612757D1*
X3645174Y1609631D1*
X3641075Y1606770D1*
X3636795Y1604187D1*
X3632353Y1601894D1*
X3627769Y1599900D1*
X3623062Y1598214D1*
X3618255Y1596843D1*
X3613367Y1595794D1*
X3608420Y1595072D1*
X3603437Y1594678D1*
X3598438Y1594616D1*
X3593446Y1594885D1*
X3588483Y1595485D1*
X3583571Y1596412D1*
X3578731Y1597662D1*
X3573984Y1599230D1*
X3569352Y1601110D1*
X3564854Y1603292D1*
X3560511Y1605768D1*
X3556341Y1608526D1*
X3552364Y1611554D1*
X3548596Y1614839D1*
X3545053Y1618366D1*
X3541753Y1622121D1*
X3538708Y1626086D1*
X3535933Y1630244D1*
X3533439Y1634577D1*
X3531238Y1639065D1*
X3529339Y1643689D1*
X3527751Y1648430D1*
X3526481Y1653264D1*
X3525533Y1658173D1*
X3524913Y1663133D1*
X3524623Y1668124D1*
X3524665Y1673123D1*
X3525037Y1678108D1*
X3525739Y1683058D1*
X3526768Y1687950D1*
X3528118Y1692763D1*
X3529785Y1697476D1*
X3531760Y1702069D1*
X3534035Y1706520D1*
X3536600Y1710811D1*
X3539443Y1714923D1*
X3542553Y1718837D1*
X3545915Y1722536D1*
X3549516Y1726004D1*
X3553338Y1729227D1*
X3557365Y1732188D1*
X3561579Y1734877D1*
X3565963Y1737280D1*
X3570496Y1739388D1*
X3575159Y1741190D1*
X3579931Y1742680D1*
X3584791Y1743850D1*
X3589718Y1744696D1*
X3594690Y1745213D1*
X3599686Y1745399D1*
X3604683Y1745254D1*
X3609659Y1744779D1*
X3614593Y1743974D1*
X3619463Y1742845D1*
X3624247Y1741395D1*
X3628925Y1739631D1*
X3633475Y1737562D1*
X3637879Y1735195D1*
X3642116Y1732542D1*
X3646167Y1729613D1*
X3650016Y1726423D1*
X3653645Y1722985D1*
X3657038Y1719314D1*
X3660180Y1715426D1*
X3663058Y1711338D1*
X3665659Y1707069D1*
X3667971Y1702636D1*
X3669984Y1698060D1*
X3671690Y1693361D1*
X3673080Y1688559D1*
X3674149Y1683676D1*
X3674893Y1678733D1*
X3675400Y1670000D1*
X3675234Y1665004D1*
Y1485004D2*
X3674738Y1480029D1*
X3673913Y1475099D1*
X3672763Y1470234D1*
X3671293Y1465456D1*
X3669510Y1460785D1*
X3667421Y1456243D1*
X3665036Y1451850D1*
X3662366Y1447624D1*
X3659420Y1443585D1*
X3656214Y1439749D1*
X3652761Y1436135D1*
X3649075Y1432757D1*
X3645174Y1429631D1*
X3641075Y1426770D1*
X3636795Y1424187D1*
X3632353Y1421894D1*
X3627769Y1419900D1*
X3623062Y1418214D1*
X3618255Y1416843D1*
X3613367Y1415794D1*
X3608420Y1415072D1*
X3603437Y1414678D1*
X3598438Y1414616D1*
X3593446Y1414885D1*
X3588483Y1415485D1*
X3583571Y1416412D1*
X3578731Y1417662D1*
X3573984Y1419230D1*
X3569352Y1421110D1*
X3564854Y1423292D1*
X3560511Y1425768D1*
X3556341Y1428526D1*
X3552364Y1431554D1*
X3548596Y1434839D1*
X3545053Y1438366D1*
X3541753Y1442121D1*
X3538708Y1446086D1*
X3535933Y1450244D1*
X3533439Y1454577D1*
X3531238Y1459065D1*
X3529339Y1463689D1*
X3527751Y1468430D1*
X3526481Y1473264D1*
X3525533Y1478173D1*
X3524913Y1483133D1*
X3524623Y1488124D1*
X3524665Y1493123D1*
X3525037Y1498108D1*
X3525739Y1503058D1*
X3526768Y1507950D1*
X3528118Y1512763D1*
X3529785Y1517476D1*
X3531760Y1522069D1*
X3534035Y1526520D1*
X3536600Y1530811D1*
X3539443Y1534923D1*
X3542553Y1538837D1*
X3545915Y1542536D1*
X3549516Y1546004D1*
X3553338Y1549227D1*
X3557365Y1552188D1*
X3561579Y1554877D1*
X3565963Y1557280D1*
X3570496Y1559388D1*
X3575159Y1561190D1*
X3579931Y1562680D1*
X3584791Y1563850D1*
X3589718Y1564696D1*
X3594690Y1565213D1*
X3599686Y1565399D1*
X3604683Y1565254D1*
X3609659Y1564779D1*
X3614593Y1563974D1*
X3619463Y1562845D1*
X3624247Y1561395D1*
X3628925Y1559631D1*
X3633475Y1557562D1*
X3637879Y1555195D1*
X3642116Y1552542D1*
X3646167Y1549613D1*
X3650016Y1546423D1*
X3653645Y1542985D1*
X3657038Y1539314D1*
X3660180Y1535426D1*
X3663058Y1531338D1*
X3665659Y1527069D1*
X3667971Y1522636D1*
X3669984Y1518060D1*
X3671690Y1513361D1*
X3673080Y1508559D1*
X3674149Y1503676D1*
X3674893Y1498733D1*
X3675400Y1490000D1*
X3675234Y1485004D1*
X3552903Y1034404D2*
X3546341Y1038526D1*
X3542364Y1041554D1*
X3538596Y1044839D1*
X3535053Y1048366D1*
X3531753Y1052121D1*
X3528708Y1056086D1*
X3525933Y1060244D1*
X3523439Y1064577D1*
X3521238Y1069065D1*
X3519339Y1073689D1*
X3517751Y1078430D1*
X3516481Y1083264D1*
X3515533Y1088173D1*
X3514913Y1093133D1*
X3514623Y1098124D1*
X3514665Y1103123D1*
X3515037Y1108108D1*
X3515739Y1113058D1*
X3516768Y1117950D1*
X3518118Y1122763D1*
X3519785Y1127476D1*
X3521760Y1132069D1*
X3524035Y1136520D1*
X3526600Y1140811D1*
X3529443Y1144923D1*
X3532553Y1148837D1*
X3535915Y1152536D1*
X3539516Y1156004D1*
X3543338Y1159227D1*
X3547365Y1162188D1*
X3551579Y1164877D1*
X3555963Y1167280D1*
X3560496Y1169388D1*
X3565159Y1171190D1*
X3569931Y1172680D1*
X3574791Y1173850D1*
X3579718Y1174696D1*
X3584690Y1175213D1*
X3589686Y1175399D1*
X3594683Y1175254D1*
X3599659Y1174779D1*
X3604593Y1173974D1*
X3609463Y1172845D1*
X3614247Y1171395D1*
X3618925Y1169631D1*
X3623475Y1167562D1*
X3627879Y1165195D1*
X3632116Y1162542D1*
X3636167Y1159613D1*
X3640016Y1156423D1*
X3643645Y1152985D1*
X3647038Y1149314D1*
X3650180Y1145426D1*
X3653739Y1140221D1*
X3659516Y1146004D1*
X3663338Y1149227D1*
X3667365Y1152188D1*
X3671579Y1154877D1*
X3675963Y1157280D1*
X3680496Y1159388D1*
X3685159Y1161190D1*
X3689931Y1162680D1*
X3694791Y1163850D1*
X3699718Y1164696D1*
X3704690Y1165213D1*
X3709686Y1165399D1*
X3714683Y1165254D1*
X3719659Y1164779D1*
X3724593Y1163974D1*
X3729463Y1162845D1*
X3734247Y1161395D1*
X3738925Y1159631D1*
X3743475Y1157562D1*
X3747879Y1155195D1*
X3752116Y1152542D1*
X3756167Y1149613D1*
X3760016Y1146423D1*
X3763645Y1142985D1*
X3767038Y1139314D1*
X3770180Y1135426D1*
X3773058Y1131338D1*
X3775659Y1127069D1*
X3777971Y1122636D1*
X3779984Y1118060D1*
X3781690Y1113361D1*
X3783080Y1108559D1*
X3784149Y1103676D1*
X3784893Y1098733D1*
X3785400Y1090000D1*
X3785234Y1085004D1*
X3784738Y1080029D1*
X3783913Y1075099D1*
X3782763Y1070234D1*
X3781293Y1065456D1*
X3779510Y1060785D1*
X3777421Y1056243D1*
X3775036Y1051850D1*
X3772366Y1047624D1*
X3769420Y1043585D1*
X3766214Y1039749D1*
X3762761Y1036135D1*
X3759075Y1032757D1*
X3755174Y1029631D1*
X3752084Y1027474D1*
X3865654Y1027477D1*
X4096124Y1047094D1*
X4324099Y1086186D1*
X4547925Y1144466D1*
X4766027Y1221525D1*
X4976797Y1316797D1*
X5178728Y1429603D1*
X5370363Y1559129D1*
X5550326Y1704436D1*
X5717316Y1864485D1*
X5870132Y2038117D1*
X6007672Y2224085D1*
X6128946Y2421044D1*
X6233078Y2627581D1*
X6319322Y2842204D1*
X6387051Y3063368D1*
X6435781Y3289479D1*
X6465160Y3518908D1*
X6474979Y3750003D1*
X6465160Y3981096D1*
X6435780Y4210524D1*
X6387049Y4436635D1*
X6375314Y4474956D1*
X4745410Y4474950D1*
X4745400Y3358809D1*
X5222103Y2882103D1*
X5224523Y2879485D1*
X5226730Y2876686D1*
X5228710Y2873722D1*
X5230452Y2870611D1*
X5231944Y2867374D1*
X5233178Y2864029D1*
X5234146Y2860598D1*
X5234841Y2857102D1*
X5235260Y2853562D1*
X5235400Y2845000D1*
Y1760000D1*
X5235260Y1756438D1*
X5234841Y1752898D1*
X5234146Y1749402D1*
X5233178Y1745971D1*
X5231944Y1742626D1*
X5230452Y1739389D1*
X5228710Y1736278D1*
X5226730Y1733314D1*
X5224523Y1730515D1*
X5218567Y1724362D1*
X4722103Y1227897D1*
X4719485Y1225477D1*
X4716686Y1223270D1*
X4713722Y1221290D1*
X4710611Y1219548D1*
X4707374Y1218056D1*
X4704029Y1216822D1*
X4700598Y1215854D1*
X4697102Y1215159D1*
X4693562Y1214740D1*
X4685000Y1214600D1*
X3408809D1*
X3354665Y1160460D1*
X3355307Y1153751D1*
X3355234Y1145004D1*
X3354738Y1140029D1*
X3353913Y1135099D1*
X3352763Y1130234D1*
X3351293Y1125456D1*
X3349510Y1120785D1*
X3347421Y1116243D1*
X3345036Y1111850D1*
X3342366Y1107624D1*
X3339420Y1103585D1*
X3336214Y1099749D1*
X3332761Y1096135D1*
X3329075Y1092757D1*
X3325174Y1089631D1*
X3321075Y1086770D1*
X3316795Y1084187D1*
X3312353Y1081894D1*
X3307769Y1079900D1*
X3303062Y1078214D1*
X3298255Y1076843D1*
X3293367Y1075794D1*
X3288420Y1075072D1*
X3283437Y1074678D1*
X3278438Y1074616D1*
X3273446Y1074885D1*
X3268483Y1075485D1*
X3263571Y1076412D1*
X3258731Y1077662D1*
X3253984Y1079230D1*
X3249352Y1081110D1*
X3244854Y1083292D1*
X3240511Y1085768D1*
X3236341Y1088526D1*
X3232364Y1091554D1*
X3228596Y1094839D1*
X3225053Y1098366D1*
X3221753Y1102121D1*
X3218708Y1106086D1*
X3215933Y1110244D1*
X3213439Y1114577D1*
X3211238Y1119065D1*
X3209339Y1123689D1*
X3207751Y1128430D1*
X3206481Y1133264D1*
X3205533Y1138173D1*
X3204913Y1143133D1*
X3204623Y1148124D1*
X3204665Y1153123D1*
X3205037Y1158108D1*
X3205739Y1163058D1*
X3206768Y1167950D1*
X3208118Y1172763D1*
X3209785Y1177476D1*
X3211760Y1182069D1*
X3214035Y1186520D1*
X3216600Y1190811D1*
X3219443Y1194923D1*
X3222553Y1198837D1*
X3225915Y1202536D1*
X3229516Y1206004D1*
X3233338Y1209227D1*
X3237365Y1212188D1*
X3241579Y1214877D1*
X3245963Y1217280D1*
X3250496Y1219388D1*
X3255159Y1221190D1*
X3259931Y1222680D1*
X3264791Y1223850D1*
X3269718Y1224696D1*
X3274690Y1225213D1*
X3279686Y1225399D1*
X3284683Y1225254D1*
X3290449Y1224650D1*
X3357897Y1292103D1*
X3360515Y1294523D1*
X3363314Y1296730D1*
X3366278Y1298710D1*
X3369389Y1300452D1*
X3372626Y1301944D1*
X3375971Y1303178D1*
X3379402Y1304146D1*
X3382898Y1304841D1*
X3386438Y1305260D1*
X3395000Y1305400D1*
X4671191D1*
X5144599Y1778805D1*
X5144600Y2831191D1*
X4667897Y3307897D1*
X4665477Y3310515D1*
X4663270Y3313314D1*
X4661290Y3316278D1*
X4659548Y3319389D1*
X4658056Y3322626D1*
X4656822Y3325971D1*
X4655854Y3329402D1*
X4655159Y3332898D1*
X4654740Y3336438D1*
X4654600Y3345000D1*
Y5120000D1*
X4654950Y5130000D1*
X4655058Y5212750D1*
X4655918Y5218182D1*
X4657618Y5223413D1*
X4660115Y5228314D1*
X4663348Y5232763D1*
X4667237Y5236652D1*
X4671686Y5239885D1*
X4676587Y5242382D1*
X4681818Y5244082D1*
X4687250Y5244942D1*
X4700000Y5245050D1*
X4760840D1*
X4777897Y5262103D1*
X4780515Y5264523D1*
X4783314Y5266730D1*
X4786278Y5268710D1*
X4789389Y5270452D1*
X4792626Y5271944D1*
X4795971Y5273178D1*
X4799402Y5274146D1*
X4802898Y5274841D1*
X4806438Y5275260D1*
X4815000Y5275400D1*
X5049785D1*
X5052553Y5278837D1*
X5055915Y5282536D1*
X5059516Y5286004D1*
X5063338Y5289227D1*
X5067365Y5292188D1*
X5071579Y5294877D1*
X5075963Y5297280D1*
X5080496Y5299388D1*
X5085159Y5301190D1*
X5089931Y5302680D1*
X5094791Y5303850D1*
X5099718Y5304696D1*
X5104690Y5305213D1*
X5109686Y5305399D1*
X5114683Y5305254D1*
X5119659Y5304779D1*
X5124593Y5303974D1*
X5129463Y5302845D1*
X5134247Y5301395D1*
X5138925Y5299631D1*
X5143475Y5297562D1*
X5147879Y5295195D1*
X5152116Y5292542D1*
X5156167Y5289613D1*
X5160016Y5286423D1*
X5163645Y5282985D1*
X5167038Y5279314D1*
X5170180Y5275426D1*
X5173058Y5271338D1*
X5175659Y5267069D1*
X5177971Y5262636D1*
X5179984Y5258060D1*
X5181690Y5253361D1*
X5183080Y5248559D1*
X5183844Y5245069D1*
X6026660Y5245050D1*
X6007669Y5275920D1*
X5870131Y5461886D1*
X5717315Y5635519D1*
X5550324Y5795565D1*
X5370362Y5940875D1*
X5178726Y6070397D1*
X4976794Y6183203D1*
X4766024Y6278478D1*
X4547935Y6355533D1*
X4324096Y6413815D1*
X4096134Y6452904D1*
X3865651Y6472523D1*
X3634349D1*
X3403879Y6452905D1*
X3175904Y6413817D1*
X2952063Y6355534D1*
X2733973Y6278475D1*
X2523203Y6183203D1*
X2321275Y6070397D1*
X2129637Y5940874D1*
X1949674Y5795565D1*
X1782684Y5635518D1*
X1629869Y5461884D1*
X1492328Y5275918D1*
X1371054Y5078957D1*
X1266922Y4872419D1*
X1180681Y4657796D1*
X1112949Y4436633D1*
X1064219Y4210521D1*
X1034839Y3981092D1*
X1034057Y3962672D1*
X1037768Y3968744D1*
X1043469Y3976958D1*
X1049720Y3984760D1*
X1056493Y3992115D1*
X1063755Y3998987D1*
X1071472Y4005343D1*
X1079608Y4011154D1*
X1088124Y4016392D1*
X1096980Y4021033D1*
X1106134Y4025054D1*
X1115542Y4028437D1*
X1125161Y4031164D1*
X1134944Y4033225D1*
X1144846Y4034608D1*
X1154820Y4035308D1*
X1164818Y4035320D1*
X1174793Y4034646D1*
X1184698Y4033287D1*
X1194487Y4031251D1*
X1204112Y4028547D1*
X1213529Y4025188D1*
X1222693Y4021190D1*
X1231560Y4016571D1*
X1240089Y4011354D1*
X1248240Y4005564D1*
X1255973Y3999226D1*
X1263252Y3992373D1*
X1270043Y3985035D1*
X1276314Y3977248D1*
X1282035Y3969049D1*
X1287179Y3960475D1*
X1291721Y3951569D1*
X1295641Y3942371D1*
X1298919Y3932926D1*
X1301541Y3923278D1*
X1303493Y3913472D1*
X1304767Y3903555D1*
X1305356Y3893575D1*
X1305314Y3885001D1*
X1304627Y3875027D1*
X1303256Y3865123D1*
X1301208Y3855337D1*
X1298492Y3845715D1*
X1295121Y3836302D1*
X1291111Y3827143D1*
X1286482Y3818282D1*
X1281254Y3809759D1*
X1275453Y3801616D1*
X1269107Y3793891D1*
X1262244Y3786620D1*
X1254898Y3779838D1*
X1247103Y3773577D1*
X1238896Y3767867D1*
X1230317Y3762734D1*
X1221404Y3758202D1*
X1212202Y3754294D1*
X1202752Y3751027D1*
X1199323Y3749982D1*
X1208850Y3746948D1*
X1218145Y3743268D1*
X1227166Y3738957D1*
X1235870Y3734036D1*
X1244214Y3728529D1*
X1252161Y3722461D1*
X1259671Y3715862D1*
X1266711Y3708762D1*
X1273245Y3701195D1*
X1279245Y3693197D1*
X1284680Y3684806D1*
X1289526Y3676061D1*
X1293760Y3667004D1*
X1297361Y3657677D1*
X1300313Y3648124D1*
X1302601Y3638392D1*
X1304215Y3628525D1*
X1305147Y3618570D1*
X1305400Y3610000D1*
X1305056Y3600008D1*
X1304027Y3590063D1*
X1302316Y3580212D1*
X1299933Y3570503D1*
X1296887Y3560980D1*
X1293195Y3551688D1*
X1288873Y3542673D1*
X1283941Y3533976D1*
X1278424Y3525638D1*
X1272346Y3517699D1*
X1265738Y3510197D1*
X1258629Y3503166D1*
X1251054Y3496641D1*
X1243049Y3490651D1*
X1234651Y3485226D1*
X1225899Y3480391D1*
X1216837Y3476169D1*
X1207505Y3472579D1*
X1197949Y3469640D1*
X1188214Y3467364D1*
X1178345Y3465762D1*
X1168389Y3464842D1*
X1158394Y3464609D1*
X1148406Y3465063D1*
X1138473Y3466202D1*
X1128642Y3468022D1*
X1118959Y3470512D1*
X1109470Y3473662D1*
X1100221Y3477457D1*
X1091253Y3481879D1*
X1082611Y3486906D1*
X1074335Y3492515D1*
X1066464Y3498680D1*
X1059035Y3505371D1*
X1052083Y3512557D1*
X1045642Y3520204D1*
X1039741Y3528275D1*
X1034056Y3537363D1*
X1034839Y3518918D1*
X1064220Y3289476D1*
X1112951Y3063365D1*
X1180680Y2842201D1*
X1266925Y2627576D1*
X1371058Y2421041D1*
X1492332Y2224080D1*
X1629873Y2038115D1*
X1782689Y1864481D1*
X1949679Y1704435D1*
X1967532Y1690055D1*
X1963726Y1699300D1*
X1960564Y1708785D1*
X1958061Y1718465D1*
X1956229Y1728294D1*
X1955078Y1738225D1*
X1954611Y1748212D1*
X1954832Y1758208D1*
X1955739Y1768165D1*
X1957328Y1778036D1*
X1959592Y1787774D1*
X1962520Y1797334D1*
X1966098Y1806670D1*
X1970309Y1815738D1*
X1975133Y1824495D1*
X1980548Y1832900D1*
X1986527Y1840913D1*
X1993043Y1848496D1*
X2000065Y1855613D1*
X2007559Y1862231D1*
X2015490Y1868319D1*
X2023821Y1873846D1*
X2029204Y1876982D1*
X2022611Y1880906D1*
X2014335Y1886515D1*
X2006464Y1892680D1*
X1999035Y1899371D1*
X1992083Y1906557D1*
X1985642Y1914204D1*
X1979741Y1922275D1*
X1974409Y1930732D1*
X1969671Y1939536D1*
X1965549Y1948645D1*
X1962063Y1958016D1*
X1959229Y1967604D1*
X1957061Y1977364D1*
X1955568Y1987250D1*
X1954758Y1997215D1*
X1954635Y2007212D1*
X1955200Y2017194D1*
X1956449Y2027114D1*
X1958377Y2036924D1*
X1960974Y2046579D1*
X1964229Y2056033D1*
X1968126Y2065240D1*
X1972646Y2074158D1*
X1977768Y2082744D1*
X1983469Y2090958D1*
X1989720Y2098760D1*
X1996493Y2106115D1*
X2003755Y2112987D1*
X2011472Y2119343D1*
X2019608Y2125154D1*
X2028124Y2130392D1*
X2029204Y2130982D1*
X2022611Y2134906D1*
X2014335Y2140515D1*
X2006464Y2146680D1*
X1999035Y2153371D1*
X1992083Y2160557D1*
X1985642Y2168204D1*
X1979741Y2176275D1*
X1974409Y2184732D1*
X1969671Y2193536D1*
X1965549Y2202645D1*
X1962063Y2212016D1*
X1959229Y2221604D1*
X1957061Y2231364D1*
X1955568Y2241250D1*
X1954758Y2251215D1*
X1954635Y2261212D1*
X1955200Y2271194D1*
X1956449Y2281114D1*
X1958377Y2290924D1*
X1960974Y2300579D1*
X1964229Y2310033D1*
X1968126Y2319240D1*
X1972646Y2328158D1*
X1977768Y2336744D1*
X1983469Y2344958D1*
X1989720Y2352760D1*
X1996493Y2360115D1*
X2003755Y2366987D1*
X2011472Y2373343D1*
X2019608Y2379154D1*
X2028124Y2384392D1*
X2029204Y2384982D1*
X2022611Y2388906D1*
X2014335Y2394515D1*
X2006464Y2400680D1*
X1999035Y2407371D1*
X1992083Y2414557D1*
X1985642Y2422204D1*
X1979741Y2430275D1*
X1974409Y2438732D1*
X1969671Y2447536D1*
X1965549Y2456645D1*
X1962063Y2466016D1*
X1959229Y2475604D1*
X1957061Y2485364D1*
X1955568Y2495250D1*
X1954758Y2505215D1*
X1954635Y2515212D1*
X1955200Y2525194D1*
X1956449Y2535114D1*
X1958377Y2544924D1*
X1960974Y2554579D1*
X1964229Y2564033D1*
X1968126Y2573240D1*
X1972646Y2582158D1*
X1977768Y2590744D1*
X1983469Y2598958D1*
X1989720Y2606760D1*
X1996493Y2614115D1*
X2003755Y2620987D1*
X2011472Y2627343D1*
X2019608Y2633154D1*
X2028124Y2638392D1*
X2029204Y2638982D1*
X2022611Y2642906D1*
X2014335Y2648515D1*
X2006464Y2654680D1*
X1999035Y2661371D1*
X1992083Y2668557D1*
X1985642Y2676204D1*
X1979741Y2684275D1*
X1974409Y2692732D1*
X1969671Y2701536D1*
X1965549Y2710645D1*
X1962063Y2720016D1*
X1959229Y2729604D1*
X1957061Y2739364D1*
X1955568Y2749250D1*
X1954758Y2759215D1*
X1954635Y2769212D1*
X1955200Y2779194D1*
X1956449Y2789114D1*
X1958377Y2798924D1*
X1960974Y2808579D1*
X1964229Y2818033D1*
X1968126Y2827240D1*
X1972646Y2836158D1*
X1977768Y2844744D1*
X1983469Y2852958D1*
X1989720Y2860760D1*
X1996493Y2868115D1*
X2003755Y2874987D1*
X2011472Y2881343D1*
X2019608Y2887154D1*
X2028124Y2892392D1*
X2036980Y2897033D1*
X2046134Y2901054D1*
X2055542Y2904437D1*
X2065161Y2907164D1*
X2074944Y2909225D1*
X2084846Y2910608D1*
X2094820Y2911308D1*
X2104818Y2911320D1*
X2114793Y2910646D1*
X2124698Y2909287D1*
X2134487Y2907251D1*
X2144112Y2904547D1*
X2153529Y2901188D1*
X2162693Y2897190D1*
X2171560Y2892571D1*
X2180089Y2887354D1*
X2188240Y2881564D1*
X2195973Y2875226D1*
X2203252Y2868373D1*
X2210043Y2861035D1*
X2216314Y2853248D1*
X2222035Y2845049D1*
X2227179Y2836475D1*
X2231721Y2827569D1*
X2235641Y2818371D1*
X2238919Y2808926D1*
X2241541Y2799278D1*
X2243493Y2789472D1*
X2244767Y2779555D1*
X2245356Y2769575D1*
X2245314Y2761001D1*
X2244627Y2751027D1*
X2243256Y2741123D1*
X2241208Y2731337D1*
X2238492Y2721715D1*
X2235121Y2712302D1*
X2231111Y2703143D1*
X2226482Y2694282D1*
X2221254Y2685759D1*
X2215453Y2677616D1*
X2209107Y2669891D1*
X2202244Y2662620D1*
X2194898Y2655838D1*
X2187103Y2649577D1*
X2178896Y2643867D1*
X2170774Y2638996D1*
X2175870Y2636036D1*
X2184214Y2630529D1*
X2192161Y2624461D1*
X2199671Y2617862D1*
X2206711Y2610762D1*
X2213245Y2603195D1*
X2219245Y2595197D1*
X2224680Y2586806D1*
X2229526Y2578061D1*
X2233760Y2569004D1*
X2237361Y2559677D1*
X2240313Y2550124D1*
X2242601Y2540392D1*
X2244215Y2530525D1*
X2245147Y2520570D1*
X2245400Y2512000D1*
X2245056Y2502008D1*
X2244027Y2492063D1*
X2242316Y2482212D1*
X2239933Y2472503D1*
X2236887Y2462980D1*
X2233195Y2453688D1*
X2228873Y2444673D1*
X2223941Y2435976D1*
X2218424Y2427638D1*
X2212346Y2419699D1*
X2205738Y2412197D1*
X2198629Y2405166D1*
X2191054Y2398641D1*
X2183049Y2392651D1*
X2174651Y2387226D1*
X2170774Y2384996D1*
X2175870Y2382036D1*
X2184214Y2376529D1*
X2192161Y2370461D1*
X2199671Y2363862D1*
X2206711Y2356762D1*
X2213245Y2349195D1*
X2219245Y2341197D1*
X2224680Y2332806D1*
X2229526Y2324061D1*
X2233760Y2315004D1*
X2237361Y2305677D1*
X2240313Y2296124D1*
X2242601Y2286392D1*
X2244215Y2276525D1*
X2245147Y2266570D1*
X2245400Y2258000D1*
X2245056Y2248008D1*
X2244027Y2238063D1*
X2242316Y2228212D1*
X2239933Y2218503D1*
X2236887Y2208980D1*
X2233195Y2199688D1*
X2228873Y2190673D1*
X2223941Y2181976D1*
X2218424Y2173638D1*
X2212346Y2165699D1*
X2205738Y2158197D1*
X2198629Y2151166D1*
X2191054Y2144641D1*
X2183049Y2138651D1*
X2174651Y2133226D1*
X2170774Y2130996D1*
X2175870Y2128036D1*
X2184214Y2122529D1*
X2192161Y2116461D1*
X2199671Y2109862D1*
X2206711Y2102762D1*
X2213245Y2095195D1*
X2219245Y2087197D1*
X2224680Y2078806D1*
X2229526Y2070061D1*
X2233760Y2061004D1*
X2237361Y2051677D1*
X2240313Y2042124D1*
X2242601Y2032392D1*
X2244215Y2022525D1*
X2245147Y2012570D1*
X2245400Y2004000D1*
X2245056Y1994008D1*
X2244027Y1984063D1*
X2242316Y1974212D1*
X2239933Y1964503D1*
X2236887Y1954980D1*
X2233195Y1945688D1*
X2228873Y1936673D1*
X2223941Y1927976D1*
X2218424Y1919638D1*
X2212346Y1911699D1*
X2205738Y1904197D1*
X2198629Y1897166D1*
X2191054Y1890641D1*
X2183049Y1884651D1*
X2174651Y1879226D1*
X2170774Y1876996D1*
X2175870Y1874036D1*
X2184214Y1868529D1*
X2192161Y1862461D1*
X2199671Y1855862D1*
X2206711Y1848762D1*
X2213245Y1841195D1*
X2219245Y1833197D1*
X2224680Y1824806D1*
X2229526Y1816061D1*
X2233760Y1807004D1*
X2237361Y1797677D1*
X2240313Y1788124D1*
X2242601Y1778392D1*
X2244215Y1768525D1*
X2245147Y1758570D1*
X2245400Y1750000D1*
X2245056Y1740008D1*
X2244027Y1730063D1*
X2242316Y1720212D1*
X2239933Y1710503D1*
X2236887Y1700980D1*
X2233195Y1691688D1*
X2228873Y1682673D1*
X2223941Y1673976D1*
X2218424Y1665638D1*
X2212346Y1657699D1*
X2205738Y1650197D1*
X2198629Y1643166D1*
X2191054Y1636641D1*
X2183049Y1630651D1*
X2174651Y1625226D1*
X2165899Y1620391D1*
X2156837Y1616169D1*
X2147505Y1612579D1*
X2137949Y1609640D1*
X2128214Y1607364D1*
X2118345Y1605762D1*
X2108389Y1604842D1*
X2098394Y1604609D1*
X2088406Y1605063D1*
X2078473Y1606202D1*
X2069235Y1607901D1*
X2129639Y1559125D1*
X2321276Y1429600D1*
X2523206Y1316797D1*
X2733976Y1221522D1*
X2952065Y1144468D1*
X3175907Y1086185D1*
X3403882Y1047094D1*
X3552796Y1034418D1*
X3355234Y1645004D2*
X3354738Y1640029D1*
X3353913Y1635099D1*
X3352763Y1630234D1*
X3351293Y1625456D1*
X3349510Y1620785D1*
X3347421Y1616243D1*
X3345036Y1611850D1*
X3342366Y1607624D1*
X3339420Y1603585D1*
X3336214Y1599749D1*
X3332761Y1596135D1*
X3329075Y1592757D1*
X3325174Y1589631D1*
X3321075Y1586770D1*
X3316795Y1584187D1*
X3312353Y1581894D1*
X3307769Y1579900D1*
X3303062Y1578214D1*
X3298255Y1576843D1*
X3293367Y1575794D1*
X3288420Y1575072D1*
X3283437Y1574678D1*
X3278438Y1574616D1*
X3273446Y1574885D1*
X3268483Y1575485D1*
X3263571Y1576412D1*
X3258731Y1577662D1*
X3253984Y1579230D1*
X3249352Y1581110D1*
X3244854Y1583292D1*
X3240511Y1585768D1*
X3236341Y1588526D1*
X3232364Y1591554D1*
X3228596Y1594839D1*
X3225053Y1598366D1*
X3221753Y1602121D1*
X3218708Y1606086D1*
X3215933Y1610244D1*
X3213439Y1614577D1*
X3211238Y1619065D1*
X3209339Y1623689D1*
X3207751Y1628430D1*
X3206481Y1633264D1*
X3205533Y1638173D1*
X3204913Y1643133D1*
X3204623Y1648124D1*
X3204665Y1653123D1*
X3205037Y1658108D1*
X3205739Y1663058D1*
X3206768Y1667950D1*
X3208118Y1672763D1*
X3209785Y1677476D1*
X3211760Y1682069D1*
X3214035Y1686520D1*
X3216600Y1690811D1*
X3219443Y1694923D1*
X3222553Y1698837D1*
X3225915Y1702536D1*
X3229516Y1706004D1*
X3233338Y1709227D1*
X3237365Y1712188D1*
X3241579Y1714877D1*
X3245963Y1717280D1*
X3250496Y1719388D1*
X3255159Y1721190D1*
X3259931Y1722680D1*
X3264791Y1723850D1*
X3269718Y1724696D1*
X3274690Y1725213D1*
X3279686Y1725399D1*
X3284683Y1725254D1*
X3289659Y1724779D1*
X3294593Y1723974D1*
X3299463Y1722845D1*
X3304247Y1721395D1*
X3308925Y1719631D1*
X3313475Y1717562D1*
X3317879Y1715195D1*
X3322116Y1712542D1*
X3326167Y1709613D1*
X3330016Y1706423D1*
X3333645Y1702985D1*
X3337038Y1699314D1*
X3340180Y1695426D1*
X3343058Y1691338D1*
X3345659Y1687069D1*
X3347971Y1682636D1*
X3349984Y1678060D1*
X3351690Y1673361D1*
X3353080Y1668559D1*
X3354149Y1663676D1*
X3354893Y1658733D1*
X3355400Y1650000D1*
X3355234Y1645004D1*
Y1395004D2*
X3354738Y1390029D1*
X3353913Y1385099D1*
X3352763Y1380234D1*
X3351293Y1375456D1*
X3349510Y1370785D1*
X3347421Y1366243D1*
X3345036Y1361850D1*
X3342366Y1357624D1*
X3339420Y1353585D1*
X3336214Y1349749D1*
X3332761Y1346135D1*
X3329075Y1342757D1*
X3325174Y1339631D1*
X3321075Y1336770D1*
X3316795Y1334187D1*
X3312353Y1331894D1*
X3307769Y1329900D1*
X3303062Y1328214D1*
X3298255Y1326843D1*
X3293367Y1325794D1*
X3288420Y1325072D1*
X3283437Y1324678D1*
X3278438Y1324616D1*
X3273446Y1324885D1*
X3268483Y1325485D1*
X3263571Y1326412D1*
X3258731Y1327662D1*
X3253984Y1329230D1*
X3249352Y1331110D1*
X3244854Y1333292D1*
X3240511Y1335768D1*
X3236341Y1338526D1*
X3232364Y1341554D1*
X3228596Y1344839D1*
X3225053Y1348366D1*
X3221753Y1352121D1*
X3218708Y1356086D1*
X3215933Y1360244D1*
X3213439Y1364577D1*
X3211238Y1369065D1*
X3209339Y1373689D1*
X3207751Y1378430D1*
X3206481Y1383264D1*
X3205533Y1388173D1*
X3204913Y1393133D1*
X3204623Y1398124D1*
X3204665Y1403123D1*
X3205037Y1408108D1*
X3205739Y1413058D1*
X3206768Y1417950D1*
X3208118Y1422763D1*
X3209785Y1427476D1*
X3211760Y1432069D1*
X3214035Y1436520D1*
X3216600Y1440811D1*
X3219443Y1444923D1*
X3222553Y1448837D1*
X3225915Y1452536D1*
X3229516Y1456004D1*
X3233338Y1459227D1*
X3237365Y1462188D1*
X3241579Y1464877D1*
X3245963Y1467280D1*
X3250496Y1469388D1*
X3255159Y1471190D1*
X3259931Y1472680D1*
X3264791Y1473850D1*
X3269718Y1474696D1*
X3274690Y1475213D1*
X3279686Y1475399D1*
X3284683Y1475254D1*
X3289659Y1474779D1*
X3294593Y1473974D1*
X3299463Y1472845D1*
X3304247Y1471395D1*
X3308925Y1469631D1*
X3313475Y1467562D1*
X3317879Y1465195D1*
X3322116Y1462542D1*
X3326167Y1459613D1*
X3330016Y1456423D1*
X3333645Y1452985D1*
X3337038Y1449314D1*
X3340180Y1445426D1*
X3343058Y1441338D1*
X3345659Y1437069D1*
X3347971Y1432636D1*
X3349984Y1428060D1*
X3351690Y1423361D1*
X3353080Y1418559D1*
X3354149Y1413676D1*
X3354893Y1408733D1*
X3355400Y1400000D1*
X3355234Y1395004D1*
X2075234Y3475004D2*
X2074738Y3470029D1*
X2073913Y3465099D1*
X2072763Y3460234D1*
X2071293Y3455456D1*
X2069510Y3450785D1*
X2067421Y3446243D1*
X2065036Y3441850D1*
X2062366Y3437624D1*
X2059420Y3433585D1*
X2056214Y3429749D1*
X2052761Y3426135D1*
X2049075Y3422757D1*
X2045174Y3419631D1*
X2041075Y3416770D1*
X2036795Y3414187D1*
X2032353Y3411894D1*
X2027769Y3409900D1*
X2023062Y3408214D1*
X2018255Y3406843D1*
X2013367Y3405794D1*
X2008420Y3405072D1*
X2003437Y3404678D1*
X1998438Y3404616D1*
X1993446Y3404885D1*
X1988483Y3405485D1*
X1983571Y3406412D1*
X1978731Y3407662D1*
X1973984Y3409230D1*
X1969352Y3411110D1*
X1964854Y3413292D1*
X1960511Y3415768D1*
X1956341Y3418526D1*
X1952364Y3421554D1*
X1948596Y3424839D1*
X1945053Y3428366D1*
X1941753Y3432121D1*
X1938708Y3436086D1*
X1935933Y3440244D1*
X1933439Y3444577D1*
X1931238Y3449065D1*
X1929339Y3453689D1*
X1927751Y3458430D1*
X1926481Y3463264D1*
X1925533Y3468173D1*
X1924913Y3473133D1*
X1924623Y3478124D1*
X1924665Y3483123D1*
X1925037Y3488108D1*
X1925739Y3493058D1*
X1926768Y3497950D1*
X1928118Y3502763D1*
X1929785Y3507476D1*
X1931760Y3512069D1*
X1934035Y3516520D1*
X1936600Y3520811D1*
X1939443Y3524923D1*
X1942553Y3528837D1*
X1945915Y3532536D1*
X1949516Y3536004D1*
X1954612Y3540164D1*
X1954600Y3640000D1*
X1954740Y3643562D1*
X1955159Y3647102D1*
X1955854Y3650598D1*
X1956822Y3654029D1*
X1958056Y3657374D1*
X1959548Y3660611D1*
X1961290Y3663721D1*
X1963271Y3666685D1*
X1965478Y3669485D1*
X1971433Y3675638D1*
X2656594Y4360800D1*
X2656600Y5799207D1*
X2653439Y5804577D1*
X2651238Y5809065D1*
X2649339Y5813689D1*
X2647751Y5818430D1*
X2646481Y5823264D1*
X2645533Y5828173D1*
X2644913Y5833133D1*
X2644623Y5838124D1*
X2644665Y5843123D1*
X2645037Y5848108D1*
X2645739Y5853058D1*
X2646768Y5857950D1*
X2648118Y5862763D1*
X2649785Y5867476D1*
X2651760Y5872069D1*
X2654035Y5876520D1*
X2656600Y5880811D1*
X2659443Y5884923D1*
X2662553Y5888837D1*
X2665915Y5892536D1*
X2669516Y5896004D1*
X2673338Y5899227D1*
X2677365Y5902188D1*
X2681579Y5904877D1*
X2685963Y5907280D1*
X2690496Y5909388D1*
X2695159Y5911190D1*
X2699931Y5912680D1*
X2704791Y5913850D1*
X2709718Y5914696D1*
X2714690Y5915213D1*
X2719686Y5915399D1*
X2724683Y5915254D1*
X2729659Y5914779D1*
X2734593Y5913974D1*
X2739463Y5912845D1*
X2744247Y5911395D1*
X2748925Y5909631D1*
X2753475Y5907562D1*
X2757879Y5905195D1*
X2762116Y5902542D1*
X2766167Y5899613D1*
X2770016Y5896423D1*
X2773645Y5892985D1*
X2777038Y5889314D1*
X2780180Y5885426D1*
X2783058Y5881338D1*
X2785659Y5877069D1*
X2787971Y5872636D1*
X2789984Y5868060D1*
X2791690Y5863361D1*
X2793080Y5858559D1*
X2794149Y5853676D1*
X2794893Y5848733D1*
X2795400Y5840000D1*
X2795234Y5835004D1*
X2794738Y5830029D1*
X2793913Y5825099D1*
X2792763Y5820234D1*
X2791293Y5815456D1*
X2789510Y5810785D1*
X2787421Y5806243D1*
X2785036Y5801850D1*
X2782366Y5797624D1*
X2779420Y5793585D1*
X2776214Y5789749D1*
X2772761Y5786135D1*
X2769075Y5782757D1*
X2765174Y5779631D1*
X2761075Y5776770D1*
X2756795Y5774187D1*
X2752353Y5771894D1*
X2747383Y5769761D1*
X2747400Y5652012D1*
X2752553Y5658837D1*
X2755915Y5662536D1*
X2759516Y5666004D1*
X2763338Y5669227D1*
X2767365Y5672188D1*
X2771579Y5674877D1*
X2775963Y5677280D1*
X2780496Y5679388D1*
X2785159Y5681190D1*
X2789931Y5682680D1*
X2794791Y5683850D1*
X2799718Y5684696D1*
X2804690Y5685213D1*
X2809686Y5685399D1*
X2814683Y5685254D1*
X2819659Y5684779D1*
X2824593Y5683974D1*
X2829463Y5682845D1*
X2834247Y5681395D1*
X2838925Y5679631D1*
X2843475Y5677562D1*
X2847879Y5675195D1*
X2852116Y5672542D1*
X2856167Y5669613D1*
X2860016Y5666423D1*
X2863645Y5662985D1*
X2867038Y5659314D1*
X2870180Y5655426D1*
X2873058Y5651338D1*
X2876282Y5645874D1*
X2878118Y5652763D1*
X2879785Y5657476D1*
X2881760Y5662069D1*
X2884035Y5666520D1*
X2886600Y5670811D1*
X2889443Y5674923D1*
X2892553Y5678837D1*
X2895915Y5682536D1*
X2899516Y5686004D1*
X2903338Y5689227D1*
X2907365Y5692188D1*
X2911579Y5694877D1*
X2915963Y5697280D1*
X2920496Y5699388D1*
X2925159Y5701190D1*
X2929931Y5702680D1*
X2934791Y5703850D1*
X2939718Y5704696D1*
X2944690Y5705213D1*
X2949686Y5705399D1*
X2954683Y5705254D1*
X2959659Y5704779D1*
X2964593Y5703974D1*
X2969463Y5702845D1*
X2974247Y5701395D1*
X2978925Y5699631D1*
X2983475Y5697562D1*
X2987879Y5695195D1*
X2992116Y5692542D1*
X2996167Y5689613D1*
X3000016Y5686423D1*
X3003645Y5682985D1*
X3007038Y5679314D1*
X3010180Y5675426D1*
X3013058Y5671338D1*
X3015659Y5667069D1*
X3017971Y5662636D1*
X3019984Y5658060D1*
X3021690Y5653361D1*
X3023080Y5648559D1*
X3024149Y5643676D1*
X3024893Y5638733D1*
X3025400Y5630000D1*
X3025234Y5625004D1*
X3024738Y5620029D1*
X3023913Y5615099D1*
X3022763Y5610234D1*
X3021293Y5605456D1*
X3019510Y5600785D1*
X3017421Y5596243D1*
X3015036Y5591850D1*
X3012366Y5587624D1*
X3009420Y5583585D1*
X3006214Y5579749D1*
X3002761Y5576135D1*
X2999075Y5572757D1*
X2995174Y5569631D1*
X2991075Y5566770D1*
X2986795Y5564187D1*
X2982353Y5561894D1*
X2977769Y5559900D1*
X2973062Y5558214D1*
X2968255Y5556843D1*
X2963367Y5555794D1*
X2958420Y5555072D1*
X2953437Y5554678D1*
X2948438Y5554616D1*
X2943446Y5554885D1*
X2938483Y5555485D1*
X2933571Y5556412D1*
X2928731Y5557662D1*
X2923984Y5559230D1*
X2919352Y5561110D1*
X2914854Y5563292D1*
X2910511Y5565768D1*
X2906341Y5568526D1*
X2902364Y5571554D1*
X2898596Y5574839D1*
X2895053Y5578366D1*
X2891753Y5582121D1*
X2888708Y5586086D1*
X2885933Y5590244D1*
X2883702Y5594120D1*
X2882763Y5590234D1*
X2881293Y5585456D1*
X2879510Y5580785D1*
X2877421Y5576243D1*
X2875036Y5571850D1*
X2872366Y5567624D1*
X2869420Y5563585D1*
X2866214Y5559749D1*
X2862761Y5556135D1*
X2859075Y5552757D1*
X2855174Y5549631D1*
X2851075Y5546770D1*
X2846795Y5544187D1*
X2842353Y5541894D1*
X2837769Y5539900D1*
X2833062Y5538214D1*
X2828255Y5536843D1*
X2823367Y5535794D1*
X2818420Y5535072D1*
X2813437Y5534678D1*
X2808438Y5534616D1*
X2803446Y5534885D1*
X2798483Y5535485D1*
X2793571Y5536412D1*
X2788731Y5537662D1*
X2783984Y5539230D1*
X2779352Y5541110D1*
X2774854Y5543292D1*
X2770511Y5545768D1*
X2766341Y5548526D1*
X2762364Y5551554D1*
X2758596Y5554839D1*
X2755053Y5558366D1*
X2751753Y5562121D1*
X2747396Y5568051D1*
X2747400Y4342000D1*
X2747260Y4338438D1*
X2746841Y4334898D1*
X2746146Y4331402D1*
X2745178Y4327971D1*
X2743944Y4324626D1*
X2742452Y4321389D1*
X2740710Y4318279D1*
X2738729Y4315315D1*
X2736522Y4312515D1*
X2730567Y4306362D1*
X2045406Y3621200D1*
X2045400Y3540215D1*
X2050016Y3536423D1*
X2053645Y3532985D1*
X2057038Y3529314D1*
X2060180Y3525426D1*
X2063058Y3521338D1*
X2065659Y3517069D1*
X2067971Y3512636D1*
X2069984Y3508060D1*
X2071690Y3503361D1*
X2073080Y3498559D1*
X2074149Y3493676D1*
X2074893Y3488733D1*
X2075400Y3480000D1*
X2075234Y3475004D1*
X4449984Y2184358D2*
X4446214Y2179749D1*
X4442761Y2176135D1*
X4439075Y2172757D1*
X4435174Y2169631D1*
X4431075Y2166770D1*
X4426795Y2164187D1*
X4422353Y2161894D1*
X4417769Y2159900D1*
X4413062Y2158214D1*
X4408255Y2156843D1*
X4403367Y2155794D1*
X4398420Y2155072D1*
X4393437Y2154678D1*
X4388438Y2154616D1*
X4383446Y2154885D1*
X4378483Y2155485D1*
X4373571Y2156412D1*
X4368731Y2157662D1*
X4363984Y2159230D1*
X4359352Y2161110D1*
X4354854Y2163292D1*
X4350511Y2165768D1*
X4346341Y2168526D1*
X4342364Y2171554D1*
X4338596Y2174839D1*
X4335053Y2178366D1*
X4331753Y2182121D1*
X4328708Y2186086D1*
X4325933Y2190244D1*
X4323439Y2194577D1*
X4321238Y2199065D1*
X4319339Y2203689D1*
X4317751Y2208430D1*
X4316481Y2213264D1*
X4315533Y2218173D1*
X4314913Y2223133D1*
X4314623Y2228124D1*
X4314665Y2233123D1*
X4315037Y2238108D1*
X4315739Y2243058D1*
X4316768Y2247950D1*
X4318118Y2252763D1*
X4319785Y2257476D1*
X4321760Y2262069D1*
X4324035Y2266520D1*
X4326600Y2270811D1*
X4329443Y2274923D1*
X4332553Y2278837D1*
X4335915Y2282536D1*
X4339516Y2286004D1*
X4343338Y2289227D1*
X4347365Y2292188D1*
X4351579Y2294877D1*
X4355963Y2297280D1*
X4360496Y2299388D1*
X4365159Y2301190D1*
X4369931Y2302680D1*
X4374791Y2303850D1*
X4379718Y2304696D1*
X4384690Y2305213D1*
X4389686Y2305399D1*
X4394683Y2305254D1*
X4399659Y2304779D1*
X4404593Y2303974D1*
X4409463Y2302845D1*
X4414247Y2301395D1*
X4418925Y2299631D1*
X4423475Y2297562D1*
X4427879Y2295195D1*
X4432116Y2292542D1*
X4436167Y2289613D1*
X4440016Y2286423D1*
X4443645Y2282985D1*
X4447038Y2279314D1*
X4449996Y2275653D1*
X4452553Y2278837D1*
X4455915Y2282536D1*
X4459516Y2286004D1*
X4463338Y2289227D1*
X4467365Y2292188D1*
X4471579Y2294877D1*
X4475963Y2297280D1*
X4480496Y2299388D1*
X4485159Y2301190D1*
X4489931Y2302680D1*
X4494791Y2303850D1*
X4499718Y2304696D1*
X4504690Y2305213D1*
X4509686Y2305399D1*
X4514683Y2305254D1*
X4519659Y2304779D1*
X4524593Y2303974D1*
X4529463Y2302845D1*
X4534247Y2301395D1*
X4538925Y2299631D1*
X4543475Y2297562D1*
X4547879Y2295195D1*
X4552116Y2292542D1*
X4556167Y2289613D1*
X4560016Y2286423D1*
X4563645Y2282985D1*
X4567038Y2279314D1*
X4570180Y2275426D1*
X4573058Y2271338D1*
X4575659Y2267069D1*
X4577971Y2262636D1*
X4579984Y2258060D1*
X4581690Y2253361D1*
X4583080Y2248559D1*
X4584149Y2243676D1*
X4584893Y2238733D1*
X4585400Y2230000D1*
X4585234Y2225004D1*
X4584738Y2220029D1*
X4583913Y2215099D1*
X4582763Y2210234D1*
X4581293Y2205456D1*
X4579510Y2200785D1*
X4577421Y2196243D1*
X4575036Y2191850D1*
X4572366Y2187624D1*
X4569420Y2183585D1*
X4566214Y2179749D1*
X4562761Y2176135D1*
X4559075Y2172757D1*
X4555174Y2169631D1*
X4551075Y2166770D1*
X4546795Y2164187D1*
X4542353Y2161894D1*
X4537769Y2159900D1*
X4533062Y2158214D1*
X4528255Y2156843D1*
X4523367Y2155794D1*
X4518420Y2155072D1*
X4513437Y2154678D1*
X4508438Y2154616D1*
X4503446Y2154885D1*
X4498483Y2155485D1*
X4493571Y2156412D1*
X4488731Y2157662D1*
X4483984Y2159230D1*
X4479352Y2161110D1*
X4474854Y2163292D1*
X4470511Y2165768D1*
X4466341Y2168526D1*
X4462364Y2171554D1*
X4458596Y2174839D1*
X4455053Y2178366D1*
X4450028Y2184367D1*
X4815234Y6045004D2*
X4814738Y6040029D1*
X4813913Y6035099D1*
X4812763Y6030234D1*
X4811293Y6025456D1*
X4809510Y6020785D1*
X4807421Y6016243D1*
X4805036Y6011850D1*
X4802366Y6007624D1*
X4799420Y6003585D1*
X4796214Y5999749D1*
X4792761Y5996135D1*
X4789075Y5992757D1*
X4785174Y5989631D1*
X4781075Y5986770D1*
X4776795Y5984187D1*
X4772353Y5981894D1*
X4767769Y5979900D1*
X4763062Y5978214D1*
X4758255Y5976843D1*
X4753367Y5975794D1*
X4748420Y5975072D1*
X4743437Y5974678D1*
X4738438Y5974616D1*
X4733446Y5974885D1*
X4728483Y5975485D1*
X4723571Y5976412D1*
X4718731Y5977662D1*
X4713984Y5979230D1*
X4709352Y5981110D1*
X4704854Y5983292D1*
X4700511Y5985768D1*
X4696341Y5988526D1*
X4692364Y5991554D1*
X4688596Y5994839D1*
X4685053Y5998366D1*
X4681753Y6002121D1*
X4678708Y6006086D1*
X4675933Y6010244D1*
X4673439Y6014577D1*
X4671238Y6019065D1*
X4669339Y6023689D1*
X4667751Y6028430D1*
X4666481Y6033264D1*
X4665533Y6038173D1*
X4664913Y6043133D1*
X4664623Y6048124D1*
X4664665Y6053123D1*
X4665037Y6058108D1*
X4665739Y6063058D1*
X4666768Y6067950D1*
X4668118Y6072763D1*
X4669785Y6077476D1*
X4671760Y6082069D1*
X4674035Y6086520D1*
X4676600Y6090811D1*
X4679443Y6094923D1*
X4682553Y6098837D1*
X4685915Y6102536D1*
X4689516Y6106004D1*
X4693338Y6109227D1*
X4697365Y6112188D1*
X4701579Y6114877D1*
X4705963Y6117280D1*
X4710496Y6119388D1*
X4715159Y6121190D1*
X4719931Y6122680D1*
X4724791Y6123850D1*
X4729718Y6124696D1*
X4734690Y6125213D1*
X4739686Y6125399D1*
X4744683Y6125254D1*
X4749659Y6124779D1*
X4754593Y6123974D1*
X4759463Y6122845D1*
X4764247Y6121395D1*
X4768925Y6119631D1*
X4773475Y6117562D1*
X4777879Y6115195D1*
X4782116Y6112542D1*
X4786167Y6109613D1*
X4790016Y6106423D1*
X4793645Y6102985D1*
X4797038Y6099314D1*
X4800180Y6095426D1*
X4803058Y6091338D1*
X4805659Y6087069D1*
X4807971Y6082636D1*
X4809984Y6078060D1*
X4811690Y6073361D1*
X4813080Y6068559D1*
X4814149Y6063676D1*
X4814893Y6058733D1*
X4815400Y6050000D1*
X4815234Y6045004D1*
Y5845004D2*
X4814738Y5840029D1*
X4813913Y5835099D1*
X4812763Y5830234D1*
X4811293Y5825456D1*
X4809510Y5820785D1*
X4807421Y5816243D1*
X4805036Y5811850D1*
X4802366Y5807624D1*
X4799420Y5803585D1*
X4796214Y5799749D1*
X4792761Y5796135D1*
X4789075Y5792757D1*
X4785174Y5789631D1*
X4781075Y5786770D1*
X4776795Y5784187D1*
X4772353Y5781894D1*
X4767769Y5779900D1*
X4763062Y5778214D1*
X4758255Y5776843D1*
X4753367Y5775794D1*
X4748420Y5775072D1*
X4743437Y5774678D1*
X4738438Y5774616D1*
X4733446Y5774885D1*
X4728483Y5775485D1*
X4723571Y5776412D1*
X4718731Y5777662D1*
X4713984Y5779230D1*
X4709352Y5781110D1*
X4704854Y5783292D1*
X4700511Y5785768D1*
X4696341Y5788526D1*
X4692364Y5791554D1*
X4688596Y5794839D1*
X4685053Y5798366D1*
X4681753Y5802121D1*
X4678708Y5806086D1*
X4675933Y5810244D1*
X4673439Y5814577D1*
X4671238Y5819065D1*
X4669339Y5823689D1*
X4667751Y5828430D1*
X4666481Y5833264D1*
X4665533Y5838173D1*
X4664913Y5843133D1*
X4664623Y5848124D1*
X4664665Y5853123D1*
X4665037Y5858108D1*
X4665739Y5863058D1*
X4666768Y5867950D1*
X4668118Y5872763D1*
X4669785Y5877476D1*
X4671760Y5882069D1*
X4674035Y5886520D1*
X4676600Y5890811D1*
X4679443Y5894923D1*
X4682553Y5898837D1*
X4685915Y5902536D1*
X4689516Y5906004D1*
X4693338Y5909227D1*
X4697365Y5912188D1*
X4701579Y5914877D1*
X4705963Y5917280D1*
X4710496Y5919388D1*
X4715159Y5921190D1*
X4719931Y5922680D1*
X4724791Y5923850D1*
X4729718Y5924696D1*
X4734690Y5925213D1*
X4739686Y5925399D1*
X4744683Y5925254D1*
X4749659Y5924779D1*
X4754593Y5923974D1*
X4759463Y5922845D1*
X4764247Y5921395D1*
X4768925Y5919631D1*
X4773475Y5917562D1*
X4777879Y5915195D1*
X4782116Y5912542D1*
X4786167Y5909613D1*
X4790016Y5906423D1*
X4793645Y5902985D1*
X4797038Y5899314D1*
X4800180Y5895426D1*
X4803058Y5891338D1*
X4805659Y5887069D1*
X4807971Y5882636D1*
X4809984Y5878060D1*
X4811690Y5873361D1*
X4813080Y5868559D1*
X4814149Y5863676D1*
X4814893Y5858733D1*
X4815400Y5850000D1*
X4815234Y5845004D1*
Y5635004D2*
X4814738Y5630029D1*
X4813913Y5625099D1*
X4812763Y5620234D1*
X4811293Y5615456D1*
X4809510Y5610785D1*
X4807421Y5606243D1*
X4805036Y5601850D1*
X4802366Y5597624D1*
X4799420Y5593585D1*
X4796214Y5589749D1*
X4792761Y5586135D1*
X4789075Y5582757D1*
X4785174Y5579631D1*
X4781075Y5576770D1*
X4776795Y5574187D1*
X4772353Y5571894D1*
X4767769Y5569900D1*
X4763062Y5568214D1*
X4758255Y5566843D1*
X4753367Y5565794D1*
X4748420Y5565072D1*
X4743437Y5564678D1*
X4738438Y5564616D1*
X4733446Y5564885D1*
X4728483Y5565485D1*
X4723571Y5566412D1*
X4718731Y5567662D1*
X4713984Y5569230D1*
X4709352Y5571110D1*
X4704854Y5573292D1*
X4700511Y5575768D1*
X4696341Y5578526D1*
X4692364Y5581554D1*
X4688596Y5584839D1*
X4685053Y5588366D1*
X4681753Y5592121D1*
X4678708Y5596086D1*
X4675933Y5600244D1*
X4673439Y5604577D1*
X4671238Y5609065D1*
X4669339Y5613689D1*
X4667751Y5618430D1*
X4666481Y5623264D1*
X4665533Y5628173D1*
X4664913Y5633133D1*
X4664623Y5638124D1*
X4664665Y5643123D1*
X4665037Y5648108D1*
X4665739Y5653058D1*
X4666768Y5657950D1*
X4668118Y5662763D1*
X4669785Y5667476D1*
X4671760Y5672069D1*
X4674035Y5676520D1*
X4676600Y5680811D1*
X4679443Y5684923D1*
X4682553Y5688837D1*
X4685915Y5692536D1*
X4689516Y5696004D1*
X4693338Y5699227D1*
X4697365Y5702188D1*
X4701579Y5704877D1*
X4705963Y5707280D1*
X4710496Y5709388D1*
X4715159Y5711190D1*
X4719931Y5712680D1*
X4724791Y5713850D1*
X4729718Y5714696D1*
X4734690Y5715213D1*
X4739686Y5715399D1*
X4744683Y5715254D1*
X4749659Y5714779D1*
X4754593Y5713974D1*
X4759463Y5712845D1*
X4764247Y5711395D1*
X4768925Y5709631D1*
X4773475Y5707562D1*
X4777879Y5705195D1*
X4782116Y5702542D1*
X4786167Y5699613D1*
X4790016Y5696423D1*
X4793645Y5692985D1*
X4797038Y5689314D1*
X4800180Y5685426D1*
X4803058Y5681338D1*
X4805659Y5677069D1*
X4807971Y5672636D1*
X4809984Y5668060D1*
X4811690Y5663361D1*
X4813080Y5658559D1*
X4814149Y5653676D1*
X4814893Y5648733D1*
X4815400Y5640000D1*
X4815234Y5635004D1*
X3895234Y6005004D2*
X3894738Y6000029D1*
X3893913Y5995099D1*
X3892763Y5990234D1*
X3891293Y5985456D1*
X3889510Y5980785D1*
X3887421Y5976243D1*
X3885036Y5971850D1*
X3882366Y5967624D1*
X3879420Y5963585D1*
X3876214Y5959749D1*
X3872761Y5956135D1*
X3869075Y5952757D1*
X3865174Y5949631D1*
X3861075Y5946770D1*
X3856795Y5944187D1*
X3852353Y5941894D1*
X3847769Y5939900D1*
X3843062Y5938214D1*
X3838255Y5936843D1*
X3833367Y5935794D1*
X3828420Y5935072D1*
X3823437Y5934678D1*
X3818438Y5934616D1*
X3813446Y5934885D1*
X3808483Y5935485D1*
X3803571Y5936412D1*
X3798731Y5937662D1*
X3793984Y5939230D1*
X3789352Y5941110D1*
X3784854Y5943292D1*
X3780511Y5945768D1*
X3776341Y5948526D1*
X3772364Y5951554D1*
X3768596Y5954839D1*
X3765053Y5958366D1*
X3761753Y5962121D1*
X3758708Y5966086D1*
X3755933Y5970244D1*
X3753439Y5974577D1*
X3751238Y5979065D1*
X3749339Y5983689D1*
X3747751Y5988430D1*
X3746481Y5993264D1*
X3745533Y5998173D1*
X3744913Y6003133D1*
X3744623Y6008124D1*
X3744665Y6013123D1*
X3745037Y6018108D1*
X3745739Y6023058D1*
X3746768Y6027950D1*
X3748118Y6032763D1*
X3749785Y6037476D1*
X3751760Y6042069D1*
X3754035Y6046520D1*
X3756600Y6050811D1*
X3759443Y6054923D1*
X3762553Y6058837D1*
X3765915Y6062536D1*
X3769516Y6066004D1*
X3773338Y6069227D1*
X3777365Y6072188D1*
X3781579Y6074877D1*
X3785963Y6077280D1*
X3790496Y6079388D1*
X3795159Y6081190D1*
X3799931Y6082680D1*
X3804791Y6083850D1*
X3809718Y6084696D1*
X3814690Y6085213D1*
X3819686Y6085399D1*
X3824683Y6085254D1*
X3829659Y6084779D1*
X3834593Y6083974D1*
X3839463Y6082845D1*
X3844247Y6081395D1*
X3848925Y6079631D1*
X3853475Y6077562D1*
X3857879Y6075195D1*
X3862116Y6072542D1*
X3866167Y6069613D1*
X3870016Y6066423D1*
X3873645Y6062985D1*
X3877038Y6059314D1*
X3880180Y6055426D1*
X3883058Y6051338D1*
X3885659Y6047069D1*
X3887971Y6042636D1*
X3889984Y6038060D1*
X3891690Y6033361D1*
X3893080Y6028559D1*
X3894149Y6023676D1*
X3894893Y6018733D1*
X3895400Y6010000D1*
X3895234Y6005004D1*
X4545234Y3635004D2*
X4544738Y3630029D1*
X4543913Y3625099D1*
X4542763Y3620234D1*
X4541293Y3615456D1*
X4539510Y3610785D1*
X4537421Y3606243D1*
X4535036Y3601850D1*
X4532366Y3597624D1*
X4529420Y3593585D1*
X4526214Y3589749D1*
X4522761Y3586135D1*
X4519075Y3582757D1*
X4515174Y3579631D1*
X4511075Y3576770D1*
X4506795Y3574187D1*
X4502353Y3571894D1*
X4497769Y3569900D1*
X4493062Y3568214D1*
X4488255Y3566843D1*
X4483367Y3565794D1*
X4478420Y3565072D1*
X4473437Y3564678D1*
X4468438Y3564616D1*
X4463446Y3564885D1*
X4458483Y3565485D1*
X4453571Y3566412D1*
X4448731Y3567662D1*
X4443984Y3569230D1*
X4439352Y3571110D1*
X4434854Y3573292D1*
X4430511Y3575768D1*
X4426341Y3578526D1*
X4422364Y3581554D1*
X4418596Y3584839D1*
X4415053Y3588366D1*
X4411753Y3592121D1*
X4408708Y3596086D1*
X4405933Y3600244D1*
X4403439Y3604577D1*
X4401238Y3609065D1*
X4399339Y3613689D1*
X4397751Y3618430D1*
X4396481Y3623264D1*
X4395533Y3628173D1*
X4394913Y3633133D1*
X4394623Y3638124D1*
X4394665Y3643123D1*
X4395037Y3648108D1*
X4395739Y3653058D1*
X4396768Y3657950D1*
X4398118Y3662763D1*
X4399785Y3667476D1*
X4401760Y3672069D1*
X4404035Y3676520D1*
X4406600Y3680811D1*
X4409443Y3684923D1*
X4412553Y3688837D1*
X4415915Y3692536D1*
X4419516Y3696004D1*
X4423338Y3699227D1*
X4427365Y3702188D1*
X4431579Y3704877D1*
X4435963Y3707280D1*
X4440496Y3709388D1*
X4445159Y3711190D1*
X4449931Y3712680D1*
X4454791Y3713850D1*
X4459718Y3714696D1*
X4464690Y3715213D1*
X4469686Y3715399D1*
X4474683Y3715254D1*
X4479659Y3714779D1*
X4484593Y3713974D1*
X4489463Y3712845D1*
X4494247Y3711395D1*
X4498925Y3709631D1*
X4503475Y3707562D1*
X4507879Y3705195D1*
X4512116Y3702542D1*
X4516167Y3699613D1*
X4520016Y3696423D1*
X4523645Y3692985D1*
X4527038Y3689314D1*
X4530180Y3685426D1*
X4533058Y3681338D1*
X4535659Y3677069D1*
X4537971Y3672636D1*
X4539984Y3668060D1*
X4541690Y3663361D1*
X4543080Y3658559D1*
X4544149Y3653676D1*
X4544893Y3648733D1*
X4545400Y3640000D1*
X4545234Y3635004D1*
X3135234Y5395004D2*
X3134738Y5390029D1*
X3133913Y5385099D1*
X3132763Y5380234D1*
X3131293Y5375456D1*
X3129510Y5370785D1*
X3127421Y5366243D1*
X3125036Y5361850D1*
X3122366Y5357624D1*
X3119420Y5353585D1*
X3116214Y5349749D1*
X3112761Y5346135D1*
X3109075Y5342757D1*
X3105174Y5339631D1*
X3101075Y5336770D1*
X3096795Y5334187D1*
X3092353Y5331894D1*
X3087769Y5329900D1*
X3083062Y5328214D1*
X3078255Y5326843D1*
X3073367Y5325794D1*
X3068420Y5325072D1*
X3063437Y5324678D1*
X3058438Y5324616D1*
X3053446Y5324885D1*
X3048483Y5325485D1*
X3043571Y5326412D1*
X3038731Y5327662D1*
X3033984Y5329230D1*
X3029352Y5331110D1*
X3024854Y5333292D1*
X3020511Y5335768D1*
X3016341Y5338526D1*
X3012364Y5341554D1*
X3008596Y5344839D1*
X3005053Y5348366D1*
X3001753Y5352121D1*
X2998708Y5356086D1*
X2995933Y5360244D1*
X2993439Y5364577D1*
X2991238Y5369065D1*
X2989339Y5373689D1*
X2987751Y5378430D1*
X2986481Y5383264D1*
X2985533Y5388173D1*
X2984913Y5393133D1*
X2984623Y5398124D1*
X2984665Y5403123D1*
X2985037Y5408108D1*
X2985739Y5413058D1*
X2986768Y5417950D1*
X2988118Y5422763D1*
X2989785Y5427476D1*
X2991760Y5432069D1*
X2994035Y5436520D1*
X2996600Y5440811D1*
X2999443Y5444923D1*
X3002553Y5448837D1*
X3005915Y5452536D1*
X3008461Y5454988D1*
X3005053Y5458366D1*
X3001753Y5462121D1*
X2998708Y5466086D1*
X2995933Y5470244D1*
X2993439Y5474577D1*
X2991238Y5479065D1*
X2989339Y5483689D1*
X2987751Y5488430D1*
X2986481Y5493264D1*
X2985533Y5498173D1*
X2984913Y5503133D1*
X2984623Y5508124D1*
X2984665Y5513123D1*
X2985037Y5518108D1*
X2985739Y5523058D1*
X2986768Y5527950D1*
X2988118Y5532763D1*
X2989785Y5537476D1*
X2991760Y5542069D1*
X2994035Y5546520D1*
X2996600Y5550811D1*
X2999443Y5554923D1*
X3002553Y5558837D1*
X3005915Y5562536D1*
X3009516Y5566004D1*
X3013338Y5569227D1*
X3017365Y5572188D1*
X3021579Y5574877D1*
X3025963Y5577280D1*
X3030496Y5579388D1*
X3035159Y5581190D1*
X3039931Y5582680D1*
X3044791Y5583850D1*
X3049718Y5584696D1*
X3054690Y5585213D1*
X3059686Y5585399D1*
X3064683Y5585254D1*
X3069659Y5584779D1*
X3074593Y5583974D1*
X3079463Y5582845D1*
X3084247Y5581395D1*
X3088925Y5579631D1*
X3093475Y5577562D1*
X3097879Y5575195D1*
X3102116Y5572542D1*
X3106167Y5569613D1*
X3110016Y5566423D1*
X3113645Y5562985D1*
X3117038Y5559314D1*
X3120180Y5555426D1*
X3123058Y5551338D1*
X3125659Y5547069D1*
X3127971Y5542636D1*
X3129984Y5538060D1*
X3131690Y5533361D1*
X3133080Y5528559D1*
X3134149Y5523676D1*
X3134893Y5518733D1*
X3135400Y5510000D1*
X3135234Y5505004D1*
X3134738Y5500029D1*
X3133913Y5495099D1*
X3132763Y5490234D1*
X3131293Y5485456D1*
X3129510Y5480785D1*
X3127421Y5476243D1*
X3125036Y5471850D1*
X3122366Y5467624D1*
X3119420Y5463585D1*
X3116214Y5459749D1*
X3111537Y5455013D1*
X3117038Y5449314D1*
X3120180Y5445426D1*
X3123058Y5441338D1*
X3125659Y5437069D1*
X3127971Y5432636D1*
X3129984Y5428060D1*
X3131690Y5423361D1*
X3133080Y5418559D1*
X3134149Y5413676D1*
X3134893Y5408733D1*
X3135400Y5400000D1*
X3135234Y5395004D1*
X3855234Y5475004D2*
X3854738Y5470029D1*
X3853913Y5465099D1*
X3852763Y5460234D1*
X3851293Y5455456D1*
X3849510Y5450785D1*
X3847421Y5446243D1*
X3843419Y5439291D1*
X3847365Y5442188D1*
X3851579Y5444877D1*
X3855963Y5447280D1*
X3860496Y5449388D1*
X3865159Y5451190D1*
X3869931Y5452680D1*
X3874791Y5453850D1*
X3879718Y5454696D1*
X3884690Y5455213D1*
X3889686Y5455399D1*
X3894683Y5455254D1*
X3899659Y5454779D1*
X3904593Y5453974D1*
X3909463Y5452845D1*
X3914247Y5451395D1*
X3918925Y5449631D1*
X3923475Y5447562D1*
X3927879Y5445195D1*
X3932116Y5442542D1*
X3936167Y5439613D1*
X3940016Y5436423D1*
X3943645Y5432985D1*
X3947038Y5429314D1*
X3950180Y5425426D1*
X3953058Y5421338D1*
X3955659Y5417069D1*
X3957971Y5412636D1*
X3959984Y5408060D1*
X3961690Y5403361D1*
X3963080Y5398559D1*
X3964149Y5393676D1*
X3964893Y5388733D1*
X3965400Y5380000D1*
X3965234Y5375004D1*
X3964738Y5370029D1*
X3963913Y5365099D1*
X3962763Y5360234D1*
X3961293Y5355456D1*
X3959510Y5350785D1*
X3957421Y5346243D1*
X3955036Y5341850D1*
X3952366Y5337624D1*
X3949420Y5333585D1*
X3946214Y5329749D1*
X3942761Y5326135D1*
X3939075Y5322757D1*
X3935174Y5319631D1*
X3931075Y5316770D1*
X3926795Y5314187D1*
X3922353Y5311894D1*
X3917769Y5309900D1*
X3913062Y5308214D1*
X3908255Y5306843D1*
X3903367Y5305794D1*
X3898420Y5305072D1*
X3893437Y5304678D1*
X3888438Y5304616D1*
X3883446Y5304885D1*
X3878483Y5305485D1*
X3873571Y5306412D1*
X3868731Y5307662D1*
X3863984Y5309230D1*
X3859352Y5311110D1*
X3854854Y5313292D1*
X3850511Y5315768D1*
X3846341Y5318526D1*
X3842364Y5321554D1*
X3838596Y5324839D1*
X3835053Y5328366D1*
X3831753Y5332121D1*
X3828708Y5336086D1*
X3825933Y5340244D1*
X3823439Y5344577D1*
X3821238Y5349065D1*
X3819339Y5353689D1*
X3817751Y5358430D1*
X3816481Y5363264D1*
X3815533Y5368173D1*
X3814913Y5373133D1*
X3814623Y5378124D1*
X3814665Y5383123D1*
X3815037Y5388108D1*
X3815739Y5393058D1*
X3816768Y5397950D1*
X3818118Y5402763D1*
X3819785Y5407476D1*
X3821760Y5412069D1*
X3824035Y5416520D1*
X3826509Y5420660D1*
X3821075Y5416770D1*
X3816795Y5414187D1*
X3812353Y5411894D1*
X3807769Y5409900D1*
X3803062Y5408214D1*
X3798255Y5406843D1*
X3793367Y5405794D1*
X3788420Y5405072D1*
X3783437Y5404678D1*
X3778438Y5404616D1*
X3773446Y5404885D1*
X3768483Y5405485D1*
X3763571Y5406412D1*
X3758731Y5407662D1*
X3753984Y5409230D1*
X3749352Y5411110D1*
X3744854Y5413292D1*
X3740511Y5415768D1*
X3736341Y5418526D1*
X3732364Y5421554D1*
X3728596Y5424839D1*
X3725053Y5428366D1*
X3721753Y5432121D1*
X3718708Y5436086D1*
X3715933Y5440244D1*
X3713439Y5444577D1*
X3711238Y5449065D1*
X3709339Y5453689D1*
X3707751Y5458430D1*
X3706481Y5463264D1*
X3705533Y5468173D1*
X3704913Y5473133D1*
X3704623Y5478124D1*
X3704665Y5483123D1*
X3705037Y5488108D1*
X3705739Y5493058D1*
X3706768Y5497950D1*
X3708118Y5502763D1*
X3709785Y5507476D1*
X3711760Y5512069D1*
X3714035Y5516520D1*
X3716600Y5520811D1*
X3719443Y5524923D1*
X3722553Y5528837D1*
X3725915Y5532536D1*
X3729516Y5536004D1*
X3733338Y5539227D1*
X3737365Y5542188D1*
X3741579Y5544877D1*
X3745963Y5547280D1*
X3750496Y5549388D1*
X3755159Y5551190D1*
X3759931Y5552680D1*
X3764791Y5553850D1*
X3769718Y5554696D1*
X3774690Y5555213D1*
X3779686Y5555399D1*
X3784683Y5555254D1*
X3789659Y5554779D1*
X3794593Y5553974D1*
X3799463Y5552845D1*
X3804247Y5551395D1*
X3808925Y5549631D1*
X3813475Y5547562D1*
X3817879Y5545195D1*
X3822116Y5542542D1*
X3826167Y5539613D1*
X3830016Y5536423D1*
X3833645Y5532985D1*
X3837038Y5529314D1*
X3840180Y5525426D1*
X3843058Y5521338D1*
X3845659Y5517069D1*
X3847971Y5512636D1*
X3849984Y5508060D1*
X3851690Y5503361D1*
X3853080Y5498559D1*
X3854149Y5493676D1*
X3854893Y5488733D1*
X3855400Y5480000D1*
X3855234Y5475004D1*
X1995234Y4615004D2*
X1994738Y4610029D1*
X1993913Y4605099D1*
X1992763Y4600234D1*
X1991293Y4595456D1*
X1989510Y4590785D1*
X1987421Y4586243D1*
X1985036Y4581850D1*
X1982366Y4577624D1*
X1979420Y4573585D1*
X1976214Y4569749D1*
X1972761Y4566135D1*
X1969075Y4562757D1*
X1965174Y4559631D1*
X1961075Y4556770D1*
X1956795Y4554187D1*
X1952353Y4551894D1*
X1947769Y4549900D1*
X1943062Y4548214D1*
X1938255Y4546843D1*
X1933367Y4545794D1*
X1928420Y4545072D1*
X1923437Y4544678D1*
X1918438Y4544616D1*
X1913446Y4544885D1*
X1908483Y4545485D1*
X1903571Y4546412D1*
X1898731Y4547662D1*
X1893984Y4549230D1*
X1889352Y4551110D1*
X1884854Y4553292D1*
X1880511Y4555768D1*
X1876341Y4558526D1*
X1872364Y4561554D1*
X1868596Y4564839D1*
X1865053Y4568366D1*
X1861753Y4572121D1*
X1858708Y4576086D1*
X1855933Y4580244D1*
X1853439Y4584577D1*
X1851238Y4589065D1*
X1849339Y4593689D1*
X1847751Y4598430D1*
X1846481Y4603264D1*
X1845533Y4608173D1*
X1844913Y4613133D1*
X1844623Y4618124D1*
X1844665Y4623123D1*
X1845037Y4628108D1*
X1845739Y4633058D1*
X1846768Y4637950D1*
X1848118Y4642763D1*
X1849785Y4647476D1*
X1851760Y4652069D1*
X1854035Y4656520D1*
X1856600Y4660811D1*
X1859443Y4664923D1*
X1862553Y4668837D1*
X1865915Y4672536D1*
X1869516Y4676004D1*
X1873338Y4679227D1*
X1877365Y4682188D1*
X1881579Y4684877D1*
X1885963Y4687280D1*
X1890496Y4689388D1*
X1895159Y4691190D1*
X1899931Y4692680D1*
X1904791Y4693850D1*
X1909718Y4694696D1*
X1914690Y4695213D1*
X1919686Y4695399D1*
X1924683Y4695254D1*
X1929659Y4694779D1*
X1934593Y4693974D1*
X1939463Y4692845D1*
X1944247Y4691395D1*
X1948925Y4689631D1*
X1953475Y4687562D1*
X1957879Y4685195D1*
X1962116Y4682542D1*
X1966167Y4679613D1*
X1970016Y4676423D1*
X1973645Y4672985D1*
X1977038Y4669314D1*
X1980180Y4665426D1*
X1983058Y4661338D1*
X1985659Y4657069D1*
X1987971Y4652636D1*
X1989984Y4648060D1*
X1991690Y4643361D1*
X1993080Y4638559D1*
X1994149Y4633676D1*
X1994893Y4628733D1*
X1995400Y4620000D1*
X1995234Y4615004D1*
X2325234Y4695004D2*
X2324738Y4690029D1*
X2323913Y4685099D1*
X2322763Y4680234D1*
X2321293Y4675456D1*
X2319510Y4670785D1*
X2317421Y4666243D1*
X2315036Y4661850D1*
X2312366Y4657624D1*
X2309420Y4653585D1*
X2306214Y4649749D1*
X2302761Y4646135D1*
X2299075Y4642757D1*
X2295174Y4639631D1*
X2291075Y4636770D1*
X2286795Y4634187D1*
X2282353Y4631894D1*
X2277769Y4629900D1*
X2273062Y4628214D1*
X2268255Y4626843D1*
X2263367Y4625794D1*
X2258420Y4625072D1*
X2253437Y4624678D1*
X2248438Y4624616D1*
X2243446Y4624885D1*
X2238483Y4625485D1*
X2233571Y4626412D1*
X2228731Y4627662D1*
X2223984Y4629230D1*
X2219352Y4631110D1*
X2214854Y4633292D1*
X2210511Y4635768D1*
X2206341Y4638526D1*
X2202364Y4641554D1*
X2198596Y4644839D1*
X2195053Y4648366D1*
X2191753Y4652121D1*
X2188708Y4656086D1*
X2185933Y4660244D1*
X2183439Y4664577D1*
X2181238Y4669065D1*
X2179339Y4673689D1*
X2177751Y4678430D1*
X2176481Y4683264D1*
X2175533Y4688173D1*
X2174913Y4693133D1*
X2174623Y4698124D1*
X2174665Y4703123D1*
X2175037Y4708108D1*
X2175739Y4713058D1*
X2176768Y4717950D1*
X2178118Y4722763D1*
X2179785Y4727476D1*
X2181760Y4732069D1*
X2184035Y4736520D1*
X2186600Y4740811D1*
X2189443Y4744923D1*
X2192553Y4748837D1*
X2195915Y4752536D1*
X2199516Y4756004D1*
X2203338Y4759227D1*
X2207365Y4762188D1*
X2211579Y4764877D1*
X2215963Y4767280D1*
X2220496Y4769388D1*
X2225159Y4771190D1*
X2229931Y4772680D1*
X2234791Y4773850D1*
X2239718Y4774696D1*
X2244690Y4775213D1*
X2249686Y4775399D1*
X2254683Y4775254D1*
X2259659Y4774779D1*
X2264593Y4773974D1*
X2269463Y4772845D1*
X2274247Y4771395D1*
X2278925Y4769631D1*
X2283475Y4767562D1*
X2287879Y4765195D1*
X2292116Y4762542D1*
X2296167Y4759613D1*
X2300016Y4756423D1*
X2303645Y4752985D1*
X2307038Y4749314D1*
X2310180Y4745426D1*
X2313058Y4741338D1*
X2315659Y4737069D1*
X2317971Y4732636D1*
X2319984Y4728060D1*
X2321690Y4723361D1*
X2323080Y4718559D1*
X2324149Y4713676D1*
X2324893Y4708733D1*
X2325400Y4700000D1*
X2325234Y4695004D1*
X2545234Y4615004D2*
X2544738Y4610029D1*
X2543913Y4605099D1*
X2542763Y4600234D1*
X2541293Y4595456D1*
X2539510Y4590785D1*
X2537421Y4586243D1*
X2535036Y4581850D1*
X2532366Y4577624D1*
X2529420Y4573585D1*
X2526214Y4569749D1*
X2522761Y4566135D1*
X2519075Y4562757D1*
X2515174Y4559631D1*
X2511075Y4556770D1*
X2506795Y4554187D1*
X2502353Y4551894D1*
X2497769Y4549900D1*
X2493062Y4548214D1*
X2488255Y4546843D1*
X2483367Y4545794D1*
X2478420Y4545072D1*
X2473437Y4544678D1*
X2468438Y4544616D1*
X2463446Y4544885D1*
X2458483Y4545485D1*
X2453571Y4546412D1*
X2448731Y4547662D1*
X2443984Y4549230D1*
X2439352Y4551110D1*
X2434854Y4553292D1*
X2430511Y4555768D1*
X2426341Y4558526D1*
X2422364Y4561554D1*
X2418596Y4564839D1*
X2415053Y4568366D1*
X2411753Y4572121D1*
X2408708Y4576086D1*
X2405933Y4580244D1*
X2403439Y4584577D1*
X2401238Y4589065D1*
X2399339Y4593689D1*
X2397751Y4598430D1*
X2396481Y4603264D1*
X2395533Y4608173D1*
X2394913Y4613133D1*
X2394623Y4618124D1*
X2394665Y4623123D1*
X2395037Y4628108D1*
X2395739Y4633058D1*
X2396768Y4637950D1*
X2398118Y4642763D1*
X2399785Y4647476D1*
X2401760Y4652069D1*
X2404035Y4656520D1*
X2406600Y4660811D1*
X2409443Y4664923D1*
X2412553Y4668837D1*
X2415915Y4672536D1*
X2419516Y4676004D1*
X2423338Y4679227D1*
X2427365Y4682188D1*
X2431579Y4684877D1*
X2435963Y4687280D1*
X2440496Y4689388D1*
X2445159Y4691190D1*
X2449931Y4692680D1*
X2454791Y4693850D1*
X2459718Y4694696D1*
X2464690Y4695213D1*
X2469686Y4695399D1*
X2474683Y4695254D1*
X2479659Y4694779D1*
X2484593Y4693974D1*
X2489463Y4692845D1*
X2494247Y4691395D1*
X2498925Y4689631D1*
X2503475Y4687562D1*
X2507879Y4685195D1*
X2512116Y4682542D1*
X2516167Y4679613D1*
X2520016Y4676423D1*
X2523645Y4672985D1*
X2527038Y4669314D1*
X2530180Y4665426D1*
X2533058Y4661338D1*
X2535659Y4657069D1*
X2537971Y4652636D1*
X2539984Y4648060D1*
X2541690Y4643361D1*
X2543080Y4638559D1*
X2544149Y4633676D1*
X2544893Y4628733D1*
X2545400Y4620000D1*
X2545234Y4615004D1*
X5205234Y4315004D2*
X5204738Y4310029D1*
X5203913Y4305099D1*
X5202763Y4300234D1*
X5201293Y4295456D1*
X5199510Y4290785D1*
X5197421Y4286243D1*
X5195036Y4281850D1*
X5192366Y4277624D1*
X5189420Y4273585D1*
X5186214Y4269749D1*
X5181537Y4265013D1*
X5187038Y4259314D1*
X5190180Y4255426D1*
X5193058Y4251338D1*
X5195659Y4247069D1*
X5197971Y4242636D1*
X5199984Y4238060D1*
X5201690Y4233361D1*
X5203080Y4228559D1*
X5204149Y4223676D1*
X5204893Y4218733D1*
X5205400Y4210000D1*
X5205234Y4205004D1*
X5204738Y4200029D1*
X5203913Y4195099D1*
X5202763Y4190234D1*
X5201293Y4185456D1*
X5199510Y4180785D1*
X5197421Y4176243D1*
X5195036Y4171850D1*
X5192366Y4167624D1*
X5189420Y4163585D1*
X5186214Y4159749D1*
X5182761Y4156135D1*
X5179075Y4152757D1*
X5175174Y4149631D1*
X5171075Y4146770D1*
X5166795Y4144187D1*
X5162353Y4141894D1*
X5157769Y4139900D1*
X5153062Y4138214D1*
X5148255Y4136843D1*
X5143367Y4135794D1*
X5138420Y4135072D1*
X5133437Y4134678D1*
X5128438Y4134616D1*
X5123446Y4134885D1*
X5118483Y4135485D1*
X5113571Y4136412D1*
X5108731Y4137662D1*
X5103984Y4139230D1*
X5099352Y4141110D1*
X5094854Y4143292D1*
X5090511Y4145768D1*
X5086341Y4148526D1*
X5082364Y4151554D1*
X5078596Y4154839D1*
X5075053Y4158366D1*
X5071753Y4162121D1*
X5068708Y4166086D1*
X5065933Y4170244D1*
X5063439Y4174577D1*
X5061238Y4179065D1*
X5059339Y4183689D1*
X5057751Y4188430D1*
X5056481Y4193264D1*
X5055533Y4198173D1*
X5054913Y4203133D1*
X5054623Y4208124D1*
X5054665Y4213123D1*
X5055037Y4218108D1*
X5055739Y4223058D1*
X5056768Y4227950D1*
X5058118Y4232763D1*
X5059785Y4237476D1*
X5061760Y4242069D1*
X5064035Y4246520D1*
X5066600Y4250811D1*
X5069443Y4254923D1*
X5072553Y4258837D1*
X5075915Y4262536D1*
X5078461Y4264988D1*
X5075053Y4268366D1*
X5071753Y4272121D1*
X5068708Y4276086D1*
X5065933Y4280244D1*
X5063439Y4284577D1*
X5061238Y4289065D1*
X5059339Y4293689D1*
X5057751Y4298430D1*
X5056481Y4303264D1*
X5055533Y4308173D1*
X5054913Y4313133D1*
X5054623Y4318124D1*
X5054665Y4323123D1*
X5055037Y4328108D1*
X5055739Y4333058D1*
X5056768Y4337950D1*
X5058118Y4342763D1*
X5059785Y4347476D1*
X5061760Y4352069D1*
X5064035Y4356520D1*
X5066600Y4360811D1*
X5069443Y4364923D1*
X5072553Y4368837D1*
X5075915Y4372536D1*
X5079516Y4376004D1*
X5083338Y4379227D1*
X5087365Y4382188D1*
X5091579Y4384877D1*
X5095963Y4387280D1*
X5100496Y4389388D1*
X5105159Y4391190D1*
X5109931Y4392680D1*
X5114791Y4393850D1*
X5119718Y4394696D1*
X5124690Y4395213D1*
X5129686Y4395399D1*
X5134683Y4395254D1*
X5139659Y4394779D1*
X5144593Y4393974D1*
X5149463Y4392845D1*
X5154247Y4391395D1*
X5158925Y4389631D1*
X5163475Y4387562D1*
X5167879Y4385195D1*
X5172116Y4382542D1*
X5176167Y4379613D1*
X5180016Y4376423D1*
X5183645Y4372985D1*
X5187038Y4369314D1*
X5190180Y4365426D1*
X5193058Y4361338D1*
X5195659Y4357069D1*
X5197971Y4352636D1*
X5199984Y4348060D1*
X5201690Y4343361D1*
X5203080Y4338559D1*
X5204149Y4333676D1*
X5204893Y4328733D1*
X5205400Y4320000D1*
X5205234Y4315004D1*
X2955234Y5295004D2*
X2954738Y5290029D1*
X2953913Y5285099D1*
X2952763Y5280234D1*
X2951293Y5275456D1*
X2949510Y5270785D1*
X2947421Y5266243D1*
X2945036Y5261850D1*
X2942366Y5257624D1*
X2939420Y5253585D1*
X2936214Y5249749D1*
X2932761Y5246135D1*
X2929075Y5242757D1*
X2925174Y5239631D1*
X2921075Y5236770D1*
X2916795Y5234187D1*
X2912353Y5231894D1*
X2907769Y5229900D1*
X2903062Y5228214D1*
X2898255Y5226843D1*
X2893367Y5225794D1*
X2888420Y5225072D1*
X2883437Y5224678D1*
X2878438Y5224616D1*
X2873446Y5224885D1*
X2868483Y5225485D1*
X2863571Y5226412D1*
X2858731Y5227662D1*
X2853984Y5229230D1*
X2849352Y5231110D1*
X2844854Y5233292D1*
X2840511Y5235768D1*
X2836341Y5238526D1*
X2832364Y5241554D1*
X2828596Y5244839D1*
X2825053Y5248366D1*
X2821753Y5252121D1*
X2818708Y5256086D1*
X2815933Y5260244D1*
X2813439Y5264577D1*
X2811238Y5269065D1*
X2809339Y5273689D1*
X2807751Y5278430D1*
X2806481Y5283264D1*
X2805533Y5288173D1*
X2804913Y5293133D1*
X2804623Y5298124D1*
X2804665Y5303123D1*
X2805037Y5308108D1*
X2805739Y5313058D1*
X2806768Y5317950D1*
X2808118Y5322763D1*
X2809785Y5327476D1*
X2811760Y5332069D1*
X2814035Y5336520D1*
X2816600Y5340811D1*
X2819443Y5344923D1*
X2822553Y5348837D1*
X2825915Y5352536D1*
X2829516Y5356004D1*
X2833338Y5359227D1*
X2837365Y5362188D1*
X2841579Y5364877D1*
X2845963Y5367280D1*
X2850496Y5369388D1*
X2855159Y5371190D1*
X2859931Y5372680D1*
X2864791Y5373850D1*
X2869718Y5374696D1*
X2874690Y5375213D1*
X2879686Y5375399D1*
X2884683Y5375254D1*
X2889659Y5374779D1*
X2894593Y5373974D1*
X2899463Y5372845D1*
X2904247Y5371395D1*
X2908925Y5369631D1*
X2913475Y5367562D1*
X2917879Y5365195D1*
X2922116Y5362542D1*
X2926167Y5359613D1*
X2930016Y5356423D1*
X2933645Y5352985D1*
X2937038Y5349314D1*
X2940180Y5345426D1*
X2943058Y5341338D1*
X2945659Y5337069D1*
X2947971Y5332636D1*
X2949984Y5328060D1*
X2951690Y5323361D1*
X2953080Y5318559D1*
X2954149Y5313676D1*
X2954893Y5308733D1*
X2955400Y5300000D1*
X2955234Y5295004D1*
X5245234Y3835004D2*
X5244738Y3830029D1*
X5243913Y3825099D1*
X5242763Y3820234D1*
X5241293Y3815456D1*
X5239510Y3810785D1*
X5237421Y3806243D1*
X5235036Y3801850D1*
X5232366Y3797624D1*
X5229420Y3793585D1*
X5226214Y3789749D1*
X5222761Y3786135D1*
X5219075Y3782757D1*
X5215174Y3779631D1*
X5211075Y3776770D1*
X5206795Y3774187D1*
X5202353Y3771894D1*
X5197769Y3769900D1*
X5193062Y3768214D1*
X5188255Y3766843D1*
X5183367Y3765794D1*
X5178420Y3765072D1*
X5173437Y3764678D1*
X5168438Y3764616D1*
X5163446Y3764885D1*
X5158483Y3765485D1*
X5153571Y3766412D1*
X5148731Y3767662D1*
X5143984Y3769230D1*
X5139352Y3771110D1*
X5134854Y3773292D1*
X5130511Y3775768D1*
X5126341Y3778526D1*
X5122364Y3781554D1*
X5118596Y3784839D1*
X5115053Y3788366D1*
X5111753Y3792121D1*
X5108708Y3796086D1*
X5105933Y3800244D1*
X5103439Y3804577D1*
X5101238Y3809065D1*
X5099339Y3813689D1*
X5097751Y3818430D1*
X5096481Y3823264D1*
X5095533Y3828173D1*
X5094913Y3833133D1*
X5094623Y3838124D1*
X5094665Y3843123D1*
X5095037Y3848108D1*
X5095739Y3853058D1*
X5096768Y3857950D1*
X5098118Y3862763D1*
X5099785Y3867476D1*
X5101760Y3872069D1*
X5104035Y3876520D1*
X5106600Y3880811D1*
X5109443Y3884923D1*
X5112553Y3888837D1*
X5115915Y3892536D1*
X5119516Y3896004D1*
X5123338Y3899227D1*
X5127365Y3902188D1*
X5131579Y3904877D1*
X5135963Y3907280D1*
X5140496Y3909388D1*
X5145159Y3911190D1*
X5149931Y3912680D1*
X5154791Y3913850D1*
X5159718Y3914696D1*
X5164690Y3915213D1*
X5169686Y3915399D1*
X5174683Y3915254D1*
X5179659Y3914779D1*
X5184593Y3913974D1*
X5189463Y3912845D1*
X5194247Y3911395D1*
X5198925Y3909631D1*
X5203475Y3907562D1*
X5207879Y3905195D1*
X5212116Y3902542D1*
X5216167Y3899613D1*
X5220016Y3896423D1*
X5223645Y3892985D1*
X5227038Y3889314D1*
X5230180Y3885426D1*
X5233058Y3881338D1*
X5235659Y3877069D1*
X5237971Y3872636D1*
X5239984Y3868060D1*
X5241690Y3863361D1*
X5243080Y3858559D1*
X5244149Y3853676D1*
X5244893Y3848733D1*
X5245400Y3840000D1*
X5245234Y3835004D1*
X3724276Y6325002D2*
X3723282Y6315056D1*
X3721303Y6305258D1*
X3718361Y6295705D1*
X3714483Y6286492D1*
X3709708Y6277710D1*
X3704084Y6269446D1*
X3697666Y6261783D1*
X3690517Y6254796D1*
X3682710Y6248555D1*
X3674320Y6243120D1*
X3665432Y6238547D1*
X3656132Y6234881D1*
X3646515Y6232157D1*
X3636674Y6230403D1*
X3626708Y6229637D1*
X3616714Y6229865D1*
X3606793Y6231085D1*
X3597043Y6233287D1*
X3587560Y6236447D1*
X3578437Y6240534D1*
X3569767Y6245508D1*
X3561634Y6251319D1*
X3554119Y6257911D1*
X3547297Y6265217D1*
X3541236Y6273165D1*
X3535994Y6281676D1*
X3531625Y6290667D1*
X3528172Y6300047D1*
X3525669Y6309725D1*
X3524140Y6319603D1*
X3523601Y6329584D1*
X3524057Y6339570D1*
X3525504Y6349460D1*
X3527927Y6359158D1*
X3531303Y6368567D1*
X3535597Y6377593D1*
X3540768Y6386148D1*
X3546763Y6394146D1*
X3553525Y6401508D1*
X3560984Y6408161D1*
X3569069Y6414040D1*
X3577698Y6419086D1*
X3586786Y6423248D1*
X3596243Y6426487D1*
X3605974Y6428769D1*
X3615885Y6430072D1*
X3625876Y6430382D1*
X3635848Y6429698D1*
X3645703Y6428026D1*
X3655343Y6425382D1*
X3664672Y6421793D1*
X3673599Y6417293D1*
X3682033Y6411929D1*
X3689892Y6405752D1*
X3697098Y6398825D1*
X3703579Y6391215D1*
X3709272Y6382998D1*
X3714119Y6374257D1*
X3718074Y6365076D1*
X3721095Y6355548D1*
X3723154Y6345766D1*
X3724231Y6335829D1*
X3724400Y6330000D1*
X3724276Y6325002D1*
X3980276D2*
X3979282Y6315056D1*
X3977303Y6305258D1*
X3974361Y6295705D1*
X3970483Y6286492D1*
X3965708Y6277710D1*
X3960084Y6269446D1*
X3953666Y6261783D1*
X3946517Y6254796D1*
X3938710Y6248555D1*
X3930320Y6243120D1*
X3921432Y6238547D1*
X3912132Y6234881D1*
X3902515Y6232157D1*
X3892674Y6230403D1*
X3882708Y6229637D1*
X3872714Y6229865D1*
X3862793Y6231085D1*
X3853043Y6233287D1*
X3843560Y6236447D1*
X3834437Y6240534D1*
X3825767Y6245508D1*
X3817634Y6251319D1*
X3810119Y6257911D1*
X3803297Y6265217D1*
X3797236Y6273165D1*
X3791994Y6281676D1*
X3787625Y6290667D1*
X3784172Y6300047D1*
X3781669Y6309725D1*
X3780140Y6319603D1*
X3779601Y6329584D1*
X3780057Y6339570D1*
X3781504Y6349460D1*
X3783927Y6359158D1*
X3787303Y6368567D1*
X3791597Y6377593D1*
X3796768Y6386148D1*
X3802763Y6394146D1*
X3809525Y6401508D1*
X3816984Y6408161D1*
X3825069Y6414040D1*
X3833698Y6419086D1*
X3842786Y6423248D1*
X3852243Y6426487D1*
X3861974Y6428769D1*
X3871885Y6430072D1*
X3881876Y6430382D1*
X3891848Y6429698D1*
X3901703Y6428026D1*
X3911343Y6425382D1*
X3920672Y6421793D1*
X3929599Y6417293D1*
X3938033Y6411929D1*
X3945892Y6405752D1*
X3953098Y6398825D1*
X3959579Y6391215D1*
X3965272Y6382998D1*
X3970119Y6374257D1*
X3974074Y6365076D1*
X3977095Y6355548D1*
X3979154Y6345766D1*
X3980231Y6335829D1*
X3980400Y6330000D1*
X3980276Y6325002D1*
X4234276D2*
X4233282Y6315056D1*
X4231303Y6305258D1*
X4228361Y6295705D1*
X4224483Y6286492D1*
X4219708Y6277710D1*
X4214084Y6269446D1*
X4207666Y6261783D1*
X4200517Y6254796D1*
X4192710Y6248555D1*
X4184320Y6243120D1*
X4175432Y6238547D1*
X4166132Y6234881D1*
X4156515Y6232157D1*
X4146674Y6230403D1*
X4136708Y6229637D1*
X4126714Y6229865D1*
X4116793Y6231085D1*
X4107043Y6233287D1*
X4097560Y6236447D1*
X4088437Y6240534D1*
X4079767Y6245508D1*
X4071634Y6251319D1*
X4064119Y6257911D1*
X4057297Y6265217D1*
X4051236Y6273165D1*
X4045994Y6281676D1*
X4041625Y6290667D1*
X4038172Y6300047D1*
X4035669Y6309725D1*
X4034140Y6319603D1*
X4033601Y6329584D1*
X4034057Y6339570D1*
X4035504Y6349460D1*
X4037927Y6359158D1*
X4041303Y6368567D1*
X4045597Y6377593D1*
X4050768Y6386148D1*
X4056763Y6394146D1*
X4063525Y6401508D1*
X4070984Y6408161D1*
X4079069Y6414040D1*
X4087698Y6419086D1*
X4096786Y6423248D1*
X4106243Y6426487D1*
X4115974Y6428769D1*
X4125885Y6430072D1*
X4135876Y6430382D1*
X4145848Y6429698D1*
X4155703Y6428026D1*
X4165343Y6425382D1*
X4174672Y6421793D1*
X4183599Y6417293D1*
X4192033Y6411929D1*
X4199892Y6405752D1*
X4207098Y6398825D1*
X4213579Y6391215D1*
X4219272Y6382998D1*
X4224119Y6374257D1*
X4228074Y6365076D1*
X4231095Y6355548D1*
X4233154Y6345766D1*
X4234231Y6335829D1*
X4234400Y6330000D1*
X4234276Y6325002D1*
X1895320Y2767001D2*
X1894677Y2757023D1*
X1893393Y2747108D1*
X1891475Y2737295D1*
X1888930Y2727626D1*
X1885768Y2718141D1*
X1882003Y2708879D1*
X1877650Y2699878D1*
X1872727Y2691175D1*
X1867255Y2682808D1*
X1861256Y2674809D1*
X1854755Y2667213D1*
X1847779Y2660050D1*
X1840357Y2653351D1*
X1832520Y2647143D1*
X1824299Y2641452D1*
X1815730Y2636301D1*
X1806847Y2631712D1*
X1797687Y2627704D1*
X1788289Y2624293D1*
X1778690Y2621493D1*
X1768932Y2619317D1*
X1759054Y2617773D1*
X1749097Y2616866D1*
X1739102Y2616603D1*
X1729111Y2616982D1*
X1719165Y2618003D1*
X1709305Y2619662D1*
X1699572Y2621951D1*
X1690007Y2624861D1*
X1680649Y2628380D1*
X1671536Y2632494D1*
X1662707Y2637186D1*
X1654197Y2642435D1*
X1646043Y2648221D1*
X1638278Y2654519D1*
X1630934Y2661304D1*
X1624041Y2668546D1*
X1617628Y2676217D1*
X1611722Y2684285D1*
X1606347Y2692715D1*
X1601525Y2701474D1*
X1597277Y2710525D1*
X1593619Y2719830D1*
X1590567Y2729351D1*
X1588134Y2739049D1*
X1586329Y2748883D1*
X1585161Y2758812D1*
X1584633Y2768797D1*
X1584749Y2778794D1*
X1585507Y2788764D1*
X1586905Y2798664D1*
X1588936Y2808454D1*
X1591593Y2818092D1*
X1594864Y2827540D1*
X1598736Y2836759D1*
X1603193Y2845709D1*
X1608216Y2854353D1*
X1613784Y2862658D1*
X1619875Y2870586D1*
X1626464Y2878107D1*
X1633522Y2885188D1*
X1641021Y2891801D1*
X1648930Y2897918D1*
X1657216Y2903514D1*
X1665844Y2908565D1*
X1674779Y2913051D1*
X1683985Y2916953D1*
X1693422Y2920255D1*
X1703052Y2922944D1*
X1712835Y2925007D1*
X1722730Y2926437D1*
X1732697Y2927228D1*
X1742695Y2927377D1*
X1752681Y2926882D1*
X1762614Y2925746D1*
X1772454Y2923973D1*
X1782160Y2921572D1*
X1791691Y2918551D1*
X1801008Y2914924D1*
X1810072Y2910705D1*
X1818847Y2905912D1*
X1827295Y2900564D1*
X1835382Y2894685D1*
X1843074Y2888297D1*
X1850339Y2881428D1*
X1857147Y2874106D1*
X1863471Y2866362D1*
X1869283Y2858227D1*
X1874560Y2849734D1*
X1879281Y2840921D1*
X1883424Y2831821D1*
X1886974Y2822475D1*
X1889916Y2812919D1*
X1892237Y2803194D1*
X1893928Y2793339D1*
X1894982Y2783397D1*
X1895394Y2773407D1*
X1895320Y2767001D1*
D37*
X2770000Y1430000D3*
D38*
Y2827000D3*
D37*
X4625000Y1430000D3*
D38*
Y2827000D3*
D50*
X1160000Y3890000D3*
Y3610000D3*
D51*
X1740000Y2772000D3*
Y2264000D3*
D50*
X2100000Y2766000D3*
Y2512000D3*
Y2258000D3*
Y2004000D3*
Y1750000D3*
G36*
X2892000Y1922000D2*
X2650000D1*
Y2140000D1*
X2786000Y2200000D1*
X2892000Y2094000D1*
Y1922000D1*
G37*
M02*
