G04 DipTrace 3.3.1.1*
G04 Top.gbr*
%MOMM*%
G04 #@! TF.FileFunction,Copper,L1,Top*
G04 #@! TF.Part,Single*
G04 #@! TA.AperFunction,Conductor*
%ADD13C,0.2*%
%ADD14C,0.3*%
%ADD16C,1.5*%
%ADD17C,0.5*%
%ADD18C,0.6*%
G04 #@! TA.AperFunction,ViaPad*
%ADD19C,0.8*%
G04 #@! TA.AperFunction,CopperBalancing*
%ADD21C,0.1*%
%ADD26R,1.0X1.0*%
%ADD27R,1.1X1.0*%
%ADD28R,1.0X1.1*%
%ADD29R,2.4X2.6*%
%ADD31R,0.8X0.6*%
%ADD33R,0.85X0.6*%
%ADD35R,0.6X0.8*%
%ADD36R,1.2X1.45*%
G04 #@! TA.AperFunction,ComponentPad*
%ADD37C,2.0*%
%ADD38R,2.0X2.0*%
%ADD41R,0.8X2.0*%
%ADD42R,0.6X2.0*%
%ADD46R,0.3X1.6*%
%ADD47R,1.6X0.3*%
%ADD48R,0.8X1.5*%
%ADD49R,1.5X2.0*%
G04 #@! TA.AperFunction,ComponentPad*
%ADD50C,2.2*%
%ADD51C,2.4*%
%ADD52R,1.3X1.1*%
%ADD53R,1.5X1.5*%
G04 #@! TA.AperFunction,ViaPad*
%ADD54C,9.0*%
%ADD56C,1.3*%
%FSLAX35Y35*%
G04*
G71*
G90*
G75*
G01*
G04 Top*
%LPD*%
X3538000Y2309000D2*
D13*
Y2113000D1*
X3540500Y2110500D1*
Y2050500D1*
X3500000Y2010000D1*
Y1940000D1*
X3180000Y4620000D2*
X3350000D1*
X3750000Y4450000D2*
X3590000D1*
X3580000Y4440000D1*
X3350000Y4620000D2*
Y4740000D1*
X3580000Y4440000D2*
Y4320000D1*
X3780000Y5200000D2*
D14*
Y5010000D1*
X4100000Y4620000D2*
D13*
Y4740000D1*
X4450000Y1789967D2*
D16*
Y1605000D1*
X4625000Y1430000D1*
X2770000Y1799967D2*
Y1430000D1*
Y2000000D2*
D13*
Y1799967D1*
X2850000Y2000000D2*
Y1879967D1*
X2770000Y1799967D1*
X2690000Y2000000D2*
Y1879967D1*
X2770000Y1799967D1*
X3210000Y2680000D2*
D17*
X3121000D1*
X3087000Y2646000D1*
Y2268930D1*
Y1916000D1*
X2964000Y1793000D1*
X2776967D1*
X2770000Y1799967D1*
X3210000Y2320000D2*
D14*
X3138070D1*
X3087000Y2268930D1*
X3900000Y1650013D2*
D13*
X4030013D1*
X4050000Y1670000D1*
X3330000Y1940000D2*
X3111000D1*
X3087000Y1916000D1*
X4050000Y1670000D2*
X4190000D1*
X4300000Y1780000D1*
X4440033D1*
X4450000Y1789967D1*
X4000000Y2680000D2*
D14*
X3210000D1*
X3270000Y3460000D2*
D18*
Y3470000D1*
X2220000D1*
X2210000Y3480000D1*
X5110000Y5950000D2*
D13*
Y5750000D1*
Y5540000D2*
Y5750000D1*
X4125000Y5655000D2*
X4275000D1*
X4320000Y5610000D1*
X4600000D1*
X4760000Y5450000D1*
Y5296000D1*
X4764000Y5300000D1*
X3480000Y5850000D2*
D14*
Y5680000D1*
X3470000D1*
X4125000Y5655000D2*
X3955000D1*
X3940000Y5670000D1*
X3285000Y5205000D2*
X3415000D1*
X3490000Y5280000D1*
X3470000D1*
X3285000Y5355000D2*
X3415000D1*
X3490000Y5280000D1*
X2030000Y4700000D2*
D17*
Y4470000D1*
X1970000Y5610000D2*
D13*
Y5460000D1*
X1920000Y5410000D1*
X4390000Y1990000D2*
D19*
Y1849967D1*
X4450000Y1789967D1*
X4510000Y1990000D2*
Y1849967D1*
X4450000Y1789967D1*
X4850000Y2590000D2*
X4960000D1*
X5930000D1*
X6000000Y2520000D1*
Y2440000D1*
X6100000Y2590000D2*
X5930000D1*
X5110000Y5750000D2*
D13*
X5240000D1*
X6370000Y4140000D2*
Y4010000D1*
X5950000Y2590000D2*
X5930000D1*
X1570000Y5040000D2*
D14*
Y4213000D1*
X2950000Y5040000D2*
Y4210000D1*
X2030000D1*
X1573000D1*
X1570000Y4213000D1*
X2030000Y4470000D2*
Y4210000D1*
X3372000Y6330000D2*
D13*
X3370000D1*
X3220000Y3090000D2*
Y2860000D1*
X3210000Y2850000D1*
X3411000Y2849000D1*
X3538000D2*
X3411000D1*
Y2309000D2*
Y2448377D1*
X3452623Y2490000D1*
X3462623Y2500000D1*
X3620000D1*
X3660000Y2460000D1*
Y2314000D1*
X3665000Y2309000D1*
X3210000Y2490000D2*
D14*
X3452623D1*
X3411000Y2309000D2*
D13*
Y2141000D1*
X3380000Y2110000D1*
X3321000D1*
X3320500Y2110500D1*
X3665000Y2309000D2*
Y2116000D1*
X3670500Y2110500D1*
X3665000Y2309000D2*
Y2435000D1*
X3730000Y2500000D1*
X3910000D1*
X4010000Y2400000D1*
Y1830000D1*
X3960000Y1780000D1*
X3870000D1*
X4180000Y2660000D2*
Y2510000D1*
X4070000Y2400000D1*
X4010000D1*
X3792000Y2309000D2*
Y2138000D1*
X3820000Y2110000D1*
X3890000D1*
X3890500Y2110500D1*
Y2040500D1*
X3870000Y2020000D1*
Y1940000D1*
X3700000D2*
Y1780000D1*
X3690000Y1585007D2*
Y1770000D1*
X3700000Y1780000D1*
X2770000Y2827000D2*
D16*
Y2440000D1*
X2960000Y2520000D2*
D13*
X2850000D1*
X2770000Y2440000D1*
X2960000D2*
X2770000D1*
X2960000Y2360000D2*
X2850000D1*
X2770000Y2440000D1*
X3665000Y2849000D2*
X3792000D1*
X4000000Y2850000D2*
D14*
X3792000Y2849000D1*
X3665000D2*
D13*
Y3005000D1*
X3640000Y3030000D1*
X3792000Y2849000D2*
Y3022000D1*
X3800000Y3030000D1*
X3720000D2*
X3800000D1*
X3900000Y1520000D2*
X4030000D1*
X4050000Y1500000D1*
X3900000Y1520000D2*
Y1390000D1*
X3880000Y1370000D1*
Y1210000D1*
X3050000Y3090000D2*
X2058000D1*
X1740000Y2772000D1*
X1400000Y3670000D2*
X1220000D1*
X1160000Y3610000D1*
X1400000Y3840000D2*
X1210000D1*
X1160000Y3890000D1*
X3830000Y5010000D2*
D14*
Y4850000D1*
X3860000Y4820000D1*
X3285000Y5155000D2*
X3185000D1*
X3160000Y5130000D1*
Y5060000D1*
X3180000Y5040000D1*
X3430000Y5010000D2*
Y4920000D1*
X3400000Y4890000D1*
X3330000D1*
X3180000Y5040000D1*
X3430000Y5850000D2*
Y6070000D1*
X4125000Y5705000D2*
X4345000D1*
X4350000Y5710000D1*
X3860000Y4820000D2*
D13*
X4160000D1*
X4210000Y4770000D1*
Y4470000D1*
X4190000Y4450000D1*
X4100000D1*
X4450000Y2430000D2*
D16*
Y2670000D1*
X4620000Y2840000D1*
Y2822000D1*
X4625000Y2827000D1*
X4390000Y2230000D2*
D19*
Y2370000D1*
X4450000Y2430000D1*
X4510000Y2230000D2*
Y2370000D1*
X4450000Y2430000D1*
X4960000Y2740000D2*
X4850000D1*
X4134000Y6330000D2*
D13*
X4132000D1*
X4940000Y5540000D2*
X4840000D1*
X4740000Y5640000D1*
X3730000Y5850000D2*
Y6040000D1*
X3780000Y6090000D1*
X4290000D1*
X4740000Y5640000D1*
X3490000Y1680000D2*
X3590000D1*
X3600000Y1670000D1*
X3280000Y1745007D2*
Y1650000D1*
X4940000Y5750000D2*
X4840000D1*
X4740000Y5850000D1*
X3680000D2*
Y6060000D1*
X3760000Y6140000D1*
X4450000D1*
X4740000Y5850000D1*
X3280000Y1495007D2*
Y1400000D1*
X3490000Y1430000D2*
X3560000D1*
X3620000Y1490000D1*
X3600000D1*
X4940000Y5950000D2*
X4840000D1*
X4740000Y6050000D1*
X3630000Y5850000D2*
Y6080000D1*
X3740000Y6190000D1*
X4600000D1*
X4740000Y6050000D1*
X3280000Y1245007D2*
Y1150000D1*
X3490000Y1180000D2*
X3560000D1*
X3590000Y1150000D1*
Y1100000D1*
X3490000Y1310013D2*
X3560013D1*
X3620000Y1370000D1*
X3710000D1*
X3490000Y1810013D2*
X3410013D1*
X3380000Y1780000D1*
Y1526153D1*
Y1340000D1*
X3410000Y1310000D1*
X3489987D1*
X3490000Y1310013D1*
Y1560013D2*
X3413860D1*
X3380000Y1526153D1*
X5440000Y2890000D2*
X4850000D1*
X4125000Y5355000D2*
X4295000D1*
X4350000Y5300000D1*
Y4640000D1*
X4480000Y4510000D1*
X5140000D1*
X5230000Y4420000D1*
Y4170000D1*
X5030000Y3970000D1*
Y3300000D1*
X5440000Y2890000D1*
X2250000Y4700000D2*
D17*
Y4470000D1*
X4125000Y5405000D2*
D13*
X3915000D1*
X3890000Y5380000D1*
X3710000Y1210000D2*
Y1090000D1*
X3285000Y5255000D2*
X3155000D1*
X3100000Y5200000D1*
Y4980000D1*
X3230000Y4850000D1*
X6100000Y2890000D2*
X6200000D1*
X6260000Y2950000D1*
Y3230000D1*
X6370000Y3340000D1*
Y3470000D1*
Y3840000D2*
Y3640000D1*
X3285000Y5605000D2*
X3185000D1*
X3090000Y5700000D1*
X2350000D1*
X2260000Y5610000D1*
X2140000D1*
Y4470000D1*
X3730000Y5010000D2*
Y4810000D1*
X3810000Y4730000D1*
X3900000D1*
X3930000Y4700000D1*
Y4620000D1*
Y4450000D1*
X3630000Y5010000D2*
Y4920000D1*
X3470000Y4760000D1*
Y4460000D1*
X3450000Y4440000D1*
X3350000D1*
X3180000Y4450000D2*
X3340000D1*
X3350000Y4440000D1*
X3680000Y5010000D2*
Y4870000D1*
X3570000Y4760000D1*
Y4630000D1*
X3580000Y4620000D1*
X3750000D2*
X3580000D1*
X3624000Y6330000D2*
D3*
X3285000Y5705000D2*
X3165000D1*
X3090000Y5780000D1*
Y5980000D1*
X3290000Y6180000D1*
X3600000D1*
X3624000Y6204000D1*
Y6330000D1*
X3880000D2*
X3878000D1*
X3530000Y5850000D2*
Y6080000D1*
X3550000Y6100000D1*
X3285000Y5505000D2*
X3165000D1*
X3090000Y5580000D1*
X3010000D1*
X2360000Y4930000D1*
Y4470000D1*
X3285000Y5555000D2*
X3175000D1*
X3100000Y5630000D1*
X2950000D1*
X1920000Y4620000D2*
Y4470000D1*
X3285000Y5455000D2*
X3115000D1*
X3060000Y5510000D1*
X4850000Y4240000D2*
Y4220000D1*
X5130000D1*
Y4210000D1*
X3285000Y5405000D2*
X3065000D1*
X3060000Y5400000D1*
X4850000Y4390000D2*
X5060000D1*
X5130000Y4320000D1*
X3285000Y5305000D2*
X2885000D1*
X2880000Y5300000D1*
X5170000Y3840000D2*
X5970000Y3040000D1*
X6100000D1*
X4125000Y5455000D2*
X3805000D1*
X3780000Y5480000D1*
X2470000Y4620000D2*
Y4470000D1*
X3780000Y5850000D2*
Y5970000D1*
X3820000Y6010000D1*
X4125000Y5555000D2*
X4435000D1*
X4510000Y5480000D1*
Y5300000D1*
X4470000Y3640000D2*
Y3320000D1*
X4180000Y3030000D1*
Y2880000D1*
D54*
X3750000Y3750000D3*
D19*
X3430000Y6070000D3*
X4350000Y5710000D3*
X3860000Y4820000D3*
X3180000Y5040000D3*
X3350000Y4740000D3*
X3780000Y5200000D3*
X3580000Y4320000D3*
X4100000Y4740000D3*
X4960000Y2740000D3*
Y2590000D3*
X5440000Y2890000D3*
X6370000Y4140000D3*
X2960000Y2520000D3*
Y2440000D3*
Y2360000D3*
X2770000Y2000000D3*
X2850000D3*
X2690000D3*
X2290000Y3480000D3*
X2210000D3*
X3640000Y3030000D3*
X3720000D3*
X3800000D3*
X3600000Y1670000D3*
Y1490000D3*
X3590000Y1100000D3*
X3280000Y1650000D3*
Y1400000D3*
Y1150000D3*
X3710000Y1090000D3*
X3270000Y3460000D3*
X2000000Y3480000D3*
X1740000D3*
X4390000Y2230000D3*
X4510000D3*
X4740000Y6050000D3*
Y5850000D3*
Y5640000D3*
X3820000Y6010000D3*
X4470000Y3640000D3*
X3060000Y5400000D3*
Y5510000D3*
X3780000Y5480000D3*
X2950000Y5630000D3*
X3890000Y5380000D3*
X3470000Y5680000D3*
Y5280000D3*
X3940000Y5670000D3*
X1920000Y4620000D3*
X2250000Y4700000D3*
X2470000Y4620000D3*
X2030000Y4700000D3*
X1920000Y5410000D3*
X3190000Y5850000D3*
X2720000Y5840000D3*
Y6180000D3*
X5130000Y4320000D3*
Y4210000D3*
X2880000Y5300000D3*
X5170000Y3840000D3*
X4390000Y1990000D3*
X4510000D3*
X5240000Y5750000D3*
X2810000Y5610000D3*
X5110000Y5230000D3*
X4020000Y3190000D3*
X5950000Y2590000D3*
X3230000Y4850000D3*
D56*
X3372000Y6330000D3*
X3624000D3*
X3880000D3*
X4134000D3*
D19*
X3550000Y6100000D3*
X1860000Y2520000D3*
X5200000Y1550000D3*
X1300000Y4750000D3*
X5500000Y3200000D3*
X4670000Y3060000D3*
X3170000Y1940000D3*
X2970000Y2660000D3*
X5400000Y2290000D3*
X3910000Y2270000D3*
X5150000Y3700000D3*
X4900000Y1630000D3*
X3720000Y5370000D3*
X5140000Y3410000D3*
X5570000Y4360000D3*
X5200000Y3980000D3*
X2700000Y4050000D3*
X4090000Y5850000D3*
X5680000Y1970000D3*
X1800000Y4050000D3*
X3360000Y4160000D3*
X5970000Y4330000D3*
X4120000Y2320000D3*
X4040000Y1120000D3*
X1680000Y4460000D3*
X2830000Y4500000D3*
X3940000Y3060000D3*
X5570000Y5560000D3*
X5750000Y2890000D3*
X5740000Y3440000D3*
X4470000Y5080000D3*
X5150000Y3030000D3*
X5760000Y3980000D3*
X4950000Y2290000D3*
X4250000Y6000000D3*
X4240000Y1540000D3*
X2380000D3*
X1560000Y5230000D3*
X5090000Y2010000D3*
X2460000Y4830000D3*
X3170000Y1400000D3*
X4460000Y1180000D3*
X4120000Y1970000D3*
X3070000Y2880000D3*
X2380000Y1870000D3*
X6240000Y3350000D3*
X5580000Y3670000D3*
X5300000Y5330000D3*
X4230000Y5000000D3*
X4470000Y4740000D3*
X4430000Y6290000D3*
X3020000Y3750000D3*
X4130000Y3300000D3*
X5910000Y5310000D3*
X6340000Y4420000D3*
X1180000Y4260000D3*
X2250000Y5930000D3*
X2800000Y5190000D3*
X1190000Y3290000D3*
X4380000Y3400000D3*
X4560000Y3550000D3*
X4100000Y2540000D3*
X3406010Y5715333D2*
D21*
X4003990D1*
X3406010Y5705667D2*
X4003990D1*
X3406010Y5696000D2*
X4003990D1*
X3406010Y5686333D2*
X4003990D1*
X3406010Y5676667D2*
X4003990D1*
X3406010Y5667000D2*
X4003990D1*
X3406010Y5657333D2*
X4003990D1*
X3406010Y5647667D2*
X4003990D1*
X3406010Y5638000D2*
X4003990D1*
X3406010Y5628333D2*
X4003990D1*
X3406010Y5618667D2*
X4003990D1*
X3406010Y5609000D2*
X4003990D1*
X3406010Y5599333D2*
X4003990D1*
X3406010Y5589667D2*
X4003990D1*
X3406010Y5580000D2*
X4003990D1*
X3406010Y5570333D2*
X4003990D1*
X3406010Y5560667D2*
X4003990D1*
X3406010Y5551000D2*
X4003990D1*
X3406010Y5541333D2*
X3756293D1*
X3803707D2*
X4003990D1*
X3406010Y5531667D2*
X3738913D1*
X3821087D2*
X4003990D1*
X3406010Y5522000D2*
X3728873D1*
X3831127D2*
X4003990D1*
X3406010Y5512333D2*
X3722153D1*
X3837847D2*
X4003990D1*
X3406010Y5502667D2*
X3717663D1*
X3842337D2*
X4003990D1*
X3406010Y5493000D2*
X3714907D1*
X3845093D2*
X4003990D1*
X3406010Y5483333D2*
X3713677D1*
X3406010Y5473667D2*
X3713913D1*
X3406010Y5464000D2*
X3715593D1*
X3406010Y5454333D2*
X3718853D1*
X3406010Y5444667D2*
X3723970D1*
X3406010Y5435000D2*
X3731550D1*
X3406010Y5425333D2*
X3743093D1*
X3406010Y5415667D2*
X3767233D1*
X3792767D2*
X3834187D1*
X3406010Y5406000D2*
X3828990D1*
X3406010Y5396333D2*
X3825670D1*
X3406010Y5386667D2*
X3823930D1*
X3406010Y5377000D2*
X3823677D1*
X3406010Y5367333D2*
X3824830D1*
X3955170D2*
X4003990D1*
X3406010Y5357667D2*
X3827527D1*
X3952473D2*
X4003990D1*
X3406010Y5348000D2*
X3831960D1*
X3948040D2*
X4003990D1*
X3406010Y5338333D2*
X3838600D1*
X3941400D2*
X4003990D1*
X3406010Y5328667D2*
X3848483D1*
X3931517D2*
X4003990D1*
X3406010Y5319000D2*
X3865417D1*
X3914583D2*
X4003990D1*
X3406010Y5309333D2*
X4003990D1*
X3406010Y5299667D2*
X4003990D1*
X3406010Y5290000D2*
X4003990D1*
X3406010Y5280333D2*
X4003990D1*
X3406010Y5270667D2*
X4003990D1*
X3406010Y5261000D2*
X4003990D1*
X3406010Y5251333D2*
X4003990D1*
X3406010Y5241667D2*
X4003990D1*
X3406010Y5232000D2*
X4003990D1*
X3406010Y5222333D2*
X4003990D1*
X3406010Y5212667D2*
X4003990D1*
X3406010Y5203000D2*
X4003990D1*
X3406010Y5193333D2*
X4003990D1*
X3406010Y5183667D2*
X4003990D1*
X3406010Y5174000D2*
X4003990D1*
X3406010Y5164333D2*
X4003990D1*
X3406010Y5154667D2*
X4003990D1*
X3406010Y5145000D2*
X4003990D1*
X3406010Y5135333D2*
X4003990D1*
X3804970Y5419607D2*
X3802277Y5418510D1*
X3797513Y5416990D1*
X3792650Y5415837D1*
X3787713Y5415057D1*
X3782730Y5414657D1*
X3777730Y5414640D1*
X3772747Y5415003D1*
X3767803Y5415747D1*
X3762930Y5416867D1*
X3758157Y5418357D1*
X3753513Y5420203D1*
X3749023Y5422400D1*
X3744713Y5424937D1*
X3740613Y5427790D1*
X3736740Y5430953D1*
X3733120Y5434400D1*
X3729773Y5438113D1*
X3726720Y5442073D1*
X3723980Y5446253D1*
X3721567Y5450630D1*
X3719493Y5455177D1*
X3717773Y5459873D1*
X3716420Y5464683D1*
X3715433Y5469583D1*
X3714827Y5474547D1*
X3714600Y5479540D1*
X3714757Y5484537D1*
X3715293Y5489507D1*
X3716210Y5494420D1*
X3717497Y5499250D1*
X3719150Y5503967D1*
X3721160Y5508547D1*
X3723510Y5512957D1*
X3726193Y5517173D1*
X3729190Y5521177D1*
X3732483Y5524937D1*
X3736053Y5528433D1*
X3739880Y5531650D1*
X3743943Y5534563D1*
X3748217Y5537157D1*
X3752673Y5539417D1*
X3757293Y5541330D1*
X3762043Y5542887D1*
X3766900Y5544073D1*
X3771830Y5544887D1*
X3776810Y5545323D1*
X3781810Y5545373D1*
X3786797Y5545047D1*
X3791747Y5544337D1*
X3796627Y5543250D1*
X3801407Y5541797D1*
X3806067Y5539980D1*
X3810570Y5537817D1*
X3814897Y5535310D1*
X3819020Y5532483D1*
X3822913Y5529350D1*
X3826557Y5525930D1*
X3829930Y5522240D1*
X3833010Y5518303D1*
X3835780Y5514140D1*
X3838227Y5509780D1*
X3840330Y5505247D1*
X3842083Y5500567D1*
X3843473Y5495763D1*
X3844553Y5490387D1*
X4004980Y5490400D1*
X4005000Y5724980D1*
X3405020Y5725000D1*
X3405000Y5135020D1*
X4004980Y5135000D1*
X4005000Y5369590D1*
X3954550Y5369600D1*
X3953687Y5365130D1*
X3952367Y5360310D1*
X3950680Y5355603D1*
X3948640Y5351040D1*
X3946257Y5346647D1*
X3943543Y5342447D1*
X3940520Y5338467D1*
X3937200Y5334730D1*
X3933603Y5331257D1*
X3929753Y5328070D1*
X3925673Y5325183D1*
X3921380Y5322620D1*
X3916907Y5320390D1*
X3912277Y5318510D1*
X3907513Y5316990D1*
X3902650Y5315837D1*
X3897713Y5315057D1*
X3892730Y5314657D1*
X3887730Y5314640D1*
X3882747Y5315003D1*
X3877803Y5315747D1*
X3872930Y5316867D1*
X3868157Y5318357D1*
X3863513Y5320203D1*
X3859023Y5322400D1*
X3854713Y5324937D1*
X3850613Y5327790D1*
X3846740Y5330953D1*
X3843120Y5334400D1*
X3839773Y5338113D1*
X3836720Y5342073D1*
X3833980Y5346253D1*
X3831567Y5350630D1*
X3829493Y5355177D1*
X3827773Y5359873D1*
X3826420Y5364683D1*
X3825433Y5369583D1*
X3824827Y5374547D1*
X3824600Y5379540D1*
X3824757Y5384537D1*
X3825293Y5389507D1*
X3826210Y5394420D1*
X3827497Y5399250D1*
X3829150Y5403967D1*
X3831160Y5408547D1*
X3833510Y5412957D1*
X3836193Y5417173D1*
X3838007Y5419597D1*
X3805097Y5419600D1*
X3521788Y6462857D2*
X3978226D1*
X3408214Y6453190D2*
X4091780D1*
X3350167Y6443523D2*
X4149847D1*
X3293780Y6433857D2*
X3512601D1*
X3735401D2*
X3766605D1*
X3989405D2*
X4020608D1*
X3237394Y6424190D2*
X3512601D1*
X3735401D2*
X3766605D1*
X3989405D2*
X4020608D1*
X4243409D2*
X4262581D1*
X3181026Y6414523D2*
X3512601D1*
X3735401D2*
X3766605D1*
X3989405D2*
X4020608D1*
X4243409D2*
X4318968D1*
X3142491Y6404857D2*
X3512601D1*
X3735401D2*
X3766605D1*
X3989405D2*
X4020608D1*
X4243409D2*
X4357503D1*
X3105362Y6395190D2*
X3512601D1*
X3735401D2*
X3766605D1*
X3989405D2*
X4020608D1*
X4243409D2*
X4394632D1*
X3068233Y6385523D2*
X3512601D1*
X3735401D2*
X3766605D1*
X3989405D2*
X4020608D1*
X4243409D2*
X4431761D1*
X3031105Y6375857D2*
X3512601D1*
X3735401D2*
X3766605D1*
X3989405D2*
X4020608D1*
X4243409D2*
X4468870D1*
X2993995Y6366190D2*
X3512601D1*
X3735401D2*
X3766605D1*
X3989405D2*
X4020608D1*
X4243409D2*
X4505999D1*
X2956866Y6356523D2*
X3512601D1*
X3735401D2*
X3766605D1*
X3989405D2*
X4020608D1*
X4243409D2*
X4543128D1*
X2928507Y6346857D2*
X3512601D1*
X3735401D2*
X3766605D1*
X3989405D2*
X4020608D1*
X4243409D2*
X4571487D1*
X2901144Y6337190D2*
X3512601D1*
X3735401D2*
X3766605D1*
X3989405D2*
X4020608D1*
X4243409D2*
X4598851D1*
X2873780Y6327523D2*
X3512601D1*
X3735401D2*
X3766605D1*
X3989405D2*
X4020608D1*
X4243409D2*
X4626214D1*
X2846437Y6317857D2*
X3512601D1*
X3735401D2*
X3766605D1*
X3989405D2*
X4020608D1*
X4243409D2*
X4653577D1*
X2819073Y6308190D2*
X3512601D1*
X3735401D2*
X3766605D1*
X3989405D2*
X4020608D1*
X4243409D2*
X4680921D1*
X2791710Y6298523D2*
X3512601D1*
X3735401D2*
X3766605D1*
X3989405D2*
X4020608D1*
X4243409D2*
X4708284D1*
X2764347Y6288857D2*
X3512601D1*
X3735401D2*
X3766605D1*
X3989405D2*
X4020608D1*
X4243409D2*
X4735648D1*
X2737003Y6279190D2*
X3512601D1*
X3735401D2*
X3766605D1*
X3989405D2*
X4020608D1*
X4243409D2*
X4763011D1*
X2715167Y6269523D2*
X3512601D1*
X3735401D2*
X3766605D1*
X3989405D2*
X4020608D1*
X4243409D2*
X4784827D1*
X2693780Y6259857D2*
X3512601D1*
X3735401D2*
X3766605D1*
X3989405D2*
X4020608D1*
X4243409D2*
X4806214D1*
X2672394Y6250190D2*
X3512601D1*
X3735401D2*
X3766605D1*
X3989405D2*
X4020608D1*
X4243409D2*
X4827601D1*
X2651007Y6240523D2*
X3512601D1*
X3735401D2*
X3766605D1*
X3989405D2*
X4020608D1*
X4243409D2*
X4848987D1*
X2629620Y6230857D2*
X3512601D1*
X4620792D2*
X4870374D1*
X2608233Y6221190D2*
X3269905D1*
X4634015D2*
X4891761D1*
X2586847Y6211523D2*
X3256312D1*
X4643683D2*
X4913148D1*
X2565480Y6201857D2*
X3246644D1*
X4653351D2*
X4934534D1*
X2544093Y6192190D2*
X3236976D1*
X4663019D2*
X4955921D1*
X2522980Y6182523D2*
X3227327D1*
X4672687D2*
X4977015D1*
X2505675Y6172857D2*
X3217659D1*
X4682355D2*
X4994319D1*
X2488370Y6163190D2*
X3207991D1*
X4692023D2*
X5011624D1*
X2471085Y6153523D2*
X3198323D1*
X4701690D2*
X5028929D1*
X2453780Y6143857D2*
X3188655D1*
X4511358D2*
X4580940D1*
X4711358D2*
X5046233D1*
X2436476Y6134190D2*
X3178987D1*
X4521007D2*
X4590608D1*
X4721007D2*
X5063538D1*
X2419171Y6124523D2*
X3169319D1*
X4530675D2*
X4600276D1*
X4752472D2*
X5080843D1*
X2401866Y6114857D2*
X3159651D1*
X4540343D2*
X4609944D1*
X4779464D2*
X5098148D1*
X2384562Y6105190D2*
X3149983D1*
X4550011D2*
X4619612D1*
X4792374D2*
X5115452D1*
X2367257Y6095523D2*
X3140315D1*
X4559679D2*
X4629280D1*
X4801105D2*
X5132757D1*
X2349952Y6085857D2*
X3130648D1*
X4359347D2*
X4438929D1*
X4569347D2*
X4638929D1*
X4807335D2*
X5150042D1*
X2332648Y6076190D2*
X3120980D1*
X4369015D2*
X4448597D1*
X4579015D2*
X4648597D1*
X4811710D2*
X5167347D1*
X2316534Y6066523D2*
X3111312D1*
X4378683D2*
X4458265D1*
X4588683D2*
X4658265D1*
X4814562D2*
X5183460D1*
X2302237Y6056857D2*
X3101644D1*
X4388351D2*
X4467933D1*
X4598351D2*
X4663909D1*
X4816085D2*
X5197757D1*
X2287940Y6047190D2*
X3091976D1*
X4398019D2*
X4477601D1*
X4608019D2*
X4663655D1*
X4816339D2*
X5212054D1*
X2273644Y6037523D2*
X3082327D1*
X3891202D2*
X4277269D1*
X4407687D2*
X4487269D1*
X4617687D2*
X4664632D1*
X4817687D2*
X5226370D1*
X2259327Y6027857D2*
X3072659D1*
X3894249D2*
X4286937D1*
X4417355D2*
X4496937D1*
X4627355D2*
X4666917D1*
X4827355D2*
X4848597D1*
X5031398D2*
X5240667D1*
X2245030Y6018190D2*
X3062991D1*
X3895948D2*
X4296605D1*
X4427023D2*
X4506605D1*
X4637023D2*
X4670648D1*
X4837023D2*
X4848597D1*
X5031398D2*
X5254964D1*
X2230733Y6008523D2*
X3053675D1*
X3896378D2*
X4306273D1*
X4436690D2*
X4516273D1*
X4646690D2*
X4676038D1*
X5031398D2*
X5269280D1*
X2216417Y5998857D2*
X3047698D1*
X3895577D2*
X4315940D1*
X4446358D2*
X4525940D1*
X4656358D2*
X4683597D1*
X5031398D2*
X5283577D1*
X2202120Y5989190D2*
X3044534D1*
X3893468D2*
X4325608D1*
X4456007D2*
X4535608D1*
X4666007D2*
X4694417D1*
X5031398D2*
X5297874D1*
X2187823Y5979523D2*
X3043597D1*
X3889972D2*
X4335276D1*
X4465675D2*
X4545276D1*
X4675675D2*
X4712210D1*
X5031398D2*
X5312171D1*
X2173526Y5969857D2*
X3043597D1*
X3884835D2*
X4344944D1*
X4475343D2*
X4554944D1*
X4685343D2*
X4754944D1*
X5031398D2*
X5326487D1*
X2159210Y5960190D2*
X3043597D1*
X4031398D2*
X4354612D1*
X4485011D2*
X4564612D1*
X4695011D2*
X4764612D1*
X5031398D2*
X5340784D1*
X2144913Y5950523D2*
X3043597D1*
X4031398D2*
X4364280D1*
X4494679D2*
X4574280D1*
X4704679D2*
X4774280D1*
X5031398D2*
X5355081D1*
X2130616Y5940857D2*
X3043597D1*
X4031398D2*
X4373929D1*
X4504347D2*
X4583929D1*
X4714347D2*
X4783929D1*
X5031398D2*
X5369378D1*
X2118644Y5931190D2*
X3043597D1*
X4031398D2*
X4383597D1*
X4514015D2*
X4593597D1*
X4724015D2*
X4793597D1*
X5031398D2*
X5381351D1*
X2106671Y5921523D2*
X3043597D1*
X4031398D2*
X4393265D1*
X4523683D2*
X4603265D1*
X4764874D2*
X4803265D1*
X5031398D2*
X5393323D1*
X2094698Y5911857D2*
X2696155D1*
X2743839D2*
X3043597D1*
X4031398D2*
X4402933D1*
X4533351D2*
X4612933D1*
X4784112D2*
X4814378D1*
X5031398D2*
X5405296D1*
X2082726Y5902190D2*
X2676370D1*
X2763624D2*
X3043597D1*
X4031398D2*
X4412601D1*
X4543019D2*
X4622601D1*
X4795421D2*
X4848597D1*
X5031398D2*
X5417269D1*
X2070753Y5892523D2*
X2664905D1*
X2775089D2*
X3043597D1*
X4031398D2*
X4422269D1*
X4552687D2*
X4632269D1*
X4803273D2*
X4848597D1*
X5031398D2*
X5429241D1*
X2058780Y5882857D2*
X2656956D1*
X2783038D2*
X3043597D1*
X4031398D2*
X4431937D1*
X4562355D2*
X4641937D1*
X4808858D2*
X4848597D1*
X5031398D2*
X5441214D1*
X2046808Y5873190D2*
X2651292D1*
X2788702D2*
X3043597D1*
X4031398D2*
X4441605D1*
X4572023D2*
X4651605D1*
X4812745D2*
X4848597D1*
X5031398D2*
X5453187D1*
X2034835Y5863523D2*
X2647366D1*
X2792628D2*
X3043597D1*
X4031398D2*
X4451273D1*
X4581690D2*
X4661273D1*
X4815187D2*
X5465159D1*
X2022862Y5853857D2*
X2644886D1*
X2795108D2*
X3043597D1*
X4031398D2*
X4460940D1*
X4591358D2*
X4663694D1*
X4816300D2*
X5477132D1*
X2010890Y5844190D2*
X2643714D1*
X2796280D2*
X3043597D1*
X4031398D2*
X4470608D1*
X4601007D2*
X4663831D1*
X4816183D2*
X5489105D1*
X1998917Y5834523D2*
X2643792D1*
X2796202D2*
X3043597D1*
X4031398D2*
X4480276D1*
X4610675D2*
X4665198D1*
X4820675D2*
X4848597D1*
X5031398D2*
X5501077D1*
X1986944Y5824857D2*
X2645140D1*
X2794855D2*
X3043597D1*
X4031398D2*
X4489944D1*
X4620343D2*
X4667913D1*
X4830343D2*
X4848597D1*
X5031398D2*
X5513050D1*
X1974972Y5815190D2*
X2647796D1*
X2792198D2*
X3043597D1*
X4031398D2*
X4499612D1*
X4630011D2*
X4672112D1*
X4840011D2*
X4848597D1*
X5031398D2*
X5525023D1*
X1962999Y5805523D2*
X2651937D1*
X2788058D2*
X3043597D1*
X4031398D2*
X4509280D1*
X4639679D2*
X4678108D1*
X5031398D2*
X5536995D1*
X1951026Y5795857D2*
X2657874D1*
X2782120D2*
X3043597D1*
X4031398D2*
X4518929D1*
X4649347D2*
X4686526D1*
X5031398D2*
X5548968D1*
X1940890Y5786190D2*
X2666175D1*
X2773819D2*
X3043597D1*
X4031398D2*
X4528597D1*
X4659015D2*
X4698831D1*
X5031398D2*
X5559105D1*
X1930812Y5776523D2*
X2678304D1*
X2761690D2*
X3043733D1*
X4031398D2*
X4313499D1*
X4386495D2*
X4538265D1*
X4668683D2*
X4722073D1*
X5031398D2*
X5569183D1*
X1920714Y5766857D2*
X2700687D1*
X2739308D2*
X3045550D1*
X4031398D2*
X4299476D1*
X4400519D2*
X4547933D1*
X4678351D2*
X4757933D1*
X5031398D2*
X5579280D1*
X1910636Y5757190D2*
X3049749D1*
X4031398D2*
X4290198D1*
X4409815D2*
X4557601D1*
X4688019D2*
X4767601D1*
X5031398D2*
X5589358D1*
X1900558Y5747523D2*
X3057269D1*
X4416398D2*
X4567269D1*
X4697687D2*
X4777269D1*
X5031398D2*
X5599456D1*
X1890460Y5737857D2*
X2323948D1*
X4421065D2*
X4576937D1*
X4707355D2*
X4786937D1*
X5031398D2*
X5609534D1*
X1880382Y5728190D2*
X2312991D1*
X4424171D2*
X4586605D1*
X4717023D2*
X4796605D1*
X5031398D2*
X5619632D1*
X1870284Y5718523D2*
X2303323D1*
X4425909D2*
X4596273D1*
X4726690D2*
X4806273D1*
X5031398D2*
X5629710D1*
X1860206Y5708857D2*
X2293655D1*
X4426398D2*
X4605940D1*
X4771730D2*
X4819808D1*
X5031398D2*
X5639788D1*
X1850128Y5699190D2*
X2283987D1*
X4425616D2*
X4615608D1*
X4787706D2*
X4848597D1*
X5031398D2*
X5649886D1*
X1840030Y5689523D2*
X2048597D1*
X2231398D2*
X2274319D1*
X4423565D2*
X4625276D1*
X4797862D2*
X4848597D1*
X5031398D2*
X5659964D1*
X1829952Y5679857D2*
X2048597D1*
X2231398D2*
X2264651D1*
X4420108D2*
X4634944D1*
X4805011D2*
X4848597D1*
X5031398D2*
X5670062D1*
X1819855Y5670190D2*
X2048597D1*
X2231398D2*
X2254983D1*
X4415030D2*
X4644612D1*
X4810089D2*
X4848597D1*
X5031398D2*
X5680140D1*
X1809776Y5660523D2*
X2048597D1*
X2231398D2*
X2245315D1*
X4407901D2*
X4654280D1*
X4813546D2*
X5690218D1*
X1799679Y5650857D2*
X2048597D1*
X4241398D2*
X4302230D1*
X4397765D2*
X4663929D1*
X4815616D2*
X5700315D1*
X1789601Y5641190D2*
X2048597D1*
X4241398D2*
X4318167D1*
X4381827D2*
X4663616D1*
X4816398D2*
X5710394D1*
X1780167Y5631523D2*
X2048597D1*
X4241398D2*
X4664085D1*
X4815929D2*
X5719827D1*
X1771651Y5621857D2*
X2048597D1*
X4241398D2*
X4665823D1*
X4823351D2*
X4848597D1*
X5031398D2*
X5728343D1*
X1763155Y5612190D2*
X2048597D1*
X4241398D2*
X4668909D1*
X4833019D2*
X4848597D1*
X5031398D2*
X5736839D1*
X1754640Y5602523D2*
X2048597D1*
X4241398D2*
X4673577D1*
X4842687D2*
X4848610D1*
X5031398D2*
X5745355D1*
X1746144Y5592857D2*
X2048597D1*
X4461065D2*
X4680159D1*
X5031398D2*
X5753870D1*
X1737628Y5583190D2*
X2048597D1*
X4472023D2*
X4689417D1*
X5031398D2*
X5762366D1*
X1729132Y5573523D2*
X2048597D1*
X4481690D2*
X4703421D1*
X5031398D2*
X5770882D1*
X1720616Y5563857D2*
X2048597D1*
X4491358D2*
X4750940D1*
X5031398D2*
X5779378D1*
X1712101Y5554190D2*
X2048597D1*
X4501007D2*
X4760608D1*
X5031398D2*
X5787894D1*
X1703605Y5544523D2*
X2048597D1*
X4510675D2*
X4770276D1*
X5031398D2*
X5796409D1*
X1695089Y5534857D2*
X2048597D1*
X4520343D2*
X4779944D1*
X5031398D2*
X5804905D1*
X1686593Y5525190D2*
X2048597D1*
X4530011D2*
X4789612D1*
X5031398D2*
X5813421D1*
X1678077Y5515523D2*
X2093597D1*
X4539679D2*
X4799280D1*
X5031398D2*
X5821917D1*
X1669562Y5505857D2*
X2093597D1*
X4241398D2*
X4418929D1*
X4548312D2*
X4809085D1*
X5031398D2*
X5830433D1*
X1661065Y5496190D2*
X2093597D1*
X4241398D2*
X4428597D1*
X4553409D2*
X4827093D1*
X5031398D2*
X5838948D1*
X1652550Y5486523D2*
X2093597D1*
X4241398D2*
X4438265D1*
X4555929D2*
X4848597D1*
X5031398D2*
X5847444D1*
X1644054Y5476857D2*
X2093597D1*
X4241398D2*
X4447933D1*
X4556398D2*
X4848597D1*
X5031398D2*
X5855960D1*
X1635538Y5467190D2*
X2093597D1*
X4241398D2*
X4457601D1*
X4556398D2*
X4848597D1*
X5031398D2*
X5864456D1*
X1627648Y5457523D2*
X2093597D1*
X4241398D2*
X4463597D1*
X4556398D2*
X4848597D1*
X5031398D2*
X5872366D1*
X1620499Y5447857D2*
X2093597D1*
X4241398D2*
X4463597D1*
X4556398D2*
X5879515D1*
X1613351Y5438190D2*
X2093597D1*
X4241398D2*
X4463597D1*
X4556398D2*
X5886663D1*
X1606202Y5428523D2*
X2093597D1*
X4241398D2*
X4463597D1*
X4556398D2*
X5893812D1*
X1599054Y5418857D2*
X2093597D1*
X4241398D2*
X4463597D1*
X4556398D2*
X5900960D1*
X1591905Y5409190D2*
X2093597D1*
X4241398D2*
X4398597D1*
X4621398D2*
X4652601D1*
X4875401D2*
X5908108D1*
X1584737Y5399523D2*
X2093597D1*
X4304874D2*
X4398597D1*
X4621398D2*
X4652601D1*
X4875401D2*
X5915257D1*
X1577589Y5389857D2*
X2093597D1*
X4325089D2*
X4398597D1*
X4621398D2*
X4652601D1*
X4875401D2*
X5922405D1*
X1570440Y5380190D2*
X2093597D1*
X4335011D2*
X4398597D1*
X4621398D2*
X4652601D1*
X4875401D2*
X5929554D1*
X1563292Y5370523D2*
X2093597D1*
X4344679D2*
X4398597D1*
X4621398D2*
X4652601D1*
X4875401D2*
X5936702D1*
X1556144Y5360857D2*
X2093597D1*
X4354347D2*
X4398597D1*
X4621398D2*
X4652601D1*
X4875401D2*
X5943851D1*
X1548995Y5351190D2*
X2093597D1*
X4364015D2*
X4398597D1*
X4621398D2*
X4652601D1*
X4875401D2*
X5950999D1*
X1541847Y5341523D2*
X2093597D1*
X4373683D2*
X4398597D1*
X4621398D2*
X4652601D1*
X4875401D2*
X5958148D1*
X1534698Y5331857D2*
X2093597D1*
X4383351D2*
X4398597D1*
X4621398D2*
X4652601D1*
X4875401D2*
X5965296D1*
X1527550Y5322190D2*
X2093597D1*
X4390616D2*
X4398597D1*
X4621398D2*
X4652601D1*
X4875401D2*
X5972444D1*
X1520401Y5312523D2*
X2093597D1*
X4621398D2*
X4652601D1*
X4875401D2*
X5979593D1*
X1513253Y5302857D2*
X2093597D1*
X2798058D2*
X2803659D1*
X4241398D2*
X4281937D1*
X4621398D2*
X4652601D1*
X4875401D2*
X5089573D1*
X5130421D2*
X5986741D1*
X1506105Y5293190D2*
X2093597D1*
X2788390D2*
X2803909D1*
X4241398D2*
X4291605D1*
X4621398D2*
X4652601D1*
X4875401D2*
X5067855D1*
X5152140D2*
X5993890D1*
X1498956Y5283523D2*
X2093597D1*
X2778722D2*
X2805413D1*
X4241398D2*
X4301273D1*
X4621398D2*
X4652601D1*
X4875401D2*
X5055901D1*
X5164112D2*
X6001038D1*
X1492062Y5273857D2*
X2093597D1*
X2769054D2*
X2808284D1*
X4241398D2*
X4303597D1*
X4621398D2*
X4652601D1*
X4875401D2*
X5047659D1*
X5172335D2*
X6007933D1*
X1486105Y5264190D2*
X2093597D1*
X2759386D2*
X2812640D1*
X4241398D2*
X4303597D1*
X4621398D2*
X4652601D1*
X4875401D2*
X5041800D1*
X5178194D2*
X6013890D1*
X1480148Y5254523D2*
X2093597D1*
X2749737D2*
X2818851D1*
X2941144D2*
X3089319D1*
X4241398D2*
X4303597D1*
X4621398D2*
X4652601D1*
X4875401D2*
X5037698D1*
X5182296D2*
X6019847D1*
X1474210Y5244857D2*
X2093597D1*
X2740069D2*
X2827581D1*
X2932433D2*
X3079651D1*
X4241398D2*
X4303597D1*
X4621398D2*
X4652601D1*
X1468253Y5235190D2*
X2093597D1*
X2730401D2*
X2840472D1*
X2919542D2*
X3069983D1*
X4241398D2*
X4303597D1*
X4621398D2*
X4652601D1*
X1462296Y5225523D2*
X2093597D1*
X2720733D2*
X2867230D1*
X2892765D2*
X3061448D1*
X4241398D2*
X4303597D1*
X4621398D2*
X4652601D1*
X1456339Y5215857D2*
X2093597D1*
X2711065D2*
X3056468D1*
X4241398D2*
X4303597D1*
X4621398D2*
X4652601D1*
X1450401Y5206190D2*
X2093597D1*
X2701398D2*
X3054026D1*
X4241398D2*
X4303597D1*
X4621398D2*
X4652601D1*
X1444444Y5196523D2*
X2093597D1*
X2691730D2*
X3053597D1*
X4241398D2*
X4303597D1*
X4621398D2*
X4652601D1*
X1438487Y5186857D2*
X2093597D1*
X2682062D2*
X3053597D1*
X4241398D2*
X4303597D1*
X4396398D2*
X4653948D1*
X1432530Y5177190D2*
X2093597D1*
X2672394D2*
X3053597D1*
X4241398D2*
X4303597D1*
X4396398D2*
X4653948D1*
X1426593Y5167523D2*
X2093597D1*
X2662726D2*
X3053597D1*
X4241398D2*
X4303597D1*
X4396398D2*
X4653948D1*
X1420636Y5157857D2*
X2093597D1*
X2653058D2*
X3053597D1*
X4241398D2*
X4303597D1*
X4396398D2*
X4653948D1*
X1414679Y5148190D2*
X2093597D1*
X2643390D2*
X3053597D1*
X4241398D2*
X4303597D1*
X4396398D2*
X4653948D1*
X1408722Y5138523D2*
X2093597D1*
X2633722D2*
X3053597D1*
X4241398D2*
X4303597D1*
X4396398D2*
X4653948D1*
X1402784Y5128857D2*
X2093597D1*
X2624054D2*
X3053597D1*
X4241398D2*
X4303597D1*
X4396398D2*
X4653948D1*
X1396827Y5119190D2*
X2093597D1*
X2614386D2*
X3053597D1*
X4241398D2*
X4303597D1*
X4396398D2*
X4653948D1*
X1390870Y5109523D2*
X2093597D1*
X2604737D2*
X3053597D1*
X4241398D2*
X4303597D1*
X4396398D2*
X4653948D1*
X1384933Y5099857D2*
X2093597D1*
X2595069D2*
X3053597D1*
X4031398D2*
X4303597D1*
X4396398D2*
X4653948D1*
X1378976Y5090190D2*
X2093597D1*
X2585401D2*
X3053597D1*
X4031398D2*
X4303597D1*
X4396398D2*
X4653948D1*
X1373019Y5080523D2*
X2093597D1*
X2575733D2*
X3053597D1*
X4031398D2*
X4303597D1*
X4396398D2*
X4653948D1*
X1367980Y5070857D2*
X2093597D1*
X2566065D2*
X3053597D1*
X4031398D2*
X4303597D1*
X4396398D2*
X4653948D1*
X1363097Y5061190D2*
X2093597D1*
X2556398D2*
X3053597D1*
X4031398D2*
X4303597D1*
X4396398D2*
X4653948D1*
X1358214Y5051523D2*
X2093597D1*
X2546730D2*
X3053597D1*
X4031398D2*
X4303597D1*
X4396398D2*
X4653948D1*
X1353351Y5041857D2*
X2093597D1*
X2537062D2*
X3053597D1*
X4031398D2*
X4303597D1*
X4396398D2*
X4653948D1*
X1348468Y5032190D2*
X2093597D1*
X2527394D2*
X3053597D1*
X4031398D2*
X4303597D1*
X4396398D2*
X4653948D1*
X1343605Y5022523D2*
X2093597D1*
X2517726D2*
X3053597D1*
X4031398D2*
X4303597D1*
X4396398D2*
X4653948D1*
X1338722Y5012857D2*
X2093597D1*
X2508058D2*
X3053597D1*
X4031398D2*
X4303597D1*
X4396398D2*
X4653948D1*
X1333858Y5003190D2*
X2093597D1*
X2498390D2*
X3053597D1*
X4031398D2*
X4303597D1*
X4396398D2*
X4653948D1*
X1328976Y4993523D2*
X2093597D1*
X2488722D2*
X3053597D1*
X4031398D2*
X4303597D1*
X4396398D2*
X4653948D1*
X1324112Y4983857D2*
X2093597D1*
X2479054D2*
X3053597D1*
X4031398D2*
X4303597D1*
X4396398D2*
X4653948D1*
X1319230Y4974190D2*
X2093597D1*
X2469386D2*
X3053968D1*
X4031398D2*
X4303597D1*
X4396398D2*
X4653948D1*
X1314366Y4964523D2*
X2093597D1*
X2459737D2*
X3056312D1*
X4031398D2*
X4303597D1*
X4396398D2*
X4653948D1*
X1309483Y4954857D2*
X2093597D1*
X2450069D2*
X3061194D1*
X4031398D2*
X4303597D1*
X4396398D2*
X4653948D1*
X1304620Y4945190D2*
X2093597D1*
X2440401D2*
X3069612D1*
X4031398D2*
X4303597D1*
X4396398D2*
X4653948D1*
X1299737Y4935523D2*
X2093597D1*
X2430733D2*
X3079280D1*
X4031398D2*
X4303597D1*
X4396398D2*
X4653948D1*
X1294874Y4925857D2*
X2093597D1*
X2421065D2*
X3088929D1*
X4031398D2*
X4303597D1*
X4396398D2*
X4653948D1*
X1289991Y4916190D2*
X2093597D1*
X2411398D2*
X3098597D1*
X4031398D2*
X4303597D1*
X4396398D2*
X4653948D1*
X1285108Y4906523D2*
X2093597D1*
X2406398D2*
X3108265D1*
X4031398D2*
X4303597D1*
X4396398D2*
X4653948D1*
X1280245Y4896857D2*
X2093597D1*
X2406398D2*
X3117933D1*
X4031398D2*
X4303597D1*
X4396398D2*
X4653948D1*
X1275362Y4887190D2*
X2093597D1*
X2406398D2*
X3127601D1*
X3469249D2*
X3531976D1*
X3895206D2*
X4303597D1*
X4396398D2*
X4653948D1*
X1270499Y4877523D2*
X2093597D1*
X2406398D2*
X3137269D1*
X3459796D2*
X3522327D1*
X3909737D2*
X4303597D1*
X4396398D2*
X4653948D1*
X1266085Y4867857D2*
X2093597D1*
X2406398D2*
X3146937D1*
X3450128D2*
X3512659D1*
X3919269D2*
X4303597D1*
X4396398D2*
X4653948D1*
X1262198Y4858190D2*
X2093597D1*
X2406398D2*
X3154046D1*
X3440460D2*
X3502991D1*
X4185558D2*
X4303597D1*
X4396398D2*
X4653948D1*
X1258312Y4848523D2*
X2093597D1*
X2406398D2*
X3153616D1*
X3429640D2*
X3493323D1*
X4196690D2*
X4303597D1*
X4396398D2*
X4653948D1*
X1254444Y4838857D2*
X2093597D1*
X2406398D2*
X3154437D1*
X3305577D2*
X3483655D1*
X4206358D2*
X4303597D1*
X4396398D2*
X4653948D1*
X1250558Y4829190D2*
X2093597D1*
X2406398D2*
X3156526D1*
X3303468D2*
X3473987D1*
X4216007D2*
X4303597D1*
X4396398D2*
X4653948D1*
X1246671Y4819523D2*
X2093597D1*
X2406398D2*
X3160042D1*
X3299972D2*
X3464319D1*
X4225675D2*
X4303597D1*
X4396398D2*
X4653948D1*
X1242784Y4809857D2*
X2093597D1*
X2406398D2*
X3165179D1*
X3294835D2*
X3454651D1*
X4235343D2*
X4303597D1*
X4396398D2*
X4653948D1*
X1238898Y4800190D2*
X2093597D1*
X2406398D2*
X3172386D1*
X3287608D2*
X3444983D1*
X4244913D2*
X4303597D1*
X4396398D2*
X4653948D1*
X1235011Y4790523D2*
X2093597D1*
X2406398D2*
X3182659D1*
X3277335D2*
X3435394D1*
X4251495D2*
X4303597D1*
X4396398D2*
X4653948D1*
X1231124Y4780857D2*
X2093597D1*
X2406398D2*
X3198929D1*
X3261065D2*
X3428675D1*
X4255089D2*
X4303597D1*
X4396398D2*
X4653948D1*
X1227237Y4771190D2*
X2093597D1*
X2406398D2*
X3425003D1*
X4256378D2*
X4303597D1*
X4396398D2*
X4653948D1*
X1223370Y4761523D2*
X2093597D1*
X2406398D2*
X3423616D1*
X4256398D2*
X4303597D1*
X4396398D2*
X4653948D1*
X1219483Y4751857D2*
X2093597D1*
X2406398D2*
X3423597D1*
X4256398D2*
X4303597D1*
X4396398D2*
X4653948D1*
X1215597Y4742190D2*
X2093597D1*
X2406398D2*
X3423597D1*
X4256398D2*
X4303597D1*
X4396398D2*
X4653948D1*
X1211710Y4732523D2*
X2093597D1*
X2406398D2*
X3423597D1*
X4256398D2*
X4303597D1*
X4396398D2*
X4653948D1*
X1207823Y4722857D2*
X2093597D1*
X2406398D2*
X3423597D1*
X4256398D2*
X4303597D1*
X4396398D2*
X4653948D1*
X1203937Y4713190D2*
X2093597D1*
X2406398D2*
X3423597D1*
X4256398D2*
X4303597D1*
X4396398D2*
X4653948D1*
X1200050Y4703523D2*
X2093597D1*
X2406398D2*
X3423597D1*
X4256398D2*
X4303597D1*
X4396398D2*
X4653948D1*
X1196163Y4693857D2*
X1903831D1*
X1936183D2*
X2093597D1*
X2406398D2*
X2453831D1*
X2486183D2*
X3423597D1*
X4256398D2*
X4303597D1*
X4396398D2*
X4653948D1*
X1192296Y4684190D2*
X1879437D1*
X1960558D2*
X2093597D1*
X2406398D2*
X2429437D1*
X2510558D2*
X3423597D1*
X4256398D2*
X4303597D1*
X4396398D2*
X4653948D1*
X1188409Y4674523D2*
X1866917D1*
X1973077D2*
X2093597D1*
X2406398D2*
X2416917D1*
X2523077D2*
X3423597D1*
X4256398D2*
X4303597D1*
X4396398D2*
X4653948D1*
X1184523Y4664857D2*
X1858401D1*
X1981612D2*
X2093597D1*
X2531612D2*
X3423597D1*
X4256398D2*
X4303597D1*
X4396398D2*
X4653948D1*
X1180890Y4655190D2*
X1852308D1*
X1987687D2*
X2093597D1*
X2537687D2*
X3423597D1*
X4256398D2*
X4303597D1*
X4400011D2*
X4653948D1*
X1177921Y4645523D2*
X1848050D1*
X1991944D2*
X2093597D1*
X2541944D2*
X3423597D1*
X4256398D2*
X4303597D1*
X4409679D2*
X4653948D1*
X1174972Y4635857D2*
X1845276D1*
X1994718D2*
X2093597D1*
X2544718D2*
X3423597D1*
X4256398D2*
X4303792D1*
X4419347D2*
X4653948D1*
X1172003Y4626190D2*
X1843851D1*
X1996144D2*
X2093597D1*
X2546144D2*
X3423597D1*
X4256398D2*
X4305745D1*
X4429015D2*
X4653948D1*
X1169034Y4616523D2*
X1843675D1*
X1996319D2*
X2093597D1*
X2546319D2*
X3423597D1*
X4256398D2*
X4310140D1*
X4438683D2*
X4653948D1*
X1166085Y4606857D2*
X1844749D1*
X1995245D2*
X2093597D1*
X2545245D2*
X3423597D1*
X4256398D2*
X4317933D1*
X4448351D2*
X4653948D1*
X1163116Y4597190D2*
X1847132D1*
X1992862D2*
X2093597D1*
X2542862D2*
X3423597D1*
X4256398D2*
X4327601D1*
X4458019D2*
X4653948D1*
X1160167Y4587523D2*
X1850960D1*
X1989054D2*
X2093597D1*
X2539054D2*
X3423597D1*
X4256398D2*
X4337269D1*
X4467687D2*
X4653948D1*
X1157198Y4577857D2*
X1733597D1*
X1996398D2*
X2063597D1*
X2656398D2*
X3423597D1*
X4256398D2*
X4346937D1*
X4477355D2*
X4653948D1*
X1154230Y4568190D2*
X1733597D1*
X1996398D2*
X2063597D1*
X2656398D2*
X3423597D1*
X4256398D2*
X4356605D1*
X4487023D2*
X4653948D1*
X1151280Y4558523D2*
X1733597D1*
X1996398D2*
X2063597D1*
X2656398D2*
X3423597D1*
X4256398D2*
X4366273D1*
X4496690D2*
X4653948D1*
X1148312Y4548857D2*
X1733597D1*
X1996398D2*
X2063597D1*
X2656398D2*
X3423597D1*
X4256398D2*
X4375940D1*
X1145362Y4539190D2*
X1733597D1*
X1996398D2*
X2063597D1*
X2656398D2*
X3093597D1*
X3266398D2*
X3423597D1*
X4256398D2*
X4385608D1*
X1142394Y4529523D2*
X1733597D1*
X1996398D2*
X2063597D1*
X2656398D2*
X3093597D1*
X3516398D2*
X3838597D1*
X4256398D2*
X4395276D1*
X1139444Y4519857D2*
X1733597D1*
X1996398D2*
X2063597D1*
X2656398D2*
X3093597D1*
X3516398D2*
X3838597D1*
X4256398D2*
X4404944D1*
X1136476Y4510190D2*
X1733597D1*
X1996398D2*
X2063597D1*
X2656398D2*
X3093597D1*
X3516398D2*
X3838597D1*
X4256398D2*
X4414612D1*
X1133507Y4500523D2*
X1733597D1*
X1996398D2*
X2063597D1*
X2656398D2*
X3093597D1*
X3516398D2*
X3838597D1*
X4256398D2*
X4424280D1*
X1130558Y4490857D2*
X1733597D1*
X1996398D2*
X2063597D1*
X2656398D2*
X3093597D1*
X3516398D2*
X3838597D1*
X4256398D2*
X4433929D1*
X1127589Y4481190D2*
X1733597D1*
X1996398D2*
X2063597D1*
X2656398D2*
X3093597D1*
X3516398D2*
X3838597D1*
X4256398D2*
X4443597D1*
X1124640Y4471523D2*
X1733597D1*
X1996398D2*
X2063597D1*
X2656398D2*
X3093597D1*
X3516398D2*
X3838597D1*
X4256398D2*
X4454905D1*
X5243683D2*
X6013597D1*
X6186398D2*
X6375374D1*
X1121671Y4461857D2*
X1733597D1*
X1996398D2*
X2063597D1*
X2656398D2*
X3093597D1*
X3516398D2*
X3838597D1*
X4255655D2*
X4763597D1*
X5253351D2*
X6013597D1*
X6186398D2*
X6378323D1*
X1118722Y4452190D2*
X1733597D1*
X1996398D2*
X2063597D1*
X2656398D2*
X3093597D1*
X3515714D2*
X3838597D1*
X4252765D2*
X4763597D1*
X5263019D2*
X6013597D1*
X6186398D2*
X6381292D1*
X1115753Y4442523D2*
X1733597D1*
X1996398D2*
X2063597D1*
X2656398D2*
X3093597D1*
X3512901D2*
X3838597D1*
X4247140D2*
X4763597D1*
X5270421D2*
X6013597D1*
X6186398D2*
X6384241D1*
X1113136Y4432857D2*
X1733597D1*
X1996398D2*
X2063597D1*
X2656398D2*
X3093597D1*
X3507394D2*
X3838597D1*
X4238058D2*
X4763597D1*
X5274542D2*
X6013597D1*
X6186398D2*
X6386858D1*
X1111046Y4423190D2*
X1733597D1*
X1996398D2*
X2063597D1*
X2656398D2*
X3093597D1*
X3498390D2*
X3838597D1*
X4228390D2*
X4763597D1*
X5276280D2*
X6013597D1*
X6186398D2*
X6388948D1*
X1108976Y4413523D2*
X1733597D1*
X1996398D2*
X2063597D1*
X2656398D2*
X3093597D1*
X3488722D2*
X3838597D1*
X4218038D2*
X4763597D1*
X5276398D2*
X6013597D1*
X6186398D2*
X6391038D1*
X1106886Y4403857D2*
X1733597D1*
X1996398D2*
X2063597D1*
X2656398D2*
X3093597D1*
X3478468D2*
X3838597D1*
X4191398D2*
X4763597D1*
X5276398D2*
X6013597D1*
X6186398D2*
X6393108D1*
X1104796Y4394190D2*
X1733597D1*
X1996398D2*
X2063597D1*
X2656398D2*
X3093597D1*
X3451398D2*
X3838597D1*
X4191398D2*
X4763597D1*
X5276398D2*
X6013597D1*
X6186398D2*
X6395198D1*
X1102726Y4384523D2*
X1733597D1*
X1996398D2*
X2063597D1*
X2656398D2*
X3093597D1*
X3451398D2*
X3838597D1*
X4191398D2*
X4763597D1*
X5276398D2*
X6013597D1*
X6186398D2*
X6397288D1*
X1100636Y4374857D2*
X1733597D1*
X1996398D2*
X2063597D1*
X2656398D2*
X3093597D1*
X3451398D2*
X3838597D1*
X4191398D2*
X4763597D1*
X5276398D2*
X6013597D1*
X6186398D2*
X6399358D1*
X1098546Y4365190D2*
X1733597D1*
X1996398D2*
X2063597D1*
X2656398D2*
X3093597D1*
X3451398D2*
X3838597D1*
X4191398D2*
X4763597D1*
X5276398D2*
X6013597D1*
X6186398D2*
X6401448D1*
X1096476Y4355523D2*
X3248597D1*
X3451398D2*
X4763597D1*
X5276398D2*
X6013597D1*
X6186398D2*
X6403538D1*
X1094386Y4345857D2*
X4763597D1*
X5276398D2*
X6013597D1*
X6186398D2*
X6405608D1*
X1092296Y4336190D2*
X4763597D1*
X5276398D2*
X6013597D1*
X6186398D2*
X6407698D1*
X1090226Y4326523D2*
X4763597D1*
X5276398D2*
X6013597D1*
X6186398D2*
X6409788D1*
X1088136Y4316857D2*
X4763597D1*
X5276398D2*
X6013597D1*
X6186398D2*
X6411858D1*
X1086046Y4307190D2*
X4763597D1*
X5276398D2*
X6013597D1*
X6186398D2*
X6413948D1*
X1083976Y4297523D2*
X4763597D1*
X5276398D2*
X6013597D1*
X6186398D2*
X6416038D1*
X1081886Y4287857D2*
X4763597D1*
X5276398D2*
X6013597D1*
X6186398D2*
X6418108D1*
X1079796Y4278190D2*
X4763597D1*
X5276398D2*
X6013597D1*
X6186398D2*
X6420198D1*
X1077726Y4268523D2*
X4763597D1*
X5276398D2*
X6013597D1*
X6186398D2*
X6422288D1*
X1075636Y4258857D2*
X4763597D1*
X5276398D2*
X6013597D1*
X6186398D2*
X6424358D1*
X1073546Y4249190D2*
X4763597D1*
X5276398D2*
X6013597D1*
X6186398D2*
X6426448D1*
X1071476Y4239523D2*
X4763597D1*
X5276398D2*
X6013597D1*
X6186398D2*
X6428538D1*
X1069386Y4229857D2*
X3675843D1*
X3824151D2*
X4763597D1*
X5276398D2*
X6013597D1*
X6186398D2*
X6430608D1*
X1067296Y4220190D2*
X3628440D1*
X3871554D2*
X4763597D1*
X5276398D2*
X6013597D1*
X6186398D2*
X6432698D1*
X1065226Y4210523D2*
X3595608D1*
X3904405D2*
X4763597D1*
X5276398D2*
X6013597D1*
X6186398D2*
X6434788D1*
X1063976Y4200857D2*
X3569163D1*
X3930831D2*
X4763597D1*
X5276398D2*
X6013597D1*
X6186398D2*
X6436019D1*
X1062745Y4191190D2*
X3546605D1*
X3953390D2*
X4763597D1*
X5276398D2*
X6013597D1*
X6186398D2*
X6437249D1*
X1061515Y4181523D2*
X3526741D1*
X3973273D2*
X4763597D1*
X5276398D2*
X6013597D1*
X6186398D2*
X6438499D1*
X1060265Y4171857D2*
X3508890D1*
X3991105D2*
X4763597D1*
X5276398D2*
X6013597D1*
X6186398D2*
X6439730D1*
X1059034Y4162190D2*
X3492659D1*
X4007335D2*
X4763597D1*
X5275714D2*
X6013597D1*
X6186398D2*
X6440960D1*
X1057784Y4152523D2*
X3477737D1*
X4022276D2*
X4763597D1*
X5272901D2*
X6013597D1*
X6186398D2*
X6442210D1*
X1056554Y4142857D2*
X3463909D1*
X4036085D2*
X4763597D1*
X5267394D2*
X6013597D1*
X6186398D2*
X6443440D1*
X1055323Y4133190D2*
X3451038D1*
X4048956D2*
X4763597D1*
X5258390D2*
X6013597D1*
X6186398D2*
X6444690D1*
X1054073Y4123523D2*
X3439007D1*
X4060987D2*
X4763597D1*
X5248722D2*
X6013597D1*
X6186398D2*
X6445921D1*
X1052843Y4113857D2*
X3427718D1*
X4072276D2*
X4763597D1*
X5239054D2*
X6013597D1*
X6186398D2*
X6447151D1*
X1051612Y4104190D2*
X3417093D1*
X4082901D2*
X4763597D1*
X5229405D2*
X6013597D1*
X6186398D2*
X6448401D1*
X1050362Y4094523D2*
X3407073D1*
X4092940D2*
X4763597D1*
X5219737D2*
X6013597D1*
X6186398D2*
X6449632D1*
X1049132Y4084857D2*
X3397601D1*
X4102394D2*
X4763597D1*
X5210069D2*
X6013597D1*
X6186398D2*
X6450882D1*
X1047882Y4075190D2*
X3388636D1*
X4111358D2*
X4763597D1*
X5200401D2*
X6013597D1*
X6186398D2*
X6452112D1*
X1046651Y4065523D2*
X3380140D1*
X4119855D2*
X4763597D1*
X5190733D2*
X6013597D1*
X6186398D2*
X6453343D1*
X1045421Y4055857D2*
X3372093D1*
X4127921D2*
X4763597D1*
X5181065D2*
X6013597D1*
X6186398D2*
X6454593D1*
X1044171Y4046190D2*
X3364437D1*
X4135558D2*
X4763597D1*
X5171398D2*
X6013597D1*
X6186398D2*
X6455823D1*
X1042940Y4036523D2*
X3357190D1*
X4142804D2*
X4763597D1*
X5161730D2*
X6013597D1*
X6186398D2*
X6457054D1*
X1041690Y4026857D2*
X1109886D1*
X1210108D2*
X3350296D1*
X4149698D2*
X4763597D1*
X5152062D2*
X6013597D1*
X6186398D2*
X6458304D1*
X1040460Y4017190D2*
X1088538D1*
X1231456D2*
X3343753D1*
X4156241D2*
X4763597D1*
X5142394D2*
X6013597D1*
X6186398D2*
X6459534D1*
X1039230Y4007523D2*
X1073382D1*
X1246612D2*
X3337542D1*
X4162452D2*
X4763597D1*
X5132726D2*
X6013597D1*
X6186398D2*
X6460784D1*
X1037980Y3997857D2*
X1061487D1*
X1258507D2*
X3331644D1*
X4168351D2*
X4763597D1*
X5123058D2*
X6013597D1*
X6186398D2*
X6462015D1*
X1036749Y3988190D2*
X1051761D1*
X1268233D2*
X3326058D1*
X4173937D2*
X4763597D1*
X5113390D2*
X6013597D1*
X6186398D2*
X6463245D1*
X1035733Y3978523D2*
X1043655D1*
X1276339D2*
X3320765D1*
X4179249D2*
X4763597D1*
X5103722D2*
X6013597D1*
X6186398D2*
X6464261D1*
X1283155Y3968857D2*
X3315745D1*
X4184269D2*
X4763597D1*
X5094054D2*
X6013597D1*
X6186398D2*
X6464671D1*
X1288878Y3959190D2*
X3310999D1*
X4189015D2*
X4763597D1*
X5084405D2*
X6013597D1*
X6186398D2*
X6465081D1*
X1293663Y3949523D2*
X3306507D1*
X4193487D2*
X4763597D1*
X5076398D2*
X6013597D1*
X6186398D2*
X6465511D1*
X1297589Y3939857D2*
X3302269D1*
X4197726D2*
X4763597D1*
X5076398D2*
X6013597D1*
X6186398D2*
X6465921D1*
X1300733Y3930190D2*
X1313597D1*
X1486398D2*
X3298284D1*
X4201710D2*
X4763597D1*
X5076398D2*
X6013597D1*
X6186398D2*
X6283597D1*
X6456398D2*
X6466331D1*
X1303155Y3920523D2*
X1313597D1*
X1486398D2*
X3294534D1*
X4205460D2*
X4763597D1*
X5076398D2*
X6013597D1*
X6186398D2*
X6283597D1*
X6456398D2*
X6466741D1*
X1304894Y3910857D2*
X1313597D1*
X1486398D2*
X3291019D1*
X4208976D2*
X4763597D1*
X5076398D2*
X5143226D1*
X5196769D2*
X6013597D1*
X6186398D2*
X6283597D1*
X6456398D2*
X6467151D1*
X1305968Y3901190D2*
X1313597D1*
X1486398D2*
X3287737D1*
X4212257D2*
X4763597D1*
X5076398D2*
X5124944D1*
X5215050D2*
X6013597D1*
X6186398D2*
X6283597D1*
X6456398D2*
X6467562D1*
X1306398Y3891523D2*
X1313585D1*
X1486398D2*
X3284690D1*
X4215304D2*
X4763597D1*
X5076398D2*
X5113948D1*
X5226046D2*
X6013597D1*
X6186398D2*
X6283597D1*
X6456398D2*
X6467972D1*
X1486398Y3881857D2*
X3281858D1*
X4218155D2*
X4763597D1*
X5076398D2*
X5106292D1*
X5233722D2*
X6013597D1*
X6186398D2*
X6283597D1*
X6456398D2*
X6468382D1*
X1486398Y3872190D2*
X3279222D1*
X4220773D2*
X4763597D1*
X5076398D2*
X5100823D1*
X5239190D2*
X6013597D1*
X6186398D2*
X6283597D1*
X6456398D2*
X6468792D1*
X1486398Y3862523D2*
X3276819D1*
X4223175D2*
X4763597D1*
X5076398D2*
X5097034D1*
X5242960D2*
X6013597D1*
X6186398D2*
X6283597D1*
X6456398D2*
X6469202D1*
X1486398Y3852857D2*
X3274632D1*
X4225382D2*
X4763597D1*
X5076398D2*
X5094710D1*
X5245304D2*
X6013597D1*
X6186398D2*
X6283597D1*
X6456398D2*
X6469612D1*
X1486398Y3843190D2*
X3272620D1*
X4227374D2*
X4763597D1*
X5076398D2*
X5093675D1*
X5246339D2*
X6013597D1*
X6186398D2*
X6283597D1*
X6456398D2*
X6470023D1*
X1486398Y3833523D2*
X3270843D1*
X4229151D2*
X4763597D1*
X5076398D2*
X5093870D1*
X5246124D2*
X6013597D1*
X6186398D2*
X6283597D1*
X6456398D2*
X6470433D1*
X1486398Y3823857D2*
X3269261D1*
X4230753D2*
X4763597D1*
X5076398D2*
X5095355D1*
X5251358D2*
X6013597D1*
X6186398D2*
X6283597D1*
X6456398D2*
X6470843D1*
X1486398Y3814190D2*
X3267855D1*
X4232140D2*
X4763597D1*
X5076398D2*
X5098148D1*
X5261007D2*
X6013597D1*
X6186398D2*
X6283597D1*
X6456398D2*
X6471253D1*
X1486398Y3804523D2*
X3266663D1*
X4233331D2*
X4763597D1*
X5076398D2*
X5102464D1*
X5270675D2*
X6013597D1*
X6186398D2*
X6283597D1*
X6456398D2*
X6471663D1*
X1486398Y3794857D2*
X3265687D1*
X4234327D2*
X4763597D1*
X5076398D2*
X5108616D1*
X5280343D2*
X6013597D1*
X6186398D2*
X6283597D1*
X6456398D2*
X6472073D1*
X1486398Y3785190D2*
X3264886D1*
X4235128D2*
X4763597D1*
X5076398D2*
X5117230D1*
X5290011D2*
X6013597D1*
X6186398D2*
X6283597D1*
X6456398D2*
X6472483D1*
X1486398Y3775523D2*
X3264280D1*
X4235733D2*
X4763597D1*
X5076398D2*
X5129905D1*
X5299679D2*
X6013597D1*
X6186398D2*
X6283597D1*
X6456398D2*
X6472894D1*
X1486398Y3765857D2*
X3263851D1*
X4236144D2*
X4763597D1*
X5076398D2*
X5155296D1*
X5309347D2*
X6013597D1*
X6186398D2*
X6283597D1*
X6456398D2*
X6473304D1*
X1486398Y3756190D2*
X3263636D1*
X4236358D2*
X4763597D1*
X5076398D2*
X5188597D1*
X5319015D2*
X6013597D1*
X6186398D2*
X6283597D1*
X6456398D2*
X6473714D1*
X1486398Y3746523D2*
X3263616D1*
X4236378D2*
X4763597D1*
X5076398D2*
X5198265D1*
X5328683D2*
X6013597D1*
X6186398D2*
X6323597D1*
X6416398D2*
X6473831D1*
X1486398Y3736857D2*
X3263773D1*
X4236222D2*
X4763597D1*
X5076398D2*
X5207933D1*
X5338351D2*
X6013597D1*
X6186398D2*
X6323597D1*
X6416398D2*
X6473421D1*
X1486398Y3727190D2*
X3264144D1*
X4235870D2*
X4763597D1*
X5076398D2*
X5217601D1*
X5348019D2*
X6013597D1*
X6186398D2*
X6283597D1*
X6456398D2*
X6473011D1*
X1486398Y3717523D2*
X3264690D1*
X4235304D2*
X4763597D1*
X5076398D2*
X5227269D1*
X5357687D2*
X6013597D1*
X6186398D2*
X6283597D1*
X6456398D2*
X6472601D1*
X1486398Y3707857D2*
X3265433D1*
X4234562D2*
X4436136D1*
X4503878D2*
X4763597D1*
X5076398D2*
X5236937D1*
X5367355D2*
X6013597D1*
X6186398D2*
X6283597D1*
X6456398D2*
X6472190D1*
X1486398Y3698190D2*
X3266370D1*
X4233624D2*
X4421058D1*
X4518956D2*
X4763597D1*
X5076398D2*
X5246605D1*
X5377023D2*
X6013597D1*
X6186398D2*
X6283597D1*
X6456398D2*
X6471780D1*
X1486398Y3688523D2*
X3267503D1*
X4232491D2*
X4411292D1*
X4528702D2*
X4763597D1*
X5076398D2*
X5256273D1*
X5386690D2*
X6013597D1*
X6186398D2*
X6283597D1*
X6456398D2*
X6471370D1*
X1486398Y3678857D2*
X3268851D1*
X4231163D2*
X4404378D1*
X4535616D2*
X4763597D1*
X5076398D2*
X5265940D1*
X5396358D2*
X6013597D1*
X6186398D2*
X6283597D1*
X6456398D2*
X6470960D1*
X1486398Y3669190D2*
X3270374D1*
X4229620D2*
X4399476D1*
X4540519D2*
X4763597D1*
X5076398D2*
X5275608D1*
X5406007D2*
X6013597D1*
X6186398D2*
X6283597D1*
X6456398D2*
X6470550D1*
X1486398Y3659523D2*
X3272112D1*
X4227901D2*
X4396175D1*
X4543819D2*
X4763597D1*
X5076398D2*
X5285276D1*
X5415675D2*
X6013597D1*
X6186398D2*
X6283597D1*
X6456398D2*
X6470140D1*
X1486398Y3649857D2*
X3274046D1*
X4225948D2*
X4394241D1*
X4545753D2*
X4763597D1*
X5076398D2*
X5294944D1*
X5425343D2*
X6013597D1*
X6186398D2*
X6283597D1*
X6456398D2*
X6469730D1*
X1486398Y3640190D2*
X3276175D1*
X4223819D2*
X4393597D1*
X4546398D2*
X4763597D1*
X5076398D2*
X5304612D1*
X5435011D2*
X6013597D1*
X6186398D2*
X6283597D1*
X6456398D2*
X6469319D1*
X1486398Y3630523D2*
X3278538D1*
X4221476D2*
X4394202D1*
X4545812D2*
X4763597D1*
X5076398D2*
X5314280D1*
X5444679D2*
X6013597D1*
X6186398D2*
X6283597D1*
X6456398D2*
X6468909D1*
X1305987Y3620857D2*
X1313597D1*
X1486398D2*
X3281097D1*
X4218898D2*
X4396077D1*
X4543937D2*
X4763597D1*
X5076398D2*
X5323929D1*
X5454347D2*
X6013597D1*
X6186398D2*
X6283597D1*
X6456398D2*
X6468499D1*
X1306398Y3611190D2*
X1313585D1*
X1486398D2*
X3283870D1*
X4216124D2*
X4399319D1*
X4540675D2*
X4763597D1*
X5076398D2*
X5333597D1*
X5464015D2*
X6013597D1*
X6186398D2*
X6283597D1*
X6456398D2*
X6468089D1*
X1306144Y3601523D2*
X1313612D1*
X1486398D2*
X3286858D1*
X4213136D2*
X4404163D1*
X4535851D2*
X4763597D1*
X5076398D2*
X5343265D1*
X5473683D2*
X6013597D1*
X6186398D2*
X6283597D1*
X6456398D2*
X6467679D1*
X1305265Y3591857D2*
X1313597D1*
X1486398D2*
X3290081D1*
X4209913D2*
X4410980D1*
X4529034D2*
X4763597D1*
X5076398D2*
X5352933D1*
X5483351D2*
X6013597D1*
X6186398D2*
X6283597D1*
X6456398D2*
X6467269D1*
X1303722Y3582190D2*
X1313597D1*
X1486398D2*
X3293538D1*
X4206476D2*
X4420589D1*
X4519405D2*
X4763597D1*
X5076398D2*
X5362601D1*
X5493019D2*
X6013597D1*
X6186398D2*
X6283597D1*
X6456398D2*
X6466839D1*
X1301495Y3572523D2*
X3297210D1*
X4202784D2*
X4423597D1*
X4516398D2*
X4763597D1*
X5076398D2*
X5372269D1*
X5502687D2*
X6013597D1*
X6186398D2*
X6283597D1*
X6456398D2*
X6466429D1*
X1298546Y3562857D2*
X3301136D1*
X4198878D2*
X4423597D1*
X4516398D2*
X4763597D1*
X5076398D2*
X5381937D1*
X5512355D2*
X6013597D1*
X6186398D2*
X6283597D1*
X6456398D2*
X6466019D1*
X1294835Y3553190D2*
X1980882D1*
X2019112D2*
X3305296D1*
X4194718D2*
X4423597D1*
X4516398D2*
X4763597D1*
X5076398D2*
X5391605D1*
X5522023D2*
X6013597D1*
X6186398D2*
X6283597D1*
X6456398D2*
X6465608D1*
X1290323Y3543523D2*
X1958382D1*
X2041612D2*
X3309710D1*
X4190304D2*
X4423597D1*
X4516398D2*
X4763597D1*
X5076398D2*
X5401273D1*
X5531690D2*
X6013597D1*
X6186398D2*
X6283597D1*
X6456398D2*
X6465198D1*
X1284874Y3533857D2*
X1946233D1*
X2053761D2*
X3314378D1*
X4185616D2*
X4423597D1*
X4516398D2*
X4763597D1*
X5076398D2*
X5410940D1*
X5541358D2*
X6013597D1*
X6186398D2*
X6283597D1*
X6456398D2*
X6464788D1*
X1035616Y3524190D2*
X1041624D1*
X1278370D2*
X1937913D1*
X2062101D2*
X3319319D1*
X4180675D2*
X4423597D1*
X4516398D2*
X4763597D1*
X5076398D2*
X5420608D1*
X5551007D2*
X6013597D1*
X6186398D2*
X6283597D1*
X6456398D2*
X6464378D1*
X1036398Y3514523D2*
X1049339D1*
X1270655D2*
X1931976D1*
X2068038D2*
X3324534D1*
X4175460D2*
X4423597D1*
X4516398D2*
X4763597D1*
X5076398D2*
X5430276D1*
X5560675D2*
X6013597D1*
X6186398D2*
X6283597D1*
X6456398D2*
X6463585D1*
X1037648Y3504857D2*
X1058577D1*
X1261437D2*
X1927815D1*
X2072179D2*
X3330042D1*
X4169952D2*
X4423597D1*
X4516398D2*
X4763597D1*
X5076398D2*
X5439944D1*
X5570343D2*
X6013597D1*
X6186398D2*
X6283597D1*
X6456398D2*
X6462345D1*
X1038878Y3495190D2*
X1069788D1*
X1250226D2*
X1925140D1*
X2074855D2*
X3335862D1*
X4164132D2*
X4423597D1*
X4516398D2*
X4763597D1*
X5076398D2*
X5449612D1*
X5580011D2*
X6013597D1*
X6186398D2*
X6283597D1*
X1040108Y3485523D2*
X1083851D1*
X1236144D2*
X1923812D1*
X2076202D2*
X3341976D1*
X4158019D2*
X4423597D1*
X4516398D2*
X4763597D1*
X5076398D2*
X5459280D1*
X5589679D2*
X6013597D1*
X6186398D2*
X6283597D1*
X1041358Y3475857D2*
X1102913D1*
X1217101D2*
X1923714D1*
X2076280D2*
X3348421D1*
X4151573D2*
X4423597D1*
X4516398D2*
X4763597D1*
X5076398D2*
X5468929D1*
X5599347D2*
X6013597D1*
X6186398D2*
X6283597D1*
X1042589Y3466190D2*
X1137562D1*
X1182452D2*
X1924866D1*
X2075128D2*
X3355218D1*
X4144776D2*
X4423597D1*
X4516398D2*
X4763597D1*
X5076398D2*
X5478597D1*
X5609015D2*
X6013597D1*
X6186398D2*
X6283597D1*
X1043819Y3456523D2*
X1927347D1*
X2072648D2*
X3362366D1*
X4137628D2*
X4423597D1*
X4516398D2*
X4763597D1*
X5076398D2*
X5488265D1*
X5618683D2*
X6013597D1*
X6186398D2*
X6283597D1*
X1045069Y3446857D2*
X1931273D1*
X2068722D2*
X3369905D1*
X4130108D2*
X4423597D1*
X4516398D2*
X4763597D1*
X5076398D2*
X5497933D1*
X5628351D2*
X6013597D1*
X6186398D2*
X6283597D1*
X1046300Y3437190D2*
X1936937D1*
X2063077D2*
X3377835D1*
X4122159D2*
X4423597D1*
X4516398D2*
X4763597D1*
X5076398D2*
X5507601D1*
X5638019D2*
X6013597D1*
X6186398D2*
X6283597D1*
X1047550Y3427523D2*
X1944866D1*
X2055148D2*
X3386194D1*
X4113800D2*
X4423597D1*
X4516398D2*
X4763597D1*
X5076398D2*
X5517269D1*
X5647687D2*
X6013597D1*
X6186398D2*
X6283597D1*
X1048780Y3417857D2*
X1956292D1*
X2043702D2*
X3395023D1*
X4104972D2*
X4423597D1*
X4516398D2*
X4763597D1*
X5076398D2*
X5526937D1*
X5657355D2*
X6013597D1*
X6186398D2*
X6283597D1*
X1050011Y3408190D2*
X1976019D1*
X2023995D2*
X3404358D1*
X4095636D2*
X4423597D1*
X4516398D2*
X4763597D1*
X5076398D2*
X5536605D1*
X5667023D2*
X6013597D1*
X6186398D2*
X6283597D1*
X1051261Y3398523D2*
X3414222D1*
X4085773D2*
X4423597D1*
X4516398D2*
X4763597D1*
X5076398D2*
X5546273D1*
X5676690D2*
X6013597D1*
X6186398D2*
X6283597D1*
X1052491Y3388857D2*
X3424671D1*
X4075323D2*
X4423597D1*
X4516398D2*
X4763597D1*
X5076398D2*
X5555940D1*
X5686358D2*
X6013597D1*
X6186398D2*
X6283597D1*
X1053741Y3379190D2*
X3435765D1*
X4064230D2*
X4423597D1*
X4516398D2*
X4763597D1*
X5076398D2*
X5565608D1*
X5696007D2*
X6013597D1*
X6186398D2*
X6323597D1*
X6416398D2*
X6446273D1*
X1054972Y3369523D2*
X3447581D1*
X4052413D2*
X4423597D1*
X4516398D2*
X4763597D1*
X5076398D2*
X5575276D1*
X5705675D2*
X6013597D1*
X6186398D2*
X6323597D1*
X6416398D2*
X6445023D1*
X1056202Y3359857D2*
X3460198D1*
X4039796D2*
X4423597D1*
X4516398D2*
X4763597D1*
X5076398D2*
X5584944D1*
X5715343D2*
X6013597D1*
X6186398D2*
X6323597D1*
X6416398D2*
X6443792D1*
X1057452Y3350190D2*
X3473753D1*
X4026261D2*
X4423597D1*
X4516398D2*
X4763597D1*
X5076398D2*
X5594612D1*
X5725011D2*
X6013597D1*
X6186398D2*
X6314983D1*
X6416398D2*
X6442562D1*
X1058683Y3340523D2*
X3488343D1*
X4011651D2*
X4423597D1*
X4516398D2*
X4763597D1*
X5076398D2*
X5604280D1*
X5734679D2*
X6013597D1*
X6186398D2*
X6305315D1*
X6416398D2*
X6441312D1*
X1059913Y3330857D2*
X3504183D1*
X3995812D2*
X4415648D1*
X4516398D2*
X4763597D1*
X5076398D2*
X5613929D1*
X5744347D2*
X6013597D1*
X6186398D2*
X6295648D1*
X6415480D2*
X6440081D1*
X1061163Y3321190D2*
X3521546D1*
X3978448D2*
X4405980D1*
X4516398D2*
X4763597D1*
X5076398D2*
X5623597D1*
X5754015D2*
X6013597D1*
X6186398D2*
X6285980D1*
X6412315D2*
X6438851D1*
X1062394Y3311523D2*
X3540784D1*
X3959210D2*
X4396312D1*
X4515597D2*
X4763597D1*
X5083683D2*
X5633265D1*
X5763683D2*
X6013597D1*
X6186398D2*
X6276312D1*
X6406358D2*
X6437601D1*
X1063644Y3301857D2*
X3562503D1*
X3937491D2*
X4386644D1*
X4512608D2*
X4763597D1*
X5093351D2*
X5642933D1*
X5773351D2*
X6013597D1*
X6186398D2*
X6266644D1*
X6397062D2*
X6436370D1*
X1064874Y3292190D2*
X3587679D1*
X3912315D2*
X4376976D1*
X4506886D2*
X4763597D1*
X5103019D2*
X5652601D1*
X5783019D2*
X6013597D1*
X6186398D2*
X6256976D1*
X6387394D2*
X6435120D1*
X1066710Y3282523D2*
X3618323D1*
X3881690D2*
X4367327D1*
X4497726D2*
X4763597D1*
X5112687D2*
X5662269D1*
X5792687D2*
X6013597D1*
X6186398D2*
X6247327D1*
X6377726D2*
X6433284D1*
X1068800Y3272857D2*
X3659847D1*
X3840148D2*
X4357659D1*
X4488058D2*
X4763597D1*
X5122355D2*
X5671937D1*
X5802355D2*
X6013597D1*
X6186398D2*
X6237659D1*
X6368058D2*
X6431194D1*
X1070890Y3263190D2*
X4000882D1*
X4039112D2*
X4347991D1*
X4478390D2*
X4763597D1*
X5132023D2*
X5681605D1*
X5812023D2*
X6013597D1*
X6186398D2*
X6227991D1*
X6358390D2*
X6429124D1*
X1072960Y3253523D2*
X3978382D1*
X4061612D2*
X4338323D1*
X4468722D2*
X4763597D1*
X5141690D2*
X5691273D1*
X5821690D2*
X6013597D1*
X6186398D2*
X6220179D1*
X6348722D2*
X6427034D1*
X1075050Y3243857D2*
X3966233D1*
X4073761D2*
X4328655D1*
X4459054D2*
X4763597D1*
X5151358D2*
X5700940D1*
X5831358D2*
X6013597D1*
X6186398D2*
X6215765D1*
X6339054D2*
X6424944D1*
X1077140Y3234190D2*
X3957913D1*
X4082101D2*
X4318987D1*
X4449405D2*
X4763597D1*
X5161007D2*
X5710608D1*
X5841007D2*
X6013597D1*
X6186398D2*
X6213792D1*
X6329405D2*
X6422874D1*
X1079210Y3224523D2*
X3951976D1*
X4088038D2*
X4309319D1*
X4439737D2*
X4763597D1*
X5170675D2*
X5720276D1*
X5850675D2*
X6013597D1*
X6186398D2*
X6213597D1*
X6319737D2*
X6420784D1*
X1081300Y3214857D2*
X3947815D1*
X4092179D2*
X4299651D1*
X4430069D2*
X4763597D1*
X5180343D2*
X5729944D1*
X5860343D2*
X6013597D1*
X6186398D2*
X6213597D1*
X6310069D2*
X6418694D1*
X1083390Y3205190D2*
X3945140D1*
X4094855D2*
X4289983D1*
X4420401D2*
X4763597D1*
X5190011D2*
X5739612D1*
X5870011D2*
X6013597D1*
X6186398D2*
X6213597D1*
X6306398D2*
X6416624D1*
X1085460Y3195523D2*
X2953597D1*
X3316398D2*
X3943812D1*
X4096202D2*
X4280315D1*
X4410733D2*
X4763597D1*
X5199679D2*
X5749280D1*
X5879679D2*
X6013597D1*
X6186398D2*
X6213597D1*
X6306398D2*
X6414534D1*
X1087550Y3185857D2*
X2011565D1*
X3316398D2*
X3943714D1*
X4096280D2*
X4270648D1*
X4401065D2*
X4763597D1*
X5209347D2*
X5758929D1*
X5889347D2*
X6013597D1*
X6186398D2*
X6213597D1*
X6306398D2*
X6412444D1*
X1089640Y3176190D2*
X1998440D1*
X3316398D2*
X3944866D1*
X4095128D2*
X4260980D1*
X4391398D2*
X4763597D1*
X5219015D2*
X5768597D1*
X5899015D2*
X6013597D1*
X6186398D2*
X6213597D1*
X6306398D2*
X6410374D1*
X1091710Y3166523D2*
X1987073D1*
X3316398D2*
X3947347D1*
X4092648D2*
X4251312D1*
X4381730D2*
X4763597D1*
X5228683D2*
X5778265D1*
X5908683D2*
X6013597D1*
X6186398D2*
X6213597D1*
X6306398D2*
X6408284D1*
X1093800Y3156857D2*
X1975706D1*
X3316398D2*
X3951273D1*
X4088722D2*
X4241644D1*
X4372062D2*
X4763597D1*
X5238351D2*
X5787933D1*
X5918351D2*
X6013597D1*
X6186398D2*
X6213597D1*
X6306398D2*
X6406194D1*
X1095890Y3147190D2*
X1964339D1*
X3316398D2*
X3956937D1*
X4083077D2*
X4231976D1*
X4362394D2*
X4763597D1*
X5248019D2*
X5797601D1*
X5928019D2*
X6013597D1*
X6186398D2*
X6213597D1*
X6306398D2*
X6404124D1*
X1097960Y3137523D2*
X1952972D1*
X3316398D2*
X3964866D1*
X4075148D2*
X4222327D1*
X4352726D2*
X4763597D1*
X5257687D2*
X5807269D1*
X5937687D2*
X6013597D1*
X6186398D2*
X6213597D1*
X6306398D2*
X6402034D1*
X1100050Y3127857D2*
X1941624D1*
X3316398D2*
X3976292D1*
X4063702D2*
X4212659D1*
X4343058D2*
X4763597D1*
X5267355D2*
X5816937D1*
X5947355D2*
X6013597D1*
X6186398D2*
X6213597D1*
X6306398D2*
X6399944D1*
X1102140Y3118190D2*
X1930257D1*
X3316398D2*
X3996019D1*
X4043995D2*
X4202991D1*
X4333390D2*
X4763597D1*
X5277023D2*
X5826605D1*
X5957023D2*
X6013597D1*
X6186398D2*
X6213597D1*
X6306398D2*
X6397874D1*
X1104210Y3108523D2*
X1918890D1*
X3316398D2*
X3568030D1*
X3881964D2*
X4193323D1*
X4323722D2*
X4763597D1*
X5286690D2*
X5836273D1*
X5966690D2*
X6013597D1*
X6186398D2*
X6213597D1*
X6306398D2*
X6395784D1*
X1106300Y3098857D2*
X1907523D1*
X3316398D2*
X3559046D1*
X3890968D2*
X4183655D1*
X4314054D2*
X4763597D1*
X5296358D2*
X5845940D1*
X5976358D2*
X6013597D1*
X6186398D2*
X6213597D1*
X6306398D2*
X6393694D1*
X1108390Y3089190D2*
X1896155D1*
X3316398D2*
X3554808D1*
X3895187D2*
X4173987D1*
X4304405D2*
X4763597D1*
X5306007D2*
X5855608D1*
X5986007D2*
X6013597D1*
X6186398D2*
X6213597D1*
X6306398D2*
X6391624D1*
X1110460Y3079523D2*
X1884788D1*
X3316398D2*
X3553597D1*
X3896398D2*
X4164319D1*
X4294737D2*
X4763597D1*
X5315675D2*
X5865276D1*
X6186398D2*
X6213597D1*
X6306398D2*
X6389534D1*
X1112550Y3069857D2*
X1873421D1*
X3316398D2*
X3553597D1*
X3896398D2*
X4154651D1*
X4285069D2*
X4763597D1*
X5325343D2*
X5874944D1*
X6186398D2*
X6213597D1*
X6306398D2*
X6387444D1*
X1114933Y3060190D2*
X1862054D1*
X3316398D2*
X3553597D1*
X3896398D2*
X4145101D1*
X4275401D2*
X4763597D1*
X5335011D2*
X5884612D1*
X6186398D2*
X6213597D1*
X6306398D2*
X6385081D1*
X1117882Y3050523D2*
X1850687D1*
X3316398D2*
X3553597D1*
X3896398D2*
X4138499D1*
X4265733D2*
X4763597D1*
X5344679D2*
X5894280D1*
X6186398D2*
X6213597D1*
X6306398D2*
X6382112D1*
X1120851Y3040857D2*
X1839319D1*
X3316398D2*
X3553597D1*
X3896398D2*
X4134925D1*
X4256065D2*
X4763597D1*
X5354347D2*
X5903929D1*
X6186398D2*
X6213597D1*
X6306398D2*
X6379163D1*
X1123800Y3031190D2*
X1827952D1*
X3316398D2*
X3553597D1*
X3896398D2*
X4133616D1*
X4246398D2*
X4763597D1*
X5364015D2*
X5913597D1*
X6186398D2*
X6213597D1*
X6306398D2*
X6376194D1*
X1126769Y3021523D2*
X1816585D1*
X3316398D2*
X3553597D1*
X3896398D2*
X4133597D1*
X4236730D2*
X4763597D1*
X5373683D2*
X5923265D1*
X6186398D2*
X6213597D1*
X6306398D2*
X6373245D1*
X1129718Y3011857D2*
X1805218D1*
X3316398D2*
X3553597D1*
X3896398D2*
X4133597D1*
X4227062D2*
X4763597D1*
X5383351D2*
X5932933D1*
X6186398D2*
X6213597D1*
X6306398D2*
X6370276D1*
X1132687Y3002190D2*
X1793851D1*
X3316398D2*
X3553597D1*
X3896398D2*
X4133597D1*
X4226398D2*
X4763597D1*
X5393019D2*
X5943870D1*
X6186398D2*
X6213597D1*
X6306398D2*
X6367308D1*
X1135636Y2992523D2*
X1782483D1*
X3316398D2*
X3553636D1*
X3896398D2*
X4133597D1*
X4226398D2*
X4763597D1*
X5402687D2*
X6013597D1*
X6186398D2*
X6213597D1*
X6306398D2*
X6364358D1*
X1138605Y2982857D2*
X1771116D1*
X2083409D2*
X2953597D1*
X3316398D2*
X3344593D1*
X3896163D2*
X4133597D1*
X4226398D2*
X4763597D1*
X5412355D2*
X6013597D1*
X6186398D2*
X6213597D1*
X6306398D2*
X6361390D1*
X1141573Y2973190D2*
X1759749D1*
X2075401D2*
X3126526D1*
X3306222D2*
X3342933D1*
X3893605D2*
X4133597D1*
X4226398D2*
X4763597D1*
X5422023D2*
X6013597D1*
X6186398D2*
X6213597D1*
X6306398D2*
X6358440D1*
X1144523Y2963523D2*
X1748382D1*
X2067413D2*
X3126116D1*
X3304874D2*
X3316351D1*
X3887491D2*
X4133597D1*
X4226398D2*
X4763597D1*
X5457726D2*
X6013597D1*
X6186398D2*
X6208323D1*
X6306398D2*
X6355472D1*
X1147491Y2953857D2*
X1737015D1*
X2059405D2*
X2633597D1*
X2906398D2*
X3125687D1*
X3877921D2*
X4113597D1*
X4246398D2*
X4488597D1*
X5481085D2*
X6013597D1*
X6186398D2*
X6198655D1*
X6306398D2*
X6352523D1*
X1150440Y2944190D2*
X1725648D1*
X2051398D2*
X2633597D1*
X2906398D2*
X3125276D1*
X3868253D2*
X4113597D1*
X4246398D2*
X4488597D1*
X5493429D2*
X6013597D1*
X6306026D2*
X6349554D1*
X1153409Y2934523D2*
X1714280D1*
X2043409D2*
X2633597D1*
X2906398D2*
X3123597D1*
X3858585D2*
X3913597D1*
X4086398D2*
X4113597D1*
X4246398D2*
X4488597D1*
X5501847D2*
X6013597D1*
X6303683D2*
X6346585D1*
X1156358Y2924857D2*
X1702913D1*
X2035401D2*
X2633597D1*
X2906398D2*
X3123597D1*
X3858409D2*
X3913597D1*
X4086398D2*
X4113597D1*
X4246398D2*
X4488597D1*
X5507862D2*
X6013597D1*
X6298800D2*
X6343636D1*
X1159327Y2915190D2*
X1678616D1*
X2027394D2*
X2633597D1*
X2906398D2*
X3123597D1*
X3858409D2*
X3913597D1*
X4086398D2*
X4113597D1*
X4246398D2*
X4488597D1*
X5512062D2*
X6013597D1*
X6290401D2*
X6340667D1*
X1162296Y2905523D2*
X1659495D1*
X2019405D2*
X2058089D1*
X2141925D2*
X2633597D1*
X2906398D2*
X3123597D1*
X3858409D2*
X3913597D1*
X4086398D2*
X4113597D1*
X4246398D2*
X4488597D1*
X5514776D2*
X6013597D1*
X6280733D2*
X6337718D1*
X1165245Y2895857D2*
X1645140D1*
X2011398D2*
X2033597D1*
X2166417D2*
X2633597D1*
X2906398D2*
X3123597D1*
X4086398D2*
X4113597D1*
X4246398D2*
X4488597D1*
X5516163D2*
X6013597D1*
X6271065D2*
X6334749D1*
X1168214Y2886190D2*
X1633597D1*
X2003390D2*
X2017171D1*
X2182823D2*
X2633597D1*
X2906398D2*
X3123597D1*
X4086398D2*
X4113597D1*
X4246398D2*
X4488597D1*
X5516300D2*
X6013597D1*
X6261398D2*
X6331800D1*
X1171163Y2876523D2*
X1624007D1*
X1995382D2*
X2004515D1*
X2195480D2*
X2633597D1*
X2906398D2*
X3123597D1*
X4086398D2*
X4113597D1*
X4246398D2*
X4488597D1*
X5515187D2*
X6013597D1*
X6251730D2*
X6328831D1*
X1174132Y2866857D2*
X1615901D1*
X1987394D2*
X1994261D1*
X2205733D2*
X2633597D1*
X2906398D2*
X3123597D1*
X4086398D2*
X4113597D1*
X4246398D2*
X4488597D1*
X5512765D2*
X6013597D1*
X6242062D2*
X6325862D1*
X1177081Y2857190D2*
X1609026D1*
X1979386D2*
X1985745D1*
X2214249D2*
X2633597D1*
X2906398D2*
X3123597D1*
X4086398D2*
X4113597D1*
X4246398D2*
X4480062D1*
X5508878D2*
X6013597D1*
X6232374D2*
X6322913D1*
X1180050Y2847523D2*
X1603187D1*
X1971378D2*
X1978621D1*
X2221398D2*
X2633597D1*
X2906398D2*
X3123597D1*
X4086398D2*
X4113597D1*
X4246398D2*
X4470394D1*
X5503292D2*
X6013597D1*
X6217023D2*
X6319944D1*
X1183429Y2837857D2*
X1598245D1*
X1963390D2*
X1972601D1*
X2227394D2*
X2633597D1*
X2906398D2*
X3123597D1*
X4086398D2*
X4113597D1*
X4246398D2*
X4460726D1*
X4936398D2*
X5384534D1*
X5495460D2*
X6013597D1*
X6186398D2*
X6316585D1*
X1187315Y2828190D2*
X1594124D1*
X1955382D2*
X1967562D1*
X2232433D2*
X2633597D1*
X2906398D2*
X3123597D1*
X4086398D2*
X4113597D1*
X4246398D2*
X4451058D1*
X4936398D2*
X5395823D1*
X5484190D2*
X6013597D1*
X6186398D2*
X6312698D1*
X1191202Y2818523D2*
X1590726D1*
X1947374D2*
X1963421D1*
X2236573D2*
X2633597D1*
X2906398D2*
X3123597D1*
X4086398D2*
X4113597D1*
X4246398D2*
X4441390D1*
X4936398D2*
X5415003D1*
X5465011D2*
X6013597D1*
X6186398D2*
X6308812D1*
X1195069Y2808857D2*
X1588030D1*
X1939366D2*
X1960062D1*
X2239933D2*
X2633597D1*
X2906398D2*
X3123597D1*
X4086398D2*
X4113597D1*
X4246398D2*
X4431722D1*
X4991730D2*
X6013597D1*
X6186398D2*
X6304925D1*
X1198956Y2799190D2*
X1585999D1*
X1931378D2*
X1957444D1*
X2242569D2*
X2633597D1*
X2906398D2*
X3123597D1*
X4086398D2*
X4422054D1*
X5007706D2*
X6013597D1*
X6186398D2*
X6301038D1*
X1202843Y2789523D2*
X1584593D1*
X1923370D2*
X1955511D1*
X2244483D2*
X2633597D1*
X2906398D2*
X3123597D1*
X3858409D2*
X3913597D1*
X4086398D2*
X4412386D1*
X5017862D2*
X6013597D1*
X6186398D2*
X6297151D1*
X1206730Y2779857D2*
X1583792D1*
X1915362D2*
X1954261D1*
X2245733D2*
X2633597D1*
X2906398D2*
X3123597D1*
X3858409D2*
X3913597D1*
X4086398D2*
X4402718D1*
X5025011D2*
X6013597D1*
X6186398D2*
X6293265D1*
X1210616Y2770190D2*
X1583616D1*
X1907374D2*
X1953655D1*
X2246339D2*
X2633597D1*
X2906398D2*
X3123597D1*
X3858409D2*
X3913597D1*
X4086398D2*
X4393069D1*
X5030089D2*
X6013597D1*
X6186398D2*
X6289378D1*
X1214503Y2760523D2*
X1584026D1*
X1899366D2*
X1953694D1*
X2246300D2*
X2633597D1*
X2906398D2*
X3123597D1*
X3858409D2*
X3913597D1*
X4086398D2*
X4383401D1*
X5033546D2*
X6013597D1*
X6186398D2*
X6285491D1*
X1218390Y2750857D2*
X1585042D1*
X1894952D2*
X1954398D1*
X2245616D2*
X2633597D1*
X2906398D2*
X3274983D1*
X3858409D2*
X4373733D1*
X5035616D2*
X6013597D1*
X6186398D2*
X6281624D1*
X1222276Y2741190D2*
X1586683D1*
X1893312D2*
X1955726D1*
X2244269D2*
X2633597D1*
X2906398D2*
X3300823D1*
X3858409D2*
X4364612D1*
X5036398D2*
X6013597D1*
X6186398D2*
X6277737D1*
X1226163Y2731523D2*
X1588968D1*
X1891026D2*
X1957737D1*
X2242257D2*
X2633597D1*
X2906398D2*
X3326663D1*
X3858409D2*
X4113597D1*
X4246398D2*
X4357327D1*
X5035929D2*
X6013597D1*
X6186398D2*
X6273851D1*
X1230030Y2721857D2*
X1591917D1*
X1888097D2*
X1960472D1*
X2239542D2*
X2633597D1*
X2906398D2*
X3344593D1*
X3858409D2*
X4113597D1*
X4246398D2*
X4351546D1*
X5034190D2*
X6013597D1*
X6186398D2*
X6269964D1*
X1233917Y2712190D2*
X1595569D1*
X1884425D2*
X1963929D1*
X2236085D2*
X2633597D1*
X2906398D2*
X4113597D1*
X4246398D2*
X4346976D1*
X5031085D2*
X6013597D1*
X6186398D2*
X6266077D1*
X1237804Y2702523D2*
X1600003D1*
X1880011D2*
X1968187D1*
X2231808D2*
X2633597D1*
X2906398D2*
X4113597D1*
X4246398D2*
X4343499D1*
X5026437D2*
X6013597D1*
X6186398D2*
X6262190D1*
X1241690Y2692857D2*
X1605257D1*
X1874737D2*
X1973343D1*
X2226671D2*
X2633597D1*
X2906398D2*
X4113597D1*
X4246398D2*
X4340999D1*
X5019835D2*
X6013597D1*
X6186398D2*
X6258304D1*
X1245577Y2683190D2*
X1611487D1*
X1868526D2*
X1979495D1*
X2220519D2*
X2658597D1*
X2881398D2*
X4113597D1*
X4246398D2*
X4339398D1*
X4620323D2*
X4763597D1*
X5010577D2*
X6013597D1*
X6186398D2*
X6254417D1*
X1249464Y2673523D2*
X1618792D1*
X1861222D2*
X1986800D1*
X2213194D2*
X2658597D1*
X2881398D2*
X4113597D1*
X4246398D2*
X4338655D1*
X4610655D2*
X4763597D1*
X4996573D2*
X6013597D1*
X6186398D2*
X6250530D1*
X1253351Y2663857D2*
X1627405D1*
X1852589D2*
X1995530D1*
X2204483D2*
X2658597D1*
X2881398D2*
X4113597D1*
X4246398D2*
X4338597D1*
X4600987D2*
X4763597D1*
X4936398D2*
X6013597D1*
X6186398D2*
X6246663D1*
X1257237Y2654190D2*
X1637659D1*
X1842335D2*
X2006058D1*
X2193956D2*
X2658597D1*
X2881398D2*
X4113597D1*
X4246398D2*
X4338597D1*
X4591319D2*
X6242776D1*
X1261124Y2644523D2*
X1650120D1*
X1829874D2*
X2019105D1*
X2180909D2*
X2658597D1*
X2881398D2*
X3328733D1*
X3869269D2*
X4113597D1*
X4246398D2*
X4338597D1*
X4581651D2*
X6238890D1*
X1264991Y2634857D2*
X1665921D1*
X1814073D2*
X2021233D1*
X2178761D2*
X2658597D1*
X2881398D2*
X3320433D1*
X3877569D2*
X4113597D1*
X4246398D2*
X4338597D1*
X4571983D2*
X6235003D1*
X1269132Y2625190D2*
X1688050D1*
X1791944D2*
X2007737D1*
X2192257D2*
X2658597D1*
X2881398D2*
X3316565D1*
X3881437D2*
X4113597D1*
X4246398D2*
X4338597D1*
X4562315D2*
X6230882D1*
X1273995Y2615523D2*
X1996898D1*
X2203097D2*
X2658597D1*
X2881398D2*
X3315608D1*
X3882394D2*
X4113597D1*
X4246398D2*
X4338597D1*
X4561398D2*
X6225999D1*
X1278878Y2605857D2*
X1987952D1*
X2212042D2*
X2658597D1*
X2881398D2*
X3315608D1*
X3882394D2*
X4113597D1*
X4246398D2*
X4338597D1*
X4561398D2*
X6221116D1*
X1283741Y2596190D2*
X1980452D1*
X2219542D2*
X2613597D1*
X3046398D2*
X3315608D1*
X3882394D2*
X4113597D1*
X4246398D2*
X4338597D1*
X4561398D2*
X6216253D1*
X1288624Y2586523D2*
X1974144D1*
X2225851D2*
X2613597D1*
X3046398D2*
X3315608D1*
X3882394D2*
X4113597D1*
X4246398D2*
X4293597D1*
X4606398D2*
X6211370D1*
X1293487Y2576857D2*
X1968870D1*
X2231124D2*
X2613597D1*
X3046398D2*
X3123597D1*
X3296398D2*
X3315608D1*
X3882394D2*
X4133597D1*
X4226398D2*
X4293597D1*
X4606398D2*
X6206507D1*
X1298370Y2567190D2*
X1964476D1*
X2235519D2*
X2613597D1*
X3046398D2*
X3123597D1*
X3296398D2*
X3315608D1*
X3882394D2*
X4133597D1*
X4226398D2*
X4293597D1*
X4606398D2*
X6201624D1*
X1303253Y2557523D2*
X1960901D1*
X2239093D2*
X2613597D1*
X3046398D2*
X3123597D1*
X3296398D2*
X3315608D1*
X3882394D2*
X4133597D1*
X4226398D2*
X4293597D1*
X4606398D2*
X6196761D1*
X1308116Y2547857D2*
X1958089D1*
X2241905D2*
X2613597D1*
X3046398D2*
X3123597D1*
X3296398D2*
X3315608D1*
X3882394D2*
X4133597D1*
X4226398D2*
X4293597D1*
X4606398D2*
X6191878D1*
X1312999Y2538190D2*
X1955980D1*
X2244015D2*
X2613597D1*
X3046398D2*
X3123597D1*
X3935558D2*
X4133597D1*
X4226398D2*
X4293597D1*
X4606398D2*
X6187015D1*
X1317862Y2528523D2*
X1954534D1*
X2245460D2*
X2613597D1*
X3046398D2*
X3123597D1*
X3946690D2*
X4133323D1*
X4226398D2*
X4293597D1*
X4606398D2*
X6182132D1*
X1322745Y2518857D2*
X1953753D1*
X2246241D2*
X2613597D1*
X3046398D2*
X3123597D1*
X3956358D2*
X4123655D1*
X4226398D2*
X4293597D1*
X4606398D2*
X4863597D1*
X5936398D2*
X6177269D1*
X1327608Y2509190D2*
X1953636D1*
X2246378D2*
X2613597D1*
X3046398D2*
X3123597D1*
X3966007D2*
X4113987D1*
X4226398D2*
X4293597D1*
X4606398D2*
X4863597D1*
X5936398D2*
X6172386D1*
X1332491Y2499523D2*
X1954144D1*
X2245870D2*
X2613597D1*
X3046398D2*
X3123597D1*
X3975675D2*
X4104319D1*
X4225167D2*
X4293597D1*
X4606398D2*
X4863597D1*
X5936398D2*
X6167523D1*
X1337355Y2489857D2*
X1955296D1*
X2244698D2*
X2613597D1*
X3046398D2*
X3123597D1*
X3985343D2*
X4094651D1*
X4221690D2*
X4293597D1*
X4606398D2*
X4863597D1*
X5936398D2*
X6162640D1*
X1342237Y2480190D2*
X1957132D1*
X2242882D2*
X2613597D1*
X3046398D2*
X3123597D1*
X3995011D2*
X4084983D1*
X4215245D2*
X4293597D1*
X4606398D2*
X4863597D1*
X5936398D2*
X6157757D1*
X1347101Y2470523D2*
X1959632D1*
X2240362D2*
X2613597D1*
X3046398D2*
X3123597D1*
X4004679D2*
X4075315D1*
X4205733D2*
X4293597D1*
X4606398D2*
X4863597D1*
X5936398D2*
X6152894D1*
X1351983Y2460857D2*
X1962894D1*
X2237101D2*
X2613597D1*
X3046398D2*
X3123597D1*
X4014347D2*
X4065648D1*
X4196065D2*
X4293597D1*
X4606398D2*
X4863597D1*
X5936398D2*
X6148011D1*
X1356866Y2451190D2*
X1966937D1*
X2233077D2*
X2613597D1*
X3046398D2*
X3123597D1*
X4024015D2*
X4055980D1*
X4186398D2*
X4293597D1*
X4606398D2*
X4863597D1*
X5936398D2*
X6143148D1*
X1361730Y2441523D2*
X1971819D1*
X2228175D2*
X2613597D1*
X3046398D2*
X3123597D1*
X4176730D2*
X4293597D1*
X4606398D2*
X4863597D1*
X5936398D2*
X6138265D1*
X1366612Y2431857D2*
X1977679D1*
X2222315D2*
X2613597D1*
X3046398D2*
X3123597D1*
X3296398D2*
X3315980D1*
X4167062D2*
X4293597D1*
X4606398D2*
X4863597D1*
X5936398D2*
X6133401D1*
X1371476Y2422190D2*
X1984651D1*
X2215343D2*
X2613597D1*
X3046398D2*
X3123597D1*
X3296398D2*
X3318851D1*
X4157394D2*
X4293597D1*
X4606398D2*
X4863597D1*
X5936398D2*
X6128519D1*
X1377296Y2412523D2*
X1992952D1*
X2207042D2*
X2613597D1*
X3046398D2*
X3123597D1*
X3296398D2*
X3324710D1*
X4147726D2*
X4293597D1*
X4606398D2*
X4863597D1*
X5936398D2*
X6122698D1*
X1383253Y2402857D2*
X2002933D1*
X2197062D2*
X2613597D1*
X3046398D2*
X3123597D1*
X3296398D2*
X3331058D1*
X4138058D2*
X4293597D1*
X4606398D2*
X4863597D1*
X5936398D2*
X6116741D1*
X1389210Y2393190D2*
X2015179D1*
X2184815D2*
X2613597D1*
X3046398D2*
X3334593D1*
X4128390D2*
X4293597D1*
X4606398D2*
X4863597D1*
X5936398D2*
X6110804D1*
X1395167Y2383523D2*
X2025608D1*
X2174386D2*
X2613597D1*
X3046398D2*
X3334593D1*
X4118722D2*
X4293597D1*
X4606398D2*
X4863597D1*
X5936398D2*
X6104847D1*
X1401105Y2373857D2*
X2011155D1*
X2188858D2*
X2613597D1*
X3046398D2*
X3334593D1*
X4109054D2*
X4293597D1*
X4606398D2*
X4863597D1*
X5936398D2*
X6098890D1*
X1407062Y2364190D2*
X1999671D1*
X2200323D2*
X2613597D1*
X3046398D2*
X3334593D1*
X4098917D2*
X4293597D1*
X4606398D2*
X4863597D1*
X5936398D2*
X6092933D1*
X1413019Y2354523D2*
X1990257D1*
X2209737D2*
X2613597D1*
X3046398D2*
X3334593D1*
X4056398D2*
X4293597D1*
X4606398D2*
X6086995D1*
X1418976Y2344857D2*
X1982386D1*
X2217608D2*
X2613597D1*
X3046398D2*
X3334593D1*
X4056398D2*
X4293597D1*
X4606398D2*
X6081038D1*
X1424913Y2335190D2*
X1975784D1*
X2224210D2*
X2613597D1*
X3046398D2*
X3334593D1*
X4056398D2*
X4293597D1*
X4606398D2*
X6075081D1*
X1430870Y2325523D2*
X1970237D1*
X2229776D2*
X2613597D1*
X3046398D2*
X3334593D1*
X4056398D2*
X4293597D1*
X4606398D2*
X6069124D1*
X1436827Y2315857D2*
X1965608D1*
X2234386D2*
X2613597D1*
X3046398D2*
X3334593D1*
X4056398D2*
X4293597D1*
X4606398D2*
X6063187D1*
X1442765Y2306190D2*
X1961819D1*
X2238175D2*
X2613597D1*
X3046398D2*
X3334593D1*
X4056398D2*
X4293597D1*
X4606398D2*
X6057230D1*
X1448722Y2296523D2*
X1958792D1*
X2241202D2*
X2613597D1*
X3046398D2*
X3334593D1*
X4056398D2*
X4293597D1*
X4606398D2*
X6051273D1*
X1454679Y2286857D2*
X1956487D1*
X2243507D2*
X2613597D1*
X3046398D2*
X3334593D1*
X4056398D2*
X4293597D1*
X4606398D2*
X6045315D1*
X1460636Y2277190D2*
X1954866D1*
X2245128D2*
X2613597D1*
X3046398D2*
X3334593D1*
X4056398D2*
X4293597D1*
X4606398D2*
X6039378D1*
X1466573Y2267523D2*
X1953909D1*
X2246085D2*
X3334593D1*
X4056398D2*
X4293597D1*
X4606398D2*
X6033421D1*
X1472530Y2257857D2*
X1953597D1*
X2246398D2*
X3334593D1*
X4056398D2*
X4313597D1*
X4586398D2*
X6027464D1*
X1478487Y2248190D2*
X1953929D1*
X2246065D2*
X3334593D1*
X4056398D2*
X4313597D1*
X4586398D2*
X6021507D1*
X1484444Y2238523D2*
X1954905D1*
X2245089D2*
X3334593D1*
X4056398D2*
X4313597D1*
X4586398D2*
X6015569D1*
X1490382Y2228857D2*
X1956546D1*
X2243448D2*
X3334593D1*
X4056398D2*
X4313616D1*
X4586398D2*
X6009612D1*
X1496944Y2219190D2*
X1958870D1*
X2241124D2*
X3334593D1*
X4056398D2*
X4314378D1*
X4585616D2*
X6003050D1*
X1504093Y2209523D2*
X1961917D1*
X2238077D2*
X3334593D1*
X4056398D2*
X4316429D1*
X4583565D2*
X5995901D1*
X1511241Y2199857D2*
X1965726D1*
X2234269D2*
X3334593D1*
X4056398D2*
X4319886D1*
X4580108D2*
X5988753D1*
X1518390Y2190190D2*
X1970374D1*
X2229620D2*
X3334593D1*
X4056398D2*
X4324964D1*
X4575030D2*
X5981605D1*
X1525538Y2180523D2*
X1975960D1*
X2224034D2*
X3334593D1*
X4056398D2*
X4332112D1*
X4567901D2*
X5974456D1*
X1532687Y2170857D2*
X1982601D1*
X2217394D2*
X3244105D1*
X3457394D2*
X3464105D1*
X4056398D2*
X4342230D1*
X4437765D2*
X4462230D1*
X4557765D2*
X5967308D1*
X1539855Y2161190D2*
X1990511D1*
X2209483D2*
X3244105D1*
X3457394D2*
X3464105D1*
X4056398D2*
X4358167D1*
X4421827D2*
X4478167D1*
X4541827D2*
X5960159D1*
X1547003Y2151523D2*
X1999983D1*
X2200011D2*
X3244105D1*
X3457394D2*
X3464105D1*
X4056398D2*
X5953011D1*
X1554151Y2141857D2*
X2011526D1*
X2188468D2*
X3244105D1*
X3457394D2*
X3464105D1*
X4056398D2*
X5945862D1*
X1561300Y2132190D2*
X2026116D1*
X2173898D2*
X3244105D1*
X3456534D2*
X3464105D1*
X4056398D2*
X5938714D1*
X1568448Y2122523D2*
X2014769D1*
X2185226D2*
X3244105D1*
X3453468D2*
X3464105D1*
X4056398D2*
X5931565D1*
X1575597Y2112857D2*
X2002601D1*
X2197394D2*
X3244105D1*
X3447628D2*
X3464105D1*
X4056398D2*
X5924417D1*
X1582745Y2103190D2*
X1992679D1*
X2207315D2*
X3244105D1*
X3438390D2*
X3464105D1*
X4056398D2*
X5917269D1*
X1589894Y2093523D2*
X1984437D1*
X2215577D2*
X3244105D1*
X3428722D2*
X3464105D1*
X4056398D2*
X5910101D1*
X1597042Y2083857D2*
X1977483D1*
X2222511D2*
X3244105D1*
X3419054D2*
X3464105D1*
X4056398D2*
X5902952D1*
X1604190Y2074190D2*
X1971663D1*
X2228331D2*
X3244105D1*
X3408917D2*
X3464105D1*
X4056398D2*
X5895804D1*
X1611339Y2064523D2*
X1966800D1*
X2233214D2*
X3244105D1*
X3396905D2*
X3464105D1*
X4056398D2*
X5888655D1*
X1618487Y2054857D2*
X1962776D1*
X2237218D2*
X3244105D1*
X3396905D2*
X3464105D1*
X4056398D2*
X5881507D1*
X1625636Y2045190D2*
X1959554D1*
X2240440D2*
X3244105D1*
X3396905D2*
X3464105D1*
X4056398D2*
X5874358D1*
X1633155Y2035523D2*
X1957054D1*
X2242940D2*
X3461448D1*
X4056398D2*
X5866858D1*
X1641651Y2025857D2*
X1955257D1*
X2244757D2*
X3456468D1*
X4056398D2*
X5858343D1*
X1650167Y2016190D2*
X1954105D1*
X2245890D2*
X3408597D1*
X4056398D2*
X5849827D1*
X1658683Y2006523D2*
X1953616D1*
X2246378D2*
X3408597D1*
X4056398D2*
X5841331D1*
X1667179Y1996857D2*
X1953773D1*
X2246222D2*
X3408597D1*
X4056398D2*
X5832815D1*
X1675694Y1987190D2*
X1954573D1*
X2245421D2*
X3408597D1*
X4056398D2*
X5824319D1*
X1684190Y1977523D2*
X1956038D1*
X2243976D2*
X3408597D1*
X4056398D2*
X5815804D1*
X1692706Y1967857D2*
X1958167D1*
X2241827D2*
X3408597D1*
X4056398D2*
X5807288D1*
X1701222Y1958190D2*
X1960999D1*
X2238995D2*
X3408597D1*
X4056398D2*
X5798792D1*
X1709718Y1948523D2*
X1964593D1*
X2235401D2*
X3408597D1*
X4056398D2*
X5790276D1*
X1718233Y1938857D2*
X1969007D1*
X2230987D2*
X3408597D1*
X4056398D2*
X5781780D1*
X1726730Y1929190D2*
X1974319D1*
X2225675D2*
X3408597D1*
X4056398D2*
X5773265D1*
X1735245Y1919523D2*
X1980667D1*
X2219347D2*
X3408597D1*
X4056398D2*
X5764749D1*
X1743761Y1909857D2*
X1988187D1*
X2211808D2*
X3408597D1*
X4056398D2*
X5756253D1*
X1752257Y1900190D2*
X1997190D1*
X2202804D2*
X3408597D1*
X4056398D2*
X5747737D1*
X1760773Y1890523D2*
X2008089D1*
X2191905D2*
X3408597D1*
X4056398D2*
X5739241D1*
X1769269Y1880857D2*
X2021683D1*
X2178312D2*
X3408597D1*
X4056398D2*
X5730726D1*
X1777784Y1871190D2*
X2018655D1*
X2181339D2*
X3408597D1*
X4056398D2*
X5722210D1*
X1786769Y1861523D2*
X2005706D1*
X2194288D2*
X3408597D1*
X4056398D2*
X5713226D1*
X1796866Y1851857D2*
X1995237D1*
X2204757D2*
X3391390D1*
X4056398D2*
X5703148D1*
X1806944Y1842190D2*
X1986565D1*
X2213429D2*
X3376976D1*
X4056398D2*
X5693050D1*
X1817042Y1832523D2*
X1979280D1*
X2220714D2*
X3367327D1*
X4056398D2*
X5682972D1*
X1827120Y1822857D2*
X1973167D1*
X2226827D2*
X3357659D1*
X4055831D2*
X5672874D1*
X1837198Y1813190D2*
X1968050D1*
X2231944D2*
X3347991D1*
X4053175D2*
X5662796D1*
X1847296Y1803523D2*
X1963812D1*
X2236183D2*
X3201097D1*
X4047882D2*
X5652718D1*
X1857374Y1793857D2*
X1960374D1*
X2239620D2*
X3201097D1*
X4039054D2*
X5642620D1*
X1867472Y1784190D2*
X1957679D1*
X2242315D2*
X3201097D1*
X4029386D2*
X5632542D1*
X1877550Y1774523D2*
X1955687D1*
X2244308D2*
X3201097D1*
X4019737D2*
X5622444D1*
X1887628Y1764857D2*
X1954358D1*
X2245636D2*
X3201097D1*
X4010069D2*
X5612366D1*
X1897726Y1755190D2*
X1953694D1*
X2246300D2*
X3201097D1*
X4000401D2*
X5602288D1*
X1907804Y1745523D2*
X1953675D1*
X2246339D2*
X3201097D1*
X3990538D2*
X5592190D1*
X1917901Y1735857D2*
X1954280D1*
X2245714D2*
X3201097D1*
X3971612D2*
X5582112D1*
X1927980Y1726190D2*
X1955569D1*
X2244444D2*
X3201097D1*
X3961398D2*
X5572015D1*
X1938058Y1716523D2*
X1957503D1*
X2242491D2*
X3201097D1*
X3961398D2*
X5561937D1*
X1948155Y1706857D2*
X1960140D1*
X2239855D2*
X3201097D1*
X3961398D2*
X5551858D1*
X2236476Y1697190D2*
X3201097D1*
X3961398D2*
X5540355D1*
X2232296Y1687523D2*
X3201097D1*
X3736398D2*
X5528382D1*
X2227237Y1677857D2*
X3208929D1*
X3736398D2*
X5516409D1*
X2221202Y1668190D2*
X3205823D1*
X3736398D2*
X5504437D1*
X2214015Y1658523D2*
X3204085D1*
X3736398D2*
X5492464D1*
X2205460Y1648857D2*
X3203616D1*
X3768898D2*
X5480491D1*
X2195148Y1639190D2*
X3204378D1*
X3768898D2*
X5468519D1*
X2182413Y1629523D2*
X3206429D1*
X3768898D2*
X5456546D1*
X2165831Y1619857D2*
X3209886D1*
X3768898D2*
X5444573D1*
X2140929Y1610190D2*
X3214964D1*
X3768898D2*
X5432601D1*
X2079366Y1600523D2*
X3222112D1*
X3768898D2*
X5420628D1*
X2091339Y1590857D2*
X3232230D1*
X3327765D2*
X3333614D1*
X3768898D2*
X5408655D1*
X2103312Y1581190D2*
X3248167D1*
X3311827D2*
X3333597D1*
X3768898D2*
X3821097D1*
X4136398D2*
X5396683D1*
X2115284Y1571523D2*
X3333597D1*
X3768898D2*
X3821097D1*
X4136398D2*
X5384710D1*
X2127257Y1561857D2*
X3333597D1*
X3768898D2*
X3821097D1*
X4136398D2*
X5372737D1*
X2140890Y1552190D2*
X3201097D1*
X3768898D2*
X3821097D1*
X4136398D2*
X5359105D1*
X2155206Y1542523D2*
X3201097D1*
X3768898D2*
X3821097D1*
X4136398D2*
X5344788D1*
X2169503Y1532857D2*
X3201097D1*
X3768898D2*
X3821097D1*
X4136398D2*
X5330491D1*
X2183800Y1523190D2*
X3201097D1*
X3768898D2*
X3821097D1*
X4136398D2*
X5316194D1*
X2198116Y1513523D2*
X3201097D1*
X3672628D2*
X3821097D1*
X4136398D2*
X5301898D1*
X2212413Y1503857D2*
X3201097D1*
X3675108D2*
X3821097D1*
X4136398D2*
X5287581D1*
X2226710Y1494190D2*
X3201097D1*
X3676280D2*
X3821097D1*
X4136398D2*
X5273284D1*
X2241007Y1484523D2*
X3201097D1*
X3676202D2*
X3821097D1*
X4136398D2*
X5258987D1*
X2255323Y1474857D2*
X3201097D1*
X3674855D2*
X3821097D1*
X4136398D2*
X5244690D1*
X2269620Y1465190D2*
X3201097D1*
X3672198D2*
X3821097D1*
X4136398D2*
X5230374D1*
X2283917Y1455523D2*
X3201097D1*
X3668058D2*
X3821097D1*
X4136398D2*
X5216077D1*
X2298233Y1445857D2*
X3201097D1*
X4136398D2*
X5201780D1*
X2312530Y1436190D2*
X3201097D1*
X4136398D2*
X5187464D1*
X2327784Y1426523D2*
X3208421D1*
X4136398D2*
X5172210D1*
X2345089Y1416857D2*
X3205511D1*
X4136398D2*
X5154905D1*
X2362394Y1407190D2*
X3203948D1*
X3971398D2*
X5137601D1*
X2379698Y1397523D2*
X3203636D1*
X3971398D2*
X5120296D1*
X2397003Y1387857D2*
X3204593D1*
X3971398D2*
X5102991D1*
X2414308Y1378190D2*
X3206819D1*
X3971398D2*
X5085687D1*
X2431612Y1368523D2*
X3210491D1*
X3971398D2*
X5068382D1*
X2448917Y1358857D2*
X3215823D1*
X3971398D2*
X5051077D1*
X2466222Y1349190D2*
X3223284D1*
X3971398D2*
X5033792D1*
X2483526Y1339523D2*
X3233968D1*
X3326026D2*
X3333607D1*
X3971398D2*
X5016487D1*
X2500831Y1329857D2*
X3251331D1*
X3308663D2*
X3334749D1*
X3971398D2*
X4999183D1*
X2518136Y1320190D2*
X3338148D1*
X3971398D2*
X4981878D1*
X2538077Y1310523D2*
X3344476D1*
X3971398D2*
X4961917D1*
X2559464Y1300857D2*
X3201097D1*
X3971398D2*
X4940530D1*
X2580851Y1291190D2*
X3201097D1*
X3971398D2*
X4919144D1*
X2602237Y1281523D2*
X3201097D1*
X3358898D2*
X3373265D1*
X3971398D2*
X4897757D1*
X2623624Y1271857D2*
X3201097D1*
X3358898D2*
X3384378D1*
X3971398D2*
X4876370D1*
X2645011Y1262190D2*
X3201097D1*
X3358898D2*
X3411097D1*
X3971398D2*
X4854983D1*
X2666398Y1252523D2*
X3201097D1*
X3358898D2*
X3411097D1*
X3971398D2*
X4833597D1*
X2687784Y1242857D2*
X3201097D1*
X3358898D2*
X3411097D1*
X3971398D2*
X4812210D1*
X2709171Y1233190D2*
X3201097D1*
X3358898D2*
X3411097D1*
X3971398D2*
X4790843D1*
X2730558Y1223523D2*
X3201097D1*
X3358898D2*
X3411097D1*
X3971398D2*
X4769456D1*
X2756671Y1213857D2*
X3201097D1*
X3358898D2*
X3411097D1*
X3971398D2*
X4743323D1*
X2784034Y1204190D2*
X3201097D1*
X3358898D2*
X3411097D1*
X3971398D2*
X4715960D1*
X2811398Y1194523D2*
X3201097D1*
X3358898D2*
X3411097D1*
X3971398D2*
X4688597D1*
X2838761Y1184857D2*
X3201097D1*
X3358898D2*
X3411097D1*
X3971398D2*
X4661253D1*
X2866105Y1175190D2*
X3207933D1*
X3352062D2*
X3411097D1*
X3971398D2*
X4633890D1*
X2893468Y1165523D2*
X3205218D1*
X3354776D2*
X3411097D1*
X3971398D2*
X4606526D1*
X2920831Y1155857D2*
X3203831D1*
X3356163D2*
X3411097D1*
X3971398D2*
X4579163D1*
X2948194Y1146190D2*
X3203694D1*
X3356300D2*
X3411097D1*
X3971398D2*
X4551800D1*
X2983585Y1136523D2*
X3204808D1*
X3355187D2*
X3411097D1*
X3971398D2*
X4516429D1*
X3020694Y1126857D2*
X3207249D1*
X3352765D2*
X3411097D1*
X3971398D2*
X4479300D1*
X3057823Y1117190D2*
X3211116D1*
X3348878D2*
X3411097D1*
X3781319D2*
X4442171D1*
X3094952Y1107523D2*
X3216702D1*
X3343292D2*
X3513968D1*
X3784327D2*
X4405042D1*
X3132081Y1097857D2*
X3224534D1*
X3335460D2*
X3513636D1*
X3785987D2*
X4367913D1*
X3169210Y1088190D2*
X3235823D1*
X3324190D2*
X3514534D1*
X3786378D2*
X4330784D1*
X3221593Y1078523D2*
X3255003D1*
X3305011D2*
X3516722D1*
X3785519D2*
X4278401D1*
X3277960Y1068857D2*
X3520335D1*
X3783370D2*
X4222034D1*
X3334347Y1059190D2*
X3525608D1*
X3779815D2*
X4165667D1*
X3390714Y1049523D2*
X3532991D1*
X3774620D2*
X4109280D1*
X3489913Y1039857D2*
X3543519D1*
X3767315D2*
X4010101D1*
X3756905Y1030190D2*
X3896526D1*
X4764603Y4304600D2*
X4764600Y4464580D1*
X4480000Y4464600D1*
X4476438Y4464740D1*
X4472898Y4465159D1*
X4469402Y4465854D1*
X4465971Y4466822D1*
X4462626Y4468056D1*
X4459389Y4469548D1*
X4456278Y4471290D1*
X4453314Y4473270D1*
X4450515Y4475477D1*
X4444362Y4481433D1*
X4317897Y4607897D1*
X4315477Y4610515D1*
X4313270Y4613314D1*
X4311290Y4616278D1*
X4309548Y4619389D1*
X4308056Y4622626D1*
X4306822Y4625971D1*
X4305854Y4629402D1*
X4305159Y4632898D1*
X4304740Y4636438D1*
X4304600Y4645000D1*
Y5281191D1*
X4276203Y5309592D1*
X4240410Y5309600D1*
X4240401Y5154599D1*
Y5104599D1*
X4030381D1*
X4030401Y4894599D1*
X3880397D1*
X3884247Y4891395D1*
X3888925Y4889631D1*
X3893475Y4887562D1*
X3897879Y4885195D1*
X3902116Y4882542D1*
X3906167Y4879613D1*
X3910016Y4876423D1*
X3913645Y4872985D1*
X3917038Y4869314D1*
X3920192Y4865410D1*
X4160000Y4865400D1*
X4163562Y4865260D1*
X4167102Y4864841D1*
X4170599Y4864146D1*
X4174029Y4863178D1*
X4177374Y4861944D1*
X4180611Y4860452D1*
X4183722Y4858710D1*
X4186686Y4856730D1*
X4189485Y4854523D1*
X4195638Y4848567D1*
X4242103Y4802103D1*
X4244523Y4799485D1*
X4246730Y4796686D1*
X4248710Y4793722D1*
X4250452Y4790611D1*
X4251945Y4787374D1*
X4253178Y4784029D1*
X4254146Y4780599D1*
X4254841Y4777102D1*
X4255260Y4773562D1*
X4255400Y4765000D1*
Y4470000D1*
X4255260Y4466438D1*
X4254841Y4462898D1*
X4254146Y4459401D1*
X4253178Y4455971D1*
X4251945Y4452626D1*
X4250452Y4449389D1*
X4248710Y4446278D1*
X4246730Y4443314D1*
X4244523Y4440515D1*
X4238567Y4434362D1*
X4219485Y4415478D1*
X4216685Y4413271D1*
X4213721Y4411290D1*
X4210611Y4409548D1*
X4207374Y4408056D1*
X4204029Y4406822D1*
X4200598Y4405854D1*
X4197102Y4405159D1*
X4193548Y4404739D1*
X4190400Y4400400D1*
Y4364600D1*
X3839600D1*
X3839601Y4684619D1*
X3835401Y4675399D1*
Y4529599D1*
X3515381D1*
X3515400Y4460000D1*
X3515260Y4456438D1*
X3514841Y4452898D1*
X3514146Y4449402D1*
X3513178Y4445971D1*
X3511944Y4442626D1*
X3510452Y4439389D1*
X3508710Y4436278D1*
X3506730Y4433314D1*
X3504523Y4430515D1*
X3498567Y4424362D1*
X3479485Y4405477D1*
X3476686Y4403270D1*
X3473722Y4401290D1*
X3470611Y4399548D1*
X3467374Y4398056D1*
X3464029Y4396822D1*
X3460598Y4395854D1*
X3457102Y4395159D1*
X3453548Y4394739D1*
X3450401Y4390399D1*
Y4349599D1*
X3249601D1*
Y4359580D1*
X3094601Y4359599D1*
Y4540399D1*
X3265401D1*
Y4530419D1*
X3424581Y4530399D1*
X3424600Y4760000D1*
X3424740Y4763562D1*
X3425159Y4767102D1*
X3425854Y4770598D1*
X3426822Y4774029D1*
X3428056Y4777374D1*
X3429548Y4780611D1*
X3431290Y4783722D1*
X3433271Y4786686D1*
X3435477Y4789485D1*
X3441433Y4795638D1*
X3540386Y4894592D1*
X3473545Y4894600D1*
X3470775Y4890375D1*
X3468325Y4887268D1*
X3462103Y4880826D1*
X3435638Y4854362D1*
X3432732Y4851675D1*
X3429625Y4849225D1*
X3426334Y4847027D1*
X3422881Y4845093D1*
X3419287Y4843436D1*
X3415575Y4842067D1*
X3411766Y4840992D1*
X3407884Y4840220D1*
X3403954Y4839755D1*
X3395000Y4839600D1*
X3330000D1*
X3326046Y4839755D1*
X3322116Y4840220D1*
X3318234Y4840992D1*
X3314425Y4842066D1*
X3310713Y4843436D1*
X3307105Y4845101D1*
X3305234Y4845004D1*
X3304738Y4840029D1*
X3303913Y4835099D1*
X3302763Y4830234D1*
X3301293Y4825456D1*
X3299510Y4820785D1*
X3297421Y4816243D1*
X3295036Y4811850D1*
X3292366Y4807624D1*
X3289420Y4803585D1*
X3286214Y4799749D1*
X3282761Y4796135D1*
X3279075Y4792757D1*
X3275174Y4789631D1*
X3271075Y4786770D1*
X3266795Y4784187D1*
X3262353Y4781894D1*
X3257769Y4779900D1*
X3253062Y4778214D1*
X3248255Y4776843D1*
X3243367Y4775794D1*
X3238420Y4775072D1*
X3233437Y4774678D1*
X3228438Y4774616D1*
X3223446Y4774885D1*
X3218483Y4775485D1*
X3213571Y4776412D1*
X3208731Y4777662D1*
X3203984Y4779230D1*
X3199352Y4781110D1*
X3194854Y4783292D1*
X3190511Y4785768D1*
X3186341Y4788526D1*
X3182364Y4791554D1*
X3178596Y4794839D1*
X3175053Y4798366D1*
X3171753Y4802121D1*
X3168708Y4806086D1*
X3165933Y4810244D1*
X3163439Y4814577D1*
X3161238Y4819065D1*
X3159339Y4823689D1*
X3157751Y4828430D1*
X3156481Y4833264D1*
X3155533Y4838173D1*
X3154913Y4843133D1*
X3154623Y4848124D1*
X3154665Y4853123D1*
X3155364Y4860409D1*
X3067897Y4947897D1*
X3065477Y4950515D1*
X3063271Y4953314D1*
X3061290Y4956278D1*
X3059548Y4959389D1*
X3058056Y4962626D1*
X3056822Y4965971D1*
X3055854Y4969402D1*
X3055159Y4972898D1*
X3054740Y4976438D1*
X3054600Y4985000D1*
Y5200000D1*
X3054740Y5203562D1*
X3055159Y5207102D1*
X3055854Y5210598D1*
X3056822Y5214029D1*
X3058056Y5217374D1*
X3059548Y5220611D1*
X3061290Y5223721D1*
X3063271Y5226686D1*
X3065477Y5229485D1*
X3071433Y5235638D1*
X3095394Y5259600D1*
X2943652D1*
X2939420Y5253585D1*
X2936214Y5249749D1*
X2932761Y5246135D1*
X2929075Y5242757D1*
X2925174Y5239631D1*
X2921075Y5236770D1*
X2916795Y5234187D1*
X2912353Y5231894D1*
X2907769Y5229900D1*
X2903062Y5228214D1*
X2898255Y5226843D1*
X2893367Y5225794D1*
X2888420Y5225072D1*
X2883437Y5224678D1*
X2878438Y5224616D1*
X2873446Y5224885D1*
X2868483Y5225485D1*
X2863571Y5226412D1*
X2858731Y5227662D1*
X2853984Y5229230D1*
X2849352Y5231110D1*
X2844854Y5233292D1*
X2840511Y5235768D1*
X2836341Y5238526D1*
X2832364Y5241554D1*
X2828596Y5244839D1*
X2825053Y5248366D1*
X2821753Y5252121D1*
X2818708Y5256086D1*
X2815933Y5260244D1*
X2813439Y5264577D1*
X2811238Y5269065D1*
X2809339Y5273689D1*
X2807751Y5278430D1*
X2806481Y5283264D1*
X2805533Y5288173D1*
X2804913Y5293133D1*
X2804623Y5298124D1*
X2804665Y5303123D1*
X2805037Y5308108D1*
X2805490Y5311298D1*
X2405389Y4911183D1*
X2405400Y4658887D1*
X2409443Y4664923D1*
X2412553Y4668837D1*
X2415915Y4672536D1*
X2419516Y4676004D1*
X2423338Y4679227D1*
X2427365Y4682188D1*
X2431579Y4684877D1*
X2435963Y4687280D1*
X2440496Y4689388D1*
X2445159Y4691190D1*
X2449931Y4692680D1*
X2454791Y4693850D1*
X2459718Y4694696D1*
X2464690Y4695213D1*
X2469686Y4695399D1*
X2474683Y4695254D1*
X2479659Y4694779D1*
X2484593Y4693974D1*
X2489463Y4692845D1*
X2494247Y4691395D1*
X2498925Y4689631D1*
X2503475Y4687562D1*
X2507879Y4685195D1*
X2512116Y4682542D1*
X2516167Y4679613D1*
X2520016Y4676423D1*
X2523645Y4672985D1*
X2527038Y4669314D1*
X2530180Y4665426D1*
X2533058Y4661338D1*
X2535659Y4657069D1*
X2537971Y4652636D1*
X2539984Y4648060D1*
X2541690Y4643361D1*
X2543080Y4638559D1*
X2544149Y4633676D1*
X2544893Y4628733D1*
X2545400Y4620000D1*
X2545234Y4615004D1*
X2544738Y4610029D1*
X2543913Y4605099D1*
X2542763Y4600234D1*
X2541293Y4595456D1*
X2539510Y4590785D1*
X2537421Y4586243D1*
X2534129Y4580414D1*
X2655400Y4580400D1*
Y4359600D1*
X2064600D1*
Y4580400D1*
X2094581D1*
X2094600Y5524590D1*
X2049600Y5524600D1*
Y5695400D1*
X2230400D1*
Y5655419D1*
X2241191Y5655400D1*
X2317897Y5732103D1*
X2320515Y5734523D1*
X2323314Y5736730D1*
X2326278Y5738710D1*
X2329389Y5740452D1*
X2332626Y5741944D1*
X2335971Y5743178D1*
X2339402Y5744146D1*
X2342898Y5744841D1*
X2346438Y5745260D1*
X2355000Y5745400D1*
X3060410D1*
X3055477Y5750515D1*
X3053270Y5753314D1*
X3051290Y5756278D1*
X3049548Y5759389D1*
X3048056Y5762626D1*
X3046822Y5765971D1*
X3045854Y5769401D1*
X3045159Y5772898D1*
X3044740Y5776438D1*
X3044600Y5785000D1*
Y5980000D1*
X3044740Y5983562D1*
X3045159Y5987102D1*
X3045854Y5990599D1*
X3046822Y5994029D1*
X3048055Y5997374D1*
X3049548Y6000611D1*
X3051290Y6003722D1*
X3053270Y6006686D1*
X3055477Y6009485D1*
X3061433Y6015638D1*
X3257897Y6212103D1*
X3260515Y6214523D1*
X3263314Y6216730D1*
X3266278Y6218710D1*
X3269389Y6220452D1*
X3272626Y6221945D1*
X3275971Y6223178D1*
X3279401Y6224146D1*
X3282898Y6224841D1*
X3286438Y6225260D1*
X3295000Y6225400D1*
X3513613D1*
X3513601Y6440399D1*
X3734401D1*
Y6235067D1*
X3740000Y6235400D1*
X3767598D1*
X3767601Y6440399D1*
X3988401D1*
Y6235419D1*
X4021582Y6235400D1*
X4021601Y6440399D1*
X4169042D1*
X4096121Y6452906D1*
X3865651Y6472523D1*
X3634349D1*
X3403879Y6452906D1*
X3175904Y6413817D1*
X2952063Y6355534D1*
X2733973Y6278475D1*
X2523203Y6183203D1*
X2321274Y6070397D1*
X2129637Y5940875D1*
X1949674Y5795565D1*
X1782684Y5635518D1*
X1629877Y5461894D1*
X1492328Y5275918D1*
X1371054Y5078956D1*
X1266923Y4872419D1*
X1180681Y4657796D1*
X1112949Y4436632D1*
X1064219Y4210521D1*
X1034840Y3981092D1*
X1034057Y3962672D1*
X1037768Y3968744D1*
X1043469Y3976958D1*
X1049720Y3984760D1*
X1056493Y3992115D1*
X1063755Y3998987D1*
X1071472Y4005343D1*
X1079608Y4011154D1*
X1088124Y4016392D1*
X1096980Y4021033D1*
X1106134Y4025054D1*
X1115542Y4028437D1*
X1125161Y4031164D1*
X1134944Y4033225D1*
X1144846Y4034608D1*
X1154820Y4035308D1*
X1164818Y4035320D1*
X1174793Y4034646D1*
X1184698Y4033287D1*
X1194487Y4031251D1*
X1204112Y4028547D1*
X1213529Y4025188D1*
X1222693Y4021190D1*
X1231560Y4016571D1*
X1240089Y4011354D1*
X1248240Y4005564D1*
X1255973Y3999226D1*
X1263252Y3992373D1*
X1270043Y3985035D1*
X1276314Y3977248D1*
X1282035Y3969049D1*
X1287179Y3960475D1*
X1291721Y3951569D1*
X1295641Y3942371D1*
X1298919Y3932926D1*
X1301541Y3923278D1*
X1303493Y3913472D1*
X1304767Y3903555D1*
X1305356Y3893575D1*
X1305321Y3885411D1*
X1314590Y3885400D1*
X1314600Y3930400D1*
X1485400D1*
Y3579600D1*
X1314600D1*
Y3624619D1*
X1304668Y3624600D1*
X1305356Y3613575D1*
X1305314Y3605001D1*
X1304627Y3595027D1*
X1303256Y3585123D1*
X1301208Y3575337D1*
X1298492Y3565715D1*
X1295121Y3556302D1*
X1291111Y3547143D1*
X1286482Y3538282D1*
X1281254Y3529759D1*
X1275453Y3521616D1*
X1269107Y3513891D1*
X1262244Y3506620D1*
X1254898Y3499838D1*
X1247103Y3493577D1*
X1238896Y3487867D1*
X1230317Y3482734D1*
X1221404Y3478202D1*
X1212202Y3474294D1*
X1202752Y3471027D1*
X1193101Y3468418D1*
X1183293Y3466478D1*
X1173375Y3465216D1*
X1163393Y3464640D1*
X1153396Y3464750D1*
X1143430Y3465547D1*
X1133542Y3467028D1*
X1123779Y3469184D1*
X1114188Y3472006D1*
X1104813Y3475480D1*
X1095699Y3479591D1*
X1086889Y3484318D1*
X1078425Y3489639D1*
X1070346Y3495530D1*
X1062692Y3501962D1*
X1055497Y3508904D1*
X1048797Y3516325D1*
X1042622Y3524188D1*
X1037003Y3532458D1*
X1034056Y3537363D1*
X1034840Y3518904D1*
X1064220Y3289476D1*
X1112951Y3063365D1*
X1180680Y2842201D1*
X1266925Y2627575D1*
X1371057Y2421041D1*
X1492331Y2224080D1*
X1629872Y2038115D1*
X1782688Y1864481D1*
X1949679Y1704434D1*
X1967532Y1690055D1*
X1963726Y1699300D1*
X1960564Y1708785D1*
X1958061Y1718465D1*
X1956229Y1728294D1*
X1955078Y1738225D1*
X1954611Y1748212D1*
X1954832Y1758208D1*
X1955739Y1768165D1*
X1957328Y1778036D1*
X1959592Y1787774D1*
X1962520Y1797334D1*
X1966098Y1806670D1*
X1970309Y1815738D1*
X1975133Y1824495D1*
X1980548Y1832900D1*
X1986527Y1840913D1*
X1993043Y1848496D1*
X2000065Y1855613D1*
X2007559Y1862231D1*
X2015490Y1868319D1*
X2023821Y1873846D1*
X2029204Y1876982D1*
X2022611Y1880906D1*
X2014335Y1886515D1*
X2006464Y1892680D1*
X1999035Y1899371D1*
X1992083Y1906557D1*
X1985642Y1914204D1*
X1979741Y1922275D1*
X1974409Y1930732D1*
X1969671Y1939536D1*
X1965549Y1948645D1*
X1962063Y1958016D1*
X1959229Y1967604D1*
X1957061Y1977364D1*
X1955568Y1987250D1*
X1954758Y1997215D1*
X1954635Y2007212D1*
X1955200Y2017194D1*
X1956449Y2027114D1*
X1958377Y2036924D1*
X1960974Y2046579D1*
X1964229Y2056033D1*
X1968126Y2065240D1*
X1972646Y2074158D1*
X1977768Y2082744D1*
X1983469Y2090958D1*
X1989720Y2098760D1*
X1996493Y2106115D1*
X2003755Y2112987D1*
X2011472Y2119343D1*
X2019608Y2125154D1*
X2028124Y2130392D1*
X2029204Y2130982D1*
X2022611Y2134906D1*
X2014335Y2140515D1*
X2006464Y2146680D1*
X1999035Y2153371D1*
X1992083Y2160557D1*
X1985642Y2168204D1*
X1979741Y2176275D1*
X1974409Y2184732D1*
X1969671Y2193536D1*
X1965549Y2202645D1*
X1962063Y2212016D1*
X1959229Y2221604D1*
X1957061Y2231364D1*
X1955568Y2241250D1*
X1954758Y2251215D1*
X1954635Y2261212D1*
X1955200Y2271194D1*
X1956449Y2281114D1*
X1958377Y2290924D1*
X1960974Y2300579D1*
X1964229Y2310033D1*
X1968126Y2319240D1*
X1972646Y2328158D1*
X1977768Y2336744D1*
X1983469Y2344958D1*
X1989720Y2352760D1*
X1996493Y2360115D1*
X2003755Y2366987D1*
X2011472Y2373343D1*
X2019608Y2379154D1*
X2028124Y2384392D1*
X2029204Y2384982D1*
X2022611Y2388906D1*
X2014335Y2394515D1*
X2006464Y2400680D1*
X1999035Y2407371D1*
X1992083Y2414557D1*
X1985642Y2422204D1*
X1979741Y2430275D1*
X1974409Y2438732D1*
X1969671Y2447536D1*
X1965549Y2456645D1*
X1962063Y2466016D1*
X1959229Y2475604D1*
X1957061Y2485364D1*
X1955568Y2495250D1*
X1954758Y2505215D1*
X1954635Y2515212D1*
X1955200Y2525194D1*
X1956449Y2535114D1*
X1958377Y2544924D1*
X1960974Y2554579D1*
X1964229Y2564033D1*
X1968126Y2573240D1*
X1972646Y2582158D1*
X1977768Y2590744D1*
X1983469Y2598958D1*
X1989720Y2606760D1*
X1996493Y2614115D1*
X2003755Y2620987D1*
X2011472Y2627343D1*
X2019608Y2633154D1*
X2028124Y2638392D1*
X2029204Y2638982D1*
X2022611Y2642906D1*
X2014335Y2648515D1*
X2006464Y2654680D1*
X1999035Y2661371D1*
X1992083Y2668557D1*
X1985642Y2676204D1*
X1979741Y2684275D1*
X1974409Y2692732D1*
X1969671Y2701536D1*
X1965549Y2710645D1*
X1962063Y2720016D1*
X1959229Y2729604D1*
X1957061Y2739364D1*
X1955568Y2749250D1*
X1954758Y2759215D1*
X1954635Y2769212D1*
X1955200Y2779194D1*
X1956449Y2789114D1*
X1958377Y2798924D1*
X1960974Y2808579D1*
X1964229Y2818033D1*
X1968126Y2827240D1*
X1972646Y2836158D1*
X1977768Y2844744D1*
X1983469Y2852958D1*
X1989720Y2860760D1*
X1996493Y2868115D1*
X2003755Y2874987D1*
X2011472Y2881343D1*
X2019608Y2887154D1*
X2028124Y2892392D1*
X2036980Y2897033D1*
X2046134Y2901054D1*
X2055542Y2904437D1*
X2065161Y2907164D1*
X2074944Y2909225D1*
X2084846Y2910608D1*
X2094820Y2911308D1*
X2104818Y2911320D1*
X2114793Y2910646D1*
X2124698Y2909287D1*
X2134487Y2907251D1*
X2144112Y2904547D1*
X2153529Y2901188D1*
X2162693Y2897190D1*
X2171560Y2892571D1*
X2180089Y2887354D1*
X2188240Y2881564D1*
X2195973Y2875226D1*
X2203252Y2868373D1*
X2210043Y2861035D1*
X2216314Y2853248D1*
X2222035Y2845049D1*
X2227179Y2836475D1*
X2231721Y2827569D1*
X2235641Y2818371D1*
X2238919Y2808926D1*
X2241541Y2799278D1*
X2243493Y2789472D1*
X2244767Y2779555D1*
X2245356Y2769575D1*
X2245314Y2761001D1*
X2244627Y2751027D1*
X2243256Y2741123D1*
X2241208Y2731337D1*
X2238492Y2721715D1*
X2235121Y2712302D1*
X2231111Y2703143D1*
X2226482Y2694282D1*
X2221254Y2685759D1*
X2215453Y2677616D1*
X2209107Y2669891D1*
X2202244Y2662620D1*
X2194898Y2655838D1*
X2187103Y2649577D1*
X2178896Y2643867D1*
X2170774Y2638996D1*
X2175870Y2636036D1*
X2184214Y2630529D1*
X2192161Y2624461D1*
X2199671Y2617862D1*
X2206711Y2610762D1*
X2213245Y2603195D1*
X2219245Y2595197D1*
X2224680Y2586806D1*
X2229526Y2578061D1*
X2233760Y2569004D1*
X2237361Y2559677D1*
X2240313Y2550124D1*
X2242601Y2540392D1*
X2244215Y2530525D1*
X2245147Y2520570D1*
X2245400Y2512000D1*
X2245056Y2502008D1*
X2244027Y2492063D1*
X2242316Y2482212D1*
X2239933Y2472503D1*
X2236887Y2462980D1*
X2233195Y2453688D1*
X2228873Y2444673D1*
X2223941Y2435976D1*
X2218424Y2427638D1*
X2212346Y2419699D1*
X2205738Y2412197D1*
X2198629Y2405166D1*
X2191054Y2398641D1*
X2183049Y2392651D1*
X2174651Y2387226D1*
X2170774Y2384996D1*
X2175870Y2382036D1*
X2184214Y2376529D1*
X2192161Y2370461D1*
X2199671Y2363862D1*
X2206711Y2356762D1*
X2213245Y2349195D1*
X2219245Y2341197D1*
X2224680Y2332806D1*
X2229526Y2324061D1*
X2233760Y2315004D1*
X2237361Y2305677D1*
X2240313Y2296124D1*
X2242601Y2286392D1*
X2244215Y2276525D1*
X2245147Y2266570D1*
X2245400Y2258000D1*
X2245056Y2248008D1*
X2244027Y2238063D1*
X2242316Y2228212D1*
X2239933Y2218503D1*
X2236887Y2208980D1*
X2233195Y2199688D1*
X2228873Y2190673D1*
X2223941Y2181976D1*
X2218424Y2173638D1*
X2212346Y2165699D1*
X2205738Y2158197D1*
X2198629Y2151166D1*
X2191054Y2144641D1*
X2183049Y2138651D1*
X2174651Y2133226D1*
X2170774Y2130996D1*
X2175870Y2128036D1*
X2184214Y2122529D1*
X2192161Y2116461D1*
X2199671Y2109862D1*
X2206711Y2102762D1*
X2213245Y2095195D1*
X2219245Y2087197D1*
X2224680Y2078806D1*
X2229526Y2070061D1*
X2233760Y2061004D1*
X2237361Y2051677D1*
X2240313Y2042124D1*
X2242601Y2032392D1*
X2244215Y2022525D1*
X2245147Y2012570D1*
X2245400Y2004000D1*
X2245056Y1994008D1*
X2244027Y1984063D1*
X2242316Y1974212D1*
X2239933Y1964503D1*
X2236887Y1954980D1*
X2233195Y1945688D1*
X2228873Y1936673D1*
X2223941Y1927976D1*
X2218424Y1919638D1*
X2212346Y1911699D1*
X2205738Y1904197D1*
X2198629Y1897166D1*
X2191054Y1890641D1*
X2183049Y1884651D1*
X2174651Y1879226D1*
X2170774Y1876996D1*
X2175870Y1874036D1*
X2184214Y1868529D1*
X2192161Y1862461D1*
X2199671Y1855862D1*
X2206711Y1848762D1*
X2213245Y1841195D1*
X2219245Y1833197D1*
X2224680Y1824806D1*
X2229526Y1816061D1*
X2233760Y1807004D1*
X2237361Y1797677D1*
X2240313Y1788124D1*
X2242601Y1778392D1*
X2244215Y1768525D1*
X2245147Y1758570D1*
X2245400Y1750000D1*
X2245056Y1740008D1*
X2244027Y1730063D1*
X2242316Y1720212D1*
X2239933Y1710503D1*
X2236887Y1700980D1*
X2233195Y1691688D1*
X2228873Y1682673D1*
X2223941Y1673976D1*
X2218424Y1665638D1*
X2212346Y1657699D1*
X2205738Y1650197D1*
X2198629Y1643166D1*
X2191054Y1636641D1*
X2183049Y1630651D1*
X2174651Y1625226D1*
X2165899Y1620391D1*
X2156837Y1616169D1*
X2147505Y1612579D1*
X2137949Y1609640D1*
X2128214Y1607364D1*
X2118345Y1605762D1*
X2108389Y1604842D1*
X2098394Y1604609D1*
X2088406Y1605063D1*
X2078473Y1606202D1*
X2069235Y1607901D1*
X2129639Y1559125D1*
X2321276Y1429600D1*
X2523194Y1316804D1*
X2733976Y1221523D1*
X2952065Y1144468D1*
X3175907Y1086185D1*
X3403882Y1047094D1*
X3552796Y1034419D1*
X3546341Y1038526D1*
X3542364Y1041554D1*
X3538596Y1044839D1*
X3535053Y1048366D1*
X3531753Y1052121D1*
X3528708Y1056086D1*
X3525933Y1060244D1*
X3523439Y1064577D1*
X3521238Y1069065D1*
X3519339Y1073689D1*
X3517751Y1078430D1*
X3516481Y1083264D1*
X3515533Y1088173D1*
X3514913Y1093133D1*
X3514623Y1098124D1*
X3514665Y1103123D1*
X3515037Y1108108D1*
X3516065Y1114606D1*
X3412100Y1114600D1*
Y1264593D1*
X3406438Y1264740D1*
X3402898Y1265159D1*
X3399402Y1265854D1*
X3395971Y1266822D1*
X3392626Y1268056D1*
X3389389Y1269548D1*
X3386278Y1271290D1*
X3383314Y1273271D1*
X3380515Y1275477D1*
X3374362Y1281433D1*
X3357913Y1297881D1*
X3357900Y1179606D1*
X3349326D1*
X3351690Y1173361D1*
X3353080Y1168559D1*
X3354149Y1163676D1*
X3354893Y1158733D1*
X3355400Y1150000D1*
X3355234Y1145004D1*
X3354738Y1140029D1*
X3353913Y1135099D1*
X3352763Y1130234D1*
X3351293Y1125456D1*
X3349510Y1120785D1*
X3347421Y1116243D1*
X3345036Y1111850D1*
X3342366Y1107624D1*
X3339420Y1103585D1*
X3336214Y1099749D1*
X3332761Y1096135D1*
X3329075Y1092757D1*
X3325174Y1089631D1*
X3321075Y1086770D1*
X3316795Y1084187D1*
X3312353Y1081894D1*
X3307769Y1079900D1*
X3303062Y1078214D1*
X3298255Y1076843D1*
X3293367Y1075794D1*
X3288420Y1075072D1*
X3283437Y1074678D1*
X3278438Y1074616D1*
X3273446Y1074885D1*
X3268483Y1075485D1*
X3263571Y1076412D1*
X3258731Y1077662D1*
X3253984Y1079230D1*
X3249352Y1081110D1*
X3244854Y1083292D1*
X3240511Y1085768D1*
X3236341Y1088526D1*
X3232364Y1091554D1*
X3228596Y1094839D1*
X3225053Y1098366D1*
X3221753Y1102121D1*
X3218708Y1106086D1*
X3215933Y1110244D1*
X3213439Y1114577D1*
X3211238Y1119065D1*
X3209339Y1123689D1*
X3207751Y1128430D1*
X3206481Y1133264D1*
X3205533Y1138173D1*
X3204913Y1143133D1*
X3204623Y1148124D1*
X3204665Y1153123D1*
X3205037Y1158108D1*
X3205739Y1163058D1*
X3206768Y1167950D1*
X3208118Y1172763D1*
X3210703Y1179611D1*
X3202100Y1179606D1*
Y1310406D1*
X3345477Y1310515D1*
X3343271Y1313314D1*
X3341290Y1316279D1*
X3339548Y1319389D1*
X3338056Y1322626D1*
X3336822Y1325971D1*
X3335854Y1329402D1*
X3335159Y1332898D1*
X3334740Y1336438D1*
X3334600Y1347988D1*
X3329075Y1342757D1*
X3325174Y1339631D1*
X3321075Y1336770D1*
X3316795Y1334187D1*
X3312353Y1331894D1*
X3307769Y1329900D1*
X3303062Y1328214D1*
X3298255Y1326843D1*
X3293367Y1325794D1*
X3288420Y1325072D1*
X3283437Y1324678D1*
X3278438Y1324616D1*
X3273446Y1324885D1*
X3268483Y1325485D1*
X3263571Y1326412D1*
X3258731Y1327662D1*
X3253984Y1329230D1*
X3249352Y1331110D1*
X3244854Y1333292D1*
X3240511Y1335768D1*
X3236341Y1338526D1*
X3232364Y1341554D1*
X3228596Y1344839D1*
X3225053Y1348366D1*
X3221753Y1352121D1*
X3218708Y1356086D1*
X3215933Y1360244D1*
X3213439Y1364577D1*
X3211238Y1369065D1*
X3209339Y1373689D1*
X3207751Y1378430D1*
X3206481Y1383264D1*
X3205533Y1388173D1*
X3204913Y1393133D1*
X3204623Y1398124D1*
X3204665Y1403123D1*
X3205037Y1408108D1*
X3205739Y1413058D1*
X3206768Y1417950D1*
X3208118Y1422763D1*
X3210703Y1429611D1*
X3202100Y1429606D1*
Y1560406D1*
X3334581D1*
X3334600Y1598009D1*
X3329075Y1592757D1*
X3325174Y1589631D1*
X3321075Y1586770D1*
X3316795Y1584187D1*
X3312353Y1581894D1*
X3307769Y1579900D1*
X3303062Y1578214D1*
X3298255Y1576843D1*
X3293367Y1575794D1*
X3288420Y1575072D1*
X3283437Y1574678D1*
X3278438Y1574616D1*
X3273446Y1574885D1*
X3268483Y1575485D1*
X3263571Y1576412D1*
X3258731Y1577662D1*
X3253984Y1579230D1*
X3249352Y1581110D1*
X3244854Y1583292D1*
X3240511Y1585768D1*
X3236341Y1588526D1*
X3232364Y1591554D1*
X3228596Y1594839D1*
X3225053Y1598366D1*
X3221753Y1602121D1*
X3218708Y1606086D1*
X3215933Y1610244D1*
X3213439Y1614577D1*
X3211238Y1619065D1*
X3209339Y1623689D1*
X3207751Y1628430D1*
X3206481Y1633264D1*
X3205533Y1638173D1*
X3204913Y1643133D1*
X3204623Y1648124D1*
X3204665Y1653123D1*
X3205037Y1658108D1*
X3205739Y1663058D1*
X3206768Y1667950D1*
X3208118Y1672763D1*
X3210703Y1679611D1*
X3202100Y1679606D1*
Y1810406D1*
X3346299D1*
X3365575Y1829780D1*
X3380528Y1844536D1*
X3383328Y1846743D1*
X3386292Y1848723D1*
X3389402Y1850465D1*
X3392639Y1851958D1*
X3395984Y1853191D1*
X3399415Y1854159D1*
X3402911Y1854854D1*
X3406465Y1855274D1*
X3409601Y1859599D1*
Y2025399D1*
X3457276D1*
X3459548Y2030611D1*
X3461290Y2033721D1*
X3463271Y2036686D1*
X3465477Y2039485D1*
X3467908Y2042112D1*
X3465900Y2045100D1*
X3465100D1*
Y2173596D1*
X3456381Y2173599D1*
X3456400Y2141000D1*
X3456260Y2137438D1*
X3455841Y2133898D1*
X3455146Y2130401D1*
X3454178Y2126971D1*
X3452944Y2123626D1*
X3451452Y2120389D1*
X3449710Y2117278D1*
X3447730Y2114314D1*
X3445523Y2111515D1*
X3439567Y2105362D1*
X3412103Y2077897D1*
X3409485Y2075477D1*
X3406686Y2073270D1*
X3403722Y2071290D1*
X3400611Y2069548D1*
X3397361Y2068051D1*
X3395901Y2065899D1*
Y2045099D1*
X3245101D1*
Y2175899D1*
X3335589D1*
X3335601Y2397447D1*
X3321816Y2418503D1*
X3319294Y2423453D1*
X3317578Y2428736D1*
X3316709Y2434223D1*
X3316600Y2437011D1*
X3312623Y2439600D1*
X3295416D1*
X3295401Y2399599D1*
X3124601D1*
Y2580399D1*
X3295401D1*
Y2540419D1*
X3316582Y2540400D1*
X3316600Y2617000D1*
X3317036Y2622538D1*
X3318333Y2627939D1*
X3320458Y2633071D1*
X3323361Y2637808D1*
X3326968Y2642032D1*
X3331192Y2645639D1*
X3335929Y2648542D1*
X3341061Y2650667D1*
X3346462Y2651964D1*
X3352000Y2652400D1*
X3848777Y2652291D1*
X3854264Y2651422D1*
X3859547Y2649705D1*
X3864496Y2647183D1*
X3868990Y2643918D1*
X3872918Y2639990D1*
X3876183Y2635496D1*
X3878705Y2630547D1*
X3880422Y2625264D1*
X3881291Y2619777D1*
X3881400Y2607000D1*
Y2545418D1*
X3910000Y2545400D1*
X3913562Y2545260D1*
X3917102Y2544841D1*
X3920598Y2544146D1*
X3924029Y2543178D1*
X3927374Y2541944D1*
X3930611Y2540452D1*
X3933721Y2538710D1*
X3936686Y2536729D1*
X3939485Y2534523D1*
X3945638Y2528567D1*
X4028792Y2445413D1*
X4051191Y2445400D1*
X4134613Y2528819D1*
X4134600Y2584590D1*
X4114601Y2584599D1*
Y2735399D1*
X4245401D1*
Y2584599D1*
X4225381D1*
X4225400Y2510000D1*
X4225260Y2506438D1*
X4224841Y2502898D1*
X4224146Y2499402D1*
X4223178Y2495971D1*
X4221944Y2492626D1*
X4220452Y2489389D1*
X4218710Y2486278D1*
X4216730Y2483314D1*
X4214523Y2480515D1*
X4208567Y2474362D1*
X4102103Y2367897D1*
X4099485Y2365477D1*
X4096686Y2363270D1*
X4093722Y2361290D1*
X4090611Y2359548D1*
X4087374Y2358056D1*
X4084029Y2356822D1*
X4080598Y2355854D1*
X4077102Y2355159D1*
X4073562Y2354740D1*
X4065000Y2354600D1*
X4055410D1*
X4055400Y1830000D1*
X4055260Y1826438D1*
X4054841Y1822898D1*
X4054146Y1819402D1*
X4053178Y1815971D1*
X4051944Y1812626D1*
X4050452Y1809389D1*
X4048710Y1806278D1*
X4046730Y1803314D1*
X4044523Y1800515D1*
X4038567Y1794362D1*
X3992103Y1747897D1*
X3989485Y1745477D1*
X3986686Y1743270D1*
X3983722Y1741290D1*
X3980611Y1739548D1*
X3977374Y1738056D1*
X3974029Y1736822D1*
X3970598Y1735854D1*
X3967102Y1735159D1*
X3963548Y1734739D1*
X3960401Y1730399D1*
Y1694599D1*
X3735381Y1694600D1*
X3735400Y1650410D1*
X3767900Y1650406D1*
Y1519606D1*
X3669326D1*
X3671690Y1513361D1*
X3673080Y1508559D1*
X3674149Y1503676D1*
X3674893Y1498733D1*
X3675400Y1490000D1*
X3675234Y1485004D1*
X3674738Y1480029D1*
X3673913Y1475099D1*
X3672763Y1470234D1*
X3671293Y1465456D1*
X3669510Y1460785D1*
X3666965Y1455403D1*
X3822081Y1455399D1*
X3822100Y1585400D1*
X3964620D1*
X3964601Y1590399D1*
X4135401D1*
Y1409599D1*
X3970420D1*
X3970401Y1124599D1*
X3776983D1*
X3779984Y1118060D1*
X3781690Y1113361D1*
X3783080Y1108559D1*
X3784149Y1103676D1*
X3784893Y1098733D1*
X3785400Y1090000D1*
X3785234Y1085004D1*
X3784738Y1080029D1*
X3783913Y1075099D1*
X3782763Y1070234D1*
X3781293Y1065456D1*
X3779510Y1060785D1*
X3777421Y1056243D1*
X3775036Y1051850D1*
X3772366Y1047624D1*
X3769420Y1043585D1*
X3766214Y1039749D1*
X3762761Y1036135D1*
X3759075Y1032757D1*
X3755174Y1029631D1*
X3752084Y1027474D1*
X3865654Y1027477D1*
X4096124Y1047095D1*
X4324099Y1086186D1*
X4547938Y1144470D1*
X4766027Y1221525D1*
X4976797Y1316797D1*
X5178729Y1429603D1*
X5370363Y1559129D1*
X5550326Y1704436D1*
X5717316Y1864485D1*
X5870132Y2038117D1*
X6007672Y2224085D1*
X6128946Y2421044D1*
X6233078Y2627581D1*
X6319323Y2842204D1*
X6387047Y3063355D1*
X6435781Y3289479D1*
X6447321Y3379602D1*
X6415381Y3379599D1*
X6415400Y3340000D1*
X6415260Y3336438D1*
X6414841Y3332898D1*
X6414146Y3329402D1*
X6413178Y3325971D1*
X6411944Y3322626D1*
X6410452Y3319389D1*
X6408710Y3316278D1*
X6406730Y3313314D1*
X6404523Y3310515D1*
X6398567Y3304362D1*
X6305387Y3211181D1*
X6305400Y2950000D1*
X6305260Y2946438D1*
X6304841Y2942898D1*
X6304146Y2939402D1*
X6303178Y2935971D1*
X6301944Y2932626D1*
X6300452Y2929389D1*
X6298710Y2926278D1*
X6296730Y2923314D1*
X6294523Y2920515D1*
X6288567Y2914362D1*
X6232103Y2857897D1*
X6229485Y2855477D1*
X6226686Y2853270D1*
X6223722Y2851290D1*
X6220611Y2849548D1*
X6217374Y2848056D1*
X6214029Y2846822D1*
X6210598Y2845854D1*
X6207102Y2845159D1*
X6203562Y2844740D1*
X6195000Y2844600D1*
X6185410D1*
X6185401Y2654599D1*
X6014601D1*
X6014600Y2994580D1*
X5970000Y2994600D1*
X5966438Y2994740D1*
X5962898Y2995159D1*
X5959402Y2995854D1*
X5955971Y2996822D1*
X5952626Y2998056D1*
X5949389Y2999548D1*
X5946279Y3001290D1*
X5943314Y3003271D1*
X5940515Y3005477D1*
X5934362Y3011433D1*
X5180478Y3765316D1*
X5173437Y3764678D1*
X5168438Y3764616D1*
X5163446Y3764885D1*
X5158483Y3765485D1*
X5153571Y3766412D1*
X5148731Y3767662D1*
X5143984Y3769230D1*
X5139352Y3771110D1*
X5134854Y3773292D1*
X5130511Y3775768D1*
X5126341Y3778526D1*
X5122364Y3781554D1*
X5118596Y3784839D1*
X5115053Y3788366D1*
X5111753Y3792121D1*
X5108708Y3796086D1*
X5105933Y3800244D1*
X5103439Y3804577D1*
X5101238Y3809065D1*
X5099339Y3813689D1*
X5097751Y3818430D1*
X5096481Y3823264D1*
X5095533Y3828173D1*
X5094913Y3833133D1*
X5094623Y3838124D1*
X5094665Y3843123D1*
X5095037Y3848108D1*
X5095739Y3853058D1*
X5096768Y3857950D1*
X5098118Y3862763D1*
X5099785Y3867476D1*
X5101760Y3872069D1*
X5104035Y3876520D1*
X5106600Y3880811D1*
X5109443Y3884923D1*
X5112553Y3888837D1*
X5115915Y3892536D1*
X5119516Y3896004D1*
X5123338Y3899227D1*
X5127365Y3902188D1*
X5131579Y3904877D1*
X5135963Y3907280D1*
X5140496Y3909388D1*
X5145159Y3911190D1*
X5149931Y3912680D1*
X5154791Y3913850D1*
X5159718Y3914696D1*
X5164690Y3915213D1*
X5169686Y3915399D1*
X5174683Y3915254D1*
X5179659Y3914779D1*
X5184593Y3913974D1*
X5189463Y3912845D1*
X5194247Y3911395D1*
X5198925Y3909631D1*
X5203475Y3907562D1*
X5207879Y3905195D1*
X5212116Y3902542D1*
X5216167Y3899613D1*
X5220016Y3896423D1*
X5223645Y3892985D1*
X5227038Y3889314D1*
X5230180Y3885426D1*
X5233058Y3881338D1*
X5235659Y3877069D1*
X5237971Y3872636D1*
X5239984Y3868060D1*
X5241690Y3863361D1*
X5243080Y3858559D1*
X5244149Y3853676D1*
X5244893Y3848733D1*
X5245400Y3840000D1*
X5245234Y3835004D1*
X5244657Y3829548D1*
X5988800Y3085405D1*
X6014590Y3085400D1*
X6014600Y3425400D1*
X6014620Y3875400D1*
X6014600Y4175400D1*
Y4474953D1*
X5239278Y4474928D1*
X5262103Y4452103D1*
X5264523Y4449485D1*
X5266730Y4446686D1*
X5268710Y4443722D1*
X5270452Y4440611D1*
X5271944Y4437374D1*
X5273178Y4434029D1*
X5274146Y4430598D1*
X5274841Y4427102D1*
X5275260Y4423562D1*
X5275400Y4415000D1*
Y4170000D1*
X5275260Y4166438D1*
X5274841Y4162898D1*
X5274146Y4159401D1*
X5273178Y4155971D1*
X5271944Y4152626D1*
X5270452Y4149389D1*
X5268710Y4146278D1*
X5266730Y4143314D1*
X5264523Y4140515D1*
X5258567Y4134362D1*
X5075396Y3951191D1*
X5075400Y3318809D1*
X5429536Y2964670D1*
X5434690Y2965213D1*
X5439686Y2965399D1*
X5444683Y2965254D1*
X5449659Y2964779D1*
X5454593Y2963974D1*
X5459463Y2962845D1*
X5464247Y2961395D1*
X5468925Y2959631D1*
X5473475Y2957562D1*
X5477879Y2955195D1*
X5482116Y2952542D1*
X5486167Y2949613D1*
X5490016Y2946423D1*
X5493645Y2942985D1*
X5497038Y2939314D1*
X5500180Y2935426D1*
X5503058Y2931338D1*
X5505659Y2927069D1*
X5507971Y2922636D1*
X5509984Y2918060D1*
X5511690Y2913361D1*
X5513080Y2908559D1*
X5514149Y2903676D1*
X5514893Y2898733D1*
X5515400Y2890000D1*
X5515234Y2885004D1*
X5514738Y2880029D1*
X5513913Y2875099D1*
X5512763Y2870234D1*
X5511293Y2865456D1*
X5509510Y2860785D1*
X5507421Y2856243D1*
X5505036Y2851850D1*
X5502366Y2847624D1*
X5499420Y2843585D1*
X5496214Y2839749D1*
X5492761Y2836135D1*
X5489075Y2832757D1*
X5485174Y2829631D1*
X5481075Y2826770D1*
X5476795Y2824187D1*
X5472353Y2821894D1*
X5467769Y2819900D1*
X5463062Y2818214D1*
X5458255Y2816843D1*
X5453367Y2815794D1*
X5448420Y2815072D1*
X5443437Y2814678D1*
X5438438Y2814616D1*
X5433446Y2814885D1*
X5428483Y2815485D1*
X5423571Y2816412D1*
X5418731Y2817662D1*
X5413984Y2819230D1*
X5409352Y2821110D1*
X5404854Y2823292D1*
X5400511Y2825768D1*
X5396341Y2828526D1*
X5392364Y2831554D1*
X5388596Y2834839D1*
X5385053Y2838366D1*
X5381753Y2842121D1*
X5379838Y2844614D1*
X4935410Y2844600D1*
X4935400Y2815419D1*
X4960000Y2815400D1*
X4964996Y2815234D1*
X4969971Y2814738D1*
X4974901Y2813913D1*
X4979766Y2812763D1*
X4984544Y2811293D1*
X4989215Y2809510D1*
X4993757Y2807422D1*
X4998150Y2805037D1*
X5002376Y2802366D1*
X5006415Y2799421D1*
X5010251Y2796214D1*
X5013865Y2792761D1*
X5017243Y2789076D1*
X5020369Y2785175D1*
X5023230Y2781075D1*
X5025813Y2776795D1*
X5028106Y2772353D1*
X5030100Y2767769D1*
X5031787Y2763063D1*
X5033157Y2758255D1*
X5034206Y2753367D1*
X5034929Y2748421D1*
X5035322Y2743437D1*
X5035384Y2738438D1*
X5035115Y2733447D1*
X5034516Y2728484D1*
X5033589Y2723571D1*
X5032338Y2718731D1*
X5030770Y2713984D1*
X5028890Y2709352D1*
X5026708Y2704854D1*
X5024233Y2700511D1*
X5021475Y2696342D1*
X5018447Y2692364D1*
X5015162Y2688596D1*
X5011634Y2685054D1*
X5007880Y2681753D1*
X5003915Y2678708D1*
X4999757Y2675933D1*
X4995424Y2673439D1*
X4990936Y2671238D1*
X4986311Y2669339D1*
X4981571Y2667751D1*
X4976736Y2666481D1*
X4971828Y2665533D1*
X4966867Y2664913D1*
X4960000Y2664600D1*
X4935410D1*
X4935400Y2654600D1*
X4764600D1*
Y4304619D1*
X4869601Y2525399D2*
X5485401D1*
X5935401D1*
Y2354599D1*
X5314601D1*
X4864601D1*
Y2525399D1*
X4869601D1*
X6185400Y2954599D2*
Y2939599D1*
X6214591Y2968797D1*
X6214600Y3230000D1*
X6214740Y3233562D1*
X6215159Y3237102D1*
X6215854Y3240598D1*
X6216822Y3244029D1*
X6218056Y3247374D1*
X6219548Y3250611D1*
X6221290Y3253722D1*
X6223270Y3256686D1*
X6225477Y3259485D1*
X6231433Y3265638D1*
X6324613Y3358819D1*
X6324600Y3379590D1*
X6284601Y3379599D1*
X6284600Y3730400D1*
X6324580D1*
X6324600Y3749590D1*
X6284600Y3749600D1*
Y3930400D1*
X6455400D1*
Y3749600D1*
X6415420D1*
X6415400Y3730410D1*
X6455400Y3730400D1*
X6455441Y3443010D1*
X6465160Y3518908D1*
X6474979Y3750003D1*
X6465160Y3981096D1*
X6435780Y4210524D1*
X6387050Y4436635D1*
X6375314Y4474956D1*
X6185410Y4474950D1*
X6185400Y4004600D1*
X6185381Y3554600D1*
X6185400Y3254600D1*
X6185381Y2954600D1*
X4299600Y2595400D2*
X4339581D1*
X4339600Y2669941D1*
X4340041Y2679863D1*
X4341384Y2689769D1*
X4343618Y2699513D1*
X4346723Y2709015D1*
X4350676Y2718197D1*
X4355443Y2726983D1*
X4360985Y2735303D1*
X4367257Y2743087D1*
X4371935Y2748065D1*
X4489589Y2865718D1*
X4489601Y2962399D1*
X4760401D1*
Y2691599D1*
X4627725D1*
X4560414Y2624284D1*
X4560400Y2595410D1*
X4605400Y2595400D1*
Y2264600D1*
X4585381D1*
X4585400Y2230000D1*
X4585234Y2225004D1*
X4584738Y2220029D1*
X4583913Y2215099D1*
X4582763Y2210234D1*
X4581293Y2205456D1*
X4579510Y2200785D1*
X4577422Y2196243D1*
X4575037Y2191850D1*
X4572366Y2187624D1*
X4569421Y2183585D1*
X4566214Y2179749D1*
X4562761Y2176135D1*
X4559076Y2172757D1*
X4555175Y2169631D1*
X4551075Y2166770D1*
X4546795Y2164187D1*
X4542353Y2161894D1*
X4537769Y2159900D1*
X4533063Y2158214D1*
X4528255Y2156843D1*
X4523367Y2155794D1*
X4518421Y2155072D1*
X4513437Y2154678D1*
X4508438Y2154616D1*
X4503447Y2154885D1*
X4498484Y2155485D1*
X4493571Y2156411D1*
X4488731Y2157662D1*
X4483984Y2159230D1*
X4479352Y2161110D1*
X4474854Y2163292D1*
X4470511Y2165767D1*
X4466342Y2168525D1*
X4462364Y2171553D1*
X4458596Y2174838D1*
X4455054Y2178366D1*
X4451741Y2182136D1*
X4449421Y2183585D1*
X4446214Y2179749D1*
X4442761Y2176135D1*
X4439076Y2172757D1*
X4435175Y2169631D1*
X4431075Y2166770D1*
X4426795Y2164187D1*
X4422353Y2161894D1*
X4417769Y2159900D1*
X4413063Y2158214D1*
X4408255Y2156843D1*
X4403367Y2155794D1*
X4398421Y2155072D1*
X4393437Y2154678D1*
X4388438Y2154616D1*
X4383447Y2154885D1*
X4378483Y2155485D1*
X4373571Y2156411D1*
X4368731Y2157662D1*
X4363984Y2159230D1*
X4359352Y2161110D1*
X4354854Y2163292D1*
X4350511Y2165768D1*
X4346342Y2168525D1*
X4342364Y2171554D1*
X4338596Y2174839D1*
X4335054Y2178366D1*
X4331753Y2182121D1*
X4328708Y2186085D1*
X4325933Y2190243D1*
X4323439Y2194576D1*
X4321238Y2199065D1*
X4319339Y2203689D1*
X4317751Y2208429D1*
X4316481Y2213264D1*
X4315533Y2218173D1*
X4314913Y2223133D1*
X4314600Y2230000D1*
Y2264590D1*
X4294600Y2264600D1*
Y2595400D1*
X4299600D1*
X2619601Y2605399D2*
X2659581D1*
X2659600Y2691582D1*
X2634601Y2691599D1*
Y2962399D1*
X2905401D1*
Y2691599D1*
X2880381D1*
X2880400Y2605418D1*
X3045400Y2605400D1*
Y2274600D1*
X2614601Y2274599D1*
Y2605399D1*
X2619601D1*
X3835401Y4684598D2*
Y4675399D1*
X4119601Y2955399D2*
X4134581D1*
X4134600Y3030000D1*
X4134740Y3033562D1*
X4135159Y3037102D1*
X4135854Y3040598D1*
X4136822Y3044029D1*
X4138056Y3047374D1*
X4139548Y3050611D1*
X4141290Y3053722D1*
X4143270Y3056686D1*
X4145477Y3059485D1*
X4151433Y3065638D1*
X4424594Y3338800D1*
X4424600Y3579785D1*
X4418596Y3584839D1*
X4415053Y3588366D1*
X4411753Y3592121D1*
X4408708Y3596086D1*
X4405933Y3600244D1*
X4403439Y3604577D1*
X4401238Y3609065D1*
X4399339Y3613689D1*
X4397751Y3618430D1*
X4396481Y3623264D1*
X4395533Y3628173D1*
X4394913Y3633133D1*
X4394623Y3638124D1*
X4394665Y3643123D1*
X4395037Y3648108D1*
X4395739Y3653058D1*
X4396768Y3657950D1*
X4398118Y3662763D1*
X4399785Y3667476D1*
X4401760Y3672069D1*
X4404035Y3676520D1*
X4406600Y3680811D1*
X4409443Y3684923D1*
X4412553Y3688837D1*
X4415915Y3692536D1*
X4419516Y3696004D1*
X4423338Y3699227D1*
X4427365Y3702188D1*
X4431579Y3704877D1*
X4435963Y3707280D1*
X4440496Y3709388D1*
X4445159Y3711190D1*
X4449931Y3712680D1*
X4454791Y3713850D1*
X4459718Y3714696D1*
X4464690Y3715213D1*
X4469686Y3715399D1*
X4474683Y3715254D1*
X4479659Y3714779D1*
X4484593Y3713974D1*
X4489463Y3712845D1*
X4494247Y3711395D1*
X4498925Y3709631D1*
X4503475Y3707562D1*
X4507879Y3705195D1*
X4512116Y3702542D1*
X4516167Y3699613D1*
X4520016Y3696423D1*
X4523645Y3692985D1*
X4527038Y3689314D1*
X4530180Y3685426D1*
X4533058Y3681338D1*
X4535659Y3677069D1*
X4537971Y3672636D1*
X4539984Y3668060D1*
X4541690Y3663361D1*
X4543080Y3658559D1*
X4544149Y3653676D1*
X4544893Y3648733D1*
X4545400Y3640000D1*
X4545234Y3635004D1*
X4544738Y3630029D1*
X4543913Y3625099D1*
X4542763Y3620234D1*
X4541293Y3615456D1*
X4539510Y3610785D1*
X4537421Y3606243D1*
X4535036Y3601850D1*
X4532366Y3597624D1*
X4529420Y3593585D1*
X4526214Y3589749D1*
X4522761Y3586135D1*
X4519075Y3582757D1*
X4515403Y3579814D1*
X4515400Y3320000D1*
X4515260Y3316438D1*
X4514841Y3312898D1*
X4514146Y3309402D1*
X4513178Y3305971D1*
X4511944Y3302626D1*
X4510452Y3299389D1*
X4508710Y3296278D1*
X4506730Y3293314D1*
X4504523Y3290515D1*
X4498567Y3284362D1*
X4225406Y3011200D1*
X4225400Y2955410D1*
X4245401Y2955399D1*
Y2804599D1*
X4114601D1*
Y2955399D1*
X4119601D1*
X2954601Y3190361D2*
Y3197899D1*
X3315401D1*
Y2982099D1*
X3306475D1*
X3303169Y2958383D1*
X3345608Y2973798D1*
X3345600Y2984400D1*
X3555941D1*
X3555036Y2988462D1*
X3554600Y2994000D1*
X3554709Y3082777D1*
X3555578Y3088264D1*
X3557294Y3093547D1*
X3559816Y3098497D1*
X3563081Y3102991D1*
X3567009Y3106919D1*
X3571503Y3110184D1*
X3576453Y3112706D1*
X3581736Y3114422D1*
X3587223Y3115291D1*
X3600000Y3115400D1*
X3862777Y3115291D1*
X3868264Y3114422D1*
X3873547Y3112706D1*
X3878497Y3110184D1*
X3882991Y3106919D1*
X3886919Y3102991D1*
X3890184Y3098497D1*
X3892706Y3093547D1*
X3894422Y3088264D1*
X3895291Y3082777D1*
X3895400Y3070000D1*
X3895291Y2984223D1*
X3894422Y2978736D1*
X3892706Y2973453D1*
X3890184Y2968503D1*
X3886919Y2964009D1*
X3877961Y2954897D1*
X3857397Y2934333D1*
X3857400Y2899732D1*
X3914601Y2900010D1*
Y2940399D1*
X4085401D1*
Y2759599D1*
X3914601D1*
Y2799189D1*
X3857412Y2798914D1*
X3857400Y2713600D1*
X3345600D1*
Y2724830D1*
X3252611Y2759595D1*
X3124601Y2759599D1*
Y2940399D1*
X3126105D1*
X3127919Y2982111D1*
X2954601Y2982099D1*
Y2990635D1*
X2089622Y2991582D1*
X1894557Y2755927D1*
X1893393Y2747108D1*
X1891475Y2737295D1*
X1888930Y2727626D1*
X1885768Y2718141D1*
X1882003Y2708879D1*
X1877650Y2699878D1*
X1872727Y2691175D1*
X1867255Y2682808D1*
X1861256Y2674809D1*
X1854755Y2667213D1*
X1847779Y2660050D1*
X1840357Y2653351D1*
X1832520Y2647143D1*
X1824299Y2641452D1*
X1815730Y2636301D1*
X1806847Y2631712D1*
X1797687Y2627704D1*
X1788289Y2624293D1*
X1778690Y2621493D1*
X1768932Y2619317D1*
X1759054Y2617773D1*
X1749097Y2616866D1*
X1739102Y2616603D1*
X1729111Y2616982D1*
X1719165Y2618003D1*
X1709305Y2619662D1*
X1699572Y2621951D1*
X1690007Y2624861D1*
X1680649Y2628380D1*
X1671536Y2632494D1*
X1662707Y2637186D1*
X1654197Y2642435D1*
X1646043Y2648221D1*
X1638278Y2654519D1*
X1630934Y2661304D1*
X1624041Y2668546D1*
X1617628Y2676217D1*
X1611722Y2684285D1*
X1606347Y2692715D1*
X1601525Y2701474D1*
X1597277Y2710525D1*
X1593619Y2719830D1*
X1590567Y2729351D1*
X1588134Y2739049D1*
X1586329Y2748883D1*
X1585161Y2758812D1*
X1584633Y2768797D1*
X1584749Y2778794D1*
X1585507Y2788764D1*
X1586905Y2798664D1*
X1588936Y2808454D1*
X1591593Y2818092D1*
X1594864Y2827540D1*
X1598736Y2836759D1*
X1603193Y2845709D1*
X1608216Y2854353D1*
X1613784Y2862658D1*
X1619875Y2870586D1*
X1626464Y2878107D1*
X1633522Y2885188D1*
X1641021Y2891801D1*
X1648930Y2897918D1*
X1657216Y2903514D1*
X1665844Y2908565D1*
X1674779Y2913051D1*
X1683985Y2916953D1*
X1693422Y2920255D1*
X1701030Y2922414D1*
X2005067Y3180967D1*
X2009568Y3184223D1*
X2014522Y3186734D1*
X2019809Y3188439D1*
X2025308Y3189297D1*
X2037963Y3189410D1*
X2954584Y3190355D1*
X4854600Y6035400D2*
X5030400D1*
Y5864600D1*
X4849600D1*
Y5904580D1*
X4836438Y5904740D1*
X4832898Y5905159D1*
X4829402Y5905854D1*
X4825971Y5906822D1*
X4822626Y5908056D1*
X4819389Y5909548D1*
X4816278Y5911290D1*
X4813314Y5913270D1*
X4810515Y5915477D1*
X4804362Y5921433D1*
X4750459Y5975336D1*
X4743437Y5974678D1*
X4738438Y5974616D1*
X4733446Y5974885D1*
X4728483Y5975485D1*
X4723571Y5976412D1*
X4718731Y5977662D1*
X4713984Y5979230D1*
X4709352Y5981110D1*
X4704854Y5983292D1*
X4700511Y5985768D1*
X4696341Y5988526D1*
X4692364Y5991554D1*
X4688596Y5994839D1*
X4685053Y5998366D1*
X4681753Y6002121D1*
X4678708Y6006086D1*
X4675933Y6010244D1*
X4673439Y6014577D1*
X4671238Y6019065D1*
X4669339Y6023689D1*
X4667751Y6028430D1*
X4666481Y6033264D1*
X4665533Y6038173D1*
X4664913Y6043133D1*
X4664623Y6048124D1*
X4664665Y6053123D1*
X4665364Y6060409D1*
X4581184Y6144610D1*
X4509590Y6144600D1*
X4729549Y5924657D1*
X4734690Y5925213D1*
X4739686Y5925399D1*
X4744683Y5925254D1*
X4749659Y5924779D1*
X4754593Y5923974D1*
X4759463Y5922845D1*
X4764247Y5921395D1*
X4768925Y5919631D1*
X4773475Y5917562D1*
X4777879Y5915195D1*
X4782116Y5912542D1*
X4786167Y5909613D1*
X4790016Y5906423D1*
X4793645Y5902985D1*
X4797038Y5899314D1*
X4800180Y5895426D1*
X4803058Y5891338D1*
X4805659Y5887069D1*
X4807971Y5882636D1*
X4809984Y5878060D1*
X4811690Y5873361D1*
X4813080Y5868559D1*
X4814149Y5863676D1*
X4814893Y5858733D1*
X4815400Y5850000D1*
X4815234Y5845004D1*
X4814657Y5839548D1*
X4849594Y5804611D1*
X4849600Y5835400D1*
X5030400D1*
Y5664600D1*
X4849600D1*
Y5704619D1*
X4836438Y5704740D1*
X4832898Y5705159D1*
X4829402Y5705854D1*
X4825971Y5706822D1*
X4822626Y5708056D1*
X4819389Y5709548D1*
X4816279Y5711290D1*
X4813315Y5713271D1*
X4810515Y5715478D1*
X4804362Y5721433D1*
X4750459Y5775336D1*
X4743437Y5774678D1*
X4738438Y5774616D1*
X4733446Y5774885D1*
X4728483Y5775485D1*
X4723571Y5776412D1*
X4718731Y5777662D1*
X4713984Y5779230D1*
X4709352Y5781110D1*
X4704854Y5783292D1*
X4700511Y5785768D1*
X4696341Y5788526D1*
X4692364Y5791554D1*
X4688596Y5794839D1*
X4685053Y5798366D1*
X4681753Y5802121D1*
X4678708Y5806086D1*
X4675933Y5810244D1*
X4673439Y5814577D1*
X4671238Y5819065D1*
X4669339Y5823689D1*
X4667751Y5828430D1*
X4666481Y5833264D1*
X4665533Y5838173D1*
X4664913Y5843133D1*
X4664623Y5848124D1*
X4664665Y5853123D1*
X4665364Y5860409D1*
X4431200Y6094594D1*
X4349590Y6094600D1*
X4729532Y5714674D1*
X4734690Y5715213D1*
X4739686Y5715399D1*
X4744683Y5715254D1*
X4749659Y5714779D1*
X4754593Y5713974D1*
X4759463Y5712845D1*
X4764247Y5711395D1*
X4768925Y5709631D1*
X4773475Y5707562D1*
X4777879Y5705195D1*
X4782116Y5702542D1*
X4786167Y5699613D1*
X4790016Y5696423D1*
X4793645Y5692985D1*
X4797038Y5689314D1*
X4800180Y5685426D1*
X4803058Y5681338D1*
X4805659Y5677069D1*
X4807971Y5672636D1*
X4809984Y5668060D1*
X4811690Y5663361D1*
X4813080Y5658559D1*
X4814149Y5653676D1*
X4814893Y5648733D1*
X4815400Y5640000D1*
X4815234Y5635004D1*
X4814657Y5629548D1*
X4849595Y5594611D1*
X4849600Y5625400D1*
X5030400D1*
Y5454600D1*
X4849600D1*
Y5494580D1*
X4836438Y5494740D1*
X4832898Y5495159D1*
X4829402Y5495854D1*
X4825971Y5496822D1*
X4822626Y5498056D1*
X4819389Y5499548D1*
X4816278Y5501290D1*
X4813314Y5503270D1*
X4810515Y5505477D1*
X4804362Y5511433D1*
X4750459Y5565336D1*
X4743437Y5564678D1*
X4738438Y5564616D1*
X4733446Y5564885D1*
X4728483Y5565485D1*
X4723571Y5566412D1*
X4718731Y5567662D1*
X4713984Y5569230D1*
X4709352Y5571110D1*
X4704854Y5573292D1*
X4700511Y5575768D1*
X4696341Y5578526D1*
X4692364Y5581554D1*
X4688596Y5584839D1*
X4685053Y5588366D1*
X4681753Y5592121D1*
X4678708Y5596086D1*
X4675933Y5600244D1*
X4673439Y5604577D1*
X4671238Y5609065D1*
X4669339Y5613689D1*
X4667751Y5618430D1*
X4666481Y5623264D1*
X4665533Y5628173D1*
X4664913Y5633133D1*
X4664623Y5638124D1*
X4664665Y5643123D1*
X4665364Y5650409D1*
X4271190Y6044605D1*
X3887012Y6044600D1*
X3889984Y6038060D1*
X3891690Y6033361D1*
X3893080Y6028559D1*
X3894149Y6023676D1*
X3894893Y6018733D1*
X3895400Y6010000D1*
X3895234Y6005004D1*
X3894738Y6000029D1*
X3893913Y5995099D1*
X3892763Y5990234D1*
X3891293Y5985456D1*
X3889510Y5980785D1*
X3887421Y5976243D1*
X3885036Y5971850D1*
X3880743Y5965399D1*
X4030400Y5965400D1*
Y5755419D1*
X4289785Y5755400D1*
X4292553Y5758837D1*
X4295915Y5762536D1*
X4299516Y5766004D1*
X4303338Y5769227D1*
X4307365Y5772188D1*
X4311579Y5774877D1*
X4315963Y5777280D1*
X4320496Y5779388D1*
X4325159Y5781190D1*
X4329931Y5782680D1*
X4334791Y5783850D1*
X4339718Y5784696D1*
X4344690Y5785213D1*
X4349686Y5785399D1*
X4354683Y5785254D1*
X4359659Y5784779D1*
X4364593Y5783974D1*
X4369463Y5782845D1*
X4374247Y5781395D1*
X4378925Y5779631D1*
X4383475Y5777562D1*
X4387879Y5775195D1*
X4392116Y5772542D1*
X4396167Y5769613D1*
X4400016Y5766423D1*
X4403645Y5762985D1*
X4407038Y5759314D1*
X4410180Y5755426D1*
X4413058Y5751338D1*
X4415659Y5747069D1*
X4417971Y5742636D1*
X4419984Y5738060D1*
X4421690Y5733361D1*
X4423080Y5728559D1*
X4424149Y5723676D1*
X4424893Y5718733D1*
X4425400Y5710000D1*
X4425234Y5705004D1*
X4424738Y5700029D1*
X4423913Y5695099D1*
X4422763Y5690234D1*
X4421293Y5685456D1*
X4419510Y5680785D1*
X4417421Y5676243D1*
X4415036Y5671850D1*
X4412366Y5667624D1*
X4409420Y5663585D1*
X4406214Y5659749D1*
X4402761Y5656135D1*
X4399075Y5652757D1*
X4395174Y5649631D1*
X4391075Y5646770D1*
X4386795Y5644187D1*
X4382353Y5641894D1*
X4377769Y5639900D1*
X4373062Y5638214D1*
X4368255Y5636843D1*
X4363367Y5635794D1*
X4358420Y5635072D1*
X4353437Y5634678D1*
X4348438Y5634616D1*
X4343446Y5634885D1*
X4338483Y5635485D1*
X4333571Y5636412D1*
X4328731Y5637662D1*
X4323984Y5639230D1*
X4319352Y5641110D1*
X4314854Y5643292D1*
X4310511Y5645768D1*
X4306341Y5648526D1*
X4302364Y5651554D1*
X4298875Y5654595D1*
X4240410Y5654600D1*
X4240400Y5600419D1*
X4435000Y5600400D1*
X4438562Y5600260D1*
X4442102Y5599841D1*
X4445598Y5599146D1*
X4449029Y5598178D1*
X4452374Y5596944D1*
X4455611Y5595452D1*
X4458722Y5593710D1*
X4461686Y5591730D1*
X4464485Y5589523D1*
X4470638Y5583567D1*
X4542103Y5512103D1*
X4544523Y5509485D1*
X4546730Y5506686D1*
X4548710Y5503722D1*
X4550452Y5500611D1*
X4551944Y5497374D1*
X4553178Y5494029D1*
X4554146Y5490598D1*
X4554841Y5487102D1*
X4555260Y5483562D1*
X4555400Y5475000D1*
Y5410410D1*
X4620401Y5410399D1*
Y5189599D1*
X4399601D1*
Y5410399D1*
X4464581D1*
X4464600Y5461191D1*
X4416205Y5509589D1*
X4240410Y5509600D1*
X4240400Y5404600D1*
X4250000Y5400400D1*
X4295000D1*
X4298562Y5400260D1*
X4302102Y5399841D1*
X4305598Y5399146D1*
X4309029Y5398178D1*
X4312374Y5396944D1*
X4315611Y5395452D1*
X4318722Y5393710D1*
X4321686Y5391730D1*
X4324485Y5389523D1*
X4330638Y5383567D1*
X4382103Y5332103D1*
X4384523Y5329485D1*
X4386730Y5326686D1*
X4388710Y5323722D1*
X4390452Y5320611D1*
X4391944Y5317374D1*
X4393178Y5314029D1*
X4394146Y5310598D1*
X4394841Y5307102D1*
X4395260Y5303562D1*
X4395400Y5295000D1*
Y4658809D1*
X4498817Y4555389D1*
X4654941Y4555400D1*
X4654950Y5189590D1*
X4653601Y5189599D1*
Y5410399D1*
X4874401D1*
Y5245067D1*
X5036113Y5245050D1*
X5038118Y5252763D1*
X5039785Y5257476D1*
X5041760Y5262069D1*
X5044035Y5266520D1*
X5046600Y5270811D1*
X5049443Y5274923D1*
X5052553Y5278837D1*
X5055915Y5282536D1*
X5059516Y5286004D1*
X5063338Y5289227D1*
X5067365Y5292188D1*
X5071579Y5294877D1*
X5075963Y5297280D1*
X5080496Y5299388D1*
X5085159Y5301190D1*
X5089931Y5302680D1*
X5094791Y5303850D1*
X5099718Y5304696D1*
X5104690Y5305213D1*
X5109686Y5305399D1*
X5114683Y5305254D1*
X5119659Y5304779D1*
X5124593Y5303974D1*
X5129463Y5302845D1*
X5134247Y5301395D1*
X5138925Y5299631D1*
X5143475Y5297562D1*
X5147879Y5295195D1*
X5152116Y5292542D1*
X5156167Y5289613D1*
X5160016Y5286423D1*
X5163645Y5282985D1*
X5167038Y5279314D1*
X5170180Y5275426D1*
X5173058Y5271338D1*
X5175659Y5267069D1*
X5177971Y5262636D1*
X5179984Y5258060D1*
X5181690Y5253361D1*
X5183080Y5248559D1*
X5183844Y5245069D1*
X6026660Y5245050D1*
X6007669Y5275920D1*
X5870139Y5461875D1*
X5717315Y5635519D1*
X5550324Y5795565D1*
X5370362Y5940875D1*
X5178726Y6070397D1*
X4976794Y6183202D1*
X4766024Y6278477D1*
X4547935Y6355532D1*
X4324096Y6413815D1*
X4242398Y6427824D1*
X4242401Y6235419D1*
X4600000Y6235400D1*
X4603562Y6235260D1*
X4607102Y6234841D1*
X4610598Y6234146D1*
X4614029Y6233178D1*
X4617374Y6231944D1*
X4620611Y6230452D1*
X4623722Y6228710D1*
X4626686Y6226730D1*
X4629485Y6224523D1*
X4635638Y6218567D1*
X4729537Y6124669D1*
X4734690Y6125213D1*
X4739686Y6125399D1*
X4744683Y6125254D1*
X4749659Y6124779D1*
X4754593Y6123974D1*
X4759463Y6122845D1*
X4764247Y6121395D1*
X4768925Y6119631D1*
X4773475Y6117562D1*
X4777879Y6115195D1*
X4782116Y6112542D1*
X4786167Y6109613D1*
X4790016Y6106423D1*
X4793645Y6102985D1*
X4797038Y6099314D1*
X4800180Y6095426D1*
X4803058Y6091338D1*
X4805659Y6087069D1*
X4807971Y6082636D1*
X4809984Y6078060D1*
X4811690Y6073361D1*
X4813080Y6068559D1*
X4814149Y6063676D1*
X4814893Y6058733D1*
X4815400Y6050000D1*
X4815234Y6045004D1*
X4814657Y6039548D1*
X4849595Y6004611D1*
X4849600Y6035400D1*
X4854600D1*
X4235374Y3745000D2*
X4234988Y3730006D1*
X4234139Y3715030D1*
X4232827Y3700088D1*
X4231054Y3685194D1*
X4228822Y3670362D1*
X4226133Y3655605D1*
X4222989Y3640939D1*
X4219394Y3626377D1*
X4215350Y3611933D1*
X4210862Y3597621D1*
X4205934Y3583454D1*
X4200570Y3569446D1*
X4194777Y3555611D1*
X4188558Y3541962D1*
X4181921Y3528511D1*
X4174871Y3515271D1*
X4167416Y3502256D1*
X4159562Y3489477D1*
X4151317Y3476947D1*
X4142689Y3464678D1*
X4133685Y3452681D1*
X4124316Y3440968D1*
X4114589Y3429550D1*
X4104514Y3418438D1*
X4094100Y3407643D1*
X4083358Y3397174D1*
X4072297Y3387043D1*
X4060929Y3377258D1*
X4049264Y3367829D1*
X4037313Y3358765D1*
X4025087Y3350075D1*
X4012599Y3341766D1*
X3999860Y3333848D1*
X3986883Y3326326D1*
X3973680Y3319209D1*
X3960263Y3312504D1*
X3946645Y3306216D1*
X3932839Y3300352D1*
X3918859Y3294918D1*
X3904717Y3289918D1*
X3890428Y3285357D1*
X3876005Y3281240D1*
X3861461Y3277571D1*
X3846811Y3274352D1*
X3832068Y3271588D1*
X3817248Y3269281D1*
X3802362Y3267433D1*
X3787427Y3266045D1*
X3772457Y3265120D1*
X3757464Y3264657D1*
X3742465Y3264658D1*
X3727473Y3265123D1*
X3712502Y3266051D1*
X3697567Y3267440D1*
X3682682Y3269291D1*
X3667862Y3271600D1*
X3653120Y3274366D1*
X3638470Y3277587D1*
X3623927Y3281258D1*
X3609504Y3285377D1*
X3595216Y3289940D1*
X3581075Y3294942D1*
X3567095Y3300379D1*
X3553291Y3306245D1*
X3539674Y3312535D1*
X3526257Y3319242D1*
X3513055Y3326361D1*
X3500079Y3333884D1*
X3487341Y3341805D1*
X3474854Y3350115D1*
X3462630Y3358807D1*
X3450681Y3367873D1*
X3439017Y3377304D1*
X3427650Y3387090D1*
X3416591Y3397223D1*
X3405850Y3407693D1*
X3395438Y3418490D1*
X3385364Y3429603D1*
X3375639Y3441022D1*
X3366271Y3452737D1*
X3357270Y3464735D1*
X3348643Y3477005D1*
X3340400Y3489537D1*
X3332548Y3502317D1*
X3325095Y3515333D1*
X3318047Y3528574D1*
X3311412Y3542026D1*
X3305195Y3555676D1*
X3299403Y3569512D1*
X3294042Y3583521D1*
X3289116Y3597688D1*
X3284630Y3612001D1*
X3280588Y3626446D1*
X3276995Y3641008D1*
X3273853Y3655675D1*
X3271166Y3670432D1*
X3268936Y3685264D1*
X3267166Y3700159D1*
X3265856Y3715101D1*
X3265009Y3730077D1*
X3264625Y3745071D1*
X3264704Y3760070D1*
X3265247Y3775060D1*
X3266253Y3790025D1*
X3267721Y3804953D1*
X3269649Y3819828D1*
X3272036Y3834636D1*
X3274879Y3849364D1*
X3278176Y3863996D1*
X3281923Y3878520D1*
X3286118Y3892921D1*
X3290755Y3907185D1*
X3295831Y3921300D1*
X3301341Y3935251D1*
X3307278Y3949025D1*
X3313639Y3962609D1*
X3320417Y3975990D1*
X3327604Y3989155D1*
X3335195Y4002091D1*
X3343182Y4014787D1*
X3351558Y4027231D1*
X3360314Y4039409D1*
X3369442Y4051311D1*
X3378933Y4062926D1*
X3388779Y4074241D1*
X3398970Y4085247D1*
X3409495Y4095933D1*
X3420346Y4106289D1*
X3431512Y4116304D1*
X3442982Y4125970D1*
X3454745Y4135276D1*
X3466790Y4144215D1*
X3479106Y4152777D1*
X3491680Y4160955D1*
X3504501Y4168740D1*
X3517556Y4176125D1*
X3530833Y4183104D1*
X3544319Y4189669D1*
X3558002Y4195814D1*
X3571868Y4201533D1*
X3585905Y4206821D1*
X3600098Y4211674D1*
X3614434Y4216085D1*
X3628899Y4220051D1*
X3643480Y4223568D1*
X3658163Y4226633D1*
X3672934Y4229243D1*
X3687778Y4231395D1*
X3702682Y4233088D1*
X3717630Y4234319D1*
X3732610Y4235088D1*
X3747606Y4235394D1*
X3762605Y4235236D1*
X3777592Y4234615D1*
X3792552Y4233531D1*
X3807471Y4231986D1*
X3822336Y4229980D1*
X3837132Y4227516D1*
X3851844Y4224596D1*
X3866459Y4221222D1*
X3880963Y4217399D1*
X3895342Y4213129D1*
X3909582Y4208418D1*
X3923670Y4203268D1*
X3937592Y4197686D1*
X3951335Y4191676D1*
X3964885Y4185244D1*
X3978230Y4178397D1*
X3991358Y4171141D1*
X4004255Y4163482D1*
X4016909Y4155429D1*
X4029308Y4146989D1*
X4041441Y4138169D1*
X4053295Y4128979D1*
X4064860Y4119427D1*
X4076124Y4109523D1*
X4087076Y4099275D1*
X4097707Y4088693D1*
X4108006Y4077788D1*
X4117963Y4066570D1*
X4127568Y4055050D1*
X4136813Y4043238D1*
X4145689Y4031147D1*
X4154187Y4018787D1*
X4162298Y4006170D1*
X4170017Y3993309D1*
X4177334Y3980215D1*
X4184243Y3966902D1*
X4190737Y3953381D1*
X4196811Y3939667D1*
X4202458Y3925771D1*
X4207672Y3911707D1*
X4212450Y3897489D1*
X4216786Y3883130D1*
X4220677Y3868644D1*
X4224118Y3854044D1*
X4227106Y3839346D1*
X4229639Y3824562D1*
X4231714Y3809707D1*
X4233329Y3794794D1*
X4234482Y3779839D1*
X4235173Y3764856D1*
X4235400Y3750000D1*
X4235374Y3745000D1*
X2075234Y3475004D2*
X2074738Y3470029D1*
X2073913Y3465099D1*
X2072763Y3460234D1*
X2071293Y3455456D1*
X2069510Y3450785D1*
X2067421Y3446243D1*
X2065036Y3441850D1*
X2062366Y3437624D1*
X2059420Y3433585D1*
X2056214Y3429749D1*
X2052761Y3426135D1*
X2049075Y3422757D1*
X2045174Y3419631D1*
X2041075Y3416770D1*
X2036795Y3414187D1*
X2032353Y3411894D1*
X2027769Y3409900D1*
X2023062Y3408214D1*
X2018255Y3406843D1*
X2013367Y3405794D1*
X2008420Y3405072D1*
X2003437Y3404678D1*
X1998438Y3404616D1*
X1993446Y3404885D1*
X1988483Y3405485D1*
X1983571Y3406412D1*
X1978731Y3407662D1*
X1973984Y3409230D1*
X1969352Y3411110D1*
X1964854Y3413292D1*
X1960511Y3415768D1*
X1956341Y3418526D1*
X1952364Y3421554D1*
X1948596Y3424839D1*
X1945053Y3428366D1*
X1941753Y3432121D1*
X1938708Y3436086D1*
X1935933Y3440244D1*
X1933439Y3444577D1*
X1931238Y3449065D1*
X1929339Y3453689D1*
X1927751Y3458430D1*
X1926481Y3463264D1*
X1925533Y3468173D1*
X1924913Y3473133D1*
X1924623Y3478124D1*
X1924665Y3483123D1*
X1925037Y3488108D1*
X1925739Y3493058D1*
X1926768Y3497950D1*
X1928118Y3502763D1*
X1929785Y3507476D1*
X1931760Y3512069D1*
X1934035Y3516520D1*
X1936600Y3520811D1*
X1939443Y3524923D1*
X1942553Y3528837D1*
X1945915Y3532536D1*
X1949516Y3536004D1*
X1953338Y3539227D1*
X1957365Y3542188D1*
X1961579Y3544877D1*
X1965963Y3547280D1*
X1970496Y3549388D1*
X1975159Y3551190D1*
X1979931Y3552680D1*
X1984791Y3553850D1*
X1989718Y3554696D1*
X1994690Y3555213D1*
X1999686Y3555399D1*
X2004683Y3555254D1*
X2009659Y3554779D1*
X2014593Y3553974D1*
X2019463Y3552845D1*
X2024247Y3551395D1*
X2028925Y3549631D1*
X2033475Y3547562D1*
X2037879Y3545195D1*
X2042116Y3542542D1*
X2046167Y3539613D1*
X2050016Y3536423D1*
X2053645Y3532985D1*
X2057038Y3529314D1*
X2060180Y3525426D1*
X2063058Y3521338D1*
X2065659Y3517069D1*
X2067971Y3512636D1*
X2069984Y3508060D1*
X2071690Y3503361D1*
X2073080Y3498559D1*
X2074149Y3493676D1*
X2074893Y3488733D1*
X2075400Y3480000D1*
X2075234Y3475004D1*
X1995234Y4615004D2*
X1994738Y4610029D1*
X1993913Y4605099D1*
X1992763Y4600234D1*
X1991293Y4595456D1*
X1989510Y4590785D1*
X1987421Y4586243D1*
X1984129Y4580414D1*
X1995400Y4580400D1*
Y4359600D1*
X1734601Y4359599D1*
Y4580399D1*
X1855831Y4580400D1*
X1853439Y4584577D1*
X1851238Y4589065D1*
X1849339Y4593689D1*
X1847751Y4598430D1*
X1846481Y4603264D1*
X1845533Y4608173D1*
X1844913Y4613133D1*
X1844623Y4618124D1*
X1844665Y4623123D1*
X1845037Y4628108D1*
X1845739Y4633058D1*
X1846768Y4637950D1*
X1848118Y4642763D1*
X1849785Y4647476D1*
X1851760Y4652069D1*
X1854035Y4656520D1*
X1856600Y4660811D1*
X1859443Y4664923D1*
X1862553Y4668837D1*
X1865915Y4672536D1*
X1869516Y4676004D1*
X1873338Y4679227D1*
X1877365Y4682188D1*
X1881579Y4684877D1*
X1885963Y4687280D1*
X1890496Y4689388D1*
X1895159Y4691190D1*
X1899931Y4692680D1*
X1904791Y4693850D1*
X1909718Y4694696D1*
X1914690Y4695213D1*
X1919686Y4695399D1*
X1924683Y4695254D1*
X1929659Y4694779D1*
X1934593Y4693974D1*
X1939463Y4692845D1*
X1944247Y4691395D1*
X1948925Y4689631D1*
X1953475Y4687562D1*
X1957879Y4685195D1*
X1962116Y4682542D1*
X1966167Y4679613D1*
X1970016Y4676423D1*
X1973645Y4672985D1*
X1977038Y4669314D1*
X1980180Y4665426D1*
X1983058Y4661338D1*
X1985659Y4657069D1*
X1987971Y4652636D1*
X1989984Y4648060D1*
X1991690Y4643361D1*
X1993080Y4638559D1*
X1994149Y4633676D1*
X1994893Y4628733D1*
X1995400Y4620000D1*
X1995234Y4615004D1*
X2795234Y5835004D2*
X2794738Y5830029D1*
X2793913Y5825099D1*
X2792763Y5820234D1*
X2791293Y5815456D1*
X2789510Y5810785D1*
X2787421Y5806243D1*
X2785036Y5801850D1*
X2782366Y5797624D1*
X2779420Y5793585D1*
X2776214Y5789749D1*
X2772761Y5786135D1*
X2769075Y5782757D1*
X2765174Y5779631D1*
X2761075Y5776770D1*
X2756795Y5774187D1*
X2752353Y5771894D1*
X2747769Y5769900D1*
X2743062Y5768214D1*
X2738255Y5766843D1*
X2733367Y5765794D1*
X2728420Y5765072D1*
X2723437Y5764678D1*
X2718438Y5764616D1*
X2713446Y5764885D1*
X2708483Y5765485D1*
X2703571Y5766412D1*
X2698731Y5767662D1*
X2693984Y5769230D1*
X2689352Y5771110D1*
X2684854Y5773292D1*
X2680511Y5775768D1*
X2676341Y5778526D1*
X2672364Y5781554D1*
X2668596Y5784839D1*
X2665053Y5788366D1*
X2661753Y5792121D1*
X2658708Y5796086D1*
X2655933Y5800244D1*
X2653439Y5804577D1*
X2651238Y5809065D1*
X2649339Y5813689D1*
X2647751Y5818430D1*
X2646481Y5823264D1*
X2645533Y5828173D1*
X2644913Y5833133D1*
X2644623Y5838124D1*
X2644665Y5843123D1*
X2645037Y5848108D1*
X2645739Y5853058D1*
X2646768Y5857950D1*
X2648118Y5862763D1*
X2649785Y5867476D1*
X2651760Y5872069D1*
X2654035Y5876520D1*
X2656600Y5880811D1*
X2659443Y5884923D1*
X2662553Y5888837D1*
X2665915Y5892536D1*
X2669516Y5896004D1*
X2673338Y5899227D1*
X2677365Y5902188D1*
X2681579Y5904877D1*
X2685963Y5907280D1*
X2690496Y5909388D1*
X2695159Y5911190D1*
X2699931Y5912680D1*
X2704791Y5913850D1*
X2709718Y5914696D1*
X2714690Y5915213D1*
X2719686Y5915399D1*
X2724683Y5915254D1*
X2729659Y5914779D1*
X2734593Y5913974D1*
X2739463Y5912845D1*
X2744247Y5911395D1*
X2748925Y5909631D1*
X2753475Y5907562D1*
X2757879Y5905195D1*
X2762116Y5902542D1*
X2766167Y5899613D1*
X2770016Y5896423D1*
X2773645Y5892985D1*
X2777038Y5889314D1*
X2780180Y5885426D1*
X2783058Y5881338D1*
X2785659Y5877069D1*
X2787971Y5872636D1*
X2789984Y5868060D1*
X2791690Y5863361D1*
X2793080Y5858559D1*
X2794149Y5853676D1*
X2794893Y5848733D1*
X2795400Y5840000D1*
X2795234Y5835004D1*
X4095234Y3185004D2*
X4094738Y3180029D1*
X4093913Y3175099D1*
X4092763Y3170234D1*
X4091293Y3165456D1*
X4089510Y3160785D1*
X4087421Y3156243D1*
X4085036Y3151850D1*
X4082366Y3147624D1*
X4079420Y3143585D1*
X4076214Y3139749D1*
X4072761Y3136135D1*
X4069075Y3132757D1*
X4065174Y3129631D1*
X4061075Y3126770D1*
X4056795Y3124187D1*
X4052353Y3121894D1*
X4047769Y3119900D1*
X4043062Y3118214D1*
X4038255Y3116843D1*
X4033367Y3115794D1*
X4028420Y3115072D1*
X4023437Y3114678D1*
X4018438Y3114616D1*
X4013446Y3114885D1*
X4008483Y3115485D1*
X4003571Y3116412D1*
X3998731Y3117662D1*
X3993984Y3119230D1*
X3989352Y3121110D1*
X3984854Y3123292D1*
X3980511Y3125768D1*
X3976341Y3128526D1*
X3972364Y3131554D1*
X3968596Y3134839D1*
X3965053Y3138366D1*
X3961753Y3142121D1*
X3958708Y3146086D1*
X3955933Y3150244D1*
X3953439Y3154577D1*
X3951238Y3159065D1*
X3949339Y3163689D1*
X3947751Y3168430D1*
X3946481Y3173264D1*
X3945533Y3178173D1*
X3944913Y3183133D1*
X3944623Y3188124D1*
X3944665Y3193123D1*
X3945037Y3198108D1*
X3945739Y3203058D1*
X3946768Y3207950D1*
X3948118Y3212763D1*
X3949785Y3217476D1*
X3951760Y3222069D1*
X3954035Y3226520D1*
X3956600Y3230811D1*
X3959443Y3234923D1*
X3962553Y3238837D1*
X3965915Y3242536D1*
X3969516Y3246004D1*
X3973338Y3249227D1*
X3977365Y3252188D1*
X3981579Y3254877D1*
X3985963Y3257280D1*
X3990496Y3259388D1*
X3995159Y3261190D1*
X3999931Y3262680D1*
X4004791Y3263850D1*
X4009718Y3264696D1*
X4014690Y3265213D1*
X4019686Y3265399D1*
X4024683Y3265254D1*
X4029659Y3264779D1*
X4034593Y3263974D1*
X4039463Y3262845D1*
X4044247Y3261395D1*
X4048925Y3259631D1*
X4053475Y3257562D1*
X4057879Y3255195D1*
X4062116Y3252542D1*
X4066167Y3249613D1*
X4070016Y3246423D1*
X4073645Y3242985D1*
X4077038Y3239314D1*
X4080180Y3235426D1*
X4083058Y3231338D1*
X4085659Y3227069D1*
X4087971Y3222636D1*
X4089984Y3218060D1*
X4091690Y3213361D1*
X4093080Y3208559D1*
X4094149Y3203676D1*
X4094893Y3198733D1*
X4095400Y3190000D1*
X4095234Y3185004D1*
X1970900Y3151911D2*
X1970917Y3151925D1*
X1935624Y3121911D2*
X1935640Y3121925D1*
X1900347Y3091911D2*
X1900363Y3091925D1*
X1865070Y3061911D2*
X1865086Y3061925D1*
X1829793Y3031911D2*
X1829809Y3031925D1*
X1794516Y3001911D2*
X1794533Y3001925D1*
X1759239Y2971911D2*
X1759256Y2971925D1*
D26*
X4850000Y4390000D3*
Y4240000D3*
Y4090000D3*
Y3940000D3*
Y3790000D3*
Y3640000D3*
Y3490000D3*
Y3340000D3*
Y3190000D3*
Y3040000D3*
Y2890000D3*
Y2740000D3*
Y2590000D3*
X4950000Y2440000D3*
X5100000D3*
X5250000D3*
X5400000D3*
X5550000D3*
X5700000D3*
X5850000D3*
X6000000D3*
X6100000Y2590000D3*
Y2740000D3*
Y2890000D3*
Y3040000D3*
Y3190000D3*
Y3340000D3*
Y3490000D3*
Y3640000D3*
Y3790000D3*
Y3940000D3*
Y4090000D3*
Y4240000D3*
Y4390000D3*
D27*
X2140000Y5610000D3*
X1970000D3*
D29*
X4450000Y2430000D3*
Y1789967D3*
X2770000Y2440000D3*
Y1799967D3*
D28*
X4000000Y2850000D3*
Y2680000D3*
X3210000Y2850000D3*
Y2680000D3*
Y2490000D3*
Y2320000D3*
D27*
X3930000Y4620000D3*
X4100000D3*
D28*
X3750000D3*
Y4450000D3*
X3180000D3*
Y4620000D3*
D31*
X3320500Y2110500D3*
X3540500D3*
X3670500D3*
X3890500D3*
D28*
X6370000Y4010000D3*
Y3840000D3*
D33*
X3490000Y1680000D3*
Y1810013D3*
X3280000Y1745007D3*
X3490000Y1430000D3*
Y1560013D3*
X3280000Y1495007D3*
X3490000Y1180000D3*
Y1310013D3*
X3280000Y1245007D3*
D35*
X4180000Y2880000D3*
Y2660000D3*
D36*
X3050000Y3090000D3*
X3220000D3*
D37*
X2770000Y1430000D3*
D38*
Y2827000D3*
D37*
X4625000Y1430000D3*
D38*
Y2827000D3*
D41*
X3411000Y2309000D3*
D42*
X3538000D3*
D41*
X3665000D3*
D42*
X3792000D3*
Y2849000D3*
X3665000D3*
X3538000D3*
X3411000D3*
D33*
X3900000Y1520000D3*
Y1650013D3*
X3690000Y1585007D3*
D28*
X1400000Y3670000D3*
Y3840000D3*
D27*
X3870000Y1940000D3*
X3700000D3*
Y1780000D3*
X3870000D3*
X3330000Y1940000D3*
X3500000D3*
X3880000Y1210000D3*
X3710000D3*
D28*
X4050000Y1500000D3*
Y1670000D3*
D27*
X3880000Y1370000D3*
X3710000D3*
D28*
X6370000Y3470000D3*
Y3640000D3*
D27*
X4940000Y5950000D3*
X5110000D3*
X4100000Y4450000D3*
X3930000D3*
X4940000Y5750000D3*
X5110000D3*
X4940000Y5540000D3*
X5110000D3*
D46*
X3430000Y5010000D3*
X3480000D3*
X3530000D3*
X3580000D3*
X3630000D3*
X3680000D3*
X3730000D3*
X3780000D3*
X3830000D3*
X3880000D3*
X3930000D3*
X3980000D3*
D47*
X4125000Y5155000D3*
Y5205000D3*
Y5255000D3*
Y5305000D3*
Y5355000D3*
Y5405000D3*
Y5455000D3*
Y5505000D3*
Y5555000D3*
Y5605000D3*
Y5655000D3*
Y5705000D3*
D46*
X3980000Y5850000D3*
X3930000D3*
X3880000D3*
X3830000D3*
X3780000D3*
X3730000D3*
X3680000D3*
X3630000D3*
X3580000D3*
X3530000D3*
X3480000D3*
X3430000D3*
D47*
X3285000Y5705000D3*
Y5655000D3*
Y5605000D3*
Y5555000D3*
Y5505000D3*
Y5455000D3*
Y5405000D3*
Y5355000D3*
Y5305000D3*
Y5255000D3*
Y5205000D3*
Y5155000D3*
D48*
X2580000Y4470000D3*
X2470000D3*
X2360000D3*
X2250000D3*
X2140000D3*
X2030000D3*
X1920000D3*
X1810000D3*
D49*
X1570000Y4213000D3*
Y5040000D3*
X2950000Y4210000D3*
Y5040000D3*
D50*
X1160000Y3890000D3*
Y3610000D3*
D51*
X1740000Y2772000D3*
Y2264000D3*
D50*
X2100000Y2766000D3*
Y2512000D3*
Y2258000D3*
Y2004000D3*
D52*
X3580000Y4620000D3*
X3350000D3*
Y4440000D3*
X3580000D3*
D50*
X2100000Y1750000D3*
D53*
X4764000Y5300000D3*
X4510000D3*
X3370000Y6330000D3*
X3624000D3*
X3878000D3*
X4132000D3*
G36*
X2870000Y2570000D2*
X3010000D1*
Y2310000D1*
X2870000D1*
Y2570000D1*
G37*
G36*
X2650000Y2050000D2*
X2890000D1*
Y1920000D1*
X2650000D1*
Y2050000D1*
G37*
G36*
X2998000Y3155000D2*
X2028000Y3154000D1*
X1667000Y2847000D1*
X1823000Y2725000D1*
X2073000Y3027000D1*
X2998000Y3026000D1*
Y3155000D1*
G37*
G36*
X3352000Y2437000D2*
Y2617000D1*
X3846000D1*
Y2460000D1*
X3746000D1*
X3705000Y2409000D1*
X3625000Y2408000D1*
X3580000Y2464000D1*
X3496000D1*
X3451000Y2409000D1*
X3371000Y2408000D1*
X3352000Y2437000D1*
G37*
G36*
X3590000Y3080000D2*
X3860000D1*
Y2987000D1*
X3822000Y2949000D1*
X3821000Y2749000D1*
X3636000D1*
Y2948000D1*
X3590000Y2994000D1*
Y3080000D1*
G37*
G36*
X3165000Y3020000D2*
X3276000D1*
X3260000Y2905000D1*
X3381000Y2949000D1*
X3568000D1*
Y2749000D1*
X3382000D1*
X3259000Y2795000D1*
X3161000Y2904000D1*
X3160000Y2905000D1*
X3165000Y3020000D1*
G37*
M02*
